<?xml version="1.0" encoding="UTF-8"?>
<svg width="66px" height="27px" viewBox="0 0 66 27" version="1.1" xmlns="http://www.w3.org/2000/svg" xmlns:xlink="http://www.w3.org/1999/xlink">
    <!-- Generator: Sketch 61.2 (89653) - https://sketch.com -->
    <title>https___upload.wikimedia.org_wikipedia_commons_3_31_AT%26T_logo_2016.svg-0</title>
    <desc>Created with Sketch.</desc>
    <g id="Symbols" stroke="none" stroke-width="1" fill="none" fill-rule="evenodd">
        <g id="https___upload.wikimedia.org_wikipedia_commons_3_31_AT%26T_logo_2016.svg-0" fill="#FFFFFF" fill-rule="nonzero">
            <path d="M60.5519844,19.0849719 C60.3742825,19.0849719 60.2518967,18.9670447 60.2518967,18.7974329 L60.2518967,10.3722141 L57.262242,10.3722141 C57.0844738,10.3722141 56.9618887,10.2547954 56.9618887,10.0849929 L56.9618887,8.92282141 C56.9618887,8.75263745 57.0845402,8.63490092 57.262242,8.63490092 L65.2201779,8.63490092 C65.397747,8.63490092 65.52,8.75276459 65.52,8.92282141 L65.52,10.0849293 C65.52,10.2546047 65.397747,10.3722141 65.2201779,10.3722141 L62.2307225,10.3722141 L62.2307225,18.7973057 C62.2307225,18.9670447 62.107739,19.0849719 61.9306348,19.0849719 L60.5519844,19.0849719 M37.6507558,14.8786245 L36.081388,10.5683993 L34.4979422,14.8786245 L37.6507558,14.8786245 Z M41.1314812,18.7445404 C41.2000783,18.914788 41.0906416,19.0849719 40.8995258,19.0849719 L39.480235,19.0849719 C39.2753732,19.0849719 39.1523897,18.9938088 39.0839253,18.8100838 L38.2789545,16.5902543 L33.8705404,16.5902543 L33.064175,18.8100838 C32.9964411,18.9938723 32.8731255,19.0849719 32.668795,19.0849719 L31.3315818,19.0849719 C31.1538799,19.0849719 31.03083,18.9147244 31.0991615,18.7445404 L34.7980963,8.89669306 C34.8665607,8.71322241 34.9893449,8.63534592 35.1936755,8.63534592 L37.0227563,8.63534592 C37.2276846,8.63534592 37.3642149,8.71328598 37.4324136,8.89669306 L41.1314812,18.7445404 M51.7340936,17.6739771 C52.6072632,17.6739771 53.1944896,17.2697187 53.6723456,16.5770948 L51.4614979,14.3039913 C50.6148242,14.7615236 50.0685703,15.2181024 50.0685703,16.132722 C50.0687031,17.0341821 50.8327016,17.6739771 51.7340936,17.6739771 M52.3482143,10.0194495 C51.6386685,10.0194495 51.2292105,10.450917 51.2292105,11.0255501 C51.2292105,11.4696051 51.4743806,11.8615304 52.0342478,12.4364178 C53.0032409,11.9005004 53.4129646,11.5741185 53.4129646,10.9995489 C53.4129646,10.463568 53.0582249,10.0194495 52.3482143,10.0194495 M58.3954567,18.719175 C58.5726937,18.9022006 58.4637218,19.0849719 58.2447155,19.0849719 L56.5112591,19.0849719 C56.2793037,19.0849719 56.156453,19.0324609 56.0063759,18.8624677 L54.9690512,17.7657125 C54.2730522,18.654013 53.3031294,19.32 51.6928557,19.32 C49.700151,19.32 48.1299863,18.1706066 48.1299863,16.1985832 C48.1299863,14.6828843 48.9767264,13.8728417 50.2599517,13.1937587 C49.6315538,12.5015162 49.3454777,11.7699858 49.3454777,11.1302543 C49.3454777,9.51010549 50.5328795,8.4 52.3206559,8.4 C54.1497367,8.4 55.2692053,9.43229257 55.2692053,10.960261 C55.2692053,12.2664881 54.2866654,12.9973192 53.2489423,13.5463326 L54.7779354,15.1273842 L55.637691,13.6900068 C55.7467957,13.5204585 55.8697128,13.4549151 56.0877894,13.4549151 L57.4115222,13.4549151 C57.6302629,13.4549151 57.7531136,13.5989707 57.6170481,13.8209028 L56.0879886,16.3284621 L58.3954567,18.719175 M44.7735726,19.0849719 C44.9510088,19.0849719 45.0744572,18.9670447 45.0744572,18.7974329 L45.0744572,10.3722141 L48.0632485,10.3722141 C48.2406848,10.3722141 48.3634027,10.2547954 48.3634027,10.0849929 L48.3634027,8.92282141 C48.3634027,8.75263745 48.2406848,8.63490092 48.0632485,8.63490092 L40.1053126,8.63490092 C39.9276108,8.63490092 39.8050257,8.75276459 39.8050257,8.92282141 L39.8050257,10.0849293 C39.8050257,10.2546047 39.9276772,10.3722141 40.1053126,10.3722141 L43.094104,10.3722141 L43.094104,18.7973057 C43.094104,18.9670447 43.2173531,19.0849719 43.3945902,19.0849719 L44.7735726,19.0849719 L44.7735726,19.0849719 Z" id="path5"></path>
            <path d="M5.19833609,24.0552449 C7.47691818,25.8197932 10.336928,26.88 13.439902,26.88 C16.8355834,26.88 19.9312365,25.618777 22.2938135,23.5484539 C22.3224436,23.523147 22.3083246,23.5064066 22.2800867,23.523147 C21.2199208,24.2314774 18.198327,25.7776805 13.4400327,25.7776805 C9.30486931,25.7776805 6.69161496,24.8546669 5.21585409,24.030592 C5.18761612,24.0166634 5.17715761,24.0378505 5.19833609,24.0552449 M14.3522107,24.7422574 C17.6595831,24.7422574 21.2939801,23.8403001 23.4676503,22.0548917 C24.0624779,21.5684377 24.6290676,20.9209876 25.1365013,20.0508764 C25.4286205,19.5502323 25.7143339,18.9554231 25.9470357,18.3707498 C25.9573635,18.3422387 25.9397801,18.3283755 25.9183402,18.3604178 C23.896972,21.3362947 18.0435411,23.1924577 11.9995693,23.1924577 C7.72746482,23.1924577 3.1307544,21.8257567 1.33110662,19.2161426 C1.31339252,19.1920128 1.29567842,19.2023448 1.30646376,19.2300712 C2.98296261,22.794872 8.06906584,24.7422574 14.3522107,24.7422574 M10.7386,18.8284311 C3.85990852,18.8284311 0.616463688,15.6234192 0.0281072406,13.4362399 C0.0208516506,13.40459 0,13.4115216 0,13.4399673 C0,14.1762856 0.0736671165,15.1265025 0.200411162,15.7572121 C0.260874412,16.0642293 0.510636659,16.5460405 0.876815174,16.93009 C2.54246332,18.6669773 6.6951447,21.1007513 13.8869378,21.1007513 C23.6854487,21.1007513 25.9258572,17.8354476 26.3833516,16.7616392 C26.7105068,15.993671 26.88,14.6058482 26.88,13.4400327 C26.88,13.1579299 26.8729405,12.9325877 26.8622859,12.7113653 C26.8622859,12.6754649 26.8414996,12.6725222 26.8343094,12.7075071 C26.3446551,15.3350388 17.9729462,18.8284311 10.7386,18.8284311 M1.29567842,7.67418942 C0.9015234,8.45674016 0.464619223,9.77694714 0.334737625,10.4602322 C0.277804122,10.752994 0.302054788,10.8935876 0.404678898,11.1120636 C1.22913617,12.8620294 5.39940091,15.6620007 15.12699,15.6620007 C21.0615397,15.6620007 25.6716501,14.2034235 26.4185183,11.541757 C26.5560477,11.0517718 26.563434,10.5344526 26.3867506,9.83736971 C26.1893463,9.05841555 25.819638,8.15004985 25.5067325,7.51221247 C25.4964047,7.49141769 25.4781677,7.49449113 25.4818936,7.51907867 C25.5981137,11.0101168 15.866668,13.2600728 10.9565946,13.2600728 C5.63811636,13.2600728 1.20102893,11.1401823 1.20102893,8.46341018 C1.20102893,8.20622191 1.25423659,7.94896825 1.32064811,7.6812518 C1.32731541,7.65679504 1.3063984,7.65274071 1.29567842,7.67418942 M22.3155802,3.38791438 C22.3720562,3.47645567 22.4002288,3.57094768 22.4002288,3.69813588 C22.4002288,5.19143652 17.8317563,7.83315832 10.5593674,7.83315832 C5.21585409,7.83315832 4.21543243,5.85006868 4.21543243,4.58891103 C4.21543243,4.13809588 4.38825927,3.67681796 4.7688836,3.20834687 C4.78966989,3.18048971 4.77202116,3.16976536 4.74803195,3.19049475 C4.05384848,3.77902627 3.41601021,4.44125501 2.85648003,5.15612463 C2.58913442,5.49420329 2.42317096,5.79370044 2.42317096,5.97313716 C2.42317096,8.58667484 8.97385752,10.4816155 15.0989482,10.4816155 C21.6253187,10.4816155 24.5380132,8.35021596 24.5380132,6.47711631 C24.5380132,5.80769441 24.277531,5.41690948 23.6111933,4.65927324 C23.1786686,4.16641079 22.7695448,3.76509769 22.3364972,3.37006225 C22.3155802,3.35279866 22.3010037,3.36685803 22.3155802,3.38791438 M20.3148023,1.8949407 C18.3006243,0.687143243 15.9616444,0 13.4400327,0 C10.9008376,0 8.49139347,0.71114225 6.46995995,1.95091659 C5.86362794,2.32424175 5.52235375,2.62341194 5.52235375,3.00798459 C5.52235375,4.14162707 8.1706441,5.36054124 12.8690635,5.36054124 C17.5187201,5.36054124 21.1250752,4.0254248 21.1250752,2.74026814 C21.1250752,2.43351243 20.8570759,2.21889461 20.3148023,1.8949407" id="path9"></path>
        </g>
    </g>
</svg>