<?xml version="1.0" encoding="UTF-8"?>
<svg width="105px" height="11px" viewBox="0 0 105 11" version="1.1" xmlns="http://www.w3.org/2000/svg" xmlns:xlink="http://www.w3.org/1999/xlink">
    <!-- Generator: Sketch 61.2 (89653) - https://sketch.com -->
    <title>bertelsmann-vector-logo</title>
    <desc>Created with Sketch.</desc>
    <g id="Symbols" stroke="none" stroke-width="1" fill="none" fill-rule="evenodd">
        <g id="bertelsmann-vector-logo" fill="#FFFFFF">
            <path d="M21.8192825,0 C24.2093274,0 25.1924664,1.54266667 25.1924664,3.24133333 C25.1924664,4.87066667 24.2093274,5.85866667 23.0058296,6.27466667 L26.04,10.9026667 L24.0398206,10.9026667 L20.5818834,5.44266667 L20.7852915,5.44266667 C22.361704,5.44266667 23.5143498,4.87066667 23.5143498,3.20666667 C23.5143498,2.132 22.7515695,1.3 21.429417,1.3 L20.0733632,1.3 L20.0733632,10.92 L18.48,10.92 L18.48,0 L21.8192825,0 Z M15.7753846,0 L15.7753846,1.404 L11.0307692,1.404 L11.0307692,4.48933333 L15.1476923,4.48933333 L15.1476923,5.91066667 L11.0307692,5.91066667 L11.0307692,9.516 L15.96,9.516 L15.96,10.92 L9.24,10.92 L9.24,0 L15.7753846,0 Z M34.44,0 L34.44,1.423593 L31.4766147,1.423593 L31.4766147,10.92 L29.8602227,10.92 L29.8602227,1.423593 L26.88,1.423593 L26.88,0 L34.44,0 Z M3.50383562,0 C6.05835616,0 7.04219178,1.25537008 7.04219178,2.69990551 C7.04219178,3.81770079 6.31726027,4.55716535 5.60958904,4.93549606 C6.48986301,5.26223622 7.56,5.98450394 7.56,7.66979528 C7.56,9.37228346 6.38630137,10.92 3.46931507,10.92 L0,10.92 L0,0 L3.50383562,0 Z M42.6553846,0 L42.6553846,1.404 L37.8923077,1.404 L37.9107692,4.48933333 L42.0276923,4.48933333 L42.0276923,5.91066667 L37.9107692,5.91066667 L37.9107692,9.516 L42.84,9.516 L42.84,10.92 L36.12,10.92 L36.12,0 L42.6553846,0 Z M85.3481481,0 L90.8098765,7.55733333 L90.8098765,0 L92.4,0 L92.4,10.92 L91.2419753,10.92 L85.5901235,3.12 L85.5901235,10.92 L84,10.92 L84,0 L85.3481481,0 Z M97.1053799,0 L102.573142,7.55733333 L102.573142,0 L104.16,0 L104.16,10.92 L103.004353,10.92 L97.3468583,3.10266667 L97.3468583,10.92 L95.76,10.92 L95.76,0 L97.1053799,0 Z M78.755595,0 L83.16,10.92 L81.262167,10.92 L80.2774423,8.34047244 L75.8909414,8.34047244 L74.9062167,10.92 L73.08,10.92 L77.5381172,0 L78.755595,0 Z M62.265,0 L65.5725,6.84666667 L68.7575,0 L70.245,0 L71.4,10.92 L69.685,10.92 L68.95,3.068 L65.8525,9.70666667 L65.17,9.70666667 L62.0725,3.24133333 L61.3725,10.92 L59.64,10.92 L60.795,0 L62.265,0 Z M55.0930435,0 C56.6086957,0 57.9052174,0.624482226 58.2521739,0.8438949 L57.6313043,2.10973725 C57.2113043,1.87344668 56.1704348,1.38398764 55.1113043,1.38398764 C53.8513043,1.38398764 53.066087,1.87344668 53.066087,2.76797527 C53.066087,5.0464915 58.8,3.79752705 58.8,7.78071097 C58.8,9.58664606 57.2478261,10.92 54.5086957,10.92 L51.6417391,10.92 L52.3173913,9.51913447 L54.453913,9.51913447 C55.9513043,9.51913447 56.9556522,8.99591963 56.9556522,7.89885626 C56.9556522,5.19839258 51.24,6.61613601 51.24,2.86924266 C51.2582609,1.13081917 52.7556522,0 55.0930435,0 Z M46.9914451,0 L46.9914451,9.48133333 L51.24,9.48133333 L50.6112139,10.92 L45.36,10.92 L45.36,0 L46.9914451,0 Z M3.34849315,1.30696063 L1.60520548,1.30696063 L1.60520548,9.59584252 L3.43479452,9.59584252 C4.86739726,9.59584252 5.88575342,8.95955906 5.88575342,7.79017323 C5.88575342,6.31124409 4.60849315,5.70935433 3.02054795,5.70935433 L2.52,5.70935433 L3.08958904,4.4367874 C3.93534247,4.4367874 5.40246575,4.2992126 5.40246575,2.75149606 C5.40246575,2.02922835 4.93643836,1.30696063 3.34849315,1.30696063 Z M78.0752398,2.59672441 L76.4101599,6.96472441 L79.7403197,6.96472441 L78.0752398,2.59672441 Z" id="Combined-Shape"></path>
        </g>
    </g>
</svg>