<?xml version="1.0" encoding="UTF-8"?>
<svg width="51px" height="16px" viewBox="0 0 51 16" version="1.1" xmlns="http://www.w3.org/2000/svg" xmlns:xlink="http://www.w3.org/1999/xlink">
    <!-- Generator: Sketch 61.2 (89653) - https://sketch.com -->
    <title>path3</title>
    <desc>Created with Sketch.</desc>
    <g id="Customer-Hub" stroke="none" stroke-width="1" fill="none" fill-rule="evenodd">
        <path d="M50.2857143,6.21123337 L43.9261701,6.21123337 L41.9729918,0.00856614491 L40.0200711,6.21123337 L33.6605269,6.21123337 L38.8143324,9.92738249 L36.8348921,15.9717058 L41.9732493,12.2218112 L47.1100617,15.9717058 L45.1306214,9.92738249 L50.2857143,6.21123337 Z M39.6112064,0 L20.5511117,0 C18.8152394,0 17.7675882,0.238294558 16.9102083,0.765761373 C16.196755,1.22158408 15.5317063,1.84691261 15.007237,2.61267406 C14.6470345,3.12612355 14.3576366,3.65333079 14.132864,4.21298555 L14.132864,4.19741074 C14.132864,2.10779063 12.8009643,0.430643428 10.9211655,0.143028651 C10.4224433,0.0700866352 9.58926578,0 8.97081942,0 L0,0 L0,15.9997404 L8.78003309,15.9997404 C11.0632897,15.9997404 12.0633087,15.7334112 12.9196587,14.942211 C13.7041741,14.2229144 14.1089192,13.0940005 14.1089192,11.7758526 C14.1089192,11.7392518 14.1076318,11.7055064 14.106087,11.6691651 C14.7613518,13.544372 15.9235778,14.9017165 17.4346776,15.446056 C18.5044714,15.8289367 19.8863205,16 21.8588091,16 L25.5082091,16 L25.5082091,11.8866933 L22.8742764,11.8866933 C19.7071204,11.8796846 18.6687381,12.1698952 18.1156895,9.84042314 L25.5082091,9.84042314 L25.5082091,6.22810608 L18.1087378,6.2226549 C18.1087378,6.2226549 18.4774369,4.1091535 20.6723808,4.1091535 L22.895904,4.1091535 L27.960367,4.1091535 L27.960367,16 L32.5603514,16 L32.5603514,4.1091535 L38.3426447,4.1091535 L39.6112064,0 Z M3.89477026,4.12161334 L8.86705843,4.12161334 C10.0980293,4.12161334 10.0367511,5.1620105 10.0367511,5.1620105 C10.0367511,6.25017039 8.86268142,6.20396513 8.86268142,6.20396513 L3.89477026,6.20396513 L3.89477026,4.12161334 Z M10.0449902,10.8559006 C10.0449902,11.9440605 8.87298028,11.900451 8.87298028,11.900451 L3.90455417,11.900451 L3.90455417,9.81524387 L8.87735729,9.81524387 C10.1062684,9.81524387 10.0449902,10.8559006 10.0449902,10.8559006 M11.8254051,8.01038324 C12.5620309,7.70615533 13.1884588,7.07641394 13.6032453,6.29793314 C13.5406798,6.78879916 13.5092682,7.30769984 13.5092682,7.86579711 C13.5092682,8.48827026 13.5502062,9.08452581 13.628735,9.65534251 C13.2512819,8.94305464 12.6518884,8.38755317 11.8254051,8.01038324" id="path3" fill="#000000" fill-rule="nonzero"></path>
    </g>
</svg>