<?xml version="1.0" encoding="UTF-8"?>
<svg width="82px" height="16px" viewBox="0 0 82 16" version="1.1" xmlns="http://www.w3.org/2000/svg" xmlns:xlink="http://www.w3.org/1999/xlink">
    <!-- Generator: Sketch 61.2 (89653) - https://sketch.com -->
    <title>Combined Shape</title>
    <desc>Created with Sketch.</desc>
    <g id="Symbols" stroke="none" stroke-width="1" fill="none" fill-rule="evenodd">
        <path d="M76.6563227,3.40193199 C77.833204,3.40193199 78.5329713,3.90716941 79.0100853,4.6818668 L79.0737005,4.6818668 L79.0737005,3.67139195 L82,3.67139195 L82,11.6878257 C82,13.1698555 81.522886,14.3150604 80.7913111,14.9887103 C80.0279286,15.6960426 78.9464701,15.9991851 77.7059736,15.9991851 C75.352211,16.0328676 73.7300233,15.0223927 73.4437548,12.9677606 L76.4018619,12.9677606 C76.5290923,13.3719505 76.9107836,13.7424579 77.6423584,13.7424579 C78.6283941,13.7424579 78.9782777,13.1024905 78.9782777,12.1256982 L78.9782777,11.4520483 L78.9146625,11.4520483 C78.4375485,12.0583332 77.7695888,12.4962056 76.8153607,12.4962056 C74.9387122,12.4962056 73.2847168,11.0141758 73.2847168,8.11748128 C73.2847168,5.45656418 74.6206362,3.40193199 76.6563227,3.40193199 Z M19.1799845,3.46929698 C21.9472459,3.46929698 23.6966641,5.45656418 23.6966641,8.35325875 C23.6966641,11.2836358 21.9472459,13.2372205 19.1799845,13.2372205 C16.412723,13.2372205 14.6314973,11.2836358 14.6314973,8.35325875 C14.6314973,5.42288169 16.412723,3.46929698 19.1799845,3.46929698 Z M28.5950349,3.46929698 C31.3622964,3.46929698 33.0799069,5.42288169 33.0799069,8.35325875 C33.0799069,11.2836358 31.3304888,13.2372205 28.5632273,13.2372205 C25.8277735,13.2372205 24.0465477,11.2836358 24.0465477,8.35325875 C24.0465477,5.42288169 25.8277735,3.46929698 28.5950349,3.46929698 Z M51.3056633,-8.8817842e-14 L51.3056633,4.6481843 L51.3692785,4.6481843 C51.9418154,3.83980442 52.7370054,3.40193199 53.8502715,3.40193199 C56.0449961,3.40193199 57.3173002,5.49024668 57.3173002,8.28589376 C57.3173002,11.4183658 55.9495733,13.2372205 53.6594259,13.2372205 C52.7051978,13.2372205 51.7191621,12.7656656 51.2102405,11.7215082 L51.1784329,11.7215082 L51.1784329,12.9340781 L48.2521334,12.9340781 L48.2521334,-8.8817842e-14 L51.3056633,-8.8817842e-14 Z M62.0884407,3.43561448 C63.3925524,3.43561448 64.3785881,3.87348692 65.1419705,4.6481843 C66.1598138,5.69234165 66.6051202,7.3091014 66.5733126,9.19532112 L60.7207137,9.19532112 C60.8479441,10.3405259 61.3568658,10.9468109 62.2792863,10.9468109 C62.8200155,10.9468109 63.2971296,10.6773509 63.4879752,10.071066 L66.4460822,10.071066 C65.9371606,12.1930632 64.3785881,13.2372205 62.1838635,13.2372205 C59.4802172,13.203538 57.6671839,11.2499533 57.6671839,8.31957625 C57.6671839,5.42288169 59.4802172,3.43561448 62.0884407,3.43561448 Z M13.9953452,-1.70530257e-13 L13.9953452,12.9677606 L10.8463926,12.9677606 L10.8463926,-1.70530257e-13 L13.9953452,-1.70530257e-13 Z M72.6167572,3.50297947 C72.871218,3.50297947 73.030256,3.53666197 73.1256788,3.60402696 L73.1256788,6.43335654 L73.0620636,6.43335654 C71.2490303,6.09653159 70.1993794,7.00595895 70.1993794,9.09427364 L70.1993794,12.9677606 L67.1140419,12.9677606 L67.1140419,3.70507444 L70.0403413,3.70507444 L70.0403413,5.28815171 L70.1039566,5.28815171 C70.7401086,4.0082169 71.5671063,3.50297947 72.6167572,3.50297947 Z M6.01163693,-3.31290551e-13 C7.15671063,-3.31290551e-13 8.0155159,0.303142455 8.65166796,0.808379879 C9.35143522,1.41466479 9.73312645,2.29040966 9.73312645,3.36824949 C9.73312645,4.61450181 9.25601241,5.38919919 8.30178433,5.86075412 L8.30178433,5.92811911 C9.57408844,6.36599155 10.3056633,7.57856136 10.3056633,9.02690865 C10.3056633,10.4078909 9.79674166,11.4857308 8.96974399,12.1593807 C8.26997673,12.6983006 7.37936385,12.9340781 6.17067494,12.9340781 L-3.37507799e-13,12.9340781 L-3.37507799e-13,-3.31290551e-13 L6.01163693,-3.31290551e-13 Z M44.4670287,3.43561448 C46.5027153,3.43561448 47.3615206,5.01869175 47.3615206,7.14068893 L47.3615206,12.9340781 L44.3079907,12.9340781 L44.3079907,7.71329134 C44.3079907,6.77018148 44.0217223,6.16389658 43.2583398,6.16389658 C42.4949573,6.16389658 42.1132661,6.90491146 42.1132661,7.91538631 L42.1132661,12.9340781 L39.0597362,12.9340781 L39.0597362,7.71329134 C39.0597362,6.77018148 38.7734678,6.16389658 38.0100853,6.16389658 C37.2467029,6.16389658 36.8650116,6.90491146 36.8650116,7.91538631 L36.8650116,12.9340781 L33.716059,12.9340781 L33.716059,3.70507444 L33.716059,3.70507444 L36.6423584,3.70507444 L36.6423584,5.08605674 L36.7059736,5.08605674 C37.2785105,4.0082169 38.0737005,3.43561448 39.3460047,3.43561448 C40.4592708,3.43561448 41.2862684,4.0082169 41.6997673,5.01869175 L41.7633825,5.01869175 C42.4631497,3.80612193 43.3855702,3.43561448 44.4670287,3.43561448 Z M19.1163693,5.72602414 C18.1621412,5.72602414 17.7168348,6.73649899 17.7168348,8.35325875 C17.7168348,9.9700185 18.1621412,11.0141758 19.1163693,11.0141758 C20.0705974,10.9804934 20.5477114,9.9700185 20.5477114,8.35325875 C20.5477114,6.73649899 20.0705974,5.72602414 19.1163693,5.72602414 Z M28.5314197,5.72602414 C27.5771916,5.72602414 27.1318852,6.73649899 27.1318852,8.35325875 C27.1318852,9.9700185 27.5771916,11.0141758 28.5314197,11.0141758 C29.4856478,10.9804934 29.9627618,9.9700185 29.9627618,8.35325875 C29.9627618,6.73649899 29.4856478,5.72602414 28.5314197,5.72602414 Z M52.7370054,5.79338913 C51.7827773,5.79338913 51.2102405,6.77018148 51.2102405,8.25221126 C51.2102405,9.73424104 51.8145849,10.7110334 52.7370054,10.7110334 C53.6594259,10.7110334 54.1683476,9.76792354 54.1683476,8.25221126 C54.1683476,6.77018148 53.6594259,5.79338913 52.7370054,5.79338913 Z M5.6935609,7.44383138 L3.33979829,7.44383138 L3.33979829,10.1047485 L5.6935609,10.1047485 L5.6935609,10.071066 C6.42513576,10.071066 6.96586501,9.59951106 6.96586501,8.75744869 C6.96586501,7.84802132 6.39332816,7.44383138 5.6935609,7.44383138 Z M77.7059736,5.89443662 C76.8471683,5.89443662 76.3064391,6.70281649 76.3064391,7.9827513 C76.3064391,9.22900362 76.8471683,10.1047485 77.7059736,10.1047485 C78.5647789,10.1047485 79.1055081,9.19532112 79.1055081,7.9827513 C79.1055081,6.83754647 78.5965865,5.89443662 77.7059736,5.89443662 Z M62.1520559,5.65865915 C61.2932506,5.62497666 60.8161365,6.26494406 60.7207137,7.3427839 L63.5197828,7.3427839 C63.4561676,6.23126157 62.8836307,5.65865915 62.1520559,5.65865915 Z M5.37548487,2.79564708 L3.30799069,2.79564708 L3.30799069,5.01869175 L5.40729247,5.01869175 L5.40729247,5.05237424 C6.04344453,5.05237424 6.52055857,4.6818668 6.52055857,3.90716941 C6.52055857,3.16615453 6.04344453,2.79564708 5.37548487,2.79564708 Z" id="Combined-Shape" fill="#FFFFFF"></path>
    </g>
</svg>