<?xml version="1.0" encoding="utf-8"?>
<!-- Generator: Adobe Illustrator 24.0.2, SVG Export Plug-In . SVG Version: 6.00 Build 0)  -->
<svg version="1.1" id="svg2" xmlns="http://www.w3.org/2000/svg" xmlns:xlink="http://www.w3.org/1999/xlink" x="0px" y="0px"
	 viewBox="0 0 400 260" style="enable-background:new 0 0 400 260;" xml:space="preserve">
<style type="text/css">
	.st0{fill:#231F20;}
</style>
<g>
	<polygon class="st0" points="195,170.2 203.6,170.2 189,206 173.7,170.2 181.8,170.2 181.8,166.6 154.3,166.6 154.3,170.2 
		161.9,170.2 183.5,219.9 188,219.9 208.3,170.2 215.4,170.2 215.4,166.6 195,166.6 	"/>
	<path class="st0" d="M352.1,189c-8.2-3.7-17.3-5.3-17.3-12.4c0-5.1,4.1-7.6,10.5-7.6c11.6,0,12.8,9.3,12.8,14.2h3.6l0.2-12.6
		c-4-3.5-9.3-5.3-16.5-5.3c-11.5,0-18.4,6.3-18.4,14.6c0,12.6,9.8,14.9,15,17c8.9,3.9,13.6,5.6,13.6,12.3c0,4.3-3.2,7.6-11.2,7.6
		c-8.1,0-13.9-5.5-13.9-14.9h-3.7V216c3.9,2.6,9.4,4.7,17.6,4.7c12.2,0,19.9-5.7,19.9-15.9C364.3,197.3,361.1,193.2,352.1,189z"/>
	<path class="st0" d="M308.7,112.8H300V89.3c0-5.2,0.7-10.6,3.4-14.9c2.4-4.1,6.7-7.4,11.7-7.4c8.2,0,8.1,8.6,8.1,15.6v30.3h-8.9
		v3.7l28.9-0.1v-3.7h-8.9V79.5c0-11.1-6.2-17.4-16-17.4c-8.9,0-14.6,4.3-18.3,10.9v-9.5h-20.1v3.9h8.9v45.4h-8.9v3.7h28.8V112.8z"/>
	<polygon class="st0" points="314,142.6 294.6,142.6 294.6,146.3 303.3,146.3 303.3,215.7 285.6,215.7 285.6,142.5 266.4,142.5 
		266.4,146.2 275.2,146.2 275.2,215.6 266.4,215.6 266.4,219.3 266.4,219.5 322.8,219.5 322.8,215.8 314,215.8 	"/>
	<path class="st0" d="M240.6,117.5c7.9,0,12.5-4,16.4-9.9v9h19.2v-3.7h-8.4V82.3c0-15-5.4-20.2-20.1-20.2c-6.7,0-12.7,2.1-16.6,5.4
		v12.7h3.9c0-6.2,2-14.1,12.4-14.1c9.1,0,9.6,6.1,9.6,15.6v2.7c-17-0.5-31.4,4-31.4,17.9C225.6,112,230.4,117.5,240.6,117.5z
		 M236.9,101c0-10.8,6-13,20.1-13.1v4.8c0,6.2-0.2,10.2-4.1,15c-2.3,2.6-5.2,4.3-8.8,4.3C238.2,112,236.6,107.3,236.9,101z"/>
	<path class="st0" d="M173.2,106.9c0,9.6,6.3,11.9,21.5,11.9h7c6.9,0,12.6,1.2,12.6,8.2c0,9.2-9.3,10.3-17.4,10.3
		c-13.8,0-19.5-6.3-19.5-14.9h-3.7v13.5c5.3,3.1,11.7,5.2,23.3,5.5c11.2,0,24.2-2.3,24.2-17.8c0-10.3-7.1-14.7-21.7-14.7H189
		c-7.2,0-10.2-1.3-10.2-5.2c0-3.4,3.5-5.4,7.5-6.2c2.6,1.2,5.9,1.8,9.6,1.8c15.4,0,19.8-11,19.8-18.5c0-3.7-0.9-6.6-2.9-10.3
		c2-1,4.9-1.4,8.2-1.4v-3.7h-13c-3.1-1.9-6.9-3.2-12-3.2c-15.5,0-19.6,11.1-19.6,18.6c-0.1,4.5,1.3,10.4,6.1,14.3
		C177.1,96.5,173.2,100.3,173.2,106.9z M195.9,65.9c8.1,0,9.2,8.3,9.2,14.9c0,6.8-1,14.8-9.2,14.8c-8.1,0-9.2-8-9.2-14.8
		C186.7,74.2,187.9,65.9,195.9,65.9z"/>
	<path class="st0" d="M262.7,189.7c0.3-13.9-9.2-24.4-23.4-24.4c-14,0-23.4,12.9-23.4,27.6c0,15.4,8.1,27.8,23.8,27.8
		c17.9,0,22.1-16.4,22.1-16.4l-3.9-1.2c0,0-3.7,12.8-16,12.8c-12.2,0-13.9-13.5-13.9-25.5v-0.9L262.7,189.7z M238.9,169.1
		c6,0,10.9,4,10.9,16.4h-21.5C228.3,177.8,230.4,169.1,238.9,169.1z"/>
	<path class="st0" d="M140.1,117.5c20.1,0,25.1-18,25.1-27.7s-5-27.6-25.1-27.6c-19.9,0-25.1,17.9-25.1,27.6
		S120.2,117.5,140.1,117.5z M140.1,66.1c12.5,0,12.9,13.1,12.9,23.7c0,10.6-0.4,23.7-12.9,23.7c-12.2,0-12.6-13.1-12.6-23.7
		C127.5,79.2,128,66.1,140.1,66.1z"/>
	<path class="st0" d="M129.2,165.4c-19.9,0-25.1,17.9-25.1,27.6c0.1,9.8,5.2,27.7,25.1,27.7c20.1,0,25.2-17.9,25.2-27.7
		C154.4,183.3,149.3,165.4,129.2,165.4z M129.2,216.7c-12.2,0-12.6-13-12.6-23.7c0-10.6,0.5-23.6,12.6-23.6
		c12.5,0,12.9,13,12.9,23.6C142.1,203.7,141.7,216.7,129.2,216.7z"/>
	<polygon class="st0" points="66.2,112.9 57,112.9 57,78.9 91,78.9 91,112.9 81.8,112.9 81.8,116.6 112.3,116.6 112.3,112.9 
		103.1,112.9 103.1,42.9 112.3,42.9 112.3,39.2 81.8,39.2 81.8,42.9 91,42.9 91,74.6 57,74.6 57,42.9 67.2,42.9 67.2,39.2 
		35.5,39.2 35.5,42.9 44.7,42.9 44.7,112.9 35.5,112.9 35.5,116.6 66.2,116.6 	"/>
	<path class="st0" d="M69.7,215.6H57v-69.4h9.2v-3.7H35.5v3.7h9.2v69.4h-9.2v3.7h60.2v-25.8h-3.9C91.8,207,83,215.6,69.7,215.6z"/>
</g>
</svg>
