<?xml version="1.0" encoding="UTF-8"?>
<svg width="84px" height="18px" viewBox="0 0 84 18" version="1.1" xmlns="http://www.w3.org/2000/svg" xmlns:xlink="http://www.w3.org/1999/xlink">
    <!-- Generator: Sketch 53.2 (72643) - https://sketchapp.com -->
    <title>Group 26</title>
    <desc>Created with Sketch.</desc>
    <defs>
        <polygon id="path-1" points="0.5421 0.7159 5.401 0.7159 5.401 8.1019 0.5421 8.1019"></polygon>
        <polygon id="path-3" points="0 17.0066 83.401 17.0066 83.401 -0.0004 0 -0.0004"></polygon>
    </defs>
    <g id="📮-Email-Template" stroke="none" stroke-width="1" fill="none" fill-rule="evenodd">
        <g id="Artboard" transform="translate(-317.000000, -2043.000000)">
            <g id="Group-26" transform="translate(317.000000, 2043.000000)">
                <path d="M66.1804,12.1085 C65.8694,10.8065 65.5584,9.5625 65.2664,8.3375 L65.1114,8.3375 C64.8004,9.5825 64.5084,10.8255 64.1784,12.1085 L62.2734,12.1085 C61.7484,9.6795 61.2434,7.2305 60.6994,4.7425 L62.7014,4.7425 C62.9144,5.8695 63.1484,7.0165 63.3624,8.1635 C63.4004,8.1635 63.4394,8.1825 63.4784,8.1825 C63.7504,7.0355 64.0224,5.9085 64.3144,4.7425 L66.0834,4.7425 C66.3554,5.8695 66.6274,6.9775 66.8994,8.0855 L67.0554,8.0855 C67.2874,6.9775 67.5014,5.8695 67.7354,4.7425 L69.6204,4.7425 C69.0954,7.2305 68.5714,9.6595 68.0464,12.1285 C67.4044,12.1085 66.8214,12.1085 66.1804,12.1085" id="Fill-1" fill="#000000"></path>
                <path d="M54.4021,12.089 L52.5941,12.089 C51.8951,10.923 51.1561,9.718 50.4371,8.493 C50.3981,8.513 50.3401,8.513 50.3011,8.532 L50.3011,12.05 L48.4741,12.05 L48.4741,4.742 L50.5151,4.742 C51.1171,5.753 51.7581,6.822 52.3811,7.891 C52.4191,7.872 52.4781,7.852 52.5161,7.852 L52.5161,4.762 L54.3821,4.762 C54.4021,7.152 54.4021,9.582 54.4021,12.089" id="Fill-3" fill="#000000"></path>
                <path d="M74.4211,8.338 C75.0431,8.163 75.6261,8.086 76.0731,7.794 C76.2481,7.677 76.2091,6.841 76.0341,6.725 C75.5871,6.453 74.9841,6.414 74.4011,6.278 C74.4211,7.036 74.4211,7.561 74.4211,8.338 M77.0061,9.524 C77.2001,9.99 77.3751,10.398 77.5501,10.806 C77.7061,11.195 77.8801,11.584 78.0751,12.05 L76.0341,12.05 C75.7431,11.351 75.4121,10.612 75.1011,9.874 L74.4011,9.874 L74.4011,12.05 L72.4971,12.05 L72.4971,4.723 C73.7991,4.723 75.0821,4.665 76.3451,4.742 C77.1811,4.8 77.8031,5.287 78.0171,6.142 C78.2891,7.211 78.2501,8.221 77.4921,9.115 C77.3561,9.271 77.2001,9.368 77.0061,9.524" id="Fill-5" fill="#000000"></path>
                <path d="M31.4284,8.591 C31.3894,8.183 31.3694,7.833 31.3114,7.483 C31.1954,6.802 30.8064,6.492 30.1064,6.511 C29.4464,6.53 29.0374,6.841 28.9794,7.483 C28.9214,8.183 28.9214,8.883 28.9984,9.582 C29.0564,10.146 29.4264,10.457 30.0294,10.476 C30.6514,10.495 31.1174,10.301 31.2724,9.66 C31.3694,9.271 31.3894,8.902 31.4284,8.591 M33.3914,8.396 L33.3914,8.766 C33.3524,11.953 31.2724,12.556 28.8824,12.031 C28.0854,11.856 27.4824,11.331 27.2304,10.534 C26.7634,9.174 26.7444,7.775 27.1714,6.395 C27.4824,5.423 28.1624,4.84 29.1734,4.684 C29.6594,4.606 30.1844,4.548 30.6704,4.606 C32.2444,4.762 33.0604,5.539 33.2944,7.113 C33.3524,7.541 33.3714,7.969 33.4104,8.377 C33.4104,8.396 33.3914,8.396 33.3914,8.396" id="Fill-7" fill="#000000"></path>
                <path d="M26.5305,12.07 L24.6255,12.07 L24.6255,9.31 L22.5465,9.31 L22.5465,12.05 L20.6025,12.05 L20.6025,4.742 L22.5265,4.742 L22.5265,7.289 L24.6065,7.289 L24.6065,4.742 L26.5695,4.742 C26.5305,7.172 26.5305,9.601 26.5305,12.07" id="Fill-9" fill="#000000"></path>
                <path d="M58.9694,9.2516 L57.8024,9.2516 L57.8024,7.6966 L60.8934,7.6966 C60.8154,8.7466 60.7384,9.7956 60.6214,10.8256 C60.5824,11.0786 60.4074,11.3506 60.2134,11.5256 C59.2024,12.4196 57.9784,12.3226 56.7924,12.0886 C55.8204,11.8946 55.1984,11.1756 55.0624,10.2236 C54.9264,9.1926 54.8484,8.1246 54.9654,7.0946 C55.1204,5.6166 55.9174,4.8976 57.3954,4.6646 C58.4644,4.5086 59.4944,4.6456 60.5244,5.2086 C60.1744,5.7526 59.8444,6.2776 59.5324,6.7636 C59.0274,6.6866 58.6004,6.5696 58.1534,6.5496 C57.3754,6.5106 56.9674,6.8216 56.8894,7.6186 C56.8314,8.2606 56.8314,8.9206 56.8894,9.5626 C56.9674,10.3006 57.4924,10.6896 58.1924,10.6116 C58.8334,10.4956 59.0474,10.1456 58.9694,9.2516" id="Fill-11" fill="#000000"></path>
                <path d="M33.819,4.7228 L35.762,4.7228 C35.762,6.2778 35.743,7.8128 35.762,9.3288 C35.782,10.1648 36.015,10.4178 36.754,10.4368 C37.55,10.4758 37.881,10.2038 37.881,9.3878 C37.901,8.0858 37.881,6.7838 37.881,5.4618 L37.881,4.7028 L39.708,4.7028 L39.708,10.3788 C39.708,10.4758 39.689,10.5738 39.65,10.6708 C39.28,11.7978 38.056,12.3808 36.384,12.2248 C34.81,12.0888 33.897,11.4288 33.839,10.1848 C33.76,8.3958 33.819,6.5888 33.819,4.7228" id="Fill-13" fill="#000000"></path>
                <g id="Group-17" transform="translate(78.000000, 4.006600)">
                    <mask id="mask-2" fill="white">
                        <use xlink:href="#path-1"></use>
                    </mask>
                    <g id="Clip-16"></g>
                    <path d="M2.4851,6.3529 L5.3811,6.3529 L5.3811,8.1019 L1.3191,8.1019 L0.5421,8.1019 L0.5421,0.7159 L5.4011,0.7159 L5.4011,2.4659 L2.5051,2.4659 L2.5051,3.4179 L5.2841,3.4179 L5.2841,5.1859 L2.5241,5.1859 C2.4851,5.6139 2.4851,5.9449 2.4851,6.3529" id="Fill-15" fill="#000000" mask="url(#mask-2)"></path>
                </g>
                <path d="M43.634,10.3595 C43.654,10.1065 43.654,9.9315 43.673,9.6985 C43.479,9.5825 43.323,9.4655 43.129,9.4065 C42.701,9.2715 42.254,9.1925 41.827,9.0575 C40.486,8.6295 40.058,7.9885 40.136,6.5885 C40.194,5.5195 40.816,4.8395 42.06,4.6255 C43.168,4.4315 44.256,4.5285 45.364,5.0725 C45.112,5.5975 44.859,6.1025 44.587,6.6475 C43.751,6.5495 42.934,6.0835 41.924,6.7055 C42.176,6.9585 42.351,7.2495 42.585,7.3465 C43.11,7.5605 43.693,7.6775 44.237,7.8715 C45.267,8.2605 45.636,8.8435 45.636,10.0095 C45.617,11.0395 45.209,11.7005 44.237,11.9915 C42.74,12.4395 41.282,12.2645 39.766,11.5455 C40.116,11.0005 40.408,10.5345 40.719,10.0285 C41.652,10.3795 42.565,10.7485 43.634,10.3595" id="Fill-18" fill="#000000"></path>
                <mask id="mask-4" fill="white">
                    <use xlink:href="#path-3"></use>
                </mask>
                <g id="Clip-21"></g>
                <polygon id="Fill-20" fill="#000000" mask="url(#mask-4)" points="45.947 12.0696 47.832 12.0696 47.832 4.7226 45.947 4.7226"></polygon>
                <polygon id="Fill-22" fill="#000000" mask="url(#mask-4)" points="70.029 12.0886 71.914 12.0886 71.914 4.7416 70.029 4.7416"></polygon>
                <path d="M6.3166,5.403 C6.0646,5.403 5.8306,5.384 5.5786,5.403 L5.5786,7.444 C5.2286,7.424 4.8986,7.424 4.5476,7.444 L4.5476,5.423 L2.1766,5.423 L2.1766,11.428 L4.5476,11.428 L4.5476,9.232 L5.5786,9.232 L5.5786,11.428 L7.5996,11.428 C7.1716,9.388 6.7446,7.405 6.3166,5.403 L6.3166,5.403 Z M10.9036,7.599 C11.1756,8.863 11.3116,10.146 11.5056,11.409 L14.0906,11.409 C14.5186,9.407 14.9656,7.405 15.3936,5.403 L13.2746,5.403 C13.0996,6.647 12.9636,7.872 12.7696,9.096 L12.7306,9.096 C12.5556,7.872 12.3616,6.647 12.1866,5.403 L9.7176,5.403 C9.5236,6.647 9.3686,7.91 9.1156,9.135 C8.9406,7.891 8.7856,6.647 8.6096,5.403 C7.8916,5.403 7.2106,5.384 6.4916,5.423 C6.9196,7.424 7.3466,9.426 7.7746,11.409 L10.3596,11.409 C10.5536,10.126 10.7286,8.863 10.9036,7.599 L10.9036,7.599 Z M-0.0004,17.007 L17.1036,17.007 L17.1036,0.001 L-0.0004,0.001 L-0.0004,17.007 Z" id="Fill-23" fill="#EB3125" mask="url(#mask-4)"></path>
                <path d="M10.9035,7.5993 C10.7285,8.8633 10.5345,10.1453 10.3595,11.4093 L7.7745,11.4093 C7.3465,9.4073 6.9195,7.4243 6.4915,5.4223 C7.2105,5.3843 7.8915,5.4223 8.6105,5.4033 C8.7855,6.6473 8.9405,7.8913 9.1155,9.1353 C9.3685,7.9103 9.5235,6.6473 9.7175,5.4033 L12.1865,5.4033 C12.3615,6.6273 12.5555,7.8713 12.7305,9.0963 L12.7695,9.0963 C12.9645,7.8713 13.0995,6.6473 13.2755,5.4033 L15.3935,5.4033 C14.9655,7.4053 14.5185,9.4073 14.0915,11.4093 L11.5065,11.4093 C11.3115,10.1453 11.1755,8.8633 10.9035,7.5993" id="Fill-24" fill="#F5F4F4" mask="url(#mask-4)"></path>
                <path d="M6.3166,5.403 C6.7446,7.405 7.1716,9.388 7.6186,11.389 L5.5976,11.389 L5.5976,9.193 L4.5676,9.193 L4.5676,11.389 L2.1966,11.389 L2.1966,5.384 L4.5676,5.384 L4.5676,7.405 C4.9176,7.405 5.2476,7.386 5.5976,7.405 L5.5976,5.364 C5.8306,5.384 6.0646,5.403 6.3166,5.403" id="Fill-25" fill="#F5F4F4" mask="url(#mask-4)"></path>
            </g>
        </g>
    </g>
</svg>