<?xml version="1.0" encoding="UTF-8"?>
<svg width="70px" height="20px" viewBox="0 0 70 20" version="1.1" xmlns="http://www.w3.org/2000/svg" xmlns:xlink="http://www.w3.org/1999/xlink">
    <!-- Generator: Sketch 61.2 (89653) - https://sketch.com -->
    <title>Combined Shape</title>
    <desc>Created with Sketch.</desc>
    <g id="Symbols" stroke="none" stroke-width="1" fill="none" fill-rule="evenodd">
        <path d="M46.6470755,6.84698929 C49.4021698,6.84698929 51.8158491,8.94640211 51.8158491,11.7852472 C51.8151887,14.5842465 49.5883962,16.7241583 46.999717,16.7241583 C45.8546226,16.7241583 45.0529245,16.3936347 44.280283,15.6444043 L44.280283,15.6444043 L44.280283,20 L41.9623585,20 L41.9623585,11.9328724 C41.9623585,8.91439488 44.1686792,6.84698929 46.6470755,6.84698929 Z M45.5553388,0.583189834 C46.1342992,0.0123832771 47.0039026,-0.15718009 47.7585541,0.153586422 C48.5132055,0.464352934 49.0042436,1.1942304 49.0026415,2.00279392 C49,2.17066856 48.9762264,2.33788999 48.9306604,2.50053896 L48.9306604,2.50053896 L55.3184906,7.42181342 C56.0157627,6.86692646 56.8488796,6.50412698 57.7334906,6.37014739 L57.7334906,6.37014739 L57.7334906,4.06628025 C57.1052327,3.7758409 56.7025397,3.15317723 56.6993396,2.46722531 L56.6993396,2.46722531 L56.6993396,2.41431541 C56.6993396,1.43449882 57.5023549,0.640200534 58.4929245,0.640200534 L58.4929245,0.640200534 L58.5464151,0.640200534 C59.5369811,0.640200534 60.34,1.43450233 60.34,2.41431541 L60.34,2.41431541 L60.34,2.46722531 C60.3367999,3.15317723 59.9341069,3.7758409 59.3058491,4.06628025 L59.3058491,4.06628025 L59.3058491,6.37014739 C61.4158403,6.6869334 63.1037336,8.26894489 63.537086,10.3359582 C63.9704384,12.4029715 63.0577255,14.5184311 61.2490831,15.6390249 C59.4404407,16.7596187 57.1178562,16.648676 55.4267925,15.3609122 L55.4267925,15.3609122 L53.5341509,17.2336615 C53.5836825,17.3866102 53.6099445,17.5459944 53.6120755,17.7065847 C53.611346,18.612827 52.8682954,19.3470317 51.9521073,19.3467912 C51.0359191,19.3465507 50.2932626,18.611956 50.2930195,17.7057134 C50.2927763,16.7994708 51.0350385,16.0644863 51.9512264,16.0637647 C52.1135723,16.0659497 52.2746942,16.0919248 52.4293396,16.1408434 L52.4293396,16.1408434 L54.3424528,14.2478445 C53.1390515,12.5515331 53.1081355,10.2994675 54.2645283,8.57146076 L54.2645283,8.57146076 L47.974434,3.72987776 C47.6720987,3.90371881 47.3289474,3.99606439 46.9792453,3.99769333 C46.1618073,3.99663483 45.425529,3.50854371 45.1138206,2.76107238 C44.8021122,2.01360106 44.9763783,1.15399639 45.5553388,0.583189834 Z M23.9215094,3.69525724 L23.9215094,8.04497408 C24.6954717,7.29443726 25.4958491,6.96522007 26.6422642,6.96522007 L26.6422642,6.96522007 C29.2309434,6.9671797 31.4570755,9.10709145 31.4570755,11.9054376 C31.4570755,14.739057 29.0381132,16.8436955 26.2883019,16.8436955 C23.8092453,16.8436955 21.6035849,14.7756367 21.6035849,11.7578124 L21.6035849,11.7578124 L21.6035849,3.69525724 L23.9215094,3.69525724 Z M13.7933019,6.89924599 L13.7933019,12.5599527 C13.7933019,13.6629679 14.6972854,14.5571384 15.8124057,14.5571384 C16.9275259,14.5571384 17.8315094,13.6629679 17.8315094,12.5599527 L17.8315094,12.5599527 L17.8315094,6.89924599 L20.1375472,6.89924599 L20.1375472,12.5599527 C20.1375472,14.925077 18.1991935,16.842389 15.8081132,16.842389 C13.4170329,16.842389 11.4786792,14.925077 11.4786792,12.5599527 L11.4786792,12.5599527 L11.4786792,6.89924599 L13.7933019,6.89924599 Z M67.4291509,4.60713661 L67.4291509,7.2598172 L69.555566,7.2598172 L69.555566,9.27039363 L67.4291509,9.27039363 L67.4291509,13.2386366 C67.4291509,14.1348389 67.8181132,14.7201139 69.1857547,14.7201139 L69.1857547,14.7201139 C69.445283,14.7181543 69.7417925,14.7005177 70,14.6828811 L70,14.6828811 L69.4274528,16.7679233 C69.1223585,16.8214864 68.8119811,16.8463083 68.5016038,16.8410826 C66.524434,16.8410826 65.0821698,15.7992147 65.0821698,13.7318092 L65.0821698,13.7318092 L65.0821698,5.64900451 L67.4291509,4.60713661 Z M36.7579245,3.61621898 C38.0146226,3.61621898 39.5493396,4.31580552 40.3061321,5.32827903 L40.3061321,5.32827903 L38.790566,7.09586181 C38.1982075,6.47008786 37.2934906,5.95405298 36.6080189,5.95405298 C35.7581132,5.95405298 34.9821698,6.32180949 34.9821698,7.48256137 L34.9821698,7.48256137 C34.9782075,9.63619051 40.5075472,8.09265832 40.5075472,13.0596574 C40.5075472,15.3615649 38.5884906,16.8338974 36.2025472,16.8338974 C34.6130189,16.8338974 33.2856604,16.1702373 32.2092453,14.8638199 L32.2092453,14.8638199 L33.8918868,13.13347 C34.520566,13.8337097 34.9643396,14.4954101 36.3333019,14.4954101 C37.2010377,14.4954101 37.9591509,13.8134603 37.9591509,13.0413675 C37.9591509,10.5369653 32.4304717,11.9570411 32.4304717,7.48256137 C32.4304717,5.07091479 34.2465094,3.61621898 36.7579245,3.61621898 Z M2.43943396,3.61621898 L2.43943396,9.15216285 L7.58113208,9.15216285 L7.58113208,3.61621898 L10.0212264,3.61621898 L10.0212264,16.8312845 L7.5804717,16.8312845 L7.5804717,11.474973 L2.44009434,11.474973 L2.44009434,16.8312845 L0,16.8312845 L0,3.61621898 L2.43943396,3.61621898 Z M26.6277358,9.33179525 C25.6879083,9.33179525 24.8194717,9.82774447 24.3495579,10.6328237 C23.8796441,11.4379029 23.8796441,12.4298014 24.3495579,13.2348806 C24.8194717,14.0399599 25.6879083,14.5359091 26.6277358,14.5359091 C28.0805834,14.5359091 29.258349,13.3709285 29.258349,11.9338522 C29.258349,10.4967758 28.0805834,9.33179525 26.6277358,9.33179525 Z M46.9901415,9.15444908 C45.537294,9.15444908 44.3595283,10.3194296 44.3595283,11.756506 C44.3595283,13.1935824 45.537294,14.3585629 46.9901415,14.3585629 C48.4429891,14.3585629 49.6207547,13.1935824 49.6207547,11.756506 C49.6207547,10.3194296 48.4429891,9.15444908 46.9901415,9.15444908 Z M58.5213208,8.76938301 C57.5690422,8.74346592 56.6776699,9.23117837 56.1938058,10.0428778 C55.7099418,10.8545773 55.7099418,11.8621742 56.1938058,12.6738737 C56.6776699,13.4855731 57.5690422,13.9732856 58.5213208,13.9473685 L58.5213208,13.9473685 C59.9329704,13.8958471 61.0487911,12.7510787 61.0480798,11.3564617 C61.0473678,9.9618447 59.9303795,8.81819104 58.5213208,8.76938301 Z" id="Combined-Shape" fill="#FFFFFF"></path>
    </g>
</svg>