<?xml version="1.0" encoding="utf-8"?>
<!-- Generator: Adobe Illustrator 23.0.6, SVG Export Plug-In . SVG Version: 6.00 Build 0)  -->
<svg version="1.1" id="Layer_1" xmlns="http://www.w3.org/2000/svg" xmlns:xlink="http://www.w3.org/1999/xlink" x="0px" y="0px"
	 viewBox="0 0 248.2 91.5" style="enable-background:new 0 0 248.2 91.5;" xml:space="preserve">
<style type="text/css">
	.st0{fill:#485661;}
	.st1{fill:#EE6E23;}
	.st2{fill:#FFDCA5;}
</style>
<g>
	<g>
		<polygon class="st0" points="26.1,40.7 8.7,40.7 8.7,22.9 0,22.9 0,67.6 8.7,67.6 8.7,49 26.1,49 26.1,67.6 34.8,67.6 34.8,22.9 
			26.1,22.9 		"/>
		<path class="st0" d="M93.5,32.8c-3.9,0-6.9,1.3-9.3,4.2V22.1h-7.6v22.6c0,7.6,0.1,8.5,1.1,11.8c2.2,6.7,8.4,11.2,15.4,11.2
			c9.5,0,16.9-7.6,16.9-17.5C110.1,40.7,102.7,32.8,93.5,32.8z M93.1,60.3c-5.1,0-9.4-4.5-9.4-10c0-5.6,4.2-10,9.4-10
			c5,0,9.2,4.6,9.2,9.9C102.3,55.7,98.1,60.3,93.1,60.3z"/>
		<path class="st0" d="M163.6,33c-7,0-13.2,4.6-15.4,11.2c-1.1,3.3-1.1,4.2-1.1,11.8v22.6h7.6V63.7c2.4,2.9,5.4,4.2,9.3,4.2
			c9.2,0,16.6-7.8,16.6-17.5C180.5,40.7,173.1,33,163.6,33z M163.5,60.5c-5.2,0-9.4-4.4-9.4-10c0-5.5,4.3-10,9.4-10
			c5,0,9.2,4.6,9.2,10.1C172.7,55.9,168.4,60.5,163.5,60.5z"/>
		<path class="st0" d="M129.8,40.6l-3.9-1.3c-2.1-0.7-3.4-2.3-3.4-4.3c0-2.6,2.2-4.5,5.7-4.5c2.6,0,4.2,0.8,6.6,3.1l0.9,0.9l5.7-5.9
			C137,23.3,134.3,22,128,22c-8.2,0-14.1,5.6-14.1,13.4c0,6,3.4,10.5,9.8,12.7l3.3,1.1c4.8,1.7,6.1,2.9,6.1,5.6c0,3-2.5,5.1-6.1,5.1
			c-3.4,0-5.9-1.5-8.3-4.9l-5.7,6.2c4.5,5.8,7.5,7.3,14.2,7.3c8.4,0,14.6-5.8,14.6-13.8C141.8,47.6,138.2,43.4,129.8,40.6z"/>
		<path class="st0" d="M245.3,60.5c-5.1,0-6.7-1.3-6.7-5.8V41.9h7.6v-7.4h-7.6V25l-7.6,4v25.7c0,9.5,3.6,13.6,12,13.6
			c1,0,1.5-0.1,3.1-0.1l2-8C246.8,60.4,246.2,60.5,245.3,60.5z"/>
		<path class="st0" d="M62.6,53.5c0,3.9-3.1,7-7,7h-0.4c-3.9,0-7-3.1-7-7V33.9h-7.9v19.8c0,7.7,6.3,14,14,14h1.9c7.7,0,14-6.3,14-14
			V33.9h-7.6V53.5z"/>
	</g>
	<path class="st1" d="M208.1,30v-9.7c3.4-0.9,5.8-4,5.8-7.7c0-4.4-3.6-8-8-8c-4.4,0-8,3.6-8,8c0,3.4,2.1,6.3,5.1,7.4v10
		c-2.7,0.3-5.3,1.2-7.6,2.5L168.3,12c0.4-1,0.6-2.1,0.6-3.3c0-4.8-3.9-8.7-8.7-8.7c-4.8,0-8.7,3.9-8.7,8.7c0,4.8,3.9,8.7,8.7,8.7
		c1.8,0,3.5-0.6,4.9-1.5l26.1,19.6c-4.1,3.8-6.6,9.2-6.6,15.2c0,7.5,4,14.1,9.9,17.8l-6.5,10.3c-0.2,0-0.5,0-0.7,0
		c-3.5,0-6.4,2.9-6.4,6.4c0,3.5,2.9,6.4,6.4,6.4c3.5,0,6.4-2.9,6.4-6.4c0-1.4-0.5-2.8-1.3-3.8l6.7-10.7c2,0.7,4.2,1,6.5,1
		c11.6,0,20.9-9.4,20.9-20.9C226.6,40,218.5,31.2,208.1,30z M205.9,63c-6.8,0-12.2-5.5-12.2-12.2c0-6.8,5.5-12.2,12.2-12.2
		c6.8,0,12.2,5.5,12.2,12.2C218.2,57.5,212.7,63,205.9,63z"/>
	<path class="st2" d="M156.7,6.2c-0.8,1.4-2,2.3-2.6,2c-0.6-0.3-0.4-1.8,0.4-3.2c0.8-1.4,2-2.3,2.6-2C157.7,3.4,157.5,4.8,156.7,6.2
		z"/>
	<path class="st2" d="M206.1,6.6c1.7,0.2,3,0.8,2.7,1.5c-0.2,0.7-1.8,1.1-3.5,0.9c-1.7-0.2-3-0.8-2.7-1.5
		C202.8,6.9,204.4,6.5,206.1,6.6z"/>
	<path class="st2" d="M184.2,81.2c1.3-1.2,2.6-1.7,2.9-1.1c0.4,0.6-0.4,2-1.6,3.2c-1.3,1.2-2.6,1.7-2.9,1.1
		C182.2,83.9,182.9,82.4,184.2,81.2z"/>
</g>
</svg>
