<?xml version="1.0" encoding="UTF-8"?>
<svg width="115px" height="16px" viewBox="0 0 115 16" version="1.1" xmlns="http://www.w3.org/2000/svg" xmlns:xlink="http://www.w3.org/1999/xlink">
    <!-- Generator: Sketch 53.2 (72643) - https://sketchapp.com -->
    <title>Group 29</title>
    <desc>Created with Sketch.</desc>
    <defs>
        <polygon id="path-1" points="0 0.498 20.8746383 0.498 20.8746383 16 0 16"></polygon>
        <polygon id="path-3" points="0.8295 0.1302 10.844 0.1302 10.844 10.6302 0.8295 10.6302"></polygon>
    </defs>
    <g id="📮-Email-Template" stroke="none" stroke-width="1" fill="none" fill-rule="evenodd">
        <g id="Artboard" transform="translate(-343.000000, -1973.000000)">
            <g id="Group-29" transform="translate(343.000000, 1972.000000)">
                <g id="Group-3" transform="translate(0.000000, 0.501700)">
                    <mask id="mask-2" fill="white">
                        <use xlink:href="#path-1"></use>
                    </mask>
                    <g id="Clip-2"></g>
                    <path d="M18.7798,5.928 C18.7798,7.537 17.9438,9.093 16.2178,10.639 C16.1548,10.702 16.0378,10.756 15.9748,10.756 C15.8578,10.756 15.7318,10.693 15.6778,10.639 C15.5618,10.459 15.5618,10.225 15.7408,10.099 C17.2868,8.724 18.0698,7.358 18.0698,5.982 C18.0698,4.849 17.3498,3.6 16.5238,2.997 C16.3428,2.881 16.2798,2.638 16.4058,2.458 C16.5238,2.278 16.7658,2.216 16.9458,2.341 C17.9438,3.007 18.7798,4.553 18.7798,5.928 M13.6548,9.263 C13.5928,9.326 13.5388,9.326 13.4758,9.326 C13.3588,9.326 13.1788,9.263 13.1158,9.146 C12.9988,8.967 13.0528,8.733 13.2958,8.607 C14.1858,8.068 14.8418,7.115 14.8418,6.099 C14.8418,5.209 14.3658,4.373 13.5298,3.95 C13.3498,3.834 13.2868,3.591 13.3498,3.411 C13.4668,3.231 13.7098,3.168 13.8888,3.231 C14.9588,3.771 15.6148,4.841 15.6148,6.036 C15.5618,7.358 14.7878,8.607 13.6548,9.263 M10.4908,8.131 C9.5378,8.131 8.7648,7.358 8.7648,6.405 C8.7648,5.451 9.5378,4.678 10.4908,4.678 C11.4438,4.678 12.2258,5.443 12.2258,6.405 C12.1628,7.358 11.3898,8.131 10.4908,8.131 M7.8118,9.146 C7.7488,9.263 7.6328,9.326 7.4528,9.326 C7.3898,9.326 7.3358,9.326 7.2728,9.263 C6.1398,8.607 5.3668,7.358 5.3668,6.099 C5.3668,4.903 6.0228,3.834 7.0928,3.294 C7.2728,3.177 7.5068,3.294 7.6328,3.474 C7.7488,3.654 7.6328,3.887 7.4528,4.013 C6.6788,4.436 6.1398,5.272 6.1398,6.162 C6.1398,7.115 6.7338,8.131 7.6858,8.67 C7.8658,8.67 7.9288,8.904 7.8118,9.146 M5.3038,10.576 C5.2408,10.639 5.1238,10.693 5.0078,10.693 C4.8908,10.693 4.8278,10.63 4.7648,10.576 C3.0388,9.084 2.2028,7.474 2.2028,5.865 C2.2028,4.49 3.0388,2.944 4.1718,2.224 C4.3508,2.108 4.5848,2.161 4.7108,2.341 C4.8278,2.521 4.7738,2.755 4.5938,2.881 C3.7038,3.42 3.0478,4.733 3.0478,5.865 C3.0478,7.24 3.8208,8.607 5.3758,9.983 C5.4298,10.153 5.4298,10.459 5.3038,10.576 M15.2648,0.498 C13.2958,0.498 11.5068,1.568 10.4908,3.06 C9.4848,1.514 7.6958,0.498 5.7268,0.498 C2.5618,0.498 -0.0002,3.06 -0.0002,6.225 C-0.0002,8.247 1.2498,9.686 2.5618,10.998 L7.7488,15.889 C8.0458,16.132 8.4678,15.952 8.4678,15.592 L8.4678,11.781 C8.4678,10.711 9.3588,9.812 10.4368,9.758 C11.5068,9.758 12.4058,10.648 12.4058,11.781 L12.4058,15.592 C12.4058,15.952 12.8198,16.132 13.1248,15.889 L18.3118,10.998 C19.6248,9.686 20.8738,8.194 20.8738,6.225 C20.9278,3.06 18.3658,0.498 15.2648,0.498" id="Fill-1" fill="#111820" mask="url(#mask-2)"></path>
                </g>
                <polygon id="Fill-4" fill="#111820" points="27.958 4.5781 30.88 4.5781 30.88 8.5161 34.575 8.5161 34.575 4.5781 37.497 4.5781 37.497 15.0691 34.575 15.0691 34.575 11.0781 30.88 11.0781 30.88 15.0691 27.958 15.0691"></polygon>
                <path d="M43.8252,10.3042 C43.8252,9.4142 43.1692,8.8752 42.3962,8.8752 C41.6222,8.8752 41.0832,9.4682 40.9662,10.3042 L43.8252,10.3042 Z M38.2782,11.0142 C38.2782,8.6322 39.9502,6.7802 42.3332,6.7802 C45.1372,6.7802 46.3872,8.8032 46.3872,11.1942 L46.3872,11.7872 L40.9572,11.7872 C41.2002,12.6782 41.8472,13.1002 42.6832,13.1002 C43.3402,13.1002 43.8792,12.8572 44.4722,12.2642 L46.0182,13.5762 C45.2452,14.5932 44.1132,15.2492 42.5042,15.2492 C40.1212,15.2492 38.2782,13.5232 38.2782,11.0142 L38.2782,11.0142 Z" id="Fill-6" fill="#111820"></path>
                <path d="M56.0425,6.9605 L58.9005,6.9605 L58.9005,8.5695 C59.3775,7.4365 60.0965,6.7175 61.4625,6.7805 L61.4625,9.7655 L61.2205,9.7655 C59.7285,9.7655 58.8925,10.6015 58.8925,12.5065 L58.8925,15.0155 L56.0335,15.0155 L56.0335,6.9605 L56.0425,6.9605 Z" id="Fill-8" fill="#111820"></path>
                <path d="M63.1982,12.5068 L63.1982,9.2258 L62.2452,9.2258 L62.2452,6.9608 L63.1982,6.9608 L63.1982,4.9378 L66.0572,4.9378 L66.0572,6.9608 L67.9632,6.9608 L67.9632,9.2258 L66.0572,9.2258 L66.0572,11.9678 C66.0572,12.5608 66.3002,12.8038 66.8302,12.8038 C67.1892,12.8038 67.5492,12.6868 67.9002,12.5608 L67.9002,14.7628 C67.3602,15.0598 66.7042,15.2398 65.9312,15.2398 C64.2142,15.1858 63.1982,14.4758 63.1982,12.5068" id="Fill-10" fill="#111820"></path>
                <path d="M25.1626,3.8589 C25.9866,3.8589 26.6546,4.5269 26.6546,5.3509 C26.6546,6.1749 25.9866,6.8429 25.1626,6.8429 C24.3386,6.8429 23.6696,6.1749 23.6696,5.3509 C23.6696,4.5269 24.3386,3.8589 25.1626,3.8589" id="Fill-12" fill="#111820"></path>
                <path d="M50.6753,13.397 C49.9563,13.46 49.4803,12.983 49.4803,12.507 C49.4803,12.03 49.8933,11.734 50.6123,11.734 L52.2303,11.734 L52.2303,11.797 C52.2303,12.21 52.1053,13.343 50.6753,13.397 M54.9093,10.96 C54.9093,8.453 53.1203,6.79 50.5583,6.79 C48.9493,6.79 47.8163,7.446 47.0433,8.461 L48.5903,9.774 C49.1833,9.181 49.7223,8.938 50.3793,8.938 C51.2683,8.938 51.8713,9.352 52.1053,10.251 L52.1053,10.314 L50.2533,10.314 C47.9243,10.376 46.7373,11.204 46.7373,12.876 C46.7373,14.485 47.8703,15.321 49.7763,15.321 C50.8463,15.321 51.6283,14.907 52.1583,14.368 L52.1583,15.141 L54.8383,15.141 L54.8383,11.086 C54.9093,11.078 54.9093,11.015 54.9093,10.96" id="Fill-14" fill="#111820"></path>
                <path d="M69.4551,5.2969 C69.4551,5.0009 69.6981,4.7039 70.0481,4.7039 L70.1651,4.7039 C70.4081,4.7039 70.5791,4.8209 70.7051,5.0009 L74.3991,10.5469 L78.0941,5.0009 C78.2111,4.8209 78.3911,4.7039 78.6341,4.7039 L78.7501,4.7039 C79.0471,4.7039 79.3441,4.9459 79.3441,5.2969 L79.3441,14.5389 C79.3441,14.8359 79.1011,15.1319 78.7501,15.1319 C78.4541,15.1319 78.1571,14.8359 78.1571,14.5389 L78.1571,6.8429 L74.8851,11.6709 C74.7681,11.8509 74.5881,11.9679 74.4081,11.9679 C74.2281,11.9679 74.0491,11.8509 73.9321,11.6709 L70.6511,6.8429 L70.6511,14.5389 C70.6511,14.8359 70.4081,15.1319 70.0571,15.1319 C69.7611,15.1319 69.5181,14.8889 69.5181,14.5389 L69.4551,5.2969 Z" id="Fill-16" fill="#111820"></path>
                <path d="M81.6182,14.4756 L81.6182,5.3506 C81.6182,5.0546 81.8612,4.7576 82.2112,4.7576 L88.5942,4.7576 C88.8912,4.7576 89.1342,5.0006 89.1342,5.2966 C89.1342,5.5936 88.8912,5.8366 88.5942,5.8366 L82.8142,5.8366 L82.8142,9.3516 L87.9382,9.3516 C88.2352,9.3516 88.4772,9.5946 88.4772,9.8916 C88.4772,10.1876 88.2352,10.4306 87.9382,10.4306 L82.8142,10.4306 L82.8142,14.0086 L88.7202,14.0086 C89.0162,14.0086 89.2592,14.2506 89.2592,14.5476 C89.2592,14.8446 89.0162,15.0866 88.7202,15.0866 L82.2842,15.0866 C81.9242,15.0686 81.6182,14.7726 81.6182,14.4756" id="Fill-18" fill="#111820"></path>
                <path d="M90.9229,5.3511 C90.9229,5.0541 91.1659,4.7581 91.5159,4.7581 L94.5009,4.7581 C97.7189,4.7581 99.9849,6.9601 99.9849,9.8821 C99.9849,12.8041 97.7819,15.0061 94.5009,15.0061 L91.5159,15.0061 C91.2189,15.0061 90.9229,14.7631 90.9229,14.4131 L90.9229,5.3511 Z M94.5009,13.9991 C97.1259,13.9991 98.7349,12.2101 98.7349,9.9451 C98.7349,7.6791 97.0629,5.8911 94.5009,5.8911 L92.1179,5.8911 L92.1179,13.9991 L94.5009,13.9991 Z" id="Fill-20" fill="#111820"></path>
                <path d="M102.0161,5.2969 C102.0161,5.0009 102.2591,4.7039 102.6091,4.7039 C102.9061,4.7039 103.2031,4.9459 103.2031,5.2969 L103.2031,14.5389 C103.2031,14.8359 102.9601,15.1319 102.6091,15.1319 C102.3121,15.1319 102.0161,14.8889 102.0161,14.5389 L102.0161,5.2969 Z" id="Fill-22" fill="#111820"></path>
                <g id="Group-26" transform="translate(104.000000, 4.501700)">
                    <mask id="mask-4" fill="white">
                        <use xlink:href="#path-3"></use>
                    </mask>
                    <g id="Clip-25"></g>
                    <path d="M0.9375,9.7942 L5.1085,0.6692 C5.2255,0.3732 5.4685,0.1302 5.8285,0.1302 L5.8915,0.1302 C6.2505,0.1302 6.4845,0.3102 6.6105,0.6692 L10.7815,9.7942 C10.8445,9.9112 10.8445,9.9742 10.8445,10.0912 C10.8445,10.3872 10.6015,10.6302 10.3055,10.6302 C10.0085,10.6302 9.8285,10.4502 9.7115,10.2162 L8.6425,7.8342 L2.9785,7.8342 L1.9085,10.2162 C1.7915,10.4592 1.6115,10.6302 1.3695,10.6302 C1.0725,10.6302 0.8295,10.3872 0.8295,10.0912 C0.8755,9.9742 0.8755,9.9112 0.9375,9.7942 L0.9375,9.7942 Z M8.2105,6.7552 L5.8285,1.5052 L3.4455,6.7552 L8.2105,6.7552 Z" id="Fill-24" fill="#111820" mask="url(#mask-4)"></path>
                </g>
                <path d="M25.2163,7.5625 L25.0993,7.5625 C24.2633,7.5625 23.6073,8.2185 23.6073,9.0545 L23.6073,15.0785 L26.7083,15.0785 L26.7083,9.0545 C26.7083,8.2095 25.9983,7.5625 25.2163,7.5625" id="Fill-27" fill="#111820"></path>
            </g>
        </g>
    </g>
</svg>