<?xml version="1.0" encoding="UTF-8"?>
<svg xmlns="http://www.w3.org/2000/svg" viewBox="0 0 40 34" width="40" height="34">
  <g fill="none" fill-rule="evenodd">
    <path fill="#F7E9C1" d="M16.2077974 31.8457086L26.225944 14.6078585c.2282345-.3924691.5851846-.6066267 1.0002136-.6078585.4151859-.0013724.7564389.2248871 1.0101026.6018842l11.5368325 17.1900552c.2825462.4203494.2918074.9578881.0800547 1.4217431-.2112817.4653869-.6073173.7377561-1.0673967.7380625L17.2298298 34c-.4605503.000459-.8600392-.2688465-1.0797974-.7316292-.2199151-.4624763-.1958987-.986228.057765-1.4226622"/>
    <path fill="#FFC837" d="M.25473064 31.6462542L17.1733211 1.02365124C17.5964042.25831903 18.4759957 0 19.3876389 0h15.0931673c.5577003 0 1.0751071.32041495 1.3554836.84264163.2803764.52238193.1678901 1.04305622-.0912712 1.51250137L18.825665 32.976504C18.4024293 33.7421467 17.5237536 34 16.6113472 34H1.51894309c-.56029505 0-1.0760229-.3207254-1.35639937-.8435731-.28022384-.5223819-.16437967-1.0464715.09218692-1.5101727"/>
  </g>
</svg>