<?xml version="1.0" encoding="UTF-8"?>
<svg width="24px" height="20px" viewBox="0 0 24 20" version="1.1" xmlns="http://www.w3.org/2000/svg" xmlns:xlink="http://www.w3.org/1999/xlink">
    <!-- Generator: Sketch 59.1 (86144) - https://sketch.com -->
    <title>Group 2</title>
    <desc>Created with Sketch.</desc>
    <g id="Symbols" stroke="none" stroke-width="1" fill="none" fill-rule="evenodd">
        <g id="01-Navigation/Footer/Default" transform="translate(-540.000000, -207.000000)">
            <g id="Footer">
                <g id="Column-#2" transform="translate(540.000000, 132.000000)">
                    <g id="Group-2" transform="translate(0.000000, 75.000000)">
                        <path d="M10.1212152,18.7074251 L15.965134,8.3647151 C16.0982708,8.12923364 16.3064917,8.00073906 16.5485919,8 C16.7907837,7.99917654 16.989848,8.13493225 17.1378185,8.36113049 L23.8676374,18.6751636 C24.032456,18.9273733 24.0378584,19.2498965 23.914336,19.5282095 C23.7910883,19.8074416 23.5600675,19.9708632 23.2916879,19.971047 L10.7174007,20 C10.4487464,20.0002754 10.2157112,19.8386921 10.0875189,19.5610225 C9.95923508,19.2835367 9.97324467,18.9692857 10.1212152,18.7074251" id="Fill-26" fill="#F7E9C1"></path>
                        <path d="M0.155668727,18.6154436 L10.4948074,0.602147788 C10.7533581,0.151952369 11.2908863,0 11.8480016,0 L21.0716038,0 C21.4124207,0 21.7286137,0.188479381 21.8999549,0.495671549 C22.071296,0.802955035 22.0025544,1.10923403 21.844178,1.38537824 L11.504573,19.3979435 C11.245929,19.8483216 10.7089605,20 10.1513788,20 L0.928242998,20 C0.585840468,20 0.270673444,19.811338 0.0993322713,19.5037805 C-0.0719156293,19.1964971 -0.00112197105,18.8882091 0.155668727,18.6154436" id="Fill-27" fill="#FCB706"></path>
                    </g>
                </g>
            </g>
        </g>
    </g>
</svg>