<?xml version="1.0" encoding="UTF-8"?>
<svg width="18px" height="18px" viewBox="0 0 18 18" version="1.1" xmlns="http://www.w3.org/2000/svg" xmlns:xlink="http://www.w3.org/1999/xlink">
    <!-- Generator: Sketch 60.1 (88133) - https://sketch.com -->
    <title>icons8-linkedin (1)</title>
    <desc>Created with Sketch.</desc>
    <g id="Symbols" stroke="none" stroke-width="1" fill="none" fill-rule="evenodd">
        <g id="02-Icons/Linkedin" transform="translate(-3.000000, -3.000000)" fill="#0055FB">
            <g id="icons8-linkedin-(1)" transform="translate(3.000000, 3.000000)">
                <path d="M16,0 L2,0 C0.895,0 0,0.895 0,2 L0,16 C0,17.105 0.895,18 2,18 L16,18 C17.105,18 18,17.105 18,16 L18,2 C18,0.895 17.105,0 16,0 Z M4.738,14 L4.738,14 C4.041,14 3.476,13.435 3.476,12.738 L3.476,8.261 C3.477,7.565 4.042,7 4.738,7 L4.738,7 C5.435,7 6,7.565 6,8.262 L6,12.739 C6,13.435 5.435,14 4.738,14 Z M4.694,5.717 C3.923,5.717 3.408,5.203 3.408,4.517 C3.408,3.831 3.922,3.317 4.779,3.317 C5.55,3.317 6.065,3.831 6.065,4.517 C6.065,5.203 5.551,5.717 4.694,5.717 Z M13.779,14 L13.779,14 C13.105,14 12.558,13.453 12.558,12.779 L12.558,10.174 C12.558,9.116 11.907,9 11.663,9 C11.419,9 10.605,9.035 10.605,10.174 L10.605,12.779 C10.605,13.453 10.058,14 9.384,14 L9.303,14 C8.629,14 8.082,13.453 8.082,12.779 L8.082,8.262 C8.082,7.565 8.647,7 9.344,7 L9.344,7 C10.041,7 10.606,7.565 10.606,8.262 C10.606,8.262 10.888,7 12.804,7 C14.023,7 15,7.977 15,10.174 L15,12.779 C15,13.453 14.453,14 13.779,14 Z" id="Shape"></path>
            </g>
        </g>
    </g>
</svg>