<?xml version="1.0" encoding="UTF-8"?>
<svg width="104px" height="24px" viewBox="0 0 104 24" version="1.1" xmlns="http://www.w3.org/2000/svg" xmlns:xlink="http://www.w3.org/1999/xlink">
    <!-- Generator: Sketch 59.1 (86144) - https://sketch.com -->
    <title>Combined Shape</title>
    <desc>Created with Sketch.</desc>
    <g id="Page-1" stroke="none" stroke-width="1" fill="none" fill-rule="evenodd">
        <g id="Home-01" transform="translate(-200.000000, -904.000000)" fill="#000000">
            <g id="Logos" transform="translate(200.000000, 836.000000)">
                <g transform="translate(0.000000, 64.000000)" id="Combined-Shape">
                    <path d="M12.777948,26.9687249 C13.0321843,26.9687249 13.2436661,27.1508165 13.2875233,27.3920229 L13.2958685,27.4850062 C13.2958685,27.7402142 13.1126352,27.9486278 12.8710386,27.9917912 L12.777948,28 C12.494509,28 12.2626043,27.7721152 12.2626043,27.4850062 C12.2626043,27.2309425 12.4458376,27.0206216 12.6856245,26.9770202 L12.777948,26.9687249 Z M16.2598719,26.8656282 L16.2900156,26.9507001 C16.3619061,27.2172094 16.2250823,27.488933 15.9809795,27.5988044 L15.8957777,27.6292044 L15.8236296,27.6436886 L15.8236296,27.6436886 L15.7514814,27.6485167 C15.5079815,27.6472292 15.2850953,27.4850062 15.2181007,27.2378091 C15.1462102,26.9701411 15.2819904,26.6983016 15.5249453,26.5893572 L15.6097619,26.5593048 C15.8764523,26.4874631 16.1504477,26.6221083 16.2598719,26.8656282 Z M9.85915319,26.5428713 L9.94742255,26.5593048 C10.2141129,26.6299877 10.3837512,26.8831715 10.3577199,27.1499126 L10.3416605,27.2390966 C10.2830402,27.455394 10.1050654,27.6066332 9.89749863,27.6410634 L9.80699138,27.6485167 C9.75932209,27.6472292 9.71036443,27.6420793 9.66140677,27.627917 C9.39587591,27.5572341 9.22531002,27.3050931 9.25208341,27.0394992 L9.26845717,26.9507001 C9.3391881,26.6841908 9.59463111,26.5157105 9.85915319,26.5428713 Z M7.08206513,25.2411865 L7.17744995,25.2550829 C7.52938677,25.3294351 7.76440499,25.6526116 7.73861171,26.0014819 L7.72500267,26.0970978 C7.66201621,26.3935054 7.42292217,26.6054794 7.14073435,26.6489253 L7.0331537,26.6571536 C6.98419604,26.6571536 6.93395003,26.6532911 6.88370401,26.6417038 C6.53294818,26.5673515 6.2969458,26.2463387 6.32256685,25.8958456 L6.33615129,25.7996889 C6.41055404,25.4491712 6.73395013,25.2144109 7.08206513,25.2411865 Z M19.1944652,25.7073677 L19.2210332,25.7996889 C19.2966169,26.1537471 19.0961428,26.4980688 18.7674733,26.6144818 L18.6747688,26.6404163 L18.5993998,26.6520064 L18.5993998,26.6520064 L18.5240308,26.6558716 C18.1967875,26.6571536 17.9030415,26.4305563 17.8321818,26.0970978 C17.757779,25.7453999 17.9572689,25.3991113 18.2857663,25.2813623 L18.3784461,25.2550829 C18.730383,25.1807306 19.0758243,25.3800851 19.1944652,25.7073677 Z M13.8401771,24.3564109 L13.9297413,24.3667185 C14.1999103,24.4211791 14.3845064,24.6623121 14.3745809,24.9286824 L14.3639184,25.0181857 C14.3176985,25.2491283 14.1353554,25.4169841 13.9170087,25.4553395 L13.8215191,25.4636554 C13.7880218,25.4623679 13.7506594,25.4585054 13.7132969,25.452068 C13.4419685,25.3976074 13.2572564,25.1585602 13.2671703,24.8907299 L13.2778315,24.8006008 C13.3323291,24.531774 13.5736259,24.3474191 13.8401771,24.3564109 Z M11.4646256,24.4407957 L11.5424114,24.4452551 C11.7519845,24.4761547 11.9055697,24.6525242 11.9126813,24.8577164 L11.9083055,24.9357867 C11.8812499,25.1239204 11.7358264,25.2657247 11.5574817,25.2982362 L11.4792818,25.3052948 C11.4586681,25.3052948 11.4380543,25.3040073 11.4161522,25.3001448 C11.2065791,25.2681008 11.0540119,25.0926214 11.0462216,24.8876411 L11.0502582,24.8096132 C11.082324,24.599038 11.2599585,24.4474645 11.4646256,24.4407957 Z M16.1614333,23.665378 L16.259095,23.6830642 C16.5846986,23.7661655 16.7942433,24.0769707 16.760926,24.4007377 L16.7435181,24.498042 C16.6736604,24.769272 16.4511083,24.9570858 16.1916832,24.9954737 L16.0928967,25.0027359 C16.0400739,25.0040234 15.9833861,24.997586 15.9266983,24.9834236 C15.6010948,24.9003224 15.3904853,24.5916453 15.4245769,24.2653632 L15.4422752,24.1671584 C15.5266042,23.8417759 15.8366622,23.6313095 16.1614333,23.665378 Z M4.67997854,23.2623029 L4.78754335,23.2723566 C5.22162135,23.3412866 5.5283576,23.7228696 5.51420617,24.1497683 L5.50387115,24.2572823 C5.44296689,24.6435277 5.13503836,24.9265615 4.76787046,24.9748301 L4.6561307,24.9821362 C4.60974976,24.9808487 4.56465718,24.9782737 4.51827624,24.9705488 C4.08657676,24.9016188 3.78002347,24.524424 3.79418897,24.0961751 L3.80452516,23.9881981 C3.87231269,23.5556032 4.2529657,23.2491667 4.67997854,23.2623029 Z M21.7318831,23.881481 L21.755236,23.9869106 C21.8242128,24.4218823 21.5550753,24.8272342 21.1464361,24.9467681 L21.0414849,24.9705488 L20.9727187,24.9781128 L20.9727187,24.9781128 L20.9049188,24.9808487 C20.4887788,24.9808487 20.1241731,24.6808648 20.0571784,24.2559949 C19.9882016,23.8234 20.2562413,23.4138428 20.6667383,23.2946605 L20.7722178,23.2710691 C21.2027281,23.2021392 21.6134784,23.471094 21.7318831,23.881481 Z M9.30680599,23.8401373 L9.38440951,23.8645995 C9.56252519,23.9412049 9.65876966,24.1331407 9.62049382,24.3153424 L9.59570045,24.3924682 C9.54094518,24.5201438 9.42892949,24.6040091 9.30289693,24.6284176 L9.22594131,24.6358028 C9.17440694,24.6370903 9.11900749,24.6255029 9.06618475,24.6036157 C8.88694176,24.5270104 8.79154278,24.337046 8.83004761,24.1527497 L8.85489382,24.0744595 C8.9315512,23.8964648 9.1236174,23.8022571 9.30680599,23.8401373 Z M18.285401,22.3692258 L18.3874647,22.3942922 C18.7953791,22.521456 19.0353341,22.9316532 18.9614103,23.3403314 L18.9363057,23.4423046 C18.8366726,23.7604563 18.5660217,23.9768809 18.2573669,24.0210475 L18.1400997,24.0293976 C18.0576447,24.0293976 17.9726129,24.0165227 17.8888696,23.990773 C17.4821445,23.8636092 17.2389876,23.4556061 17.3134251,23.0452401 L17.3387401,22.9427606 C17.4648012,22.5363116 17.8762833,22.2955139 18.285401,22.3692258 Z M7.40952574,22.6483868 L7.48279111,22.6955635 C7.64737902,22.8262432 7.69359891,23.0495816 7.60246258,23.2293013 L7.55493924,23.3032563 C7.48588317,23.3897752 7.39209061,23.4425106 7.29203147,23.460144 L7.21610073,23.4667668 C7.12076213,23.4667668 7.02542354,23.4358672 6.94554526,23.3740679 C6.78208467,23.2445148 6.73699209,23.0203315 6.82752953,22.8403829 L6.8746855,22.7663752 C7.00545397,22.601899 7.23091686,22.557682 7.40952574,22.6483868 Z M14.0319121,22.2394554 L14.1088233,22.3093182 C14.3279732,22.5422241 14.3384089,22.8919307 14.151401,23.1378724 L14.0817677,23.2157073 C13.9828217,23.3084062 13.8624374,23.3632015 13.7377655,23.3814117 L13.6437255,23.3882302 C13.4736621,23.3882302 13.3023103,23.321281 13.1760511,23.1886701 C12.9580607,22.9569229 12.9456538,22.6052465 13.1341343,22.3607764 L13.204395,22.2835685 C13.4362997,22.0645674 13.788215,22.052053 14.0319121,22.2394554 Z M11.8141616,22.279955 L11.8825383,22.3402178 C12.0508839,22.5198934 12.0624632,22.7931581 11.9208957,22.9854931 L11.8606362,23.0534843 C11.7871997,23.1220428 11.6992692,23.1645298 11.6077151,23.1814884 L11.5153559,23.1899576 C11.3800781,23.1886701 11.2460888,23.1358833 11.1468851,23.031597 C10.9773943,22.850777 10.9656877,22.5794197 11.108146,22.3857142 L11.1687872,22.3170431 C11.3485849,22.1488118 11.6210173,22.1382576 11.8141616,22.279955 Z M16.1332133,21.5876139 L16.2114257,21.6591385 C16.4560852,21.9198541 16.471159,22.3161418 16.260404,22.5908318 L16.1817935,22.6775388 C16.0694485,22.7825975 15.9331916,22.8456327 15.7921524,22.8666445 L15.6857751,22.8745239 C15.4963863,22.8758114 15.3057091,22.7985623 15.1639896,22.6479266 C14.9156876,22.3857479 14.9026975,21.9863085 15.1201795,21.7098137 L15.1923335,21.6308138 C15.4546903,21.3826804 15.8586601,21.3718272 16.1332133,21.5876139 Z M2.82171121,20.6708539 L2.93874768,20.6767877 C3.48827589,20.734467 3.89751608,21.1981446 3.89935986,21.738087 L3.89342196,21.8548361 C3.83958694,22.3677148 3.43471344,22.7551491 2.94390534,22.8078802 L2.82923714,22.8140121 C2.79058635,22.8140121 2.75193557,22.8140121 2.71457315,22.8088622 C2.16384248,22.7511829 1.75564442,22.2897484 1.75499242,21.7480115 L1.76118723,21.6308138 C1.81890573,21.0816587 2.28065372,20.6726964 2.82171121,20.6708539 Z M23.779076,21.5153808 L23.7972856,21.6308138 C23.8550041,22.1823722 23.4873693,22.6767319 22.9593947,22.7904403 L22.8438997,22.8088622 L22.7867287,22.8128856 L22.7867287,22.8128856 L22.730524,22.8140121 C22.1907015,22.8140121 21.723027,22.407167 21.6650508,21.8548361 C21.6073324,21.305681 21.9772117,20.8092384 22.5044382,20.6952417 L22.6197251,20.6767877 C23.1704558,20.6191084 23.6661936,20.9876151 23.779076,21.5153808 Z M20.0288521,20.66405 L20.1396334,20.6973875 C20.5808469,20.8602048 20.8233634,21.3258018 20.7192368,21.7721587 L20.6858977,21.8831608 C20.5622152,22.2150457 20.2705689,22.4329962 19.9448773,22.4773323 L19.8214086,22.4857036 C19.7144748,22.486991 19.6062526,22.4676788 19.5006071,22.4290542 C19.0582044,22.2650485 18.8155964,21.8026511 18.9207293,21.3547682 L18.9543428,21.2432809 C19.1184599,20.8011785 19.5833671,20.5598323 20.0288521,20.66405 Z M9.74322263,21.6356645 L9.80570302,21.6900381 C9.94098075,21.8331098 9.95197207,22.0491256 9.84299247,22.2035332 L9.78895435,22.2655437 C9.72904564,22.3205837 9.6575417,22.3553457 9.58313894,22.3692868 L9.50809201,22.3762674 C9.39858147,22.3762674 9.29164764,22.3337804 9.210481,22.2488064 C9.07520327,22.1057347 9.06421195,21.8916904 9.17319155,21.7351881 L9.22722967,21.6720133 C9.37152592,21.537954 9.58782938,21.5261252 9.74322263,21.6356645 Z M5.81329654,20.8545401 L5.89939747,20.9046725 C6.12156788,21.0626039 6.19307978,21.353798 6.0822632,21.5901724 L6.03209848,21.6758758 C5.94191333,21.8035513 5.80788817,21.881158 5.66581076,21.9034804 L5.57988435,21.910198 C5.47037381,21.910198 5.35828654,21.8780108 5.26037123,21.8084867 C5.03820082,21.6505552 4.96567096,21.362413 5.07716618,21.1230998 L5.12767022,21.0359959 C5.28570896,20.8151208 5.57608289,20.7437846 5.81329654,20.8545401 Z M17.9674528,20.3073467 L18.0499145,20.3832412 C18.3380776,20.6912719 18.3491002,21.1572519 18.092906,21.4747488 L18.0164172,21.5574272 C17.8875812,21.6779357 17.7315351,21.7498289 17.5707067,21.7737658 L17.4495391,21.782737 C17.2292296,21.782737 17.0089202,21.695188 16.8465869,21.5213776 C16.5572428,21.2168875 16.5439566,20.7533662 16.8017664,20.4352629 L16.8787959,20.3523416 C17.1834928,20.0620138 17.6505768,20.0529657 17.9674528,20.3073467 Z M13.1400427,20.8586539 L13.1734744,20.943297 C13.2534815,21.2109651 13.1237308,21.4921903 12.8800222,21.6095819 L12.7946967,21.6424012 L12.7136911,21.6597822 L12.7136911,21.6597822 L12.6336518,21.6655759 C12.3901519,21.6642884 12.1685541,21.5046403 12.0951176,21.2613057 C12.01627,20.9936377 12.145093,20.715541 12.3895438,20.596898 L12.4751836,20.5634891 C12.7430335,20.484695 13.0213191,20.6165592 13.1400427,20.8586539 Z M48.4742887,10.5071898 C50.2857219,10.5071898 51.279047,10.6423776 51.7660468,10.7196266 C51.9940864,10.7479513 52.071388,10.8252004 52.071388,11.0389228 L52.071388,11.0389228 L52.071388,12.0122611 C52.071388,12.1783467 51.9348219,12.31482 51.7660468,12.31482 L51.7660468,12.31482 L47.9099873,12.31482 C46.758194,12.31482 46.7092364,12.3508696 46.7092364,13.6254793 L46.7092364,15.3442712 L51.5843882,15.3442712 C51.7518749,15.3442712 51.8897293,15.4820321 51.8897293,15.6481176 L51.8897293,15.6481176 L51.8897293,16.7463419 C51.8897293,16.91114 51.7518749,17.0501883 51.5843882,17.0501883 L51.5843882,17.0501883 L46.7092364,17.0501883 L46.7095676,18.5974834 C46.7152308,19.7218753 46.8061854,19.7526184 47.9099873,19.7526184 L51.7660468,19.7526184 C51.9335335,19.7526184 52.071388,19.8916668 52.071388,20.0590398 L52.071388,20.0590398 L52.071388,21.0310906 C52.071388,21.244813 51.9953748,21.3207746 51.7660468,21.3516743 C51.2777586,21.4263484 50.2857219,21.5641102 48.4742887,21.5641102 C45.9465276,21.5641102 44.6053456,21.5808465 44.6053456,18.4432466 L44.6053456,18.4432466 L44.6053456,13.6267668 C44.6053456,10.64727 45.8157624,10.5133989 48.1040432,10.5074605 Z M79.2338682,10.5071898 C81.0440131,10.5071898 82.0360498,10.6423776 82.5269147,10.7196266 C82.7523776,10.7479513 82.8271024,10.8252004 82.8271024,11.0389228 L82.8271024,11.0389228 L82.8271024,12.0122611 C82.8271024,12.1783467 82.6905363,12.31482 82.5269147,12.31482 L82.5269147,12.31482 L78.6682784,12.31482 C77.5113317,12.31482 77.4649508,12.3508696 77.4649508,13.6254793 L77.4649508,13.6254793 L77.4649508,15.3442712 L82.3401026,15.3442712 C82.510166,15.3442712 82.642867,15.4820321 82.642867,15.6481176 L82.642867,15.6481176 L82.642867,16.7463419 C82.642867,16.91114 82.510166,17.0501883 82.3401026,17.0501883 L82.3401026,17.0501883 L77.4649508,17.0501883 L77.4649508,18.4445341 C77.4649508,19.7191438 77.5113317,19.7526184 78.6682784,19.7526184 L82.5269147,19.7526184 C82.689248,19.7526184 82.8271024,19.8916668 82.8271024,20.0590398 L82.8271024,20.0590398 L82.8271024,21.0310906 C82.8271024,21.244813 82.7523776,21.3207746 82.5269147,21.3516743 C82.0347614,21.4263484 81.0440131,21.5641102 79.2338682,21.5641102 C76.6996653,21.5641102 75.36106,21.5808465 75.36106,18.4432466 L75.36106,18.4432466 L75.36106,13.6267668 C75.36106,10.64727 76.5691513,10.5133989 78.8627226,10.5074605 Z M35.50051,10.6269277 C35.6679967,10.6269277 35.7916792,10.7646886 35.7916792,10.9320616 L35.7916792,10.9320616 L35.7916792,14.6837916 C36.142113,14.6657669 37.3737845,14.6219924 37.7718876,14.6219924 L37.7718876,14.6219924 L38.106861,14.6219924 L40.3022253,10.9320616 C40.3769502,10.7801384 40.4387914,10.6269277 40.6049898,10.6269277 L40.6049898,10.6269277 L42.4653807,10.6269277 C42.5864864,10.6269277 42.6470393,10.7041768 42.6483277,10.8071756 C42.6483277,10.8419377 42.6483277,10.8844247 42.6174071,10.9307741 L42.6174071,10.9307741 L40.2275005,15.0043753 C41.4759207,15.4884695 42.283722,16.3716839 42.283722,17.9836146 L42.283722,17.9836146 L42.283722,18.1213755 C42.283722,20.7246693 40.1167016,21.5628217 37.7718876,21.5628217 C36.6587451,21.5628217 34.955534,21.4868601 34.1619047,21.3658366 C33.8552751,21.3194872 33.6749048,21.2139134 33.6749048,20.9074921 L33.6749048,20.9074921 L33.6749048,10.9320616 C33.6749048,10.7646886 33.8114709,10.6269277 33.9776693,10.6269277 L33.9776693,10.6269277 Z M87.2126777,10.6269277 C87.3801644,10.6269277 87.4999818,10.7646886 87.4999818,10.9320616 L87.4999818,10.9320616 L87.4999818,14.6837916 C87.8542806,14.6657669 89.0846638,14.6219924 89.4789018,14.6219924 L89.4789018,14.6219924 L89.8190286,14.6219924 L92.014393,10.9320616 C92.0904062,10.7801384 92.150959,10.6269277 92.3171574,10.6269277 L92.3171574,10.6269277 L94.1788367,10.6269277 C94.2999424,10.6269277 94.3617837,10.7041768 94.3592843,10.8071756 C94.3592843,10.8419377 94.3592843,10.8844247 94.3282864,10.9307741 L94.3282864,10.9307741 L91.9345147,15.0043753 C93.1816465,15.4884695 93.9907362,16.3716839 93.9907362,17.9836146 L93.9907362,17.9836146 L93.9907362,18.1213755 C93.9907362,20.7246693 91.8262925,21.5628217 89.4776134,21.5628217 C88.3696244,21.5628217 86.6638366,21.4868601 85.8714956,21.3658366 C85.5661544,21.3194872 85.3857841,21.2139134 85.3857841,20.9074921 L85.3857841,20.9074921 L85.3857841,10.9320616 C85.3857841,10.7646886 85.5223502,10.6269277 85.6911253,10.6269277 L85.6911253,10.6269277 Z M99.9919141,10.4994668 C103.040172,10.4994668 103.998712,12.1435846 104,13.6821286 C104,15.1408487 103.166431,15.8966021 101.885802,16.4154584 C100.871863,16.823591 99.9841839,17.1699244 99.3077952,17.4351462 C98.6314066,17.7016555 98.0580867,18.1638625 98.0580867,18.664694 C98.0580867,19.3496357 98.9032504,19.743606 100.033142,19.743606 C101.356287,19.743606 102.399858,19.5594957 103.404778,19.4693718 L103.404778,19.4693718 L103.43441,19.4693718 C103.589013,19.4693718 103.692082,19.5916828 103.692082,19.7423185 L103.692082,19.7423185 L103.692082,20.8688676 C103.692082,21.0195032 103.573553,21.125077 103.420238,21.1559766 C102.903606,21.2821501 101.572731,21.5576718 100.12075,21.5576718 C97.2902245,21.5576718 95.9400239,20.3397114 95.9400239,18.664694 C95.9400239,17.5986567 96.4115634,16.5506443 97.7347085,16.0021758 C99.066872,15.4549949 101.79304,14.82284 101.79304,13.6808412 C101.79304,12.7976267 101.379477,12.3135325 100.025411,12.3135325 C98.6172346,12.3135325 97.1897325,12.5118052 96.5803385,12.5877668 L96.5803385,12.5877668 L96.5494179,12.5877668 C96.3999682,12.5877668 96.2608254,12.4654557 96.2608254,12.2980827 L96.2608254,12.2980827 L96.2608254,11.2024333 C96.2608254,11.0350604 96.3999682,10.9294866 96.5494179,10.898587 C97.281206,10.7299265 98.6455785,10.4994668 99.9919141,10.4994668 Z M14.8044453,20.6235385 L14.8380346,20.7128373 C14.9317335,21.0265154 14.7784081,21.3529619 14.4913101,21.4851733 L14.4012808,21.5188026 L14.3104515,21.5384368 L14.3104515,21.5384368 L14.2196222,21.5445523 C13.9400482,21.5432648 13.6836647,21.360442 13.6012097,21.0797704 C13.5098533,20.7672628 13.6591326,20.4451788 13.9474115,20.3127836 L14.0379635,20.278955 C14.348341,20.1864902 14.6725603,20.3387539 14.8044453,20.6235385 Z M70.144493,10.6256403 C70.313268,10.6256403 70.4536992,10.7634011 70.4536992,10.9307741 L70.4536992,10.9307741 L70.4536992,19.6753693 L73.4929389,19.6753693 C73.6578489,19.6753693 73.7957034,19.7783681 73.7957034,19.9470286 L73.7957034,19.9470286 L73.7957034,21.1495392 C73.7957034,21.3181997 73.6578489,21.4392232 73.4929389,21.4392232 L73.4929389,21.4392232 L65.2912433,21.4392232 C65.1263333,21.4392232 64.9884788,21.3181997 64.9884788,21.1495392 L64.9884788,21.1495392 L64.9884788,19.9470286 C64.9884788,19.7783681 65.1263333,19.6753693 65.2912433,19.6753693 L65.2912433,19.6753693 L68.3330597,19.6753693 L68.3330597,10.9307741 C68.3330597,10.7634011 68.4696258,10.6256403 68.6384009,10.6256403 L68.6384009,10.6256403 Z M58.9099994,10.5059042 C61.364324,10.5059042 63.4772333,11.5706539 63.4759456,14.8164026 L63.4759456,14.8164026 L63.4759456,21.1495392 C63.4759456,21.3181997 63.3393789,21.4392232 63.1693154,21.4392232 L63.1693154,21.4392232 L61.661935,21.4392232 C61.4957366,21.4392232 61.3578822,21.3181997 61.3578822,21.1495392 L61.3578822,21.1495392 L61.3578822,14.8164026 C61.3578822,13.0795859 60.557811,12.2568832 58.9099994,12.2568832 C57.2673413,12.2568832 56.4646934,13.0795859 56.4646934,14.8164026 L56.4646934,14.8164026 L56.4646934,21.1495392 C56.4646934,21.3181997 56.3294156,21.4392232 56.1593522,21.4392232 L56.1593522,21.4392232 L54.6545485,21.4392232 C54.4870618,21.4392232 54.347919,21.3181997 54.347919,21.1495392 L54.347919,21.1495392 L54.347919,14.8164026 C54.347919,11.5706539 56.4608283,10.5059042 58.9099994,10.5059042 Z M11.5120298,20.5821408 L11.5449881,20.6664878 C11.6114102,20.8999517 11.4986708,21.1456229 11.2891118,21.2524929 L11.2061496,21.2857679 L11.1365782,21.3007393 L11.1365782,21.3007393 L11.0670068,21.3050889 C10.8492741,21.3063677 10.6495784,21.1647444 10.5838721,20.948447 C10.5151596,20.7126942 10.6286624,20.4677861 10.8411339,20.3611138 L10.9252873,20.3278794 C11.1589098,20.2592136 11.4057658,20.3695875 11.5120298,20.5821408 Z M7.99153905,20.4100382 L8.04451579,20.4553404 C8.14390351,20.561282 8.15336901,20.7173566 8.07778025,20.8327573 L8.03292055,20.8866477 C7.99255196,20.9226973 7.94531212,20.9467303 7.8961636,20.9587468 L7.82162962,20.9677592 C7.74175134,20.9690467 7.66187306,20.9368596 7.60260853,20.8737729 C7.50322081,20.7678313 7.49280876,20.6127025 7.56893841,20.4975721 L7.61420377,20.443753 C7.72132164,20.3433292 7.87766011,20.3337125 7.99153905,20.4100382 Z M16.1721784,19.9695918 L16.2049839,20.0549327 C16.284991,20.321442 16.1552404,20.6015085 15.9105925,20.7196185 L15.8249179,20.7527493 L15.7452007,20.7701304 L15.7452007,20.7701304 L15.6664497,20.775924 C15.4229498,20.775924 15.1987753,20.6149885 15.1253388,20.3690789 C15.0464912,20.1025696 15.1774014,19.8225031 15.4213303,19.7053317 L15.5066932,19.6725498 C15.7745431,19.5937557 16.0549158,19.7256199 16.1721784,19.9695918 Z M21.3062508,18.5896762 L21.4163975,18.6296872 C21.8889493,18.8341214 22.1259943,19.3582721 21.9810548,19.8392865 L21.9407598,19.9493589 C21.7953183,20.286966 21.4870028,20.5035177 21.1479221,20.5474724 L21.0195828,20.5557642 C20.8868818,20.5557642 20.7516041,20.528727 20.6227681,20.4733652 C20.14902,20.268931 19.9118896,19.7481106 20.056823,19.2655104 L20.0971175,19.154981 C20.3004942,18.68275 20.8249157,18.445866 21.3062508,18.5896762 Z M10.0103785,19.8565444 L10.0401844,19.9300467 C10.0931682,20.1114211 10.008056,20.301667 9.84699091,20.3877952 L9.77349404,20.4180033 L9.71761145,20.4295907 L9.71761145,20.4295907 L9.66269513,20.4334531 C9.49134334,20.4347406 9.33545186,20.3227295 9.28520584,20.151494 C9.23109475,19.9678665 9.31507968,19.7793104 9.47760671,19.6927773 L9.55189623,19.6622499 C9.73452117,19.6093021 9.92503731,19.6953423 10.0103785,19.8565444 Z M25.0527103,18.7924305 L25.0650312,18.9129339 C25.0976428,19.5260984 24.6569333,20.0498682 24.0666832,20.1415874 L23.9467353,20.154069 L23.9140431,20.1551955 L23.9140431,20.1551955 L23.8823173,20.1553565 C23.257463,20.1553565 22.7369658,19.6699748 22.7034685,19.0365324 C22.6720647,18.4257819 23.1094527,17.8987682 23.7003444,17.8066341 L23.820476,17.7941098 C24.4328493,17.7627273 24.961429,18.1998183 25.0527103,18.7924305 Z M1.73799676,17.7928223 C2.34916223,17.8254117 2.82671074,18.3162904 2.85641598,18.9143153 L2.85629268,19.0352449 C2.82502849,19.6264578 2.36953334,20.0886934 1.79986244,20.1476972 L1.67615552,20.154069 C1.65554177,20.1553565 1.6323513,20.154069 1.61173755,20.1527815 C1.00419559,20.1213991 0.523476509,19.6339906 0.493360794,19.0332121 L0.493441631,18.9116464 C0.526053228,18.3008959 1.01839774,17.82254 1.61697056,17.7927135 L1.73799676,17.7928223 Z M12.2402342,19.2410639 L12.3231572,19.274717 C12.5102914,19.377233 12.5938536,19.5950794 12.5350042,19.7928416 L12.5009508,19.8759723 C12.4354592,19.9982834 12.31897,20.0785723 12.1902534,20.1019378 L12.1118663,20.109007 C12.0397181,20.1077195 11.96757,20.0896948 11.9005753,20.0536452 C11.7123138,19.9522558 11.6305835,19.7335645 11.6881822,19.538161 L11.7214934,19.4562523 C11.8218244,19.2658656 12.0424962,19.1829234 12.2402342,19.2410639 Z M13.3874024,19.3141513 L13.4607785,19.3455287 C13.631003,19.4367791 13.7045602,19.6295598 13.6521049,19.8039813 L13.6218234,19.8772598 C13.5661663,19.9823185 13.4692817,20.0511217 13.361513,20.0744406 L13.2791198,20.0832573 C13.2147019,20.0845448 13.1502839,20.0678075 13.089731,20.0343329 C12.9206338,19.9453356 12.8482039,19.7518508 12.9009235,19.5763555 L12.9312628,19.5026018 C13.0191933,19.3358725 13.2126687,19.2598305 13.3874024,19.3141513 Z M19.1983083,18.704876 L19.2764326,18.7764605 C19.5259058,19.04098 19.5379376,19.4395682 19.3183357,19.7168562 L19.245512,19.7961483 C19.1352284,19.900177 19.0002084,19.9621823 18.860241,19.9828232 L18.7546471,19.9905584 C18.5613932,19.9905584 18.3694276,19.9145969 18.2277081,19.7639612 C17.9794061,19.5017825 17.966416,19.100215 18.185834,18.8243006 L18.2586287,18.7455609 C18.523328,18.4974275 18.9243165,18.4887024 19.1983083,18.704876 Z M4.701508,18.6938347 L4.79785022,18.7442734 C5.08363175,18.9245212 5.1862746,19.2845913 5.05350873,19.5845916 L5.00656444,19.6725498 C4.89723795,19.8458084 4.72259952,19.9509617 4.53457418,19.9774696 L4.43968632,19.984121 C4.31729219,19.984121 4.19232133,19.9493589 4.08023407,19.8798348 C3.79679501,19.6995869 3.6922356,19.3416449 3.8256016,19.0420315 L3.87280821,18.9541334 C4.05021529,18.6725535 4.40502946,18.5682728 4.701508,18.6938347 Z M11.1670464,18.7997677 L11.2512422,18.8356848 C11.4676866,18.9524167 11.5619754,19.2054631 11.4888659,19.4302519 L11.4535146,19.5129017 C11.3783603,19.654525 11.2459456,19.7442913 11.1002596,19.7702794 L11.0116074,19.7781235 C10.9304407,19.7781235 10.8479857,19.7588112 10.7719725,19.7176117 C10.5566734,19.6008798 10.4594579,19.3478334 10.5337127,19.1230446 L10.5697001,19.0403948 C10.6865114,18.8240974 10.9387117,18.7258035 11.1670464,18.7997677 Z M89.4814785,16.3420718 C89.2263833,16.3420718 87.7486351,16.3729714 87.5025585,16.3884212 L87.5025585,16.3884212 L87.5025585,19.6895317 C87.7782674,19.7178563 89.1632537,19.748756 89.4814785,19.748756 C91.0081843,19.748756 91.8932872,19.2620868 91.8932872,18.120088 L91.8932872,18.120088 L91.8932872,17.9836146 C91.8932872,16.6446307 91.0519885,16.3420718 89.4814785,16.3420718 Z M37.7705992,16.3420718 C37.5077739,16.3420718 36.0313141,16.3729714 35.7903909,16.3884212 L35.7903909,16.3884212 L35.7903909,19.6895317 C36.0622347,19.7178563 37.4485094,19.748756 37.7705992,19.748756 C39.2934399,19.748756 40.1798312,19.2620868 40.1798312,18.120088 L40.1798312,18.120088 L40.1798312,17.9836146 C40.1798312,16.6446307 39.3372442,16.3420718 37.7705992,16.3420718 Z M14.4917025,19.0298862 L14.5545956,19.0571321 C14.7045284,19.1359906 14.7706172,19.3055362 14.7226535,19.4579547 L14.6950268,19.5219141 C14.6455538,19.6146129 14.558976,19.6751762 14.463658,19.6956936 L14.390974,19.7034494 C14.3355745,19.7021619 14.2814634,19.6905745 14.2312174,19.6635374 C14.0846665,19.5824258 14.0170277,19.4096414 14.0628248,19.2573108 L14.0894979,19.1936055 C14.1684099,19.0471541 14.3410299,18.9825184 14.4917025,19.0298862 Z M17.2703581,18.8944993 L17.3039544,18.9785956 C17.3738122,19.2120594 17.2624725,19.4567133 17.0495627,19.562453 L16.9651159,19.5953007 L16.8949004,19.6109114 L16.8949004,19.6109114 L16.8246848,19.6159004 C16.6108171,19.6146129 16.4124098,19.4742771 16.3454151,19.2579797 C16.2755574,19.0199381 16.388933,18.7757929 16.5995806,18.6702227 L16.6829652,18.6374122 C16.9188782,18.5687463 17.1629348,18.6821721 17.2703581,18.8944993 Z M6.85821865,18.5735886 L6.92106643,18.6271123 C7.05408954,18.770184 7.06578542,18.985214 6.9570172,19.1402377 L6.9030294,19.2026179 C6.84408696,19.2586235 6.77282459,19.293627 6.69848223,19.3076283 L6.62345542,19.314629 C6.51523324,19.3159165 6.40701105,19.2721421 6.32584441,19.1884556 C6.18943937,19.0453838 6.17929354,18.8303538 6.28936522,18.6744676 L6.34388145,18.6116625 C6.48705038,18.4776031 6.70222652,18.4657744 6.85821865,18.5735886 Z M8.83978659,18.7248035 L8.86906577,18.7919103 C8.9143424,18.9353729 8.84697961,19.0854568 8.72133641,19.1578412 L8.65390976,19.1871681 L8.61026659,19.1958586 L8.61026659,19.1958586 L8.56758969,19.1987554 C8.42715852,19.2000429 8.29832258,19.112494 8.25709508,18.9708707 C8.21402707,18.8274081 8.27981228,18.6763783 8.405771,18.6061559 L8.47353945,18.5781879 C8.6182038,18.5362527 8.7676009,18.600259 8.83978659,18.7248035 Z M10.2100541,18.1472954 L10.2927029,18.1816426 C10.4843463,18.283032 10.5694585,18.5027091 10.5100632,18.698359 L10.4756499,18.7803229 C10.4090847,18.9037069 10.2915219,18.9841747 10.1624772,19.0075699 L10.0839886,19.0146451 C10.0131289,19.0159326 9.94226911,18.9979078 9.87656279,18.9618583 C9.68302258,18.8554262 9.59738645,18.636077 9.66399233,18.4340214 L9.69619248,18.3593155 C9.79765078,18.1734349 10.0135315,18.0880988 10.2100541,18.1472954 Z M15.4275886,18.4105634 L15.4925212,18.4339896 C15.6139951,18.5035138 15.6729967,18.6449269 15.6378842,18.7747188 L15.6123386,18.8382598 C15.5690497,18.9165388 15.4952525,18.9692742 15.4140343,18.9872372 L15.35209,18.9940454 C15.3057091,18.9927579 15.2567514,18.9811705 15.2129472,18.9567083 C15.0870561,18.8882877 15.0302631,18.7479782 15.0644741,18.6192898 L15.0892647,18.5563006 C15.1555232,18.4338057 15.2956126,18.3784701 15.4275886,18.4105634 Z M21.9628231,16.4293755 L22.0695957,16.4744381 C22.4905919,16.6824163 22.6832512,17.1679428 22.5320539,17.6019089 L22.4870241,17.7091358 C22.3438731,17.9975323 22.0683869,18.1780981 21.770053,18.2146633 L21.6573207,18.2215546 C21.5207546,18.2215546 21.3816118,18.190655 21.2501991,18.1262808 C20.8292029,17.9183025 20.6365437,17.430582 20.7877409,16.9983036 L20.8327707,16.8915831 C21.0432688,16.4673074 21.5304059,16.2777957 21.9628231,16.4293755 Z M17.9389948,17.5296926 L17.9687479,17.603562 C18.022859,17.786063 17.938874,17.9764498 17.7772101,18.0608705 L17.7033458,18.0902312 L17.646658,18.1029451 L17.646658,18.1029451 L17.5899702,18.1069685 C17.4199068,18.1069685 17.2627269,17.9949574 17.2137693,17.8262969 C17.1585309,17.6404163 17.2463205,17.4505928 17.407227,17.3663656 L17.4804597,17.3370527 C17.6642119,17.2829784 17.8538826,17.367892 17.9389948,17.5296926 Z M16.1120192,17.5317609 L16.1727749,17.5546376 C16.2726228,17.6082828 16.3205784,17.7191495 16.2965111,17.8239067 L16.273267,17.8855212 C16.2384813,17.9492516 16.1819545,17.9912558 16.1189054,18.0082748 L16.0542459,18.0168446 C16.0143067,18.0168446 15.975656,18.0091197 15.9382935,17.9898074 C15.8427402,17.9340164 15.793711,17.8192157 15.8187922,17.714697 L15.8429549,17.6537739 C15.8955629,17.5539939 16.0081155,17.507859 16.1120192,17.5317609 Z M9.5369115,17.2357664 L9.6098724,17.2662411 C9.77784225,17.3552385 9.85506329,17.549709 9.80183291,17.7263131 L9.77091732,17.8005472 C9.71319882,17.9045759 9.61425282,17.9731731 9.50574204,17.9964508 L9.42306029,18.0052572 C9.36121905,18.0052572 9.29808944,17.9898074 9.23882491,17.9589078 C9.07085506,17.8687839 8.99659322,17.6741725 9.047111,17.4992758 L9.07649163,17.4258892 C9.16893141,17.2602865 9.36297041,17.1833995 9.5369115,17.2357664 Z M19.8591253,16.7572753 L19.9360726,16.8272088 C20.1552225,17.0577973 20.1667018,17.4093579 19.9789634,17.6538164 L19.9090171,17.731023 C19.8100711,17.8247519 19.6888622,17.8805772 19.5632008,17.8991582 L19.4683982,17.9061209 C19.2983347,17.9074084 19.1282713,17.8391717 19.0020121,17.7052733 C18.7828621,17.4735261 18.7713829,17.1218497 18.9600605,16.8773795 L19.030356,16.8001717 C19.2622607,16.5800118 19.6152196,16.5694673 19.8591253,16.7572753 Z M4.17324944,16.263225 L4.27606469,16.312215 C4.64571646,16.518749 4.79668712,16.9654525 4.64462568,17.3488681 L4.59557781,17.4516389 C4.46142739,17.6904672 4.22765056,17.8376227 3.97537872,17.8706799 L3.86636641,17.8777963 C3.72851196,17.8777963 3.58679243,17.8443217 3.45666814,17.7696476 C3.08701637,17.5631136 2.9360457,17.1185738 3.08810715,16.7345271 L3.13715502,16.6315112 C3.34382933,16.2632906 3.78975377,16.1114389 4.17324944,16.263225 Z M8.08157998,17.3120124 L8.1076454,17.3705273 C8.13878075,17.474599 8.09386711,17.5840352 8.00421877,17.6392301 L7.94531212,17.6653613 L7.91133164,17.6722815 L7.91133164,17.6722815 L7.87831743,17.6743737 C7.77653704,17.6756612 7.68248681,17.608712 7.65285455,17.5057132 C7.62171919,17.3994957 7.66484345,17.2888078 7.75314974,17.2332552 L7.81132275,17.2070168 C7.91761239,17.1759026 8.02658612,17.2225739 8.08157998,17.3120124 Z M6.32703911,16.4582924 L6.39541582,16.5182125 C6.56490665,16.6978882 6.5745773,16.9721701 6.43438118,17.1638269 L6.37480207,17.231479 C6.30039932,17.3010032 6.21150252,17.3437316 6.11952574,17.3607505 L6.02694504,17.3692398 C5.89295567,17.3679524 5.7589663,17.3151655 5.65976263,17.2083043 C5.49256222,17.0274842 5.47805624,16.7571442 5.62076899,16.5654733 L5.68166474,16.4976128 C5.86146244,16.3270926 6.13389478,16.3173014 6.32703911,16.4582924 Z M24.2701135,14.7144466 C24.9368394,14.7144466 25.4846689,15.2213937 25.5505432,15.869293 L25.5571844,16.0006437 C25.5571844,16.6705381 25.0510253,17.2136956 24.4038889,17.2789735 L24.2726902,17.2855534 C23.5602275,17.2855534 22.9856192,16.7151977 22.9856192,16.0019312 C22.9856192,15.335658 23.490646,14.7870688 24.1387024,14.7210978 L24.2701135,14.7144466 Z M1.28835935,14.7144466 C1.95266964,14.7144466 2.49921584,15.2213937 2.56493915,15.8703538 L2.57156526,16.0019312 C2.57156526,16.6706185 2.06653846,17.212571 1.41954365,17.277703 L1.28835935,17.284268 C0.578473349,17.2855534 0,16.7151977 0,16.0006437 C0,15.3355775 0.508423842,14.7870638 1.15690486,14.7210975 L1.28835935,14.7144466 Z M16.5206733,16.3862322 L16.5824732,16.4100638 C16.70726,16.4817951 16.7657883,16.6244694 16.7320957,16.7521444 L16.7074441,16.814334 C16.6641552,16.893643 16.590358,16.9449364 16.5091398,16.9622814 L16.4471955,16.9688321 C16.3982378,16.9688321 16.3518569,16.9559573 16.3067643,16.9327826 C16.1819775,16.8676726 16.1243957,16.7249983 16.1607928,16.5955667 L16.1869469,16.5323749 C16.2509968,16.4098799 16.3936102,16.3535984 16.5206733,16.3862322 Z M9.18179904,16.1642444 L9.25557358,16.1937664 C9.39802931,16.2721191 9.46476107,16.438441 9.42412704,16.5873313 L9.39471639,16.6598358 C9.34524339,16.7515047 9.25949019,16.811862 9.16450203,16.8323382 L9.09195194,16.8400837 C9.03655249,16.8413712 8.97857632,16.8284963 8.92575358,16.7975967 C8.78440216,16.7214512 8.71972126,16.5573363 8.75929605,16.40741 L8.78789913,16.3341022 C8.86740931,16.1884326 9.03116241,16.123165 9.18179904,16.1642444 Z M18.1649316,15.9878778 L18.1942108,16.0560056 C18.2361745,16.1983646 18.1730711,16.3492368 18.0462786,16.4210581 L17.9777664,16.4499759 L17.933318,16.4593101 L17.933318,16.4593101 L17.8888696,16.4628507 C17.7497268,16.4641382 17.6208908,16.3727268 17.5822401,16.2336785 C17.5380677,16.0913194 17.6027486,15.9385555 17.730037,15.8678151 L17.7986844,15.8397082 C17.9433488,15.7966694 18.0927459,15.861464 18.1649316,15.9878778 Z M7.95081863,15.698265 L7.98009782,15.7663215 C8.02316583,15.9097841 7.95832718,16.0608139 7.8326389,16.1326578 L7.76494181,16.1615793 L7.72049341,16.1709136 L7.72049341,16.1709136 L7.67604501,16.1744542 C7.53819056,16.1744542 7.41064299,16.0830428 7.36683877,15.9452819 C7.32377076,15.8007158 7.39050251,15.6514201 7.51673168,15.5800942 L7.5845715,15.5513116 C7.72923585,15.5082729 7.87863295,15.5721216 7.95081863,15.698265 Z M16.5641582,15.177273 L16.6378727,15.2062658 C16.7803284,15.2846184 16.8451671,15.4490486 16.8039921,15.5990199 L16.7744388,15.6723352 C16.7249658,15.7650341 16.6400371,15.8247733 16.5453788,15.8449611 L16.4729627,15.852583 C16.4175632,15.852583 16.3621638,15.8397082 16.309341,15.8113835 C16.1646767,15.7319273 16.1004691,15.5692313 16.1394354,15.4173457 L16.1676215,15.3427391 C16.2438188,15.2025872 16.4127779,15.137162 16.5641582,15.177273 Z M21.9979963,14.181288 L22.1005163,14.2303524 C22.4701681,14.4380666 22.6222213,14.8816229 22.4693479,15.2654975 L22.4200294,15.3684888 C22.285879,15.6073172 22.0521022,15.7554584 21.7998303,15.788762 L21.690818,15.7959337 C21.5529636,15.7959337 21.4112441,15.7598841 21.2811198,15.687785 C20.912649,15.481251 20.7606942,15.0345475 20.9125834,14.6511319 L20.9616066,14.5483611 C21.169462,14.1777802 21.6154848,14.0289773 21.9979963,14.181288 Z M19.832995,14.7335858 L19.9012869,14.7942707 C20.0707777,14.9739463 20.0845202,15.2451764 19.9407047,15.4379635 L19.8793848,15.5062497 C19.8069146,15.5748082 19.7192256,15.6172952 19.6271884,15.6342538 L19.5341045,15.642723 C19.3988268,15.6414355 19.263549,15.5886487 19.1643453,15.4843624 C18.9948545,15.3046868 18.9851839,15.0324394 19.1271897,14.8403305 L19.1875358,14.7723835 C19.3696239,14.6007188 19.6402748,14.5908004 19.832995,14.7335858 Z M9.19464883,15.0498795 L9.25686194,15.0762298 C9.38054444,15.1391326 9.4408081,15.2824375 9.40438847,15.4112836 L9.37796772,15.4740626 C9.33364816,15.5523416 9.26046934,15.604253 9.17888012,15.6218864 L9.11643077,15.6285607 C9.06876147,15.6285607 9.01980382,15.6169733 8.9759996,15.5937986 C8.85452572,15.5264816 8.79741722,15.3844379 8.83307059,15.2552315 L8.8587589,15.1921034 C8.92501738,15.0674014 9.06699984,15.0126964 9.19464883,15.0498795 Z M4.20274666,13.8302395 L4.30956203,13.8750067 C4.73055822,14.082985 4.9232175,14.5707055 4.77202029,15.0029838 L4.72699046,15.1097044 C4.58269421,15.4003898 4.3111526,15.5801926 4.01461434,15.6165601 L3.90244047,15.6234108 C3.76200931,15.6234108 3.62028978,15.5925111 3.48887712,15.5268494 C3.06907018,15.3200596 2.87430684,14.8335275 3.02618664,14.3993997 L3.07144869,14.2921517 C3.28075754,13.8702529 3.76999866,13.6798271 4.20274666,13.8302395 Z M6.48048876,14.2261166 L6.5577491,14.2960142 C6.7757395,14.5266027 6.7881464,14.8781632 6.60060508,15.1254375 L6.53069355,15.2036908 C6.43174755,15.2963897 6.31136326,15.352009 6.1866913,15.3705488 L6.09265137,15.3775012 C5.92129958,15.3775012 5.75123614,15.3092645 5.62368857,15.1753661 C5.40685769,14.9447776 5.39456674,14.5921742 5.58211965,14.3475071 L5.65203247,14.2702645 C5.88393716,14.0501046 6.23585251,14.0385172 6.48048876,14.2261166 Z M17.8814735,14.4362606 L17.9069066,14.4955743 C17.9391156,14.598573 17.8952756,14.7087245 17.8052097,14.7641877 L17.7458617,14.7904082 L17.7136527,14.7973285 L17.7136527,14.7973285 L17.6814437,14.7994206 C17.5796633,14.7994206 17.4830364,14.7311839 17.4521158,14.6281852 C17.4231277,14.5241135 17.4675045,14.4137832 17.5546775,14.3590353 L17.6118723,14.3333512 C17.7192356,14.302237 17.8274936,14.3462261 17.8814735,14.4362606 Z M16.2497443,14.0157122 L16.3222246,14.0462422 C16.4935764,14.1386192 16.5672746,14.330555 16.5157,14.5064726 L16.4858463,14.5805483 C16.4291584,14.685607 16.3312431,14.7552342 16.2224438,14.7788827 L16.1392776,14.7878333 C16.076148,14.7878333 16.01173,14.7723835 15.9524655,14.7401963 C15.7844956,14.6523255 15.7092474,14.4540529 15.7612448,14.2782056 L15.7914206,14.2046028 C15.8838604,14.0390001 16.0769129,13.9630988 16.2497443,14.0157122 Z M8.31747686,14.1010131 L8.34728024,14.1749906 C8.40139133,14.3574916 8.31642,14.5478783 8.15537257,14.6305741 L8.08187821,14.6590848 L8.02390204,14.6717987 L8.02390204,14.6717987 L7.96592587,14.6758221 C7.79715079,14.6771096 7.64254767,14.5650984 7.59487838,14.3951505 C7.54302191,14.2137761 7.62334306,14.0225444 7.78578203,13.9370323 L7.8602804,13.9071938 C8.04177803,13.8519929 8.23215325,13.9387372 8.31747686,14.1010131 Z M9.56001409,13.9939321 L9.62275599,14.01663 C9.72153021,14.072421 9.76930687,14.1854335 9.7444642,14.2908463 L9.7206713,14.3526635 C9.68685187,14.4134971 9.62984197,14.4555013 9.56649093,14.4727013 L9.50165021,14.4814119 C9.46299943,14.4801245 9.42434865,14.4711121 9.38827459,14.4517998 C9.28735311,14.3992275 9.24100796,14.2867514 9.26564187,14.1791928 L9.28907092,14.1157663 C9.34275256,14.0181321 9.45369462,13.9705667 9.56001409,13.9939321 Z M23.9454469,11.848506 C24.5541967,11.8798884 25.0338589,12.3661653 25.0638378,12.9678632 L25.0637428,13.0896411 C25.0336811,13.6772491 24.5748992,14.1426089 24.0058322,14.2020453 L23.8823173,14.2084652 C23.8604152,14.2084652 23.8398014,14.2084652 23.8191877,14.2071777 C23.2104379,14.1757953 22.731908,13.6849921 22.7020707,13.0869718 L22.7021801,12.9660426 C22.7335839,12.351671 23.2247206,11.8776152 23.8242087,11.8483403 L23.9454469,11.848506 Z M2.84504785,12.8449172 L2.85758104,12.9660426 C2.89019264,13.5767931 2.45174785,14.1038068 1.85965771,14.19488 L1.73928512,14.2071777 L1.7083645,14.2083043 L1.7083645,14.2083043 L1.67744388,14.2084652 C1.05130123,14.2084652 0.526938975,13.7192211 0.494729991,13.0896411 C0.463326232,12.4740626 0.90297886,11.9512734 1.49309211,11.8607471 L1.61302591,11.848506 C2.22539921,11.8171235 2.75284648,12.2496882 2.84504785,12.8449172 Z M15.6047443,13.0136192 L15.6883518,13.0484416 C15.8766133,13.1464514 15.9603164,13.3666917 15.9006216,13.5633977 L15.8661454,13.6458345 C15.7985065,13.7692184 15.6816595,13.8487921 15.5536288,13.8718893 L15.4757725,13.8788692 C15.4049128,13.8788692 15.334053,13.8608444 15.2670583,13.8247948 C15.0776695,13.7234054 14.9938255,13.5037283 15.0535027,13.3080785 L15.0879764,13.2261145 C15.1883073,13.0379808 15.4060199,12.9533488 15.6047443,13.0136192 Z M10.2862986,13.0273802 L10.3493907,13.0535915 C10.4708645,13.1164944 10.527973,13.2569616 10.4939423,13.3866184 L10.4692081,13.4501368 C10.4269499,13.5284159 10.3533588,13.5786793 10.2721819,13.5956535 L10.2102479,13.60206 C10.1638669,13.6033475 10.1161976,13.5917601 10.071105,13.5685854 C9.94852686,13.504579 9.8912606,13.3620623 9.92608011,13.233464 L9.95128763,13.1707526 C10.0164418,13.0471541 10.15732,12.990715 10.2862986,13.0273802 Z M19.1736407,12.7601306 L19.2364935,12.8154069 C19.3706439,12.9584786 19.3824807,13.1744944 19.2737301,13.3297645 L19.2197448,13.3922 C19.1598361,13.44724 19.0883321,13.4812778 19.0139294,13.4953999 L18.9388825,13.5029237 C18.8293719,13.5029237 18.7211497,13.4604367 18.6399831,13.3741752 C18.503578,13.2311035 18.4924458,13.0150877 18.6022709,12.8580925 L18.6567318,12.7948071 C18.8021553,12.6596213 19.0176133,12.6486374 19.1736407,12.7601306 Z M7.25263941,12.1657708 L7.33076471,12.2373263 C7.57906669,12.499505 7.58992724,12.9021365 7.37302599,13.1763098 L7.30113244,13.2544391 C7.1898182,13.3594979 7.054592,13.4225331 6.91524305,13.4435449 L6.81026753,13.4514243 C6.61959035,13.4527118 6.42633644,13.3741752 6.28461692,13.224827 C6.03879795,12.9664288 6.02152105,12.5714157 6.23278622,12.2941417 L6.31167246,12.2064267 C6.57754298,11.9594637 6.978638,11.949781 7.25263941,12.1657708 Z M4.82835392,11.4865867 L4.93828139,11.5266348 C5.4108332,11.731069 5.64676729,12.2552197 5.50166911,12.7362341 L5.46135529,12.8463065 C5.31591383,13.1839136 5.00759831,13.3994481 4.66851768,13.4431766 L4.54017835,13.4514243 C4.40747734,13.4527118 4.27219961,13.4269621 4.14336367,13.3703128 C3.67081187,13.1670741 3.43265601,12.645229 3.5774368,12.1614454 L3.61771306,12.0506411 C3.82108978,11.5772146 4.34773296,11.3424654 4.82835392,11.4865867 Z M17.2754791,12.9601907 L17.3039544,13.0278419 C17.3448138,13.1702009 17.2806062,13.3229648 17.1551433,13.3953267 L17.0875101,13.4243871 L17.0430617,13.4337214 L17.0430617,13.4337214 L16.9986133,13.4372619 C16.8620472,13.4372619 16.7344996,13.347138 16.6919838,13.2080897 C16.6511244,13.06242 16.715332,12.9110749 16.8391722,12.8408075 L16.9058514,12.8128319 C17.0527244,12.7697932 17.2043301,12.8345878 17.2754791,12.9601907 Z M9.18207878,12.6570657 L9.21563444,12.7407328 C9.28434694,12.9753411 9.16982611,13.2231739 8.95803326,13.3305102 L8.87421921,13.3638753 L8.80352049,13.3794861 L8.80352049,13.3794861 L8.73378804,13.3844751 C8.51863203,13.3844751 8.32151305,13.2428518 8.25580672,13.0239794 C8.18594902,12.7893711 8.29728871,12.5445901 8.50929363,12.4370277 L8.59335687,12.4034118 C8.8315602,12.3336016 9.07485334,12.4458829 9.18207878,12.6570657 Z M21.3815822,12.0709434 L21.4782387,12.1214527 C21.7616778,12.3017006 21.8662372,12.6585785 21.7328712,12.9589658 L21.6856646,13.0471541 C21.5763381,13.2204128 21.3998066,13.3255661 21.2120517,13.352074 L21.1174981,13.3587254 C20.995104,13.3600129 20.8714215,13.3265383 20.7606226,13.2557266 C20.4788584,13.0761225 20.3745013,12.7234033 20.5010865,12.4265814 L20.5519084,12.3300252 C20.730475,12.0472936 21.0843615,11.9449772 21.3815822,12.0709434 Z M14.7068482,12.2513491 L14.7903654,12.2862507 C15.0056645,12.4052715 15.101862,12.6595895 15.0282859,12.8819199 L14.9926378,12.9634676 C14.9164098,13.104018 14.7838162,13.1953937 14.6381004,13.221948 L14.5494422,13.2299769 C14.4682755,13.2312644 14.3858205,13.2119521 14.3098073,13.1681777 C14.0945082,13.0525902 13.9962747,12.799671 14.072113,12.5730878 L14.1088233,12.4896733 C14.2256345,12.2745203 14.4798707,12.1794054 14.7068482,12.2513491 Z M11.269166,12.3162451 L11.3336972,12.3429001 C11.4802481,12.4251381 11.5469006,12.5970777 11.4999937,12.7491794 L11.47284,12.8128319 C11.4223363,12.9034708 11.3355524,12.9636221 11.2408529,12.9840571 L11.1687872,12.9917923 C11.1146761,12.9930798 11.0592767,12.9802049 11.0077423,12.9505928 C10.8578095,12.8694813 10.7927071,12.7016254 10.8409174,12.548802 L10.8685995,12.4845234 C10.9441296,12.338072 11.1153404,12.2704791 11.269166,12.3162451 Z M13.5879903,11.9203137 L13.6617626,11.9527922 C13.8511514,12.0519285 13.934009,12.271324 13.8749483,12.4678012 L13.8408445,12.5501851 C13.7732056,12.673569 13.6563586,12.7522486 13.5283279,12.7750478 L13.4504716,12.7819323 C13.3783235,12.7832198 13.3061754,12.7664825 13.2391807,12.7304329 C13.0497919,12.6301701 12.9689071,12.4126053 13.0301872,12.2140158 L13.0652522,12.1304651 C13.1648853,11.9404896 13.3876919,11.8532585 13.5879903,11.9203137 Z M12.4001392,11.9377171 L12.4738952,11.968242 C12.6429924,12.0561129 12.7183816,12.2514283 12.6646756,12.4282613 L12.6336518,12.5025481 C12.5779947,12.6076069 12.479461,12.6755861 12.3697133,12.6985754 L12.2857948,12.7072582 C12.2226652,12.7072582 12.1569588,12.6930959 12.0976943,12.6621962 C11.9308518,12.5720723 11.8577172,12.3764752 11.9093623,12.2021946 L11.9392261,12.1291776 C12.0316659,11.9613218 12.2247185,11.8851389 12.4001392,11.9377171 Z M16.2464656,11.7729115 L16.2758437,11.845931 C16.3310821,12.0295585 16.2472381,12.2200861 16.0855918,12.305387 L16.01173,12.3351752 L15.9550422,12.3478891 L15.9550422,12.3478891 L15.8983544,12.3519125 C15.728291,12.3519125 15.5723995,12.2386138 15.5208651,12.0699533 C15.4690086,11.8885789 15.5552482,11.698333 15.7165775,11.6122048 L15.7901322,11.5819967 C15.9716298,11.5279223 16.1620051,11.612836 16.2464656,11.7729115 Z M10.4052024,11.5424503 L10.4382875,11.6270586 C10.5159755,11.8924092 10.385993,12.1744456 10.1413219,12.2920225 L10.0556447,12.3248753 L9.97544437,12.3422563 L9.97544437,12.3422563 L9.89717654,12.34805 C9.65238826,12.34805 9.43079045,12.1884019 9.35864233,11.9424924 C9.28095426,11.6771418 9.40780612,11.398234 9.65279023,11.2803442 L9.73870834,11.2472507 C10.0088773,11.1696154 10.2873948,11.3005525 10.4052024,11.5424503 Z M8.6335853,10.4029067 L8.71575101,10.4799099 C9.00391405,10.7855802 9.01493668,11.2491998 8.75775018,11.568303 L8.68096531,11.6515208 C8.55212937,11.7720294 8.39608329,11.8439315 8.23459517,11.867872 L8.11279883,11.8768446 C7.89248939,11.8781181 7.67217994,11.7905692 7.50984666,11.6167588 C7.22286461,11.3075479 7.2119404,10.8468787 7.4691351,10.5282919 L7.54592072,10.4451478 C7.85061771,10.1571804 8.31770165,10.1450834 8.6335853,10.4029067 Z M11.9271217,10.8315083 L11.9598399,10.9202296 C12.0511962,11.2327372 11.8997874,11.5580133 11.6120893,11.6900216 L11.5217977,11.72362 L11.4309683,11.7427713 L11.4309683,11.7427713 L11.340139,11.7493697 C11.060565,11.7493697 10.8028932,11.5665469 10.7217265,11.2858752 C10.6315414,10.9721972 10.7819919,10.6489428 11.0695061,10.5163444 L11.1597687,10.4824848 C11.4701462,10.3935314 11.7975598,10.5482423 11.9271217,10.8315083 Z M14.9430138,10.967206 L14.9758891,11.051553 C15.0446016,11.2850169 14.9341526,11.530688 14.7214549,11.6366538 L14.6370506,11.6695456 L14.5657077,11.6862829 L14.5657077,11.6862829 L14.4953311,11.6914329 C14.2788867,11.6914329 14.079191,11.5498096 14.0160614,11.3335122 C13.9473489,11.0977594 14.0608518,10.851834 14.2715135,10.7458399 L14.3548999,10.7129446 C14.591958,10.6442787 14.8371598,10.7546527 14.9430138,10.967206 Z M17.9037026,11.0830833 L17.9571526,11.1288021 C18.0565404,11.231433 18.0669524,11.3889265 17.9900114,11.5031786 L17.944269,11.556247 C17.9056183,11.5931549 17.8595236,11.6180462 17.810566,11.6305396 L17.7355548,11.6399335 L17.7342665,11.6399335 C17.6530998,11.6399335 17.5732215,11.6077464 17.513957,11.5433721 C17.4156736,11.4385341 17.4063659,11.2816712 17.4819772,11.1668336 L17.5268406,11.1133523 C17.6328542,11.0162392 17.7890349,11.0061495 17.9037026,11.0830833 Z M13.4325351,10.6524534 L13.4646436,10.7374068 C13.5411721,11.0062336 13.4142043,11.2865318 13.1701478,11.4027878 L13.0845776,11.4352234 L13.0042162,11.4526045 L13.0042162,11.4526045 L12.924821,11.4583982 C12.6826095,11.4583982 12.4584349,11.3000376 12.3862868,11.054128 C12.3085987,10.7887774 12.4396249,10.5109125 12.6826262,10.3932313 L12.7676412,10.3601738 C13.0366506,10.2790623 13.3171393,10.4096518 13.4325351,10.6524534 Z M5.94733769,9.53986623 L6.05786567,9.57352073 C6.50026845,9.73752646 6.74287643,10.1988269 6.63774349,10.6475536 L6.60413003,10.759294 C6.48006103,11.09301 6.18171565,11.313054 5.849976,11.3537257 L5.73835255,11.3605493 C5.63141872,11.3605493 5.52319654,11.3412371 5.41755107,11.3026125 C4.9775268,11.1386068 4.73400401,10.6740153 4.83898214,10.2288328 L4.87257507,10.1181267 C5.03669223,9.67364742 5.50269714,9.43431242 5.94733769,9.53986623 Z M3.87390799,10.0305862 L3.8921336,10.1464514 C3.9498521,10.6956065 3.58109502,11.1920491 3.05297076,11.3060458 L2.93745932,11.3244998 L2.88028837,11.3296497 L2.88028837,11.3296497 L2.8240837,11.3309372 C2.28297277,11.3296497 1.8191634,10.9202296 1.76118723,10.3704737 C1.70346873,9.81891529 2.07110351,9.32567709 2.59907813,9.21211828 L2.71457315,9.19371278 C3.26410136,9.13603347 3.76088128,9.50117554 3.87390799,10.0305862 Z M22.7272957,9.18644298 L22.8438997,9.1924253 C23.3934279,9.25010461 23.8026681,9.71041754 23.8034644,10.2520049 L23.7972856,10.3691862 C23.7434506,10.8808694 23.3396879,11.2693284 22.848007,11.3222119 L22.7331008,11.3283622 C22.6957383,11.3296497 22.6570875,11.3283622 22.6197251,11.3232123 C22.0713994,11.265533 21.6611171,10.8018554 21.659129,10.261913 L21.6650508,10.1451639 C21.7227693,9.59360549 22.1878843,9.18784758 22.7272957,9.18644298 Z M20.2125644,10.1400528 L20.2993899,10.1902258 C20.5204151,10.3470129 20.5917998,10.6370625 20.4800642,10.8768136 L20.4295142,10.9640041 C20.3393291,11.0906067 20.2053039,11.1680346 20.0624809,11.1903272 L19.9760117,11.1970388 C19.8665012,11.1970388 19.7544139,11.1648517 19.657787,11.0953275 C19.4356166,10.9373961 19.3641047,10.6472193 19.4749212,10.4092625 L19.525086,10.3228368 C19.6842699,10.0996728 19.9737531,10.0290995 20.2125644,10.1400528 Z M10.3189066,9.28119596 L10.39706,9.35336087 C10.6417194,9.6140765 10.6578368,10.0093214 10.4463513,10.2847414 L10.3674277,10.3717612 C10.2561135,10.4768199 10.1200627,10.5390312 9.9797243,10.5597133 L9.87398607,10.5674588 C9.68073216,10.5674588 9.49005498,10.4914972 9.34704709,10.3395741 C9.10238765,10.0834934 9.08835742,9.68766912 9.30026032,9.41020975 L9.37925608,9.32246124 C9.64278413,9.07432785 10.0447309,9.06347467 10.3189066,9.28119596 Z M16.2868526,9.69928937 L16.3492802,9.75376857 C16.4845579,9.89571375 16.4965356,10.110603 16.3869395,10.2664716 L16.3325315,10.3292742 C16.2735891,10.3852798 16.201602,10.4202832 16.1268973,10.4342846 L16.0516692,10.4412853 C15.943447,10.4399979 15.8352248,10.3975109 15.7553465,10.3125369 C15.6189415,10.1694652 15.6078092,9.95246366 15.7167712,9.7978096 L15.7708068,9.73574379 C15.9162304,9.59943136 16.1316884,9.58929242 16.2868526,9.69928937 Z M12.3055801,8.74404335 L12.3824217,8.81390483 C12.6015716,9.04449332 12.6151381,9.39709672 12.4278171,9.64176385 L12.3579429,9.71900649 C12.2589969,9.81273537 12.1386126,9.8685607 12.013281,9.88714168 L11.9186124,9.89410439 C11.7459722,9.89281691 11.5759088,9.82586771 11.4496496,9.6932568 C11.2316592,9.46266831 11.2192523,9.10902205 11.4077328,8.8660235 L11.4779935,8.78944263 C11.7122172,8.56928276 12.0622773,8.55665254 12.3055801,8.74404335 Z M14.3461694,8.91101367 L14.4141644,8.97097795 C14.5836553,9.14950915 14.5963798,9.42264662 14.4541477,9.61496749 L14.3935507,9.68295692 C14.3201142,9.75151548 14.231459,9.79400247 14.1400861,9.81096105 L14.0482704,9.81943029 C13.9129926,9.81943029 13.7777149,9.76664342 13.6785112,9.66106969 C13.5101656,9.48253849 13.4985863,9.21041829 13.6401538,9.01741923 L13.7004133,8.94909071 C13.8813563,8.77857053 14.1539158,8.76979657 14.3461694,8.91101367 Z M7.5676041,7.98513161 L7.66960322,8.01051446 C8.07751761,8.13648987 8.31966818,8.54440155 8.24608216,8.95374781 L8.22102102,9.05595193 C8.1213879,9.37410368 7.84870107,9.59154552 7.53868894,9.63593813 L7.42094986,9.64433239 C7.3372065,9.64433239 7.25346315,9.63145754 7.17100815,9.60570785 C6.76428301,9.47973243 6.5233217,9.07072372 6.59809697,8.66120869 L6.62345542,8.55898289 C6.75070569,8.14896857 7.158986,7.91009066 7.5676041,7.98513161 Z M18.5392394,8.58035966 L18.6129275,8.62721957 C18.7775155,8.75789925 18.8227489,8.98123759 18.731366,9.16181988 L18.6837873,9.23619977 C18.6157619,9.32271874 18.521351,9.37545411 18.4210032,9.3930875 L18.3449488,9.39971032 C18.2508986,9.39842283 18.15556,9.36881069 18.0756817,9.30572394 C17.9122211,9.17504426 17.8671285,8.95072019 17.957666,8.7716165 L18.0048219,8.69803122 C18.1344631,8.53242852 18.3597851,8.49004211 18.5392394,8.58035966 Z M5.48003152,7.63912526 L5.50387115,7.74529263 C5.57284793,8.17788745 5.30480819,8.58525062 4.89329789,8.70409535 L4.78754335,8.72764337 L4.71942135,8.73569015 L4.71942135,8.73569015 L4.65226562,8.73794324 C4.23612555,8.73794324 3.87151985,8.43667185 3.80452516,8.01437691 C3.73554839,7.57821675 4.00249035,7.17277338 4.41281843,7.0542451 L4.51827624,7.03073869 C4.95235424,6.96180875 5.36008567,7.2263754 5.48003152,7.63912526 Z M20.9339195,7.01933359 L21.0414849,7.02945121 C21.4731844,7.09838115 21.7808355,7.47557604 21.7658255,7.90483758 L21.755236,8.01308943 C21.6943317,8.39816436 21.3853385,8.68215579 21.017977,8.73060816 L20.9062072,8.73794324 C20.862403,8.73923073 20.8173104,8.73536827 20.7722178,8.72764337 C20.3393291,8.65871342 20.0315865,8.27932448 20.0465894,7.85175067 L20.0571784,7.74400515 C20.1261552,7.30903344 20.5068997,7.00570512 20.9339195,7.01933359 Z M9.53382338,6.99909327 L9.63177451,7.01657636 C9.95854929,7.10084808 10.1682005,7.4075035 10.1348929,7.73340831 L10.117486,7.8315541 C10.0487735,8.10163975 9.82533062,8.29034367 9.56569352,8.32894348 L9.46686451,8.33624806 C9.41146506,8.33624806 9.35606561,8.33109812 9.2993778,8.3156483 C8.97377425,8.23254702 8.76529428,7.92386994 8.79880518,7.59855518 L8.81624304,7.50067056 C8.89940078,7.17177678 9.2082876,6.96524723 9.53382338,6.99909327 Z M16.4147374,7.37187181 L16.4922881,7.39638431 C16.671531,7.47298965 16.76693,7.66492543 16.7284252,7.84885216 L16.703579,7.92682796 C16.6488237,8.05343061 16.5359133,8.13801119 16.4095825,8.16268798 L16.3325315,8.17016254 C16.2797088,8.16887506 16.226886,8.15857518 16.1727749,8.13540046 C15.9946593,8.05992168 15.8994012,7.86812671 15.9379236,7.6850801 L15.9627724,7.60753178 C16.0405571,7.42728394 16.2317778,7.33378038 16.4147374,7.37187181 Z M11.756864,6.53727804 L11.8464642,6.54793198 C12.1154737,6.60355131 12.3009974,6.84375731 12.291269,7.11180774 L12.2806413,7.20197414 C12.2344214,7.43179014 12.0510919,7.59950512 11.8324986,7.63784299 L11.7369537,7.64615632 C11.7008796,7.64615632 11.6648056,7.64229387 11.6274431,7.63456896 C11.3572742,7.58010836 11.1726781,7.33793251 11.1826036,7.07229226 L11.193266,6.98310176 C11.2477636,6.71195751 11.490104,6.52737085 11.756864,6.53727804 Z M14.0645366,6.69539576 L14.1423206,6.69985516 C14.3530389,6.73075479 14.5067513,6.90712428 14.5129722,7.11231647 L14.5082147,7.19038678 C14.4811591,7.37964701 14.3347491,7.52159219 14.1561579,7.55412129 L14.0779026,7.56118234 C14.0585772,7.56118234 14.0366751,7.55989486 14.0160614,7.5560324 C13.8064883,7.52513277 13.6539211,7.34774601 13.6470357,7.14232776 L13.6514557,7.06421329 C13.6823763,6.85363804 13.8598836,6.70206455 14.0645366,6.69539576 Z M18.579088,5.34338436 L18.6747688,5.35700874 C19.0255246,5.43136098 19.261527,5.75345564 19.2349136,6.10412904 L19.2210332,6.20031114 C19.1580467,6.49557427 18.9179347,6.70945566 18.6346158,6.75333963 L18.5266075,6.76165442 C18.4789382,6.76165442 18.4286922,6.75650448 18.3784461,6.7462046 C18.0265093,6.67185237 17.7914911,6.34867586 17.8182767,5.99980554 L17.8321818,5.90418969 C17.9065845,5.55131162 18.2299806,5.31743648 18.579088,5.34338436 Z M7.69870612,5.81127696 L7.72500267,5.90418969 C7.79940542,6.25470737 7.5999155,6.60197951 7.27141816,6.71990058 L7.1787383,6.7462046 L7.10481869,6.75779196 L7.10481869,6.75779196 L7.03186534,6.76165442 C6.7033337,6.76165442 6.40829941,6.53248216 6.33743965,6.20031114 C6.2618559,5.84625288 6.46232998,5.50193123 6.79099955,5.3835348 L6.88370401,5.35700874 C7.23445985,5.28265651 7.58088536,5.48201098 7.69870612,5.81127696 Z M10.3112037,4.67969401 L10.3416605,4.76476584 C10.4123914,5.03011641 10.2775389,5.30276702 10.0329026,5.41283536 L9.94742255,5.44327021 L9.87591861,5.45775441 L9.87591861,5.45775441 L9.80441466,5.46258248 C9.56091475,5.46129499 9.33545186,5.29907194 9.26845717,5.05058741 C9.19772624,4.78407811 9.33362239,4.51235449 9.57658892,4.4034217 L9.66140677,4.37337053 C9.92809716,4.30152889 10.201049,4.43617402 10.3112037,4.67969401 Z M15.80723,4.3556483 L15.8957777,4.37208304 C16.1624681,4.44276595 16.3331499,4.69490693 16.3063881,4.96143941 L16.2900156,5.05058741 C16.2325226,5.26688482 16.0527159,5.41910976 15.8438105,5.45378634 L15.7527698,5.46129499 C15.7063889,5.46129499 15.6587196,5.45614506 15.6097619,5.44198273 C15.344231,5.37014109 15.1747087,5.11684137 15.2007516,4.85102731 L15.2168123,4.76219087 C15.2887027,4.4968403 15.5421746,4.32847594 15.80723,4.3556483 Z M12.777948,4 C13.0321843,4 13.2436661,4.18107437 13.2875233,4.42295899 L13.2958685,4.51628132 C13.2958685,4.76920051 13.1126352,4.97939429 12.8710386,5.02298156 L12.777948,5.03127515 C12.494509,5.03127515 12.2626043,4.80081541 12.2626043,4.51499383 C12.2626043,4.26093021 12.4458376,4.05162654 12.6856245,4.0082512 L12.777948,4 Z" transform="translate(52.000000, 16.000000) scale(1, -1) translate(-52.000000, -16.000000) "></path>
                </g>
            </g>
        </g>
    </g>
</svg>