<?xml version="1.0" encoding="UTF-8"?>
<svg width="106px" height="12px" viewBox="0 0 106 12" version="1.1" xmlns="http://www.w3.org/2000/svg" xmlns:xlink="http://www.w3.org/1999/xlink">
    <!-- Generator: Sketch 59.1 (86144) - https://sketch.com -->
    <title>Combined Shape</title>
    <desc>Created with Sketch.</desc>
    <g id="Page-1" stroke="none" stroke-width="1" fill="none" fill-rule="evenodd">
        <g id="Home-01" transform="translate(-1134.000000, -910.000000)" fill="#000000">
            <g id="Logos" transform="translate(200.000000, 836.000000)">
                <g transform="translate(0.000000, 64.000000)" id="Combined-Shape">
                    <path d="M970.136515,10 C972.113774,10 973.98879,10.9886652 975.113756,12.6249933 L975.522874,13.2386697 L974.261464,14.0909624 L973.852417,13.4772861 C973.000124,12.2500044 971.636479,11.5340842 970.136515,11.5340842 C967.681951,11.5340842 965.670563,13.5454723 965.670563,16.0000356 C965.670563,18.4545277 967.681951,20.4659158 970.136515,20.4659158 C971.636479,20.4659158 973.000124,19.7499956 973.852417,18.5227139 L974.261464,17.9091087 L975.522874,18.7614014 L975.113756,19.3750067 C973.98879,21.0113348 972.113774,22 970.136515,22 C966.829659,22 964.136479,19.3068204 964.136479,16.0000356 C964.136479,12.6931796 966.829659,10 970.136515,10 Z M1011.11376,10 C1014.42068,10 1017.11401,12.6931796 1017.11401,16.0000356 C1017.11401,19.3068204 1014.42068,22 1011.11376,22 C1007.80683,22 1005.11351,19.3068204 1005.11351,16.0000356 C1005.11351,12.6931796 1007.80683,10 1011.11376,10 Z M1020.35267,10.272745 L1023.93192,14.6363814 L1027.51117,10.272745 L1029.45437,10.272745 L1024.88681,15.8295343 L1029.7274,21.727255 L1027.75007,21.727255 L1023.93192,17.056816 L1020.07965,21.727255 L1018.10231,21.727255 L1022.94361,15.8295343 L1018.37534,10.272745 L1020.35267,10.272745 Z M958.716062,10.272745 C960.488763,10.272745 961.954732,11.738643 961.954732,13.5113436 C961.954732,15.3181729 960.488763,16.7500133 958.716062,16.7500133 L958.716062,16.7500133 L958.0342,16.7500133 L961.98879,21.727255 L960.045588,21.727255 L956.090927,16.7500133 L954.147725,16.7500133 L954.147725,21.727255 L952.647769,21.727255 L952.647769,10.272745 Z M980.022883,10.272745 L980.022883,15.4545455 L986.977384,15.4545455 L986.977384,10.272745 L988.511539,10.272745 L988.511539,21.727255 L986.977384,21.727255 L986.977384,16.9886297 L980.022883,16.9886297 L980.022883,21.727255 L978.522856,21.727255 L978.522856,10.272745 L980.022883,10.272745 Z M948.931796,10.272745 L948.931796,21.727255 L947.43184,21.727255 L947.43184,10.272745 L948.931796,10.272745 Z M998.943326,10.272745 C1000.71603,10.272745 1002.18192,11.738643 1002.18192,13.5113436 C1002.18192,14.4659513 1001.73875,15.3181729 1001.09109,15.9318493 C1001.84106,16.511397 1002.35243,17.4318049 1002.35243,18.4886564 C1002.35243,20.261357 1000.88653,21.727255 999.113756,21.727255 L999.113756,21.727255 L992.261499,21.727255 L992.261499,10.272745 Z M940.681827,10.272745 C942.454528,10.272745 943.920426,11.738643 943.920426,13.5113436 C943.920426,14.4659513 943.511379,15.3181729 942.829588,15.9318493 C943.579494,16.511397 944.090927,17.4318049 944.090927,18.4886564 C944.090927,20.261357 942.625029,21.727255 940.852257,21.727255 L940.852257,21.727255 L934,21.727255 L934,10.272745 Z M1011.11375,11.5340842 C1008.62521,11.5340842 1006.61375,13.5454723 1006.61375,16.0000356 C1006.61375,18.4545277 1008.62521,20.4659158 1011.11375,20.4659158 C1013.60231,20.4659158 1015.61377,18.4545277 1015.61377,16.0000356 C1015.61377,13.5454723 1013.60231,11.5340842 1011.11375,11.5340842 Z M999.113756,16.7500133 L993.795583,16.7500133 L993.795583,20.1931707 L999.113756,20.1931707 C1000.06829,20.1931707 1000.81834,19.4431218 1000.81834,18.4886564 C1000.81834,17.5341198 1000.06829,16.7500133 999.113756,16.7500133 L999.113756,16.7500133 Z M940.852257,16.7500133 L935.534084,16.7500133 L935.534084,20.1931707 L940.852257,20.1931707 C941.806794,20.1931707 942.556843,19.4431218 942.556843,18.4886564 C942.556843,17.5341198 941.806794,16.7500133 940.852257,16.7500133 L940.852257,16.7500133 Z M1035.62526,12.2500044 L1039.37515,16.0000356 L1035.62526,19.7500044 L1031.87537,16.0000356 L1035.62526,12.2500044 Z M958.716062,11.8068293 L954.147725,11.8068293 L954.147725,15.2499867 L958.716062,15.2499867 C959.670599,15.2499867 960.420577,14.4659513 960.420577,13.5113436 C960.420577,12.5568071 959.670599,11.8068293 958.716062,11.8068293 L958.716062,11.8068293 Z M998.943326,11.8068293 L993.795583,11.8068293 L993.795583,15.2499867 L998.943326,15.2499867 C999.863805,15.2499867 1000.64784,14.4659513 1000.64784,13.5113436 C1000.64784,12.5568071 999.863805,11.8068293 998.943326,11.8068293 L998.943326,11.8068293 Z M940.681827,11.8068293 L935.534084,11.8068293 L935.534084,15.2499867 L940.681827,15.2499867 C941.636364,15.2499867 942.386341,14.4659513 942.386341,13.5113436 C942.386341,12.5568071 941.636364,11.8068293 940.681827,11.8068293 L940.681827,11.8068293 Z"></path>
                </g>
            </g>
        </g>
    </g>
</svg>