<?xml version="1.0" encoding="UTF-8"?>
<svg width="147px" height="28px" viewBox="0 0 147 28" version="1.1" xmlns="http://www.w3.org/2000/svg" xmlns:xlink="http://www.w3.org/1999/xlink">
    <!-- Generator: Sketch 60.1 (88133) - https://sketch.com -->
    <title>05/Brand/Logo Small</title>
    <desc>Created with Sketch.</desc>
    <g id="05/Brand/Logo-Small" stroke="none" stroke-width="1" fill="none" fill-rule="evenodd">
        <g id="Group" transform="translate(0.000000, 0.130074)">
            <path d="M1.45008982,0.237596114 L15.2670259,13.3480285 C15.689109,13.7468394 15.8999629,14.2523529 15.8999629,14.810461 L15.8999629,26.8304069 C15.8999629,27.1762448 15.689109,27.4952177 15.372828,27.6284069 C15.056172,27.7612177 14.7136281,27.7082448 14.4494979,27.4687312 L0.632561822,14.3582988 C0.210853941,13.9598664 -7.10542736e-15,13.4543529 -7.10542736e-15,12.8958664 L-7.10542736e-15,0.875920439 C-7.10542736e-15,0.503596114 0.210853941,0.211109628 0.527134852,0.0779204386 C0.843790947,-0.0548903722 1.1863348,-0.00153902082 1.45008982,0.237596114 M35.4654827,13.8001907 L44.3780012,7.68370422 C44.6151181,7.52402855 44.746808,7.28489341 44.746808,6.99240693 C44.746808,6.67305557 44.6151181,6.43392044 44.3780012,6.27424476 L35.4654827,0.157758276 C35.1750896,-0.0280255073 34.8588087,-0.0548903722 34.5687907,0.104785304 C34.2787727,0.264082601 34.1204447,0.530082601 34.1204447,0.875920439 L34.1204447,13.0820285 C34.1204447,13.4278664 34.2787727,13.693488 34.5687907,13.8531637 C34.8588087,14.0128394 35.1750896,13.9859745 35.4654827,13.8001907 M18.6421897,0.237596114 L32.4595009,13.3480285 C32.8812088,13.7468394 33.0920628,14.2523529 33.0920628,14.810461 L33.0920628,26.8304069 C33.0920628,27.1762448 32.9074718,27.4952177 32.5649279,27.6284069 C32.2482718,27.7612177 31.905728,27.7082448 31.6419729,27.4687312 L17.8250369,14.3582988 C17.4292167,13.9598664 17.2183628,13.4543529 17.2183628,12.8958664 L17.2183628,0.875920439 C17.2183628,0.503596114 17.4029538,0.211109628 17.7196099,0.0779204386 C18.0358908,-0.0548903722 18.4050728,-0.00153902082 18.6421897,0.237596114" id="Fill-15" fill="#0055FB"></path>
            <path d="M90.5491613,3.37563936 L90.5491613,10.795261 C91.3400512,9.86407179 92.763878,9.0134772 94.8206419,9.0134772 C98.9604326,9.0134772 101.175525,12.3905042 101.175525,15.9805583 C101.175525,19.5706123 98.9604326,22.9215312 94.8206419,22.9215312 C92.4213342,22.9215312 90.9183433,21.8045583 90.1008153,20.634234 L90.1008153,20.634234 L90.1008153,22.5492069 L86.7519144,22.5492069 L86.7519144,3.37563936 L90.5491613,3.37563936 Z M106.396448,3.37563936 L106.396448,10.795261 C107.213976,9.86407179 108.637803,9.0134772 110.694567,9.0134772 C114.834358,9.0134772 117.04945,12.3905042 117.04945,15.9805583 C117.04945,19.5706123 114.834358,22.9215312 110.694567,22.9215312 C108.268621,22.9215312 106.791893,21.8045583 105.97474,20.634234 L105.97474,20.634234 L105.97474,22.5492069 L102.625839,22.5492069 L102.625839,3.37563936 L106.396448,3.37563936 Z M130.101796,4.51928801 L130.101796,9.38561233 L134.215324,9.38561233 L134.215324,12.6033421 L130.101796,12.6033421 L130.101796,17.7625312 C130.101796,19.1186394 130.760996,19.7304772 132.184823,19.7304772 L132.184823,19.7304772 L134.215324,19.7304772 L134.215324,22.4691799 C133.292369,22.7616664 132.211086,22.9213421 131.051014,22.9213421 C128.519641,22.9213421 126.357451,21.7513961 126.357451,18.480315 L126.357451,18.480315 L126.357451,12.6033421 L123.66775,12.6033421 L123.641487,9.38561233 L126.357451,9.38561233 L126.357451,6.80620693 L130.101796,4.51928801 Z M84.484184,9.38557449 L84.484184,22.5489799 L80.7135753,22.5489799 L80.7135753,9.38557449 L84.484184,9.38557449 Z M122.323087,9.38557449 L122.323087,22.5489799 L118.52584,22.5489799 L118.52584,9.38557449 L122.323087,9.38557449 Z M146.502781,9.38557449 L146.502781,11.8586556 L140.385391,19.3577367 L146.951127,19.3577367 L146.951127,22.5489799 L135.533499,22.5489799 L135.533499,20.0758988 L141.650889,12.5503312 L135.876418,12.5503312 L135.876418,9.38557449 L146.502781,9.38557449 Z M61.6492651,9.38557449 L64.0223098,18.4004394 L66.6328467,9.38557449 L70.2188644,9.38557449 L72.8031384,18.4004394 L75.1761832,9.38557449 L79.184284,9.38557449 L74.9915922,22.5489799 L71.0101295,22.5489799 L68.4258556,13.9862772 L65.8419568,22.5489799 L61.833856,22.5489799 L57.6411643,9.38557449 L61.6492651,9.38557449 Z M93.8980621,12.2312069 C89.2041232,12.2312069 89.2041232,19.730288 93.8980621,19.730288 C96.0598778,19.730288 97.3257518,18.0283421 97.3257518,15.9805583 C97.3257518,13.906288 96.0598778,12.2312069 93.8980621,12.2312069 Z M109.771612,12.2312069 C105.078048,12.2312069 105.078048,19.730288 109.771612,19.730288 C111.90754,19.730288 113.199302,18.0283421 113.199302,15.9805583 C113.199302,13.906288 111.90754,12.2312069 109.771612,12.2312069 Z M82.5856357,2.89695287 C83.7723456,2.89695287 84.8007276,3.56176368 84.8007276,5.05106098 C84.8007276,6.54035828 83.7723456,7.20516909 82.5856357,7.20516909 C81.4255638,7.20516909 80.3709189,6.54035828 80.3709189,5.05106098 C80.3709189,3.56176368 81.4255638,2.89695287 82.5856357,2.89695287 Z M120.424313,2.89695287 C121.611023,2.89695287 122.639405,3.56176368 122.639405,5.05106098 C122.639405,6.54035828 121.611023,7.20516909 120.424313,7.20516909 C119.237978,7.20516909 118.209597,6.54035828 118.209597,5.05106098 C118.209597,3.56176368 119.237978,2.89695287 120.424313,2.89695287 Z" id="Combined-Shape" fill="#000000"></path>
        </g>
    </g>
</svg>