<?xml version="1.0" encoding="UTF-8"?>
<svg width="33px" height="32px" viewBox="0 0 33 32" version="1.1" xmlns="http://www.w3.org/2000/svg" xmlns:xlink="http://www.w3.org/1999/xlink">
    <!-- Generator: Sketch 60.1 (88133) - https://sketch.com -->
    <title>Group 14</title>
    <desc>Created with Sketch.</desc>
    <g id="Page-1" stroke="none" stroke-width="1" fill="none" fill-rule="evenodd">
        <g id="Video-Hub" transform="translate(-584.000000, -930.000000)">
            <g id="02---(9:16)" transform="translate(540.000000, 520.000000)">
                <g id="Logo" transform="translate(10.000000, 402.000000)">
                    <g id="Group-14" transform="translate(34.000000, 8.000000)">
                        <path d="M3.85599382,5.33523232 C2.49088244,6.56817424 1.99374779,9.36172318 4.45483418,10.9947715 L14.2731537,17.7145449 L9.51253464,6.83443212 C8.51502706,4.26696251 5.78612361,3.7069814 3.85599382,5.33523232" id="Path" fill="#FF6428"></path>
                        <path d="M12.3075228,0.045215866 C10.7114147,0.0775985818 8.31497383,1.97366656 9.38168448,4.86880128 L14.3052965,16.4528183 L16.0352531,4.26864161 C16.4355995,1.24109756 14.1391852,-0.156516459 12.3075228,0.045215866" id="Path" fill="#B42846"></path>
                        <path d="M16.803683,3.80388967 L17.734746,3.80388967 C17.734746,3.80388967 18.2318807,3.80388967 18.2994046,4.03788478 C17.9331201,4.33640544 16.9359724,4.37370553 17.0681418,5.96801457 L18.6334264,16.4511392 L23.5233364,4.83665843 C24.5237224,2.24340258 22.4241231,0.0775985818 20.5618771,0.0113939185 C20.4748035,0.00503731134 20.3876101,-1.0658141e-14 20.2972983,-1.0658141e-14 C18.6255106,-1.0658141e-14 16.7101329,1.21207306 16.803683,3.80388967" id="Path" fill="#5A5A96"></path>
                        <path d="M23.3266414,6.9330195 L18.7014301,17.6826419 L28.5165113,10.9273675 C30.7792235,9.326462 30.4143783,6.76690816 29.1477343,5.50170347 C28.6166578,4.9062213 27.6419381,4.44626674 26.6092892,4.44626674 C25.3890605,4.44602693 24.0835574,5.09164234 23.3266414,6.9330195" id="Path" fill="#008CC3"></path>
                        <path d="M27.4176578,12.4570311 L18.1998578,18.8800828 L29.5496398,18.8800828 C31.878197,18.8800828 33.3743984,16.4849612 32.7093533,14.2870143 C32.2639111,12.9055916 30.9454548,11.8211305 29.4155514,11.8195713 C28.7716151,11.8196912 28.0888195,12.0132679 27.4176578,12.4570311" id="Path" fill="#00A846"></path>
                        <path d="M3.59141503,18.8800828 L14.7735266,18.8800828 L5.55368767,12.4570311 C3.42350466,11.0916798 1.02862292,11.8905734 0.163764543,14.1561641 C-0.569044321,16.7497798 1.26105886,18.8800828 3.59141503,18.8800828" id="Path" fill="#F0B428"></path>
                        <path d="M15.7141845,26.8732164 L17.7217929,26.8732164 C18.1833066,26.902121 19.00139,27.3041464 19.00139,28.2561983 C19.00139,29.2520267 18.1524831,29.6538123 17.6924086,29.6989082 L15.7140646,29.6989082 L15.7141845,26.8732164 M15.6837208,22.4401426 L17.3361988,22.4401426 C17.9009773,22.4707262 18.5689008,22.8870241 18.5689008,23.6601314 C18.5689008,24.4186066 18.0639703,24.9237769 17.4104391,25.0142087 L15.6837208,25.0142087 L15.6837208,22.4401426 M13.4243667,20.5954072 L13.4243667,31.5420844 L18.748325,31.5420844 C20.0118506,31.5420844 21.5144086,30.2783189 21.5144086,28.6274001 C21.5144086,26.9022409 20.3847316,26.0550131 19.6697932,25.7128358 C19.6697932,25.7128358 20.9786546,24.9543606 20.9206056,23.317954 C20.8608775,21.116649 18.8225654,20.5954072 18.1236984,20.5954072 L13.4243667,20.5954072" id="Shape" fill="#000000" fill-rule="nonzero"></path>
                        <path d="M21.8870497,25.9500692 C21.9452187,29.4115416 24.438328,32 27.6434972,32 C28.4035316,32 29.2041043,31.8565566 30.0223075,31.5419645 L30.0223075,29.311515 C29.3738137,29.706824 28.6521589,29.8974023 27.9452562,29.8974023 C26.0055315,29.8974023 24.1755483,28.4657264 24.2512279,25.8613165 C24.3819581,23.7487641 26.1153929,22.2899827 27.9839955,22.2899827 C28.6682303,22.2899827 29.3718947,22.4866777 30.0221876,22.9160486 L30.0221876,20.7454471 C29.2638324,20.4387708 28.5101547,20.301684 27.7840622,20.301684 C24.5869287,20.301684 21.948337,22.992088 21.8870497,25.9500692" id="Path" fill="#000000"></path>
                        <polygon id="Path" fill="#000000" points="2.93764398 31.5419645 5.25828534 31.5419645 5.25828534 25.2369298 12.1590421 31.9582623 12.1590421 20.5954072 9.84007981 20.5954072 9.84007981 26.739128 2.93764398 20.1503248"></polygon>
                    </g>
                </g>
            </g>
        </g>
    </g>
</svg>