<?xml version="1.0" encoding="UTF-8"?>
<svg width="84px" height="24px" viewBox="0 0 84 24" version="1.1" xmlns="http://www.w3.org/2000/svg" xmlns:xlink="http://www.w3.org/1999/xlink">
    <!-- Generator: Sketch 59.1 (86144) - https://sketch.com -->
    <title>Combined Shape</title>
    <desc>Created with Sketch.</desc>
    <g id="Page-1" stroke="none" stroke-width="1" fill="none" fill-rule="evenodd">
        <g id="Home-01" transform="translate(-987.000000, -904.000000)" fill="#000000">
            <g id="Logos" transform="translate(200.000000, 836.000000)">
                <g transform="translate(0.000000, 64.000000)" id="Combined-Shape">
                    <path d="M842.368845,12.2163872 C845.639069,12.2163872 848.504042,14.7356825 848.504042,18.1422966 C848.503259,21.5010958 845.860115,24.0689899 842.787421,24.0689899 C841.428224,24.0689899 840.47663,23.6723616 839.559525,22.7732851 L839.559525,22.7732851 L839.559525,28 L836.80821,28 L836.80821,18.3194468 C836.80821,14.6972739 839.427054,12.2163872 842.368845,12.2163872 Z M841.072982,4.6998278 C841.760193,4.01485993 842.792389,3.81138389 843.688141,4.18430371 C844.583892,4.55722352 845.166741,5.43307648 845.164839,6.4033527 C845.161704,6.60480227 845.133485,6.80546798 845.0794,7.00064675 L845.0794,7.00064675 L852.661585,12.9061761 C853.489229,12.2403118 854.478117,11.8049524 855.528126,11.6441769 L855.528126,11.6441769 L855.528126,8.8795363 C854.782401,8.53100908 854.304415,7.78381268 854.300617,6.96067038 L854.300617,6.96067038 L854.300617,6.89717849 C854.300617,5.72139858 855.253775,4.76824064 856.429554,4.76824064 L856.429554,4.76824064 L856.493046,4.76824064 C857.668822,4.76824064 858.621984,5.7214028 858.621984,6.89717849 L858.621984,6.89717849 L858.621984,6.96067038 C858.618186,7.78381268 858.1402,8.53100908 857.394474,8.8795363 L857.394474,8.8795363 L857.394474,11.6441769 C859.898978,12.0243201 861.902463,13.9227339 862.416841,16.4031498 C862.931219,18.8835658 861.847852,21.4221173 859.701042,22.7668298 C857.554231,24.1115424 854.797385,23.9784112 852.790137,22.4330946 L852.790137,22.4330946 L850.543621,24.6803939 C850.602414,24.8639322 850.633586,25.0551932 850.636116,25.2479016 C850.63525,26.3353924 849.753268,27.216438 848.665777,27.2161495 C847.578286,27.2158608 846.696773,26.3343472 846.696484,25.246856 C846.696195,24.1593649 847.577241,23.2773835 848.664732,23.2765177 C848.857432,23.2791396 849.048679,23.3103098 849.23224,23.369012 L849.23224,23.369012 L851.503054,21.0974134 C850.074649,19.0618398 850.037952,16.359361 851.41056,14.2857529 L851.41056,14.2857529 L843.944384,8.47585331 C843.58552,8.68446258 843.178209,8.79527727 842.763122,8.797232 C841.792844,8.7959618 840.918901,8.21025245 840.548912,7.31328686 C840.178922,6.41632127 840.385772,5.38479567 841.072982,4.6998278 Z M815.394199,8.43430869 L815.394199,13.6539689 C816.312872,12.7533247 817.262899,12.3582641 818.623663,12.3582641 C821.696357,12.3606156 824.338717,14.9285097 824.338717,18.2865251 C824.338717,21.6868684 821.467472,24.2124346 818.203519,24.2124346 C815.260944,24.2124346 812.642884,21.730764 812.642884,18.1093749 L812.642884,18.1093749 L812.642884,8.43430869 L815.394199,8.43430869 Z M803.372285,12.2790952 L803.372285,19.0719433 C803.372285,20.3955615 804.445289,21.468566 805.768907,21.468566 C807.092526,21.468566 808.16553,20.3955615 808.16553,19.0719433 L808.16553,19.0719433 L808.16553,12.2790952 L810.902736,12.2790952 L810.902736,19.0719433 C810.902736,21.9100924 808.601961,24.2108668 805.763812,24.2108668 C802.925663,24.2108668 800.624889,21.9100924 800.624889,19.0719433 L800.624889,19.0719433 L800.624889,12.2790952 L803.372285,12.2790952 Z M867.036619,9.52856393 L867.036619,12.7117806 L869.560617,12.7117806 L869.560617,15.1244724 L867.036619,15.1244724 L867.036619,19.8863639 C867.036619,20.9618067 867.498307,21.6641367 869.121661,21.6641367 C869.429714,21.6617852 869.781663,21.6406212 870.088149,21.6194573 L870.088149,21.6194573 L869.40855,24.1215079 C869.046411,24.1857837 868.678002,24.21557 868.309592,24.2092992 C865.962744,24.2092992 864.250814,22.9590577 864.250814,20.478171 L864.250814,20.478171 L864.250814,10.7788054 L867.036619,9.52856393 Z M830.630684,8.33946278 C832.122352,8.33946278 833.94402,9.17896662 834.842313,10.3939348 L834.842313,10.3939348 L833.043376,12.5150342 C832.340262,11.7641054 831.266387,11.1448636 830.45275,11.1448636 C829.443935,11.1448636 828.52291,11.5861714 828.52291,12.9790736 C828.518207,15.5634286 835.081387,13.71119 835.081387,19.6715889 C835.081387,22.4338779 832.803518,24.2006768 829.971466,24.2006768 C828.084738,24.2006768 826.509199,23.4042848 825.231522,21.8365838 L825.231522,21.8365838 L827.228773,19.760164 C827.974999,20.6004517 828.501746,21.3944922 830.126668,21.3944922 C831.156648,21.3944922 832.056508,20.5761523 832.056508,19.6496411 C832.056508,16.6443584 825.494112,18.3484493 825.494112,12.9790736 C825.494112,10.0850978 827.649701,8.33946278 830.630684,8.33946278 Z M789.895544,8.33946278 L789.895544,14.9825954 L795.998603,14.9825954 L795.998603,8.33946278 L798.894931,8.33946278 L798.894931,24.1975414 L795.997819,24.1975414 L795.997819,17.7699677 L789.896327,17.7699677 L789.896327,24.1975414 L787,24.1975414 L787,8.33946278 L789.895544,8.33946278 Z M818.606418,15.1981543 C817.490868,15.1981543 816.460057,15.7932934 815.902281,16.7593884 C815.344506,17.7254835 815.344506,18.9157617 815.902281,19.8818568 C816.460057,20.8479518 817.490868,21.4430909 818.606418,21.4430909 C820.33091,21.4430909 821.728886,20.0451142 821.728886,18.3206226 C821.728886,16.596131 820.33091,15.1981543 818.606418,15.1981543 Z M842.776055,14.9853389 C841.051564,14.9853389 839.653587,16.3833156 839.653587,18.1078072 C839.653587,19.8322988 841.051564,21.2302755 842.776055,21.2302755 C844.500547,21.2302755 845.898524,19.8322988 845.898524,18.1078072 C845.898524,16.3833156 844.500547,14.9853389 842.776055,14.9853389 Z M856.46326,14.5232596 C855.33293,14.4921591 854.274895,15.077414 853.700561,16.0514534 C853.126228,17.0254928 853.126228,18.234609 853.700561,19.2086484 C854.274895,20.1826878 855.33293,20.7679427 856.46326,20.7368422 L856.46326,20.7368422 C858.138851,20.6750165 859.4633,19.3012945 859.462456,17.6277541 C859.461611,15.9542136 858.135775,14.5818292 856.46326,14.5232596 Z"></path>
                </g>
            </g>
        </g>
    </g>
</svg>