<?xml version="1.0" encoding="UTF-8"?>
<svg width="50px" height="20px" viewBox="0 0 50 20" version="1.1" xmlns="http://www.w3.org/2000/svg" xmlns:xlink="http://www.w3.org/1999/xlink">
    <!-- Generator: Sketch 59.1 (86144) - https://sketch.com -->
    <title>path236</title>
    <desc>Created with Sketch.</desc>
    <g id="Page-1" stroke="none" stroke-width="1" fill="none" fill-rule="evenodd">
        <g id="Home-01" transform="translate(-739.000000, -906.000000)" fill="#000000">
            <g id="Logos" transform="translate(200.000000, 836.000000)">
                <g transform="translate(0.000000, 64.000000)" id="path236">
                    <path d="M539.667971,6 C539.298905,6 539,6.2989052 539,6.6679711 C539,7.05461165 539.298905,7.35310485 539.667971,7.35310485 L544.975423,7.36202923 C544.992998,7.37095361 547.453369,7.12477234 547.435794,9.3391684 L547.435794,23.715306 C547.435794,24.8752277 548.683726,26 549.861223,26 L550.142347,26 C551.302269,26 552.549926,24.8752277 552.549926,23.715306 L552.549926,9.16342261 C552.620224,7.12477234 554.975217,7.35310485 554.992792,7.34435158 L560.300245,7.33559832 C560.669311,7.33559832 560.968214,7.037037 560.968214,6.6679711 C560.968214,6.2989052 560.669311,6 560.300245,6 L539.667971,6 Z M557.057873,9.4060517 C556.48304,9.40961583 555.946281,9.5939996 555.60797,9.77853255 C554.834689,10.2178969 554.412762,11.0965567 554.412762,12.0807327 L554.412762,24.9630311 C554.412762,25.5078435 554.852332,25.9646447 555.414719,25.9646447 C555.95953,25.9646447 556.416333,25.5254181 556.416333,24.9630311 L556.416333,19.0930557 C556.416333,17.6870899 557.82223,17.2301511 558.454914,18.3022 C559.070024,19.3742487 562.145574,25.1562841 562.145574,25.1562841 C562.444342,25.6132216 562.673086,25.8240492 562.866405,25.8767731 C562.88398,25.8767731 562.883839,25.8942764 562.901417,25.8942764 C563.270484,26.0700228 563.867951,25.9647128 564.32489,25.1562824 L567.2422,19.3916862 L567.734424,18.4075786 C567.94532,18.0912363 568.120929,17.7045958 568.736038,17.7045958 C569.439021,17.7045958 569.650122,18.1439601 569.650122,18.9348158 L569.650122,23.6624442 C569.632548,25.0156869 570.581574,25.9471398 571.75907,25.9471398 L572.268801,25.9471398 C573.428723,25.9471398 574.202004,24.8223658 574.202004,23.6624442 L574.202004,12.063227 C574.166854,10.9033052 573.217623,9.95427834 572.057701,9.95427834 L571.372225,9.95427834 C570.616517,9.95427834 569.966326,10.3408503 569.597261,10.9383856 C569.491814,11.0614076 569.404009,11.2020043 569.316136,11.3777499 L567.119315,15.7888989 C566.679951,16.6500529 565.924312,18.108811 565.344352,19.1984343 C564.623794,20.5516764 563.815295,19.4092607 563.516528,18.9523219 C563.340781,18.6711287 562.760821,17.652078 562.462054,17.124841 L559.122885,10.6747671 C558.598943,9.69608306 557.796945,9.40158456 557.057873,9.4060517 Z M575.537604,10.4111485 C575.537604,10.7802144 575.818796,11.0966255 576.152713,11.0966255 L580.194865,11.0966255 C580.546356,11.1669237 580.809906,11.4658288 580.827481,11.8524693 L580.827481,11.8699754 L580.809976,12.063227 L576.609584,21.1844984 C576.451412,21.5184153 576.240518,21.9225617 576.082346,22.2564785 C575.783579,22.8540138 574.975285,24.3829332 575.695844,25.3495354 C576.100059,25.8767731 577.470806,25.8241854 578.613153,25.8417601 L587.55868,25.8417601 C587.910171,25.8417601 588.173789,25.5429246 588.173789,25.1562841 C588.173789,24.7344943 587.892596,24.4182885 587.55868,24.4182885 L582.743177,24.4182885 L582.549926,24.4182885 C581.460303,24.4182885 581.266707,23.9435006 581.126112,23.609584 C580.985515,23.2756658 581.266845,22.3092031 581.618336,21.5534957 C581.969828,20.7977891 585.344009,13.4341808 585.344009,13.4341808 C585.572479,13.0123911 586.451276,11.3603128 586.732469,10.8155011 C586.767618,10.7627773 586.785261,10.7275594 586.802835,10.6572612 C586.802835,10.6396867 586.82034,10.6398238 586.82034,10.6222493 C586.837915,10.551951 586.855694,10.4814468 586.855694,10.4111485 C586.855694,10.0420825 586.574501,9.72567172 586.240585,9.72567172 L575.976967,9.72567172 C575.801222,9.72567172 575.537604,10.024508 575.537604,10.4111485 Z"></path>
                </g>
            </g>
        </g>
    </g>
</svg>