<?xml version="1.0" encoding="UTF-8"?>
<svg width="98px" height="18px" viewBox="0 0 98 18" version="1.1" xmlns="http://www.w3.org/2000/svg" xmlns:xlink="http://www.w3.org/1999/xlink">
    <!-- Generator: Sketch 59.1 (86144) - https://sketch.com -->
    <title>Combined Shape</title>
    <desc>Created with Sketch.</desc>
    <g id="Page-1" stroke="none" stroke-width="1" fill="none" fill-rule="evenodd">
        <g id="Home-01" transform="translate(-587.000000, -907.000000)" fill="#000000">
            <g id="Logos" transform="translate(200.000000, 836.000000)">
                <g transform="translate(0.000000, 64.000000)" id="Combined-Shape">
                    <path d="M478.321664,10.8271735 C479.723698,10.8271735 480.55734,11.3955656 481.125732,12.2671001 L481.201518,12.2671001 L481.201518,11.1303159 L484.687656,11.1303159 L484.687656,20.148804 C484.687656,21.8160875 484.119264,23.1044429 483.247729,23.862299 C482.338302,24.658048 481.049947,24.9990832 479.572127,24.9990832 C476.768059,25.036976 474.835526,23.9001918 474.494491,21.5887306 L478.018522,21.5887306 C478.170093,22.0434443 478.624807,22.4602652 479.496341,22.4602652 C480.671018,22.4602652 481.087839,21.7403019 481.087839,20.6414105 L481.087839,19.8835543 L481.012054,19.8835543 C480.443662,20.5656248 479.647913,21.0582313 478.511128,21.0582313 C476.275453,21.0582313 474.305027,19.3909478 474.305027,16.1321664 C474.305027,13.1386347 475.896525,10.8271735 478.321664,10.8271735 Z M409.849363,10.9029591 C413.146037,10.9029591 415.230141,13.1386347 415.230141,16.3974161 C415.230141,19.6940903 413.146037,21.8918731 409.849363,21.8918731 C406.552688,21.8918731 404.430691,19.6940903 404.430691,16.3974161 C404.430691,13.1007419 406.552688,10.9029591 409.849363,10.9029591 Z M421.065633,10.9029591 C424.362308,10.9029591 426.408519,13.1007419 426.408519,16.3974161 C426.408519,19.6940903 424.324415,21.8918731 421.027741,21.8918731 C417.768959,21.8918731 415.646962,19.6940903 415.646962,16.3974161 C415.646962,13.1007419 417.768959,10.9029591 421.065633,10.9029591 Z M448.121097,7 L448.121097,12.2292073 L448.196883,12.2292073 C448.878954,11.31978 449.826274,10.8271735 451.152522,10.8271735 C453.767126,10.8271735 455.282838,13.1765275 455.282838,16.3216305 C455.282838,19.8456615 453.653447,21.8918731 450.925165,21.8918731 C449.788381,21.8918731 448.613704,21.3613738 448.007419,20.1866968 L447.969526,20.1866968 L447.969526,21.5508378 L444.483388,21.5508378 L444.483388,7 L448.121097,7 Z M460.966759,10.8650663 C462.520364,10.8650663 463.695041,11.3576728 464.604468,12.2292073 C465.817038,13.4038844 466.347537,15.2227391 466.309645,17.3447363 L459.337368,17.3447363 C459.488939,18.6330917 460.095224,19.3151622 461.194116,19.3151622 C461.838293,19.3151622 462.406686,19.0120198 462.634042,18.3299492 L466.158073,18.3299492 C465.551789,20.7171961 463.695041,21.8918731 461.080437,21.8918731 C457.859549,21.8539803 455.699659,19.6561975 455.699659,16.3595233 C455.699659,13.1007419 457.859549,10.8650663 460.966759,10.8650663 Z M403.672835,7 L403.672835,21.5887306 L399.921447,21.5887306 L399.921447,7 L403.672835,7 Z M473.509278,10.9408519 C473.81242,10.9408519 474.001884,10.9787447 474.115563,11.0545303 L474.115563,14.2375261 L474.039777,14.2375261 C471.879887,13.858598 470.629425,14.8817038 470.629425,17.2310578 L470.629425,21.5887306 L466.953822,21.5887306 L466.953822,11.1682087 L470.439961,11.1682087 L470.439961,12.9491707 L470.515746,12.9491707 C471.273602,11.509244 472.258815,10.9408519 473.509278,10.9408519 Z M394.16174,7 C395.525882,7 396.548987,7.34103526 397.306843,7.90942736 C398.140485,8.59149789 398.595199,9.57671086 398.595199,10.7892807 C398.595199,12.1913145 398.026807,13.0628491 396.890023,13.5933484 L396.890023,13.669134 C398.405735,14.1617405 399.277269,15.5258815 399.277269,17.1552722 C399.277269,18.7088773 398.670984,19.9214471 397.685772,20.6793033 C396.85213,21.2855882 395.791131,21.5508378 394.351205,21.5508378 L387,21.5508378 L387,7 L394.16174,7 Z M439.974144,10.8650663 C442.399284,10.8650663 443.422389,12.6460282 443.422389,15.033275 L443.422389,21.5508378 L439.78468,21.5508378 L439.78468,15.6774528 C439.78468,14.6164542 439.443645,13.9343836 438.534217,13.9343836 C437.62479,13.9343836 437.170076,14.7680254 437.170076,15.9048096 L437.170076,21.5508378 L433.532367,21.5508378 L433.532367,15.6774528 C433.532367,14.6164542 433.191332,13.9343836 432.281904,13.9343836 C431.372477,13.9343836 430.917763,14.7680254 430.917763,15.9048096 L430.917763,21.5508378 L427.166375,21.5508378 L427.166375,11.1682087 L427.166375,11.1682087 L430.652513,11.1682087 L430.652513,12.7218138 L430.728299,12.7218138 C431.41037,11.509244 432.35769,10.8650663 433.873402,10.8650663 C435.19965,10.8650663 436.184863,11.509244 436.67747,12.6460282 L436.753255,12.6460282 C437.586897,11.2818872 438.685788,10.8650663 439.974144,10.8650663 Z M409.773577,13.4417772 C408.636793,13.4417772 408.106293,14.5785614 408.106293,16.3974161 C408.106293,18.2162708 408.636793,19.3909478 409.773577,19.3909478 C410.910361,19.353055 411.478753,18.2162708 411.478753,16.3974161 C411.478753,14.5785614 410.910361,13.4417772 409.773577,13.4417772 Z M420.989848,13.4417772 C419.853064,13.4417772 419.322564,14.5785614 419.322564,16.3974161 C419.322564,18.2162708 419.853064,19.3909478 420.989848,19.3909478 C422.126632,19.353055 422.695024,18.2162708 422.695024,16.3974161 C422.695024,14.5785614 422.126632,13.4417772 420.989848,13.4417772 Z M449.826274,13.5175628 C448.689489,13.5175628 448.007419,14.6164542 448.007419,16.2837377 C448.007419,17.9510212 448.727382,19.0499126 449.826274,19.0499126 C450.925165,19.0499126 451.53145,17.988914 451.53145,16.2837377 C451.53145,14.6164542 450.925165,13.5175628 449.826274,13.5175628 Z M393.782812,15.3743103 L390.978745,15.3743103 L390.978745,18.367842 L393.782812,18.367842 L393.782812,18.3299492 C394.654347,18.3299492 395.298525,17.7994499 395.298525,16.8521298 C395.298525,15.829024 394.616454,15.3743103 393.782812,15.3743103 Z M479.572127,13.6312412 C478.549021,13.6312412 477.904844,14.5406686 477.904844,15.9805952 C477.904844,17.3826291 478.549021,18.367842 479.572127,18.367842 C480.595233,18.367842 481.239411,17.3447363 481.239411,15.9805952 C481.239411,14.6922398 480.633126,13.6312412 479.572127,13.6312412 Z M461.042545,13.3659915 C460.019439,13.3280987 459.451047,14.0480621 459.337368,15.2606319 L462.671935,15.2606319 C462.59615,14.0101693 461.914079,13.3659915 461.042545,13.3659915 Z M393.403884,10.145103 L390.940852,10.145103 L390.940852,12.6460282 L393.441777,12.6460282 L393.441777,12.683921 C394.199633,12.683921 394.768025,12.2671001 394.768025,11.3955656 C394.768025,10.5619238 394.199633,10.145103 393.403884,10.145103 Z"></path>
                </g>
            </g>
        </g>
    </g>
</svg>