<?xml version="1.0" encoding="UTF-8"?>
<svg width="75px" height="18px" viewBox="0 0 75 18" version="1.1" xmlns="http://www.w3.org/2000/svg" xmlns:xlink="http://www.w3.org/1999/xlink">
    <!-- Generator: Sketch 59.1 (86144) - https://sketch.com -->
    <title>Combined Shape</title>
    <desc>Created with Sketch.</desc>
    <g id="Page-1" stroke="none" stroke-width="1" fill="none" fill-rule="evenodd">
        <g id="Home-01" transform="translate(-354.000000, -907.000000)" fill="#000000">
            <g id="Logos" transform="translate(200.000000, 836.000000)">
                <g transform="translate(0.000000, 64.000000)" id="Combined-Shape">
                    <path d="M190.158668,18.8420712 C193.240623,20.2155631 196.437946,20.8245925 199.922939,20.8440216 C203.583978,20.8664399 206.349049,20.2910379 209.863257,18.9564043 L209.843031,22.7391117 C206.698147,24.2949388 203.297808,25.0190486 199.898966,24.9996194 C196.193727,24.9779484 193.524547,24.2187168 190.135444,22.6240313 L190.158668,18.8420712 Z M223.149228,11.3865058 C228.585726,11.4171441 228.528792,13.6694318 228.516057,15.8559592 L228.488338,20.513726 C228.484593,21.3671143 228.52205,22.3303522 229,23.0537146 L224.571093,23.0283073 C224.464716,22.7211771 224.40029,22.2616028 224.425011,21.9567145 L224.380063,21.9559673 C223.454128,22.9991635 222.116166,23.2988209 220.71303,23.2906009 C218.519553,23.2764027 216.706637,22.2167663 216.720788,19.8337055 C216.742596,16.2467842 220.949009,16.403712 223.165709,16.0009306 C223.758278,15.8940703 224.351596,15.7229442 224.355341,15.0018236 C224.360585,14.2358664 223.639914,13.9466709 222.936473,13.9429345 C221.599261,13.9362091 221.332568,14.6117459 221.309344,15.0922439 L217.273735,15.0698256 C217.423563,11.8774657 220.45233,11.3693185 223.149228,11.3865058 Z M176.377516,7.1300259 L180.717275,7.15468598 L180.685811,12.6665884 L180.729261,12.6665884 C181.3915,11.7078342 182.557159,11.1458832 183.850921,11.1526087 C187.664036,11.1750269 188.676122,14.4174543 188.660391,17.085227 C188.64316,19.9278622 187.068471,23.0888366 183.846427,23.071719 C181.720372,23.0581983 181.067123,22.2451628 180.523248,21.5203058 L180.479798,21.5203058 L180.471558,22.7682555 L176.285372,22.7428481 L176.377516,7.1300259 Z M212.178095,7.3444939 L216.518604,7.36840671 L216.42646,22.9827235 L212.0867,22.9573161 L212.178095,7.3444939 Z M170.397892,11.0741448 C175.83439,11.1062776 175.777456,13.3585653 175.763971,15.5450927 L175.738501,20.2036067 C175.732508,21.0562478 175.770714,22.0187384 176.247915,22.7428481 L171.820506,22.7166935 C171.71263,22.4103106 171.648954,21.9507363 171.673675,21.6451007 L171.629476,21.6451007 C170.703541,22.688297 169.364081,22.9872071 167.960196,22.9789871 C165.768217,22.9655361 163.956051,21.9058998 163.968719,19.522839 C163.989762,15.9359177 168.199171,16.0920982 170.414373,15.6900641 C171.006942,15.5832037 171.599511,15.4120777 171.604005,14.6909571 C171.6085,13.9249999 170.887829,13.6358044 170.185886,13.632068 C168.848674,13.6253425 168.580482,14.3008794 168.557259,14.7821247 L164.523148,14.7589591 C164.672976,11.5665992 167.700245,11.0591993 170.397892,11.0741448 Z M154.022474,7 L167.614094,7.0784639 L167.59087,11.0808702 L163.205414,11.0547156 L163.13874,22.6673733 L158.315787,22.6389768 L158.383958,11.0270664 L154,11.0016591 L154.022474,7 Z M224.338111,17.9318899 C223.809969,18.1904472 223.2174,18.3406495 222.62633,18.4676863 C221.657694,18.6821543 221.155022,18.9197878 221.149766,19.6842504 C221.146781,20.2095849 221.713879,20.7371613 222.501973,20.7416449 C223.489337,20.7468759 224.259452,20.1617593 224.332118,18.9803171 L224.338111,17.9318899 Z M171.586775,17.6202761 C171.059382,17.8803279 170.465315,18.029783 169.874245,18.1575671 C168.907856,18.3712878 168.402187,18.6074268 168.39843,19.3726366 C168.395445,19.8987184 168.962543,20.4262948 169.750637,20.4315257 C170.737252,20.4367566 171.507367,19.8508928 171.580782,18.6701979 L171.586775,17.6202761 Z M182.428307,14.2941129 C180.872347,14.2851866 180.513509,15.7483516 180.505269,17.0814907 C180.497778,18.437048 180.840134,19.9054439 182.395345,19.9144397 C183.952804,19.921884 184.311642,18.4602135 184.319882,17.1039089 C184.327374,15.7700226 183.985017,14.3023739 182.428307,14.2941129 Z M194.768866,7.00074728 C197.460826,7.01533599 199.216308,8.13537448 200.142522,9.74924311 C201.086136,8.14982322 202.853048,7.05352152 205.540728,7.0694966 C209.815312,7.09490396 211.728612,9.90465897 211.710633,13.0529297 C211.691904,16.2026949 209.746392,19.0109554 205.471058,18.9877899 C202.780309,18.9717937 201.025227,17.8429577 200.099063,16.2232135 C199.153923,17.8281421 197.387183,18.9330503 194.699196,18.917546 C190.424612,18.8928859 188.511312,16.0607126 188.53079,12.9116947 C188.549518,9.7619294 190.493532,6.97533992 194.768866,7.00074728 Z M205.522,10.2184704 C203.87839,10.2088 203.649903,11.8034854 203.64391,13.0065986 C203.635669,14.2097118 203.844679,15.82831 205.489787,15.8380751 C207.132647,15.8484865 207.361884,14.2306355 207.369375,13.0282696 C207.376117,11.8251564 207.166359,10.2267346 205.522,10.2184704 Z M194.750886,10.1489738 C193.105778,10.1393034 192.87804,11.7347361 192.870549,12.9363547 C192.863807,14.1387207 193.072816,15.7595607 194.717924,15.7685716 C196.361534,15.7782426 196.590771,14.1618862 196.597513,12.9580257 C196.605004,11.7549125 196.395245,10.1579853 194.750886,10.1489738 Z"></path>
                </g>
            </g>
        </g>
    </g>
</svg>