<?xml version="1.0" encoding="UTF-8"?>
<svg width="33px" height="32px" viewBox="0 0 33 32" version="1.1" xmlns="http://www.w3.org/2000/svg" xmlns:xlink="http://www.w3.org/1999/xlink">
    <!-- Generator: Sketch 59.1 (86144) - https://sketch.com -->
    <title>Combined Shape</title>
    <desc>Created with Sketch.</desc>
    <g id="Page-1" stroke="none" stroke-width="1" fill="none" fill-rule="evenodd">
        <g id="Home-01" transform="translate(-491.000000, -900.000000)" fill="#000000">
            <g id="Logos" transform="translate(200.000000, 836.000000)">
                <g transform="translate(0.000000, 64.000000)" id="Combined-Shape">
                    <path d="M318.784062,20.301684 C319.510155,20.301684 320.263832,20.4387708 321.022188,20.7454471 L321.022188,20.7454471 L321.022188,22.9160486 C320.371895,22.4866777 319.66823,22.2899827 318.983995,22.2899827 C317.115393,22.2899827 315.381958,23.7487641 315.251228,25.8613165 C315.175548,28.4657264 317.005531,29.8974023 318.945256,29.8974023 C319.652159,29.8974023 320.373814,29.706824 321.022308,29.311515 L321.022308,29.311515 L321.022308,31.5419645 C320.204104,31.8565566 319.403532,32 318.643497,32 C315.438328,32 312.945219,29.4115416 312.88705,25.9500692 C312.948337,22.992088 315.586929,20.301684 318.784062,20.301684 Z M293.937644,20.1503248 L300.84008,26.739128 L300.84008,20.5954072 L303.159042,20.5954072 L303.159042,31.9582623 L296.258285,25.2369298 L296.258285,31.5419645 L293.937644,31.5419645 L293.937644,20.1503248 Z M309.123698,20.5954072 C309.822565,20.5954072 311.860877,21.116649 311.920606,23.317954 C311.978655,24.9543606 310.669793,25.7128358 310.669793,25.7128358 C311.384732,26.0550131 312.514409,26.9022409 312.514409,28.6274001 C312.514409,30.2783189 311.011851,31.5420844 309.748325,31.5420844 L309.748325,31.5420844 L304.424367,31.5420844 L304.424367,20.5954072 Z M308.721793,26.8732164 L306.714185,26.8732164 L306.714065,29.6989082 L308.692409,29.6989082 C309.152483,29.6538123 310.00139,29.2520267 310.00139,28.2561983 C310.00139,27.3041464 309.183307,26.902121 308.721793,26.8732164 L308.721793,26.8732164 Z M308.336199,22.4401426 L306.683721,22.4401426 L306.683721,25.0142087 L308.410439,25.0142087 C309.06397,24.9237769 309.568901,24.4186066 309.568901,23.6601314 C309.568901,22.8870241 308.900977,22.4707262 308.336199,22.4401426 L308.336199,22.4401426 Z M320.415551,11.8195713 C321.945455,11.8211305 323.263911,12.9055916 323.709353,14.2870143 C324.374398,16.4849612 322.878197,18.8800828 320.54964,18.8800828 L320.54964,18.8800828 L309.199858,18.8800828 L318.417658,12.4570311 C319.08882,12.0132679 319.771615,11.8196912 320.415551,11.8195713 Z M291.163765,14.1561641 C292.028623,11.8905734 294.423505,11.0916798 296.553688,12.4570311 L296.553688,12.4570311 L305.773527,18.8800828 L294.591415,18.8800828 C292.261059,18.8800828 290.430956,16.7497798 291.163765,14.1561641 Z M294.855994,5.33523232 C296.786124,3.7069814 299.515027,4.26696251 300.512535,6.83443212 L300.512535,6.83443212 L305.273154,17.7145449 L295.454834,10.9947715 C292.993748,9.36172318 293.490882,6.56817424 294.855994,5.33523232 Z M317.609289,4.44626674 C318.641938,4.44626674 319.616658,4.9062213 320.147734,5.50170347 C321.414378,6.76690816 321.779224,9.326462 319.516511,10.9273675 L319.516511,10.9273675 L309.70143,17.6826419 L314.326641,6.9330195 C315.083557,5.09164234 316.389061,4.44602693 317.609289,4.44626674 Z M303.307523,0.045215866 C305.139185,-0.156516459 307.435599,1.24109756 307.035253,4.26864161 L307.035253,4.26864161 L305.305296,16.4528183 L300.381684,4.86880128 C299.314974,1.97366656 301.711415,0.0775985818 303.307523,0.045215866 Z M311.297298,-3.69482223e-13 C311.38761,-3.69482223e-13 311.474804,0.00503731133 311.561877,0.0113939185 C313.424123,0.0775985818 315.523722,2.24340258 314.523336,4.83665843 L314.523336,4.83665843 L309.633426,16.4511392 L308.068142,5.96801457 C307.935972,4.37370553 308.93312,4.33640544 309.299405,4.03788478 C309.231881,3.80388967 308.734746,3.80388967 308.734746,3.80388967 L308.734746,3.80388967 L307.803683,3.80388967 C307.710133,1.21207306 309.625511,-3.69482223e-13 311.297298,-3.69482223e-13 Z"></path>
                </g>
            </g>
        </g>
    </g>
</svg>