<?xml version="1.0" encoding="UTF-8"?>
<svg width="24px" height="24px" viewBox="0 0 24 24" version="1.1" xmlns="http://www.w3.org/2000/svg" xmlns:xlink="http://www.w3.org/1999/xlink">
    <!-- Generator: Sketch 61 (89581) - https://sketch.com -->
    <title>02 Icons/Color</title>
    <desc>Created with Sketch.</desc>
    <g id="02-Icons/Color" stroke="none" stroke-width="1" fill="none" fill-rule="evenodd">
        <path d="M6.96086815,2.00000178 C6.55430077,2.00090333 6.18874098,2.24784138 6.03612053,2.62467668 C5.88350008,3.00151198 5.97419753,3.43323681 6.26555565,3.71680038 L8.64836815,6.09961288 L2.87102435,11.6972688 L2.86516505,11.7031288 C1.71161165,12.8566818 1.71161165,14.7644188 2.86516505,15.9179718 L7.96477435,21.0175818 C9.11832825,22.1711348 10.9759483,22.2212508 12.0800082,21.1171908 L17.1796183,16.0175818 C18.3331712,14.8640278 18.3331712,12.9562918 17.1796183,11.8027378 L15.2362583,9.86133168 C15.2181822,9.84103897 15.1992865,9.82149148 15.1796183,9.80273788 L7.67961815,2.30273788 C7.49087472,2.10871866 7.23154744,1.99949116 6.96086815,2.00000178 Z M10.0604773,7.51367538 L13.7655553,11.2168008 L15.7655553,13.2168008 C15.9887793,13.4400238 16.0995403,13.6750918 16.0995403,13.9101598 L3.96868065,13.9101598 C3.93255975,13.6420478 4.02436715,13.3720518 4.27922745,13.1171908 L10.0604773,7.51367538 Z M19.0721962,16.3105508 C18.9136962,16.3105508 18.7551342,16.3870658 18.6581342,16.5390658 C18.0721342,17.4550658 17.0721962,19.1321598 17.0721962,19.9101598 C17.0721962,21.0101598 17.9721962,21.9101598 19.0721962,21.9101598 C20.1721962,21.9101598 21.0721962,21.0101598 21.0721962,19.9101598 C21.0721962,19.1321598 20.0722592,17.4550658 19.4862582,16.5390658 C19.3892582,16.3870658 19.2306962,16.3105508 19.0721962,16.3105508 Z" id="Shape" fill="#FFFFFF"></path>
    </g>
</svg>