<?xml version="1.0" encoding="UTF-8"?>
<svg width="675px" height="273px" viewBox="0 0 675 273" version="1.1" xmlns="http://www.w3.org/2000/svg" xmlns:xlink="http://www.w3.org/1999/xlink">
    <!-- Generator: Sketch 60 (88103) - https://sketch.com -->
    <title>Fill 1</title>
    <desc>Created with Sketch.</desc>
    <g id="Page-1" stroke="none" stroke-width="1" fill="none" fill-rule="evenodd" opacity="0.400000006">
        <path d="M672.416151,0 L462.395048,252.130887 C452.697675,264.484385 439.297182,271.014545 423.637309,271.014545 L17.8499334,271.014545 C11.647306,271.014545 6.34267535,267.684938 3.65860766,262.099855 C0.926911411,256.513778 1.58180408,250.281436 5.39010419,245.449833 L210.366549,0 L207.780715,0 L3.85011415,244.198004 C-0.460270339,249.664953 -1.19851299,256.683535 1.873529,262.966505 C4.89298112,269.249476 10.8663961,273 17.8499334,273 L423.637309,273 C439.927268,273 453.869536,266.20776 463.938015,253.378745 L675,0 L672.416151,0 Z" id="Fill-1" fill="#FFFFFF" transform="translate(337.500000, 136.500000) scale(1, -1) translate(-337.500000, -136.500000) "></path>
    </g>
</svg>