<svg xmlns="http://www.w3.org/2000/svg" xmlns:xlink="http://www.w3.org/1999/xlink" viewBox="0 0 901.5 537" width="901.5" height="537"><defs><style>.cls-1,.cls-39{fill:#c2d1f2;}.cls-2,.cls-6{fill:#ff784b;}.cls-3{fill:#dae3f7;}.cls-30,.cls-38,.cls-4,.cls-46{fill:#0039b2;}.cls-5{fill:#e0b5a7;}.cls-45,.cls-6{stroke:#ff784b;}.cls-12,.cls-16,.cls-18,.cls-19,.cls-20,.cls-27,.cls-28,.cls-29,.cls-32,.cls-33,.cls-37,.cls-45,.cls-50,.cls-6{stroke-linecap:round;}.cls-12,.cls-14,.cls-15,.cls-16,.cls-18,.cls-19,.cls-20,.cls-27,.cls-28,.cls-29,.cls-32,.cls-33,.cls-37,.cls-45,.cls-50,.cls-6{stroke-linejoin:round;}.cls-12,.cls-16,.cls-17,.cls-18,.cls-19,.cls-20,.cls-27,.cls-28,.cls-29,.cls-32,.cls-33,.cls-37,.cls-45,.cls-50,.cls-6{stroke-width:1.5px;}.cls-7{isolation:isolate;}.cls-8{fill:#f5f6f7;}.cls-20,.cls-9{fill:#ffc837;}.cls-10{fill:url(#linear-gradient);}.cls-11{clip-path:url(#clip-path);}.cls-12,.cls-24,.cls-37{fill:#1258ff;}.cls-12,.cls-14,.cls-16,.cls-20,.cls-27,.cls-28,.cls-29,.cls-32,.cls-50{stroke:#000;}.cls-13,.cls-16,.cls-33{fill:#fff;}.cls-14,.cls-15,.cls-18,.cls-19,.cls-27,.cls-32,.cls-45{fill:none;}.cls-14{stroke-width:7.5px;}.cls-15,.cls-19{stroke:#c2d1f2;}.cls-15{stroke-width:2.5px;}.cls-17,.cls-18{stroke:#fff;}.cls-17{stroke-miterlimit:10;}.cls-21{clip-path:url(#clip-path-2);}.cls-22,.cls-29{fill:#829ed9;}.cls-23{fill:#5979b2;}.cls-25{fill:#d1917b;}.cls-26{fill:#e6b1a1;}.cls-30{opacity:0.4;}.cls-30,.cls-38,.cls-46{mix-blend-mode:multiply;}.cls-31{fill:#e7edfa;}.cls-31,.cls-46{opacity:0.6;}.cls-32{stroke-dasharray:5.44 8.7;}.cls-33{stroke:#829ed9;}.cls-34{clip-path:url(#clip-path-3);}.cls-35{fill:#ffae93;}.cls-36{fill:#ffc6b2;}.cls-37{stroke:#1258ff;}.cls-38{opacity:0.1;}.cls-39{fill-opacity:0.5;}.cls-40{clip-path:url(#clip-path-4);}.cls-41{clip-path:url(#clip-path-5);}.cls-42{clip-path:url(#clip-path-6);}.cls-43{clip-path:url(#clip-path-7);}.cls-44{clip-path:url(#clip-path-8);}.cls-47{fill:#191919;}.cls-48{clip-path:url(#clip-path-9);}.cls-49{clip-path:url(#clip-path-10);}.cls-50{fill:#d0deff;}</style><linearGradient id="linear-gradient" x1="273.23" y1="39.46" x2="273.23" y2="230.99" gradientUnits="userSpaceOnUse"><stop offset="0" stop-color="#f5f6f7"/><stop offset="1" stop-color="#fff"/></linearGradient><clipPath id="clip-path"><rect x="223.36" y="46.57" width="99.74" height="177.32" rx="3.55"/></clipPath><clipPath id="clip-path-2"><rect class="cls-1" x="305.15" y="176.88" width="388.23" height="218.38"/></clipPath><clipPath id="clip-path-3"><rect class="cls-2" x="91.08" y="359.98" width="123.69" height="83.21" rx="5" transform="translate(-217.23 183.31) rotate(-38.63)"/></clipPath><clipPath id="clip-path-4"><rect class="cls-3" x="546.2" y="92.67" width="90.07" height="50.67" rx="5"/></clipPath><clipPath id="clip-path-5"><rect class="cls-3" x="751.29" y="92.67" width="90.07" height="50.67" rx="5"/></clipPath><clipPath id="clip-path-6"><path class="cls-4" d="M830.33,126.85c-1.91,6.44-4.12,17.19-4.12,17.19H809.43s-5.57-16.95-5.57-26.26C811.19,118.47,822,121.4,830.33,126.85Z"/></clipPath><clipPath id="clip-path-7"><ellipse class="cls-5" cx="818.37" cy="118.12" rx="3.14" ry="4.31"/></clipPath><clipPath id="clip-path-8"><path class="cls-6" d="M733,512.42a10.93,10.93,0,0,1,3.82,8.44,7.67,7.67,0,0,1-.77,3.9l-45.33,1.65a1.57,1.57,0,0,1-1.67-1.62c0-1.35,1.11-2.59,2.9-3.28l21.61-8.31s-3.08-5.65,1.2-7.18c3.11-1.11,7.44,2.65,11.3,8.59A15.35,15.35,0,0,0,733,512.42Z"/></clipPath><clipPath id="clip-path-9"><path class="cls-6" d="M833.07,515.78a10.94,10.94,0,0,1,3.81,8.44,7.65,7.65,0,0,1-.77,3.89l-45.33,1.65a1.56,1.56,0,0,1-1.66-1.62c0-1.34,1.1-2.59,2.89-3.28l21.62-8.3s-3.08-5.66,1.2-7.19c3.1-1.11,7.44,2.66,11.29,8.59A15.46,15.46,0,0,0,833.07,515.78Z"/></clipPath><clipPath id="clip-path-10"><rect class="cls-1" x="715.78" y="275.73" width="90.07" height="50.67" rx="5" transform="translate(317.32 -386.53) rotate(35.59)"/></clipPath></defs><title>Asset 9</title><g class="cls-7"><g id="Layer_2" data-name="Layer 2"><g id="Colour_2" data-name="Colour 2"><path class="cls-8" d="M27.22,356.31c60,87.28,247.6,147.18,427,141.7,247.78-7.58,400-123.12,400-271.6,0-221.53-248.25-263.56-376-198.6C377.34,79.13,337.35,189.13,217.37,241.38,109,288.59,57.47,242.65,16.87,262.14-6.59,273.4,3.29,321.51,27.22,356.31Z"/><path class="cls-9" d="M700.49,447.25a7.11,7.11,0,0,1-7.11,7.11h-374a7.11,7.11,0,0,1-7.11-7.11V125.11a7.11,7.11,0,0,1,7.11-7.11h374a7.11,7.11,0,0,1,7.11,7.11"/><rect class="cls-9" x="219.81" y="39.46" width="113.96" height="191.54" rx="7.11"/><rect class="cls-10" x="216.25" y="39.46" width="113.96" height="191.54" rx="7.11"/><rect x="223.36" y="46.57" width="99.74" height="177.32" rx="3.55"/><g class="cls-11"><ellipse class="cls-12" cx="272.81" cy="217.37" rx="83.07" ry="28.33"/><circle class="cls-1" cx="252.46" cy="65.79" r="1.29"/><circle class="cls-1" cx="306.4" cy="55.36" r="1.94"/><circle class="cls-1" cx="299.68" cy="152.94" r="1.29"/><circle class="cls-1" cx="240.06" cy="164.47" r="1.94"/><circle class="cls-1" cx="235" cy="93.9" r="1.94"/><rect class="cls-13" x="229.83" y="183.13" width="46.96" height="9.71" rx="4.85"/><rect class="cls-13" x="229.83" y="201.51" width="86.32" height="9.71" rx="4.85"/><path class="cls-14" d="M292.32,104.65c22.22,1.11,36.1,17.13,36.83,30.57,1,17.93-9.59,32.94-34.7,32.94-37.86,0-39.33-57.19-78.85-57.19-17.44,0-28.23,10.14-28.23,21.89,0,14.74,14.73,25.14,27.42,25.14"/><path class="cls-15" d="M292.32,104.65c22.22,1.11,36.1,17.13,36.83,30.57,1,17.93-9.59,32.94-34.7,32.94-37.86,0-39.33-57.19-78.85-57.19-17.44,0-28.23,10.14-28.23,21.89,0,14.74,14.73,25.14,27.42,25.14"/><rect class="cls-16" x="270.01" y="82.87" width="30.59" height="34.78" rx="15.3" transform="translate(167.28 -178.17) rotate(47.67)"/><path class="cls-16" d="M298.59,107.2c-.33-1.51-1.25-4.12-2.62-5.1s-2.09-2.48-3-5.29-4.7-5.16-4.7-5.16c-1.77-1.24-2.36-.59-3.27-.91s-3.28-3.59-6.71-5.12a21.52,21.52,0,0,0-8.8-1.42c-1.63.06-5.5,2.45-5.69,4.48s-1.05,1.89-1.37,2.61a3.74,3.74,0,0,0,0,3.14c.58.85,3.13,2.74,3.78,2s0-2.94.92-2.88-.23,1.92,2.2,1.92c1.27,0,1.2-1.47,1-3.17s1.13-2.22,2.16-1.1c.69.73,1.18,2.7,1.9,2.9s1.47,1.12.81,1.9-3.79,1.57-5.48,3.72-2.68.66-3.46,2.75a2.8,2.8,0,0,0,0,2.66,2.82,2.82,0,0,0-1.42.34c-2,1-3.39,3.14-4.9,4.44s-2.48,5.62-3.46,6.08a4.49,4.49,0,0,0-2.35,1.76c-.59,1-5.81,7.64-7,8.56s-.72,1.89-.65,2.68-.46.52-1.31,1.11-4.9,3-5.16,5.12,3.33,4.41,4.83,3.89,3.73-3.59,4.57-4.38.59-.85,1-1.56,1.37.26,1.89-.33,8-8,8.56-9.28,1.24-.85,2-1.56,2.55-1.83,2.94-1.57-.58.91-.78,2,0,4-1.16,4.77-9,5.81-9.49,6.4-.26,1-.52,1.6-1.83-.1-2.61,1.08-3.79,4.51-3.4,6.86,2.35,2.94,4.18,3.13,3.66-4.11,4.18-5.29.92-.58,2.29-.78,10.12-6.53,11.62-7.45,3.4-2.94,5.36-4.5,2.87-4.31,3.85-5.75a4.55,4.55,0,0,0,.38-3.64,5.26,5.26,0,0,0,3.48-3c.39-1.31,2-1.11,2.94-1.83s2.15-1.11,2.48-2.22.65-3,.65-3a8.27,8.27,0,0,1,.72,2,7.52,7.52,0,0,0,.78,2.68c.46.65,1.31.65.72,1.63s-1.24.85-1.37,1.89-1.24.85-1.24,1.93,0,2.12.59,2.06.58-1.7,1.3-1.7,1.58.26.92,1.24-1.83,2.42-.92,3.13,3.73-.45,4.12-1.82,1.17-3.47,2.15-4.31,1.72-4.25,1.51-5.62S298.93,108.7,298.59,107.2Z"/><rect class="cls-16" x="292.23" y="83.59" width="13.98" height="7.27" transform="translate(137.39 -179.14) rotate(42.47)"/><circle class="cls-16" cx="291.34" cy="84.63" r="2.55"/><circle class="cls-16" cx="302.51" cy="94.86" r="2.55"/><circle class="cls-17" cx="294.41" cy="92.63" r="7.66"/><path class="cls-18" d="M294.41,95.34a2.71,2.71,0,0,0,2.7-2.71"/><path class="cls-19" d="M269.16,110.29c1.26,2.39,5.09,4.6,6.55,5.25"/><path class="cls-19" d="M277.87,93.7a4.82,4.82,0,0,0,2.39-3.09"/><path class="cls-19" d="M290.52,105.37s.84-2,2.25-2.11"/><path class="cls-19" d="M261.45,114.56a4.17,4.17,0,0,1,1.94,5.13"/><path class="cls-19" d="M266.78,124.63a5.89,5.89,0,0,1,4.78,1"/><line class="cls-19" x1="275.9" y1="101.43" x2="281.95" y2="104.81"/><line class="cls-19" x1="275.62" y1="107.34" x2="279.7" y2="107.62"/></g><circle class="cls-20" cx="236.37" cy="60.32" r="6.54"/><path class="cls-13" d="M693.38,125.11v51.77H305.15V125.11a7.11,7.11,0,0,1,7.11-7.11h374A7.1,7.1,0,0,1,693.38,125.11Z"/><path class="cls-13" d="M305.15,395.26H693.38a0,0,0,0,1,0,0v49.1a10,10,0,0,1-10,10H315.15a10,10,0,0,1-10-10v-49.1A0,0,0,0,1,305.15,395.26Z"/><rect class="cls-1" x="305.15" y="176.88" width="388.23" height="218.38"/><g class="cls-21"><path class="cls-3" d="M466.26,269.94c-6.47,10.67,1.92,22.82,16.44,22.79,17.84,0,18.77-13.91,33.2-8.21s21.2,6,35.25-2.45c10.31-6.19,22.11-3.33,31.65,2.81,12.27,7.88,34,10.05,47.18,1.33,15.15-10,39.78,9.31,52.65-2.81,9.48-8.94,4.52-26-7.16-30.1-19.45-6.85-24.72,6-41.39,2.68-24.51-4.82-11.65-31.74-30.12-35.7-23.6-5.07-26.34,26.73-56.62,26.17-17.55-.32-22.52-13-35.23-8.16-7.85,3-7.44,14.22-14.79,20.26C487.41,266.68,472.17,260.18,466.26,269.94Z"/><path class="cls-3" d="M432.67,222.9c6.47,10.68-1.92,22.83-16.44,22.8-17.83,0-18.77-13.91-33.2-8.21s-21.2,6-35.25-2.46c-10.31-6.18-22.1-3.32-31.65,2.81-12.27,7.89-34,10.06-47.17,1.33-15.16-10-39.79,9.32-52.65-2.81-9.49-8.94-4.53-26,7.15-30.1,19.45-6.84,24.72,6,41.39,2.69,24.52-4.83,11.65-31.75,30.12-35.71,23.6-5.06,26.34,26.74,56.62,26.18,17.56-.33,22.52-13,35.24-8.17,7.84,3,7.43,14.23,14.79,20.27C411.53,219.65,426.76,213.14,432.67,222.9Z"/><path class="cls-22" d="M726.46,356.4c-8.33-17.55-16.38-21.69-22-22.43-12.67-1.66-19.53,13.28-35.43,11.22-9.09-1.19-11.36-7-20.18-5.83-9.69,1.23-11.1,8-17.94,9.41-18.24,3.74-30.79-42-55.92-43-14.71-.61-17,14.82-35.57,15.24-20,.45-24.56-17.38-41.26-14.8-15.85,2.45-19.69,19.74-38.12,20.18-6.83.16-7.05-2.19-14.8-2.24-16.58-.11-23.12,10.65-33.63,13.9-26.17,8.1-47.73-39.39-79.83-38.12-11.27.44-26.49,7-43.95,33.64v68.78H726.46Z"/><path class="cls-23" d="M141.88,398.15c8.33-17.56,16.38-21.7,22-22.43,12.68-1.66,19.54,13.28,35.43,11.21,9.1-1.18,11.37-6.95,20.18-5.83,9.69,1.24,11.1,8,17.94,9.42,18.25,3.73,30.8-42,55.92-43,14.72-.61,17,14.82,35.57,15.24,20.05.45,24.57-17.38,41.26-14.8,15.85,2.44,19.7,19.74,38.12,20.18,6.84.16,7.06-2.2,14.8-2.25,16.59-.1,23.13,10.66,33.64,13.91,26.17,8.1,47.73-39.39,79.83-38.12,11.27.44,26.48,7,44,33.63v68.78H141.88Z"/><path class="cls-24" d="M659.63,318c9.08,19.73,20.08,46.51,22.59,58.26-6.29,13-11.29,19-11.29,19H648.65s8.53-13.5,11-16.65c-5.1-8.18-20.63-35.67-20.63-46.37C639,323,649.07,318,659.63,318Z"/><path class="cls-25" d="M605.71,275.14l-7.52,3.9a1.78,1.78,0,0,0-.58,2.7,12.64,12.64,0,0,0,4.47,3.16Z"/><path class="cls-26" d="M616.37,264.59c-6.58,0-11.51,8-14.07,14.47-1.88,4.78-2.19,12.54-2.22,16.26a3.22,3.22,0,0,0,2.09,3.05,35.19,35.19,0,0,0,6.77,1.62l-.71,8.34h20.28l-2-12.08c5.79-2,10.21-8.68,10.21-17.19C636.68,269.53,628.85,264.59,616.37,264.59Z"/><line class="cls-27" x1="608.51" y1="305.04" x2="609.16" y2="297.44"/><path class="cls-28" d="M613.09,279.35c0,5-3,8.29-1.63,12.7,1.25,4.2,5.6,5.79,10.82,5.79,6.79,0,11.79-3.28,11.79-11.38s-9-13-12.7-13S613.09,274.14,613.09,279.35Z"/><circle class="cls-28" cx="608.65" cy="267.75" r="5.73"/><ellipse class="cls-4" cx="621.7" cy="275.45" rx="10.39" ry="32.13" transform="translate(-25.8 483.12) rotate(-41.68)"/><path class="cls-4" d="M632.88,286.2h0l7.55-10.32h0c1.3-1.77-1.12-7-5.62-12.1s-9.46-8.07-11.38-7h0l-11.12,6.31h0a1.94,1.94,0,0,0-.29.21c-2.07,1.84.87,8.51,6.57,14.91s12,10.08,14,8.24A1.86,1.86,0,0,0,632.88,286.2Z"/><path class="cls-28" d="M632.88,286.2a1.86,1.86,0,0,1-.23.26c-2.07,1.84-8.36-1.85-14-8.24S610,265.15,612,263.31a1.94,1.94,0,0,1,.29-.21L616,261a2.61,2.61,0,0,0-.27.19c-2,1.74.82,8,6.18,14.05s11.29,9.5,13.24,7.77a1.71,1.71,0,0,0,.22-.25Z"/><path class="cls-27" d="M625.58,265.38a23.08,23.08,0,0,1-2.21-4"/><path class="cls-27" d="M640.24,276.1c-1.71,1.52-6.91-1.53-11.61-6.81"/><path class="cls-4" d="M571.23,318C581.72,309,604.9,303,622,303c14.45,0,30.4,6.61,37.6,15.07A200.39,200.39,0,0,1,644,395.26H576.26C581.3,371.76,579.06,338.47,571.23,318Z"/><path class="cls-24" d="M571.23,318C562,331,559.06,349.52,558.64,395.26h19.93s5.66-20.91,5.66-38.61C584.23,342.94,582.56,331.33,571.23,318Z"/><path class="cls-27" d="M630.54,326.67c2.61,10-1.11,29.19-5.12,37.73"/><path class="cls-2" d="M492.81,228.87A31.85,31.85,0,1,0,450,258.75a8.27,8.27,0,0,1,5.32,7.79v7h11.37v-6.89a8.43,8.43,0,0,1,5.39-7.94A31.85,31.85,0,0,0,492.81,228.87Z"/><path class="cls-27" d="M492.81,228.86a31.84,31.84,0,0,1-28.92,31.71"/><path class="cls-4" d="M451.05,289.23h19.81a0,0,0,0,1,0,0v8.6a4.57,4.57,0,0,1-4.57,4.57H455.62a4.57,4.57,0,0,1-4.57-4.57v-8.6A0,0,0,0,1,451.05,289.23Z"/><line class="cls-27" x1="490.49" y1="240.82" x2="470.87" y2="289.23"/><line class="cls-27" x1="478.68" y1="240.82" x2="466.9" y2="289.23"/><line class="cls-27" x1="443.25" y1="240.81" x2="455.02" y2="289.23"/><line class="cls-27" x1="431.44" y1="240.81" x2="451.05" y2="289.23"/><line class="cls-27" x1="451.05" y1="293.49" x2="470.87" y2="293.49"/><path class="cls-2" d="M408.48,306.83A17.43,17.43,0,1,0,385,323.18a4.52,4.52,0,0,1,2.91,4.27v3.83h6.22v-3.77a4.61,4.61,0,0,1,3-4.34A17.44,17.44,0,0,0,408.48,306.83Z"/><path class="cls-27" d="M408.48,306.83a17.43,17.43,0,0,1-15.82,17.35"/><path class="cls-4" d="M385.63,339.86h10.85a0,0,0,0,1,0,0v4.4a2.81,2.81,0,0,1-2.81,2.81h-5.24a2.81,2.81,0,0,1-2.81-2.81v-4.4A0,0,0,0,1,385.63,339.86Z"/><line class="cls-27" x1="407.21" y1="313.37" x2="396.47" y2="339.87"/><line class="cls-27" x1="374.89" y1="313.37" x2="385.63" y2="339.86"/><line class="cls-27" x1="385.63" y1="342.71" x2="396.47" y2="342.71"/><circle class="cls-13" cx="405.92" cy="261.47" r="6.02"/></g><line class="cls-29" x1="39.09" y1="533.39" x2="900.75" y2="533.39"/><line class="cls-27" x1="0.75" y1="533.39" x2="27.73" y2="533.39"/><circle class="cls-30" cx="636.07" cy="195.38" r="5.38"/><circle class="cls-30" cx="678.05" cy="195.38" r="5.38"/><circle class="cls-30" cx="636.07" cy="237.36" r="5.38"/><circle class="cls-30" cx="678.05" cy="237.36" r="5.38"/><rect class="cls-31" x="636.07" y="193.24" width="41.98" height="41.98"/><polyline class="cls-27" points="678.05 232.73 678.05 235.23 675.55 235.23"/><line class="cls-32" x1="666.85" y1="235.23" x2="642.92" y2="235.23"/><polyline class="cls-27" points="638.57 235.23 636.07 235.23 636.07 232.73"/><line class="cls-32" x1="636.07" y1="224.02" x2="636.07" y2="200.09"/><polyline class="cls-27" points="636.07 195.74 636.07 193.24 638.57 193.24"/><line class="cls-32" x1="647.27" y1="193.24" x2="671.2" y2="193.24"/><polyline class="cls-27" points="675.55 193.24 678.05 193.24 678.05 195.74"/><line class="cls-32" x1="678.05" y1="204.44" x2="678.05" y2="228.37"/><circle class="cls-24" cx="636.07" cy="193.24" r="5.38"/><circle class="cls-24" cx="678.05" cy="193.24" r="5.38"/><circle class="cls-24" cx="636.07" cy="235.23" r="5.38"/><circle class="cls-24" cx="678.05" cy="235.23" r="5.38"/><rect class="cls-33" x="650.62" y="206.7" width="14.4" height="14.4"/><circle class="cls-33" cx="650.62" cy="221.09" r="6.16"/><polygon class="cls-33" points="665.34 199.95 658.17 212.36 672.5 212.36 665.34 199.95"/><circle class="cls-1" cx="441.97" cy="148.69" r="6.21"/><circle class="cls-1" cx="464.05" cy="148.69" r="6.21"/><path class="cls-1" d="M416.38,140H381.74v17.39h34.64a8.7,8.7,0,0,0,0-17.39Z"/><path class="cls-30" d="M329.3,284.31H305.18v79.53H329.3a7.12,7.12,0,0,0,7.11-7.11V291.42A7.11,7.11,0,0,0,329.3,284.31Z"/><rect class="cls-9" x="268.97" y="292.84" width="79.53" height="55.35" rx="10" transform="translate(-11.79 629.25) rotate(-90)"/><rect class="cls-13" x="265.41" y="292.84" width="79.53" height="55.35" rx="10" transform="translate(-15.34 625.69) rotate(-90)"/><circle class="cls-4" cx="294.34" cy="344.19" r="7.69"/><circle class="cls-22" cx="294.34" cy="320.52" r="7.69"/><circle class="cls-9" cx="294.34" cy="296.85" r="7.69"/><circle class="cls-2" cx="316.02" cy="344.19" r="7.69"/><circle class="cls-24" cx="316.02" cy="320.52" r="7.69"/><circle class="cls-1" cx="316.02" cy="296.85" r="7.69"/><rect class="cls-2" x="91.08" y="359.98" width="123.69" height="83.21" rx="5" transform="translate(-217.23 183.31) rotate(-38.63)"/><g class="cls-34"><path class="cls-9" d="M68.65,425.62c39.43,0,45.32-38.78,92.85-38.78s61.59,27.8,61.59,27.8l-95.5,65.76Z"/></g><path class="cls-35" d="M208.47,321.09c2.78,2.16,5.69,4.65,4.15,6.36s-6.79.56-6.79.56Z"/><circle class="cls-27" cx="208.62" cy="320.25" r="3.66"/><path class="cls-36" d="M180.23,315.47c0-10.15,9.08-12.48,13.62-12.48a14.79,14.79,0,0,1,14.79,15.3,151.65,151.65,0,0,1-1.22,18.3,3,3,0,0,1-2,2.47,17.48,17.48,0,0,1-4.18.91l-1.44,8.43H178.32l5.13-24.63A11.22,11.22,0,0,1,180.23,315.47Z"/><path class="cls-28" d="M179.15,314.63c0-8.14,4.07-13,13-13.83s13.44,2.19,20,.22c.58,3.51-.79,6.91-3.51,8.4-3.58,1.94-.61,4.9-3.58,7.4s-6-.22-8.2,4.69c-1.6,3.56-3.63,5.44-9.4,5.44C183.45,327,179.15,321.74,179.15,314.63Z"/><line class="cls-27" x1="200.69" y1="343.25" x2="201.95" y2="335.92"/><path class="cls-27" d="M198.81,322.77a2.51,2.51,0,0,1,2.51-2.52h11"/><path class="cls-24" d="M169.2,340.61c-10-.74-30.69,10-34,14.92s-2.78,14.69.07,18.29,7,7.18,11.62,5.62,34.81-25.19,34-29.82S175.56,341.08,169.2,340.61Z"/><path class="cls-36" d="M135.82,355.92c-6,2.74-24,12.1-29.17,16.61-1.09,5.12-.6,13.25-.6,13.25l7.46-5.94c5.63-3.81,12.14,2.83,18.69,2s15.23-5.14,16-10.22S144.93,351.79,135.82,355.92Z"/><path class="cls-36" d="M260.24,360s26.46-10.17,26.94-10.5l11.9-5.83a6,6,0,0,1,3-.6l10,0,1.79-.87a1.36,1.36,0,0,1,1.79,1.86c-.7,1.32-1.71,2.5-3,2.61L306,347.76l0,5.63a3.15,3.15,0,0,1-1.23,2.47,13.64,13.64,0,0,1-7.16,2.18c-3.2-.09-4.36-1.43-4.36-1.43S268.44,378,262.37,381c-12.59.05-33.36-6-33.36-6s-1.51-9.7.4-13.2,2.9-10.8,2.9-10.8Z"/><path class="cls-24" d="M150.34,355.2c-4.82,12.92-18.44,66.62-18.44,66.62.25,10.31.53,9.54.53,9.54s21.44,16.39,40.9,8.44c13.67-5.59,35.31-26.87,43.8-54.6l21.38,3.49a43.94,43.94,0,0,0,7.67-15.37c3.13-11.53,1-18.06,1-18.06s-21.88-7.6-29.12-10.13c-11.12-1.46-43.57-4.52-48.82-4.52C161.09,340.61,154.8,343.25,150.34,355.2Z"/><path class="cls-28" d="M93.69,523.18c2.56,1.08,43,10.28,54.77,10.28,4.64,0,6.37-4,6.37-7.4,5.81,1.09,48.43,10.19,57.19,10.19,12,0,15.63-4.52,15.63-8.94,0-18.1-23.14-57.94-37.12-70.15,2.82-3.17.46-9-7.43-14.13,3.07-1.77-1.87-7.27-5.79-10.73-11.41-10.09-27.1-17.36-38-17.36-20.07,0-31.5,16.5-31.5,35.26,0,12.91,4.86,39.07,10,52.77-10.92-2.2-21.07-3.14-21.88-3.27-1.7-.29-4.09,2.64-5.37,9.29S91.14,522.09,93.69,523.18Zm60.36-21.67a113.41,113.41,0,0,1,.54-15.42c3.4,4.1,8.46,9.84,14,15.87C162.31,501.74,158.9,501.62,154.05,501.51Z"/><path class="cls-13" d="M154.05,501.51c2.5.33,3.37,6.69,3.37,9.46a25.82,25.82,0,0,1-2.6,10.86l-41-11.12,2.83-14.12Z"/><path class="cls-13" d="M95.94,499.7c1.61.25,3.39,4.87,2.64,9s-3.75,8.62-3.75,8.62L59.56,506.77l2.8-12.36Z"/><path class="cls-16" d="M61,489.19l-6.44-3.55c-1.71,4-7.81,21.56-9.11,25-2,5.13-3.49,9.23-3.49,12.77,0,3.11,2.36,7.17,3.76,8.67a4.4,4.4,0,0,0,3.25,1.4h5.68s-7.08-8.26-4.27-18S61,489.19,61,489.19Z"/><path class="cls-37" d="M73.89,495.82c-.54-3.24-5.32-6.14-9.61-7.24s-4.91.46-6.34,3.71S48.27,516.13,47.18,519a12.54,12.54,0,0,0,.73,9.9,11.86,11.86,0,0,0,4.58,4.52H65c0-5.54-5.08-7.69-5.08-7.69l8.5-10.33s5.37,3.29,6.64,1.36c2.23-3.37-1.59-9.85-6.29-13.67C69.33,499.5,71.83,496.51,73.89,495.82Z"/><path class="cls-16" d="M118.48,491.88,112,488.33c-1.7,4-7.81,21.56-9.1,25-2,5.13-3.5,9.22-3.5,12.76,0,3.11,2.37,7.18,3.77,8.68a4.42,4.42,0,0,0,3.25,1.4h5.68s-7.08-8.26-4.28-18S118.48,491.88,118.48,491.88Z"/><path class="cls-37" d="M131.41,498.51c-.54-3.24-5.32-6.14-9.61-7.24s-4.92.45-6.34,3.7-9.67,23.85-10.77,26.74a12.58,12.58,0,0,0,.73,9.9,11.86,11.86,0,0,0,4.58,4.52h12.53c0-5.54-5.09-7.69-5.09-7.69l8.5-10.33s5.37,3.29,6.65,1.36c2.22-3.37-1.59-9.85-6.29-13.68C126.85,502.19,129.35,499.2,131.41,498.51Z"/><path class="cls-19" d="M139.57,471.81c-9.28-4.88-12-4.67-17.24-4.89"/><path class="cls-19" d="M135.62,473.33a18.55,18.55,0,0,0-8.92,0"/><path class="cls-19" d="M204.7,506.16c-3.11-2.1-9.75-3.06-14.19-3.3-7.07-.37-18.39-.9-18.39-.9"/><line class="cls-19" x1="185.22" y1="453.99" x2="173.99" y2="448.13"/><line class="cls-19" x1="177.9" y1="439.1" x2="175.36" y2="437.98"/><path class="cls-27" d="M169.2,370.49A62.46,62.46,0,0,1,158.89,391"/><path class="cls-27" d="M150.34,355.2c-4.82,12.92-18.44,66.62-18.44,66.62"/><circle class="cls-27" cx="56.99" cy="522.81" r="1.33"/><circle class="cls-27" cx="61.24" cy="517.65" r="1.33"/><circle class="cls-27" cx="65.49" cy="512.49" r="1.33"/><circle class="cls-27" cx="114.5" cy="525.5" r="1.33"/><circle class="cls-27" cx="118.76" cy="520.34" r="1.33"/><circle class="cls-27" cx="123.01" cy="515.17" r="1.33"/><line class="cls-27" x1="327.68" y1="342.8" x2="334.87" y2="342.8"/><line class="cls-27" x1="325.48" y1="337.96" x2="330.56" y2="332.87"/><path class="cls-30" d="M149.11,358.79c-5.74,1.64-9.36,22.12-20.52,22.87,0,11.35,2.82,25.61,6.15,29.09Z"/><path class="cls-30" d="M217.13,385.2l-4-.56c-.93,4.9-1.1,9.49,0,11.2C214.59,393.32,217.13,385.2,217.13,385.2Z"/><line class="cls-27" x1="211.58" y1="384.39" x2="238.51" y2="388.69"/><path class="cls-1" d="M89.31,508.05a27.38,27.38,0,0,1-2.45,6.87L90.42,516a30.52,30.52,0,0,0,2.5-7.28,19.16,19.16,0,0,0-.84-9.62l-4.36-.69A14.78,14.78,0,0,1,89.31,508.05Z"/><path class="cls-1" d="M148.85,511.48a30.93,30.93,0,0,1-2.86,8l4.23,1.14a33.7,33.7,0,0,0,2.9-8.32c.72-4-.32-7.89-1.46-11.07l-4.72-.62A15.91,15.91,0,0,1,148.85,511.48Z"/><circle class="cls-24" cx="347.08" cy="423.31" r="17.25"/><polygon class="cls-13" points="353.52 423.31 343.33 417.43 343.33 429.19 353.52 423.31"/><rect class="cls-1" x="379.13" y="419.53" width="274.79" height="7.56" rx="3.78"/><path class="cls-24" d="M382.91,419.53H504.85a0,0,0,0,1,0,0v7.56a0,0,0,0,1,0,0H382.91a3.78,3.78,0,0,1-3.78-3.78v0A3.78,3.78,0,0,1,382.91,419.53Z"/><path class="cls-4" d="M354.36,230.59h26.93a0,0,0,0,1,0,0v13.9a4,4,0,0,1-4,4H358.36a4,4,0,0,1-4-4v-13.9A0,0,0,0,1,354.36,230.59Z"/><path class="cls-2" d="M411.11,148.55a43.29,43.29,0,1,0-58.23,40.62,11.23,11.23,0,0,1,7.22,10.59v9.52h15.45v-9.36a11.45,11.45,0,0,1,7.33-10.79A43.29,43.29,0,0,0,411.11,148.55Z"/><path class="cls-27" d="M411.11,148.55a43.27,43.27,0,0,1-39.3,43.09"/><line class="cls-27" x1="407.96" y1="164.79" x2="381.29" y2="230.59"/><line class="cls-27" x1="391.91" y1="164.79" x2="375.9" y2="230.59"/><line class="cls-27" x1="343.75" y1="164.79" x2="359.75" y2="230.59"/><line class="cls-27" x1="327.7" y1="164.79" x2="354.36" y2="230.59"/><line class="cls-27" x1="354.37" y1="235.57" x2="381.3" y2="235.57"/><path class="cls-38" d="M693.61,118H648.74v25.33a3.51,3.51,0,0,0,3.45,3.56h48.3V125.11A7,7,0,0,0,693.61,118Z"/><path class="cls-38" d="M636.27,96.22H549.76a3.55,3.55,0,0,0-3.56,3.55v43.56a3.56,3.56,0,0,0,3.56,3.56h86.51a3.56,3.56,0,0,0,3.56-3.56V99.77A3.55,3.55,0,0,0,636.27,96.22Z"/><rect class="cls-9" x="549.76" y="92.67" width="90.07" height="50.67" rx="5"/><rect class="cls-9" x="754.84" y="92.67" width="90.07" height="50.67" rx="5"/><rect class="cls-39" x="648.74" y="92.67" width="90.07" height="50.67" rx="5"/><rect class="cls-3" x="546.2" y="92.67" width="90.07" height="50.67" rx="5"/><g class="cls-40"><path class="cls-22" d="M546.2,126.71c8.43,0,12.24,5.57,19.28,5.57s10.26-8.79,16.41-8.79,5.28,4.4,10.55,4.4,6.45,4.39,10,4.39,7.62-6.45,15-6.45,7.33-7.83,11.72-7.83,3.25,3.44,7.19,3.44v21.89H546.2Z"/><circle class="cls-13" cx="567.24" cy="106.78" r="3.08"/><path class="cls-2" d="M631.27,78.6a25.75,25.75,0,1,0-34.65,24.17,6.67,6.67,0,0,1,4.3,6.3v5.66h9.2v-5.57a6.81,6.81,0,0,1,4.36-6.42A25.76,25.76,0,0,0,631.27,78.6Z"/><path class="cls-27" d="M631.27,78.6a25.76,25.76,0,0,1-23.38,25.64"/><path class="cls-4" d="M597.51,127.41h16a0,0,0,0,1,0,0v6.08a4.57,4.57,0,0,1-4.57,4.57h-6.89a4.57,4.57,0,0,1-4.57-4.57v-6.08A0,0,0,0,1,597.51,127.41Z"/><line class="cls-27" x1="629.39" y1="88.26" x2="613.53" y2="127.41"/><line class="cls-27" x1="619.84" y1="88.26" x2="610.32" y2="127.41"/><line class="cls-27" x1="591.19" y1="88.26" x2="600.71" y2="127.41"/><line class="cls-27" x1="581.64" y1="88.26" x2="597.51" y2="127.41"/></g><rect class="cls-3" x="751.29" y="92.67" width="90.07" height="50.67" rx="5"/><g class="cls-41"><path class="cls-22" d="M737.6,121.66c11,0,16,7.27,25.13,7.27s13.38-11.47,21.41-11.47,6.88,5.73,13.76,5.73,8.41,5.74,13,5.74,9.94-8.41,19.49-8.41,9.56-10.22,15.29-10.22,4.23,4.48,9.38,4.48v28.55H737.6Z"/><circle class="cls-4" cx="818.37" cy="116.18" r="7.62"/><path class="cls-24" d="M787.55,116.09c4.62.21,12.07,1,16.31,1.69,5.31.89,6.72,4.7,6.72,7.56s-4.81,5.08-4.81,5.08c-6.24-2-18.51-10.6-18.51-10.6Z"/><path class="cls-24" d="M830.33,126.85c3.58,3.64,3.58,13.89,3.58,17.19h-7.7s-.8-7-.07-10.79C826.8,129.83,830.33,126.85,830.33,126.85Z"/><path class="cls-5" d="M787.55,116.09s-6.88-.59-7.37-.59a.7.7,0,0,0-.28,1.36c.36.17,2.5.88,2.5.88-.15,2.58,2.3,2.72,3.76,1.91l1.1.17Z"/><path class="cls-4" d="M830.33,126.85c-1.91,6.44-4.12,17.19-4.12,17.19H809.43s-5.57-16.95-5.57-26.26C811.19,118.47,822,121.4,830.33,126.85Z"/><g class="cls-42"><circle class="cls-5" cx="818.37" cy="120.61" r="4.12"/></g><path class="cls-27" d="M817,126.1a63.75,63.75,0,0,0,.8,17.94"/><path class="cls-27" d="M833.91,144c0-3.3,0-13.55-3.58-17.19-8.3-5.45-19.14-8.38-26.47-9.07-4.24-.71-11.69-1.48-16.31-1.69"/><ellipse class="cls-5" cx="818.37" cy="118.12" rx="3.14" ry="4.31"/><g class="cls-43"><circle class="cls-28" cx="819.13" cy="113.3" r="3.26"/></g><line class="cls-27" x1="774.33" y1="98.05" x2="766.52" y2="117.31"/><line class="cls-27" x1="750.84" y1="98.05" x2="758.64" y2="117.31"/><path class="cls-2" d="M775.25,93.29a12.67,12.67,0,1,0-17,11.89,3.29,3.29,0,0,1,2.12,3.1v2.79h4.52v-2.74a3.36,3.36,0,0,1,2.15-3.16A12.67,12.67,0,0,0,775.25,93.29Z"/><path class="cls-27" d="M775.25,93.29a12.67,12.67,0,0,1-11.5,12.62"/><path class="cls-4" d="M758.64,117.31h7.88a0,0,0,0,1,0,0v2.94a2.3,2.3,0,0,1-2.3,2.3h-3.28a2.3,2.3,0,0,1-2.3-2.3v-2.94A0,0,0,0,1,758.64,117.31Z"/></g><line class="cls-27" x1="597.51" y1="131.16" x2="613.53" y2="131.16"/><rect class="cls-13" x="92.44" y="403.7" width="14.11" height="14.11" rx="5.46" transform="translate(-234.64 151.97) rotate(-38.63)"/><path class="cls-25" d="M733.5,490.29a13.17,13.17,0,0,0-7.89-1.78s-5.71,21.15-9.33,26.81c-2,3.16-16.28,11.66-24.53,14.6h40a6.4,6.4,0,0,0,2.26-5c0-3.31-3.83-5.24-2.56-9.48s7-21.06,7-21.06A19.41,19.41,0,0,0,733.5,490.29Z"/><path class="cls-4" d="M780.68,296.16c-17.22,55.14-30,105.58-30,105.58l-28.74,92.15,47.39,11.26c9.31-35.77,1.52-81.86,4.76-87.34s22.46-26,30.94-45.79C812.69,354.06,822.35,309.38,780.68,296.16Z"/><path class="cls-2" d="M733,512.42a10.93,10.93,0,0,1,3.82,8.44,7.67,7.67,0,0,1-.77,3.9l-45.33,1.65a1.57,1.57,0,0,1-1.67-1.62c0-1.35,1.11-2.59,2.9-3.28l21.61-8.31s-3.08-5.65,1.2-7.18c3.11-1.11,7.44,2.65,11.3,8.59A15.35,15.35,0,0,0,733,512.42Z"/><g class="cls-44"><rect class="cls-35" x="696.84" y="511.22" width="5.56" height="18.43" transform="translate(-166.49 419.54) rotate(-30)"/><rect class="cls-35" x="708.04" y="511.22" width="5.56" height="18.43" transform="translate(-164.99 425.13) rotate(-30)"/></g><path class="cls-45" d="M733,512.42a10.93,10.93,0,0,1,3.82,8.44,7.67,7.67,0,0,1-.77,3.9l-45.33,1.65a1.57,1.57,0,0,1-1.67-1.62c0-1.35,1.11-2.59,2.9-3.28l21.61-8.31s-3.08-5.65,1.2-7.18c3.11-1.11,7.44,2.65,11.3,8.59A15.35,15.35,0,0,0,733,512.42Z"/><path class="cls-28" d="M737.19,532.67H688.42l.47-4.38a2.12,2.12,0,0,1,2-1.89l45.16-1.64Z"/><path class="cls-27" d="M721.92,493.89l47.39,11.26c4.91-18.87,5.06-40.6,4.59-57.74"/><path class="cls-46" d="M774.07,417.81c3.24-5.49,22.46-26,30.94-45.79,0,0-19.28-24-19.28-10.09C785.73,380.08,774.07,417.81,774.07,417.81Z"/><path class="cls-28" d="M819.13,173.1c-10.06-5.55-22.37.61-28.35,9.32s-15.1,27.71-3.13,39.68,30.32,5.46,37.86-12.36S833,180.78,819.13,173.1Z"/><path class="cls-47" d="M840.38,187.82c7.75,16.46,21,12.43,32.64,24.09s-3.28,17.24,0,27.2,15.19,15.81,15.19,31.61c0,17-12,27-28.46,27-38.37,0-62.36-25.53-62.36-66.19C797.39,188.12,835.64,177.77,840.38,187.82Z"/><path class="cls-25" d="M716.88,148.14c.72.55,1.06,1.88,1.45,2.86a3.65,3.65,0,0,0,1.63,1.62c-.06-1.75,0-3.45-.11-4.6-.27-2.24-3.41-9.41-3.63-10.89a2.94,2.94,0,0,1,.58-2.14.33.33,0,0,1,.55,0L722,142.7a73,73,0,0,1,7.13,3.69,3.12,3.12,0,0,1,1.41,1.87,69.52,69.52,0,0,1,2,10.11s18.83,21.46,19.75,22.83.33,4.86-3,6.88c-3.74,2.26-6.87,1.75-7.77.62-1.48-1.87-15.86-27.82-15.86-27.82-2.23,0-7.59-2.82-8.59-4.7l-2.64-8.31A2.55,2.55,0,0,1,716.88,148.14Z"/><path class="cls-9" d="M741,177.68c3-1.88,7.64-3,9.35-1.13,2.18,2.33,4.8,4,13,14.07,13.14,5.57,26.49,13.87,36,18.67s39.71,18.2,39.71,18.2c5.61,15.58-.48,25.53-8.52,36.27-6.59,8.79-5.43,24-9.16,33.16-.86,2.11-10.49,2-17.61,2.21s-21.41,1.54-24.15-2.21-5.38-36.55-3.63-42.54c-4.6-2.06-9.69-6.6-10.42-11.43-.6-4,4.69-9.27,11.61-15.39-9-5.81-16.76-10.22-25.46-16.07-5.06-5.62-14.21-25.49-15.14-27.73S738,179.55,741,177.68Z"/><path class="cls-25" d="M826,501.43c-4.31,0-8.34.45-8.34.45s2.71,10-.91,15.61c-2,3.17-14.92,11.21-23.18,14.15h40a6.4,6.4,0,0,0,2.26-5c0-3.3-3-5.44-3.62-9.83a70.2,70.2,0,0,1,.23-14.79S830.81,501.43,826,501.43Z"/><path class="cls-24" d="M821.38,296.92l-40.75-.37c0,17.6,4.71,98.57,20.82,128.71-3.74,20.85-7,52.41-9.09,80.1H838.1c0-55.34-12.81-72.8-12.81-90.15,0-10.31,6.94-46.89,7.31-66.36,8-3.27,12.3-16.9,8.06-27.29C835.59,309.13,825.59,303.94,821.38,296.92Z"/><path class="cls-2" d="M833.07,515.78a10.94,10.94,0,0,1,3.81,8.44,7.65,7.65,0,0,1-.77,3.89l-45.33,1.65a1.56,1.56,0,0,1-1.66-1.62c0-1.34,1.1-2.59,2.89-3.28l21.62-8.3s-3.08-5.66,1.2-7.19c3.1-1.11,7.44,2.66,11.29,8.59A15.46,15.46,0,0,0,833.07,515.78Z"/><g class="cls-48"><rect class="cls-35" x="796.88" y="514.58" width="5.56" height="18.43" transform="translate(-154.76 470) rotate(-30)"/><rect class="cls-35" x="808.07" y="514.58" width="5.56" height="18.43" transform="translate(-153.26 475.6) rotate(-30)"/></g><path class="cls-45" d="M833.07,515.78a10.94,10.94,0,0,1,3.81,8.44,7.65,7.65,0,0,1-.77,3.89l-45.33,1.65a1.56,1.56,0,0,1-1.66-1.62c0-1.34,1.1-2.59,2.89-3.28l21.62-8.3s-3.08-5.66,1.2-7.19c3.1-1.11,7.44,2.66,11.29,8.59A15.46,15.46,0,0,0,833.07,515.78Z"/><path class="cls-28" d="M837.22,536H788.45l.47-4.38a2.13,2.13,0,0,1,2-1.89l45.16-1.65Z"/><path class="cls-25" d="M815.55,172.92c11.93-.17,17.42,6.87,17.42,12.46a20.61,20.61,0,0,1-12.46,18.8c-.42,5.49-4.92,12.76-4.92,12.76-5.61,2.78-11.66,3.61-14.93,1.92s3-5.39,3-5.39l.21-8.23c-2.85-.22-5.93-.27-7-1.42s.42-9.8.42-9.8c-2.55-.15-4.07-.52-4.33-1.92s5.94-5.79,5.94-5.79C800.6,179,804.74,173.08,815.55,172.92Z"/><path class="cls-47" d="M820.13,166.81c13.25,0,17.22,12.3,20.25,21s-1.85,33.27-8.71,34.17c-8.93,1.17-9.48,7.79-13.83,7.79s-7.41-2.8-7.36-7.34c.08-7.81,8-11.53,8.14-19.85.13-10.15-10.54-10.54-13.63-16.86C801.58,178.75,804.8,166.81,820.13,166.81Z"/><path class="cls-27" d="M790.24,262.52c5.52,6.57,15.93,7.05,21.55,1.53"/><line class="cls-27" x1="777.18" y1="227.56" x2="788.03" y2="218.29"/><path class="cls-30" d="M803.82,205.24l4.52.21a5.86,5.86,0,0,1-4.6,3Z"/><path class="cls-27" d="M784.63,353.09c3.15,27.1,8.45,56.5,16.82,72.17"/><path class="cls-27" d="M792.36,505.36H838.1c0-55.34-12.81-72.8-12.81-90.15"/><line class="cls-27" x1="832.07" y1="505.82" x2="831.94" y2="511.61"/><path class="cls-30" d="M825.82,275.27c.95-4.28,2.32-8.32,4.72-11.51,0,0,3-3.89,1.44-4.83-2.54-1.58-4.18,1.83-5,4.27A27.85,27.85,0,0,0,825.82,275.27Z"/><line class="cls-27" x1="735.65" y1="489.99" x2="770.86" y2="498.35"/><line class="cls-27" x1="838.03" y1="498.35" x2="804.29" y2="498.35"/><line class="cls-27" x1="716.51" y1="129.42" x2="716.51" y2="122.23"/><line class="cls-27" x1="711.67" y1="131.63" x2="706.58" y2="126.54"/><path class="cls-46" d="M809.29,310.29l-19.07-13.65-8.32-.07c-.4-.14-.8-.28-1.22-.41-5,16.15-9.71,31.9-13.78,46.1l12.9,9.23a3.55,3.55,0,0,0,5-.82l25.35-35.42A3.55,3.55,0,0,0,809.29,310.29Z"/><rect class="cls-1" x="715.78" y="275.73" width="90.07" height="50.67" rx="5" transform="translate(317.32 -386.53) rotate(35.59)"/><g class="cls-49"><path class="cls-22" d="M719.12,281.94c6.85,4.91,6.71,11.65,12.43,15.75s13.46-1.18,18.47,2.4,1.73,6.64,6,9.71,2.68,7.33,5.54,9.38,10-.81,15.91,3.46,10.52-2.11,14.1.45.63,4.68,3.85,7l-12.75,17.8-73.24-52.42Z"/><line class="cls-27" x1="768.66" y1="294.39" x2="751.11" y2="305.51"/><line class="cls-27" x1="749.56" y1="280.72" x2="744.7" y2="300.92"/><path class="cls-2" d="M772.18,291.06a12.67,12.67,0,1,0-20.78-.25,3.28,3.28,0,0,1-.09,3.75l-1.62,2.27,3.68,2.63,1.59-2.23a3.37,3.37,0,0,1,3.59-1.32A12.66,12.66,0,0,0,772.18,291.06Z"/><path class="cls-27" d="M772.18,291.06a12.68,12.68,0,0,1-16.7,3.57"/><path class="cls-4" d="M742.43,302.73h7.88a0,0,0,0,1,0,0v2.65a2.58,2.58,0,0,1-2.58,2.58H745a2.58,2.58,0,0,1-2.58-2.58v-2.65A0,0,0,0,1,742.43,302.73Z" transform="matrix(0.81, 0.58, -0.58, 0.81, 317.12, -377.33)"/><path class="cls-2" d="M834.16,314a36,36,0,1,0-59-.71,9.34,9.34,0,0,1-.24,10.64l-4.6,6.43,10.43,7.47,4.53-6.32a9.52,9.52,0,0,1,10.17-3.75A36,36,0,0,0,834.16,314Z"/><path class="cls-27" d="M834.16,314a36,36,0,0,1-47.38,10.11"/><path class="cls-50" d="M749.75,347.11h22.37a0,0,0,0,1,0,0v10.3a4.57,4.57,0,0,1-4.57,4.57H754.32a4.57,4.57,0,0,1-4.57-4.57v-10.3a0,0,0,0,1,0,0Z" transform="translate(348.47 -376.61) rotate(35.59)"/><line class="cls-27" x1="824.18" y1="323.46" x2="774.36" y2="355.01"/><line class="cls-27" x1="813.34" y1="315.7" x2="770.72" y2="352.41"/><line class="cls-27" x1="780.81" y1="292.42" x2="759.8" y2="344.6"/><line class="cls-27" x1="769.97" y1="284.66" x2="756.17" y2="341.99"/><circle class="cls-13" cx="735.14" cy="263.58" r="3.96"/></g><path class="cls-30" d="M764.77,288.52s6.6-5.7,9.32-5.7c1,0,10.83,4.34,10.83,4.34l3.74,2.68c0,4.38-3.27,7.08-9,7.08C770.13,296.92,764.77,288.52,764.77,288.52Z"/><path class="cls-9" d="M828.36,258.75a77.56,77.56,0,0,0,9.7,18.15c-7.64.27-24.62-.26-28.12.09s-4.82,4.64-4.89,8.19.29,5,4.6,6c18.72,4.21,36.65,4.15,50.1-.54,2.8-32.38-8.82-58.66-20.69-63.12"/><path class="cls-27" d="M828.36,258.75a73.48,73.48,0,0,0,8.55,17.58"/><path class="cls-27" d="M809.65,291.15c18.72,4.21,36.65,4.15,50.1-.54"/><path class="cls-27" d="M805.05,285.18c-.07,3.55.29,5,4.6,6"/><path class="cls-25" d="M786.94,276.93l-10.8,2.63-6.35,3.07-5,5.89a3.58,3.58,0,0,0,2.74.37c1.26-.51,4.13-3.65,4.13-3.65l3.28-1.2-1.44,3.85.16,2.31a3,3,0,0,0,2.13,2.68l5.72,1.7a3.49,3.49,0,0,0,0-2.37,2.39,2.39,0,0,0-1.37-1.25s4.85-1.13,6.45-2.34a19.29,19.29,0,0,0,4-4.6s15.44,4.16,16.86,4.37c1.89.29,4.18-1.35,4.93-5.1.62-3.13-.76-6.38-2.46-6.3C807.13,277.12,786.94,276.93,786.94,276.93Z"/><path class="cls-27" d="M643.31,290.1c1.53,4.37,1.56,7.75-.24,9.35-4.29,3.82-17.33-3.83-29.13-17.09l-1-1.12"/><path class="cls-27" d="M616,261l-3.71,2.1h0a1.94,1.94,0,0,0-.29.21c-2.07,1.84.87,8.51,6.57,14.91s12,10.08,14,8.24a1.86,1.86,0,0,0,.23-.26h0l7.55-10.32h0c1.3-1.77-1.12-7-5.62-12.1"/><path class="cls-30" d="M700.49,345.83H660.27a13.82,13.82,0,0,0-13.82,13.82h0a13.82,13.82,0,0,0,13.82,13.82h40.22Z"/><rect class="cls-9" x="650" y="342.28" width="94.67" height="27.64" rx="13.82"/><rect class="cls-13" x="646.45" y="342.28" width="94.67" height="27.64" rx="13.82"/><line class="cls-27" x1="661.67" y1="351.98" x2="661.67" y2="360.21"/><path class="cls-27" d="M661.67,352c0-.58,1-1.06,2.28-1.06"/><path class="cls-27" d="M661.67,352c0-.58-1-1.06-2.28-1.06"/><path class="cls-27" d="M661.67,360.21c0,.59-1,1.06-2.28,1.06"/><path class="cls-27" d="M661.67,360.21c0,.59,1,1.06,2.28,1.06"/><line class="cls-16" x1="80.6" y1="497.27" x2="98.28" y2="500.05"/></g></g></g></svg>