<?xml version="1.0" encoding="UTF-8"?>
<svg width="18px" height="18px" viewBox="0 0 18 18" version="1.1" xmlns="http://www.w3.org/2000/svg" xmlns:xlink="http://www.w3.org/1999/xlink">
    <!-- Generator: Sketch 60.1 (88133) - https://sketch.com -->
    <title>🎨 Icon Сolor</title>
    <desc>Created with Sketch.</desc>
    <defs>
        <path d="M33.0054106,37 C32.8632089,37 32.7201072,36.9648642 32.5887056,36.8926932 L27.99955,34.3629122 L23.4112944,36.8926932 C23.1070907,37.0588763 22.7398863,37.0303878 22.4644829,36.8176734 C22.1872796,36.6049591 22.0495779,36.2450541 22.1080786,35.8889475 L22.9819892,30.5445001 L19.2739443,26.7602743 C19.0273413,26.5086257 18.9382402,26.1306779 19.0435415,25.7850171 C19.1488428,25.4412556 19.4305462,25.189607 19.7707503,25.1383276 L24.9008125,24.3520443 L27.1940402,19.4843049 C27.4982439,18.838565 28.5017561,18.838565 28.8059598,19.4843049 L31.0991875,24.3520443 L36.2292497,25.1383276 C36.5694538,25.189607 36.8511572,25.4412556 36.9564585,25.7850171 C37.0617598,26.1306779 36.9726587,26.5086257 36.7260557,26.7602743 L33.0180108,30.5445001 L33.8919214,35.8889475 C33.9504221,36.2450541 33.8118204,36.6049591 33.5355171,36.8176734 C33.3789152,36.9392245 33.1926129,37 33.0054106,37" id="path-1"></path>
    </defs>
    <g id="Home" stroke="none" stroke-width="1" fill="none" fill-rule="evenodd">
        <g id="Home-01" transform="translate(-509.000000, -5839.000000)">
            <g id="Use-Cases" transform="translate(0.000000, 4519.000000)">
                <g id="Try-Wibb-CTA" transform="translate(440.000000, 1301.000000)">
                    <g id="Icon" transform="translate(50.000000, 0.000000)">
                        <mask id="mask-2" fill="white">
                            <use xlink:href="#path-1"></use>
                        </mask>
                        <use id="🎨-Icon-Сolor" fill="#0055FB" xlink:href="#path-1"></use>
                    </g>
                </g>
            </g>
        </g>
    </g>
</svg>