<?xml version="1.0" encoding="UTF-8"?>
<svg width="24px" height="20px" viewBox="0 0 24 20" version="1.1" xmlns="http://www.w3.org/2000/svg" xmlns:xlink="http://www.w3.org/1999/xlink">
    <!-- Generator: Sketch 59.1 (86144) - https://sketch.com -->
    <title>Group 25</title>
    <desc>Created with Sketch.</desc>
    <g id="Symbols" stroke="none" stroke-width="1" fill="none" fill-rule="evenodd">
        <g id="01-Navigation/Footer/Default" transform="translate(-540.000000, -171.000000)">
            <g id="Footer">
                <g id="Column-#2" transform="translate(540.000000, 132.000000)">
                    <g id="Group-25" transform="translate(0.000000, 39.000000)">
                        <g id="Group">
                            <path d="M13.7690857,20 L3.95035507,20 C3.54974168,20 3.20819078,19.7827447 3.03335139,19.4180236 C2.85851201,19.0533024 2.90050597,18.645387 3.14750273,18.3267031 L10.7600601,8.45868998 C11.3572775,7.68550319 12.1901126,7.27272727 13.1579606,7.27272727 L22.977233,7.27272727 C23.3763112,7.27272727 23.7188555,7.48979917 23.8928821,7.85424518 C24.0682633,8.21896631 24.0265403,8.62734026 23.7805369,8.94611589 L16.1669861,18.814129 C15.5697688,19.588508 14.7369336,20 13.7690857,20" id="Fill-12" fill="#CFDDFE"></path>
                            <path d="M10.8424082,12.7272727 L1.02368293,12.7272727 C0.623261437,12.7272727 0.281539527,12.5110137 0.106975983,12.1459964 C-0.0688518597,11.7818046 -0.0258656998,11.3733153 0.22067257,11.0540628 L7.8334673,1.1854808 C8.43021634,0.411515732 9.26338926,0 10.2313003,0 L20.0502965,0 C20.4496343,0 20.7916271,0.216809269 20.9654682,0.58127629 C21.1420185,0.946293587 21.0993033,1.35450766 20.8535778,1.67348508 L13.2399703,11.5415168 C12.6429503,12.3152067 11.8097774,12.7272727 10.8424082,12.7272727" id="Fill-13" fill="#1055FB"></path>
                        </g>
                    </g>
                </g>
            </g>
        </g>
    </g>
</svg>