<?xml version="1.0" encoding="UTF-8"?>
<svg xmlns="http://www.w3.org/2000/svg" viewBox="0 0 41 33" width="41" height="33">
  <g fill="none" fill-rule="evenodd">
    <path fill="#CFDDFE" d="M23.522188 33H6.74852324c-.6843812 0-1.267864-.3584713-1.56654794-.9602611-.29868395-.6017899-.22694427-1.2748503.19500852-1.8006788L18.3817694 13.9568385C19.4020157 12.6810803 20.8247757 12 22.4781827 12h16.7745904c.6817585 0 1.2669383.3581686 1.5642338.9595045.2996096.6017899.2283327 1.2756069-.191923 1.8015867L27.6186013 31.0433128C26.598355 32.3210382 25.175595 33 23.522188 33"/>
    <path fill="#0055FB" d="M18.5224473 21H1.74879168c-.68405339 0-1.26782832-.3568273-1.56604104-.9591059-.30037257-.6009166-.22693788-1.2749238.19423167-1.8016905L13.3821733 1.95604332C14.4016196.67900096 15.8249567 0 17.4784714 0h16.7741184c.6822021 0 1.2664399.3577353 1.5634184.95910588.3016068.60227854.2286349 1.27583175-.1911462 1.80214451L22.6182826 19.0435027C21.5983734 20.3200911 20.1750364 21 18.5224473 21"/>
  </g>
</svg>