<?xml version="1.0" encoding="UTF-8"?>
<svg width="18px" height="18px" viewBox="0 0 18 18" version="1.1" xmlns="http://www.w3.org/2000/svg" xmlns:xlink="http://www.w3.org/1999/xlink">
    <!-- Generator: Sketch 60.1 (88133) - https://sketch.com -->
    <title>icons8-twitter</title>
    <desc>Created with Sketch.</desc>
    <g id="Symbols" stroke="none" stroke-width="1" fill="none" fill-rule="evenodd">
        <g id="02-Icons/Twitter" transform="translate(-3.000000, -3.000000)" fill="#0055FB">
            <g id="icons8-twitter" transform="translate(3.000000, 3.000000)">
                <path d="M14,0 L4,0 C1.791,0 0,1.791 0,4 L0,14 C0,16.209 1.791,18 4,18 L14,18 C16.209,18 18,16.209 18,14 L18,4 C18,1.791 16.209,0 14,0 Z M14.05,6.514 C14.05,6.6 14.05,6.685 14.05,6.857 C14.05,10.114 11.564,13.886 7.021,13.886 C5.65,13.886 4.364,13.457 3.25,12.772 C3.421,12.772 3.679,12.772 3.85,12.772 C4.964,12.772 6.079,12.343 6.936,11.743 C5.822,11.743 4.965,10.972 4.622,10.029 C4.793,10.029 4.965,10.115 5.051,10.115 C5.308,10.115 5.48,10.115 5.737,10.029 C4.623,9.772 3.766,8.829 3.766,7.629 C4.109,7.8 4.452,7.886 4.88,7.972 C4.194,7.372 3.766,6.686 3.766,5.829 C3.766,5.4 3.852,4.972 4.109,4.629 C5.309,6.086 7.109,7.115 9.166,7.2 C9.166,7.029 9.08,6.857 9.08,6.6 C9.08,5.229 10.194,4.114 11.566,4.114 C12.252,4.114 12.937,4.371 13.366,4.885 C13.966,4.799 14.48,4.542 14.909,4.285 C14.738,4.885 14.309,5.314 13.795,5.656 C14.309,5.57 14.738,5.485 15.252,5.227 C14.907,5.743 14.479,6.171 14.05,6.514 Z" id="Shape"></path>
            </g>
        </g>
    </g>
</svg>