<?xml version="1.0" encoding="UTF-8"?>
<svg width="68px" height="24px" viewBox="0 0 68 24" version="1.1" xmlns="http://www.w3.org/2000/svg" xmlns:xlink="http://www.w3.org/1999/xlink">
    <!-- Generator: Sketch 61.2 (89653) - https://sketch.com -->
    <title>logo-compact copy</title>
    <desc>Created with Sketch.</desc>
    <g id="Home" stroke="none" stroke-width="1" fill="none" fill-rule="evenodd">
        <g id="logo-compact-copy" fill="#000000">
            <path d="M31.2290737,8.92263245 C31.6124202,8.94660435 31.9872681,8.80047389 32.2576549,8.52165095 C32.5097376,8.19346044 32.6283735,7.77857254 32.5888929,7.36325994 L32.5888929,2.4 L34.7942408,2.4 L34.7942408,7.36325994 C34.8496308,8.31007868 34.5034309,9.23541673 33.8441107,9.90280946 C33.1152298,10.5293943 32.179948,10.8480902 31.2290737,10.7938795 C30.2780804,10.8490005 29.3424783,10.5301955 28.6140366,9.90280946 C27.932308,9.24649854 27.5632914,8.31969442 27.602889,7.36325994 L27.602889,2.4 L29.8082369,2.4 L29.8082369,7.36325994 C29.7821659,7.77744162 29.9132924,8.18595509 30.1743421,8.50382955 C30.4469974,8.79759 30.8339299,8.95122952 31.2290737,8.92263245 Z" id="Path"></path>
            <path d="M38.49375,10.7989368 C37.808477,10.798482 37.1288885,10.6826738 36.4875,10.4570529 C35.8603524,10.2428681 35.2862517,9.9118274 34.8,9.48399858 L35.94375,8.13399533 C36.2801645,8.41942256 36.6672056,8.64784075 37.0875,8.80899696 C37.5343233,8.97682332 38.0122669,9.06024641 38.49375,9.05445209 C38.7737142,9.06871163 39.0525188,9.0111149 39.3,8.88789325 C39.4882058,8.78437292 39.5999764,8.59220384 39.590625,8.38821672 C39.5874321,8.16875218 39.4536421,7.96926418 39.24375,7.87100769 C38.8606098,7.6697929 38.4508516,7.51653232 38.025,7.41516244 L37.490625,7.28366861 C36.8225324,7.14871225 36.2065915,6.84558268 35.709375,6.40704313 C35.2980565,6.00484001 35.0782558,5.46414228 35.1,4.90801355 C35.1040232,4.43718684 35.2609554,3.97861749 35.55,3.59307532 C35.8561802,3.20324364 36.2714011,2.89991599 36.75,2.71644984 C37.3105577,2.4966521 37.9141567,2.38914627 38.521875,2.40086466 C39.1644594,2.40210132 39.8008721,2.5181436 40.396875,2.7427486 C40.9828751,2.95514365 41.5252263,3.26061083 42,3.64567285 L40.81875,5.03950737 C40.4917951,4.78181973 40.129148,4.56656534 39.740625,4.39957077 C39.3585516,4.22316209 38.9386051,4.13023824 38.5125,4.12781687 C38.2394526,4.11139542 37.9668765,4.16601192 37.725,4.28560946 C37.5282297,4.38214035 37.4106739,4.57794002 37.425,4.78528598 C37.4315074,4.98318099 37.5397278,5.16598188 37.715625,5.27619625 C38.0245088,5.46257434 38.3678924,5.59338744 38.728125,5.66191147 L39.375,5.82847031 C40.1212006,5.97217225 40.8076973,6.31290732 41.353125,6.81029085 C41.734444,7.20696674 41.9419723,7.7233979 41.934375,8.2567229 C41.94355,8.73761806 41.7928677,9.20932041 41.503125,9.60672615 C41.1943921,9.99783266 40.7757721,10.3012729 40.29375,10.4833516 C39.7237702,10.7045157 39.1106977,10.8120027 38.49375,10.7989368 L38.49375,10.7989368 Z" id="Path"></path>
            <path d="M48.1935884,10.7545946 L47.6810755,9.22897297 L44.6754912,9.22897297 L44.1716649,10.8 L42,10.8 L44.9447777,2.4 L47.4986556,2.4 L50.4,10.7545946 L48.1935884,10.7545946 Z M45.1880041,7.48540541 L47.0903826,7.48540541 L46.18697,4.54313514 L45.1880041,7.48540541 Z" id="Shape"></path>
            <polygon id="Path" points="30.075 21.6 30.075 15.0241042 27.6 15.0241042 27.6 13.2 34.8 13.2 34.8 15.0241042 32.352 15.0241042 32.352 21.6"></polygon>
            <path d="M38.9780559,21.5987882 C38.2257896,21.6134648 37.4829082,21.4290813 36.8239282,21.0641327 C36.207356,20.7108728 35.6979071,20.1958428 35.3500514,19.5741092 C34.9773964,18.9117199 34.7877041,18.1612547 34.800618,17.4004279 C34.791929,16.8256193 34.8925724,16.2544335 35.0971376,15.7175778 C35.2941101,15.2182153 35.590936,14.7647802 35.9692541,14.3853215 C36.348802,14.0075563 36.7994498,13.7095926 37.2948711,13.5088371 C38.370578,13.0970543 39.5593703,13.0970543 40.6350772,13.5088371 C41.13039,13.7098008 41.5809991,14.0077389 41.9606943,14.3853215 C42.3392055,14.7646218 42.6360594,15.2180997 42.8328107,15.7175778 C43.061685,16.2495596 43.1860636,16.820995 43.1990997,17.4004279 C43.2146715,18.1604511 43.0280029,18.9108651 42.6583874,19.5741092 C42.3045019,20.1949252 41.7889109,20.707038 41.1670683,21.0553679 C40.4986492,21.4293941 39.7428826,21.6170124 38.9780559,21.5987882 L38.9780559,21.5987882 Z M38.9780559,19.7669358 C39.3377866,19.7748482 39.6911492,19.6707577 39.989711,19.4689311 C40.2874256,19.2585395 40.5225739,18.9707066 40.6699619,18.6362709 C40.8448422,18.2484097 40.9312532,17.8261692 40.9228757,17.4004279 C40.9298025,16.9748216 40.8434562,16.5528974 40.6699619,16.1645849 C40.5274216,15.8152907 40.2921014,15.5120871 39.989711,15.2881004 C39.3730817,14.8804852 38.5743089,14.8804852 37.9576796,15.2881004 C37.6552893,15.5120871 37.4199691,15.8152907 37.2774288,16.1645849 C37.1039344,16.5528974 37.0175882,16.9748216 37.024515,17.4004279 C37.0161375,17.8261692 37.1025485,18.2484097 37.2774288,18.6362709 C37.4248168,18.9707066 37.6599651,19.2585395 37.9576796,19.4689311 C38.2597049,19.6694113 38.6163079,19.7704954 38.9780559,19.7581709 L38.9780559,19.7669358 Z" id="Shape"></path>
            <path d="M44.4,21.6 L44.4,13.2009688 L47.5558675,13.2009688 C48.2886298,13.1848763 49.0127462,13.3695121 49.656897,13.7366908 C50.2522813,14.0838748 50.7456896,14.595759 51.083522,15.2167363 C51.7721593,16.5795429 51.7721593,18.2123459 51.083522,19.5751525 C50.7456896,20.1961297 50.2522813,20.7080139 49.656897,21.055198 C49.0127462,21.4223767 48.2886298,21.6070124 47.5558675,21.59092 L44.4,21.6 Z M46.5529068,19.7839932 L47.5558675,19.7839932 C48.0816933,19.8056486 48.5858664,19.5628344 48.9133228,19.1302308 C49.2621974,18.6316591 49.4390592,18.0232142 49.4148031,17.4050244 C49.4390592,16.7868346 49.2621974,16.1783897 48.9133228,15.679818 C48.5858664,15.2472144 48.0816933,15.0044002 47.5558675,15.0260556 L46.5529068,15.0260556 L46.5529068,19.7839932 Z" id="Shape"></path>
            <path d="M57.7617284,21.6 L57.2604938,20.028973 L54.2617284,20.028973 L53.7604938,21.6 L51.6,21.6 L54.5296296,13.2 L57.0703704,13.2 L60,21.6 L57.7617284,21.6 Z M54.8148148,18.3308108 L56.7246914,18.3308108 L55.782716,15.3885405 L54.8148148,18.3308108 Z" id="Shape"></path>
            <polygon id="Path" points="64.1822563 18.576 64.1822563 21.6 61.8177437 21.6 61.8177437 18.576 58.8 13.2 61.4313253 13.2 63.0046002 16.5781622 64.5686747 13.2454054 67.2 13.2454054"></polygon>
            <circle id="Oval" cx="12" cy="12" r="12"></circle>
        </g>
    </g>
</svg>