<svg xmlns="http://www.w3.org/2000/svg" xmlns:xlink="http://www.w3.org/1999/xlink" viewBox="0 0 269.94 201.64"><defs><style>.cls-1,.cls-5,.cls-9{fill:#c2d1f2;}.cls-2{isolation:isolate;}.cls-3{fill:#f5f6f7;}.cls-4{clip-path:url(#clip-path);}.cls-5,.cls-6,.cls-7{stroke:#dae3f7;}.cls-10,.cls-11,.cls-12,.cls-13,.cls-16,.cls-21,.cls-22,.cls-5,.cls-6,.cls-7,.cls-8,.cls-9{stroke-linecap:round;stroke-linejoin:round;}.cls-6,.cls-8{fill:#dae3f7;}.cls-10,.cls-13,.cls-22,.cls-7{fill:none;}.cls-10,.cls-8,.cls-9{stroke:#c2d1f2;}.cls-11,.cls-20,.cls-21{fill:#ff784b;}.cls-11{stroke:#ff784b;}.cls-12,.cls-13,.cls-21{stroke:#000;}.cls-14{fill:#ffc6b2;}.cls-15{fill:#719bff;}.cls-16{fill:#e6e6e6;stroke:#e6e6e6;}.cls-17{fill:#fff;}.cls-18{fill:#1258ff;}.cls-19{fill:#d0deff;}.cls-22{stroke:#1258ff;}.cls-23,.cls-24{fill:#0039b2;opacity:0.3;}.cls-23{mix-blend-mode:multiply;}</style><clipPath id="clip-path"><rect class="cls-1" x="45.4" y="25.86" width="179.09" height="100.5"/></clipPath></defs><title>Asset 4</title><g class="cls-2"><g id="Layer_2" data-name="Layer 2"><g id="Colour_2" data-name="Colour 2"><rect class="cls-3" x="45.4" width="179.09" height="163.52" rx="5"/><rect class="cls-1" x="45.4" y="25.86" width="179.09" height="100.5"/><g class="cls-4"><path class="cls-5" d="M79,58.76l10.52-15.7a18.89,18.89,0,1,0,8.38,15.7c0-.67,0-1.32-.1-2Z"/><path class="cls-6" d="M97.76,56.79a18.89,18.89,0,0,0-8.28-13.73L79,58.76Z"/><line class="cls-7" x1="105.41" y1="41.88" x2="118.85" y2="41.88"/><line class="cls-7" x1="105.41" y1="47.49" x2="113.53" y2="47.49"/><path class="cls-8" d="M126.74,127.36h76.85L206.1,101A14.2,14.2,0,0,0,192,85.42H138.36A14.2,14.2,0,0,0,124.23,101Z"/><circle class="cls-9" cx="163.45" cy="95.56" r="4.64"/><polygon class="cls-9" points="165.91 127.36 160.78 127.36 162.22 95.93 164.47 95.93 165.91 127.36"/><path class="cls-8" d="M151.82,85.42a11.88,11.88,0,0,0-.48,3.34,12.11,12.11,0,0,0,8.18,11.45l3.93-10.7,3.94,10.7a12.13,12.13,0,0,0,8.18-11.45,12.25,12.25,0,0,0-.48-3.34Z"/><ellipse class="cls-8" cx="163.45" cy="60.16" rx="16.17" ry="15.62"/><path class="cls-8" d="M154.73,72.45h17.44a0,0,0,0,1,0,0v14.4a8.72,8.72,0,0,1-8.72,8.72h0a8.72,8.72,0,0,1-8.72-8.72V72.45A0,0,0,0,1,154.73,72.45Z"/><path class="cls-8" d="M163.45,45.06a12.12,12.12,0,0,0-12.11,12.12V70.8c0,5.39,5.42,9.76,12.11,9.76s12.12-4.37,12.12-9.76V57.18A12.12,12.12,0,0,0,163.45,45.06Z"/><path class="cls-8" d="M162.64,42.35c-5.45,0-11.3,2.46-11.3,6.46s4.49,7.8,11.3,7.8c5,0,12.08,2.86,12.82,7.68,1.72-2.14,2.67-5.2,2.67-9.2C178.13,48.77,170.57,42.35,162.64,42.35Z"/><path class="cls-10" d="M158.28,71.38a7.35,7.35,0,0,0,10.34,0"/><path class="cls-8" d="M132,127.32s-5.39-34.21-5.77-37.89-2.68-5.57-6.44-7-10.95-4.46-11.68-4.69-1.55-.42-2,.25a1.51,1.51,0,0,0,.44,1.89c1,.83,7.1,4.87,7.1,4.87a35.73,35.73,0,0,0-2,4c-.46,1.35-.8,3.8.65,5.49s3.37,3.49,4.94,3.49v29.57Z"/><path class="cls-8" d="M120.51,93.26c-1.87-1.18-1.41-4.61-.92-7.09l-1.3-1c-1.74,0-3.66-.54-4.21-1.72-.35-.73,0-1.59.67-1.59.88,0,4.38-.1,5.76-.17s5.17,3.25,5.65,7.07"/><path class="cls-8" d="M117,90.05a6.12,6.12,0,0,0-.16,1.18c0,1.23-.07,2.84-1.28,3.37s-4.27-.61-5.42-1.34-1.87-2.41-1-3.53a5.6,5.6,0,0,0,1.12-3.48,1.92,1.92,0,0,1,2.93-1.7c1.71.88,4,.84,4.27,2.17a10,10,0,0,1-.46,3.33"/><line class="cls-10" x1="188.32" y1="106.39" x2="188.32" y2="127.32"/><line class="cls-10" x1="117.3" y1="108.9" x2="129.18" y2="108.9"/></g><circle class="cls-9" cx="61.55" cy="13.15" r="6.15"/><line class="cls-10" x1="76.95" y1="13.15" x2="134.94" y2="13.15"/><line class="cls-10" x1="55.74" y1="138.02" x2="175.2" y2="138.02"/><line class="cls-10" x1="55.74" y1="148.28" x2="149.13" y2="148.28"/><path class="cls-11" d="M52.85,107.79a6.4,6.4,0,0,0-6.28-5.14H11.36a6.4,6.4,0,0,0-6.28,5.14A231.54,231.54,0,0,0,.5,150.85H57.44A230.5,230.5,0,0,0,52.85,107.79Z"/><rect class="cls-12" x="46.53" y="169.79" width="4.91" height="16.58"/><path class="cls-11" d="M49,150.85H.5c13.68,0,46,8.64,46,18.94h4.86c0-10.3,31.62-18.94,45-18.94Z"/><path class="cls-13" d="M46.53,186.37l-39.89,4A2.93,2.93,0,0,0,4,193.27v3.16"/><path class="cls-13" d="M51.44,186.37l39.89,4A2.93,2.93,0,0,1,94,193.27v3.16"/><path class="cls-13" d="M56.06,196.43V192.6a3.49,3.49,0,0,0-1.69-3L49,186.37"/><path class="cls-11" d="M37,142.92l3.55,7.93s11.63,4.54,28.47,4.54a90.63,90.63,0,0,0,26.13-3.75,3.42,3.42,0,0,0,2.33-3.31v-2a3.35,3.35,0,0,0-3.24-3.45Z"/><path class="cls-11" d="M.5,150.85c0-5.46,14.54-7.93,24.55-7.93H37a3.55,3.55,0,0,1,3.55,3.55v4.38Z"/><path class="cls-14" d="M96,197.46,81.58,192v-8.6H74.27v11.12l-1.34,3.66a2.57,2.57,0,0,0,2.42,3.46H98.92A4.47,4.47,0,0,0,96,197.46Z"/><path d="M96,197.46l-5.8-2.19-1.33,1.62a5.51,5.51,0,0,1-4.28,2h-4.9a4,4,0,0,1-3.1-1.48l-2.35-2.92-1.34,3.66a2.57,2.57,0,0,0,2.42,3.46H98.92A4.47,4.47,0,0,0,96,197.46Z"/><path class="cls-14" d="M90.17,132.73l6.78-1a4.74,4.74,0,0,1,2.55.31l.28.12a4.75,4.75,0,0,1,2.93,4.39h0a4.74,4.74,0,0,1-2.62,4.25l-3.28,1.65a4.76,4.76,0,0,1-2.13.5H90.89a4.76,4.76,0,0,1-4.76-4.76v-.72A4.76,4.76,0,0,1,90.17,132.73Z"/><path d="M99.78,132.13,99.5,132A4.74,4.74,0,0,0,97,131.7l-2.72.41a8,8,0,0,1,3.24,10l2.62-1.31a4.76,4.76,0,0,0-.31-8.64Z"/><path class="cls-12" d="M39.22,92.44c-9.35,0-14.33,5.5-14.33,18.07S29.43,143,29.43,143H71.71s-8.88-29.86-12.55-35.67S51.42,92.44,39.22,92.44Z"/><path class="cls-15" d="M37.08,91.69c-16,0-20.64,3.29-21.78,11s.95,27,5.33,27L16.56,143H37.83l1.36-28.19S29,104.4,29,97.33c0-3.23,6.12-4.75,10.25-4.75,3.6,0,8.46,1,10.45,3.71,2.86,3.84-.93,14.08-1,18.39L60.34,143H76.6L65.35,120.31c2.21-1.6,2.08-7,.31-10.47l-6.34-8.46C53.79,95.15,50.88,91.69,37.08,91.69Z"/><line class="cls-13" x1="58.69" y1="113.28" x2="59.95" y2="121.39"/><path class="cls-13" d="M23.45,120.08c3.23-1.72,9.62-2.34,15.41.86"/><ellipse class="cls-14" cx="55" cy="124.63" rx="6.34" ry="4.68"/><polygon class="cls-16" points="43.77 131.61 59.82 131.61 59.82 127.47 43.77 129.59 43.77 131.61"/><path class="cls-16" d="M96.49,105.07H70.08a3.94,3.94,0,0,0-3.73,2.7l-6.53,19.7h32.1l6.53-19.68A2.07,2.07,0,0,0,96.49,105.07Z"/><rect class="cls-16" x="59.82" y="127.47" width="32.1" height="4.14"/><line class="cls-13" x1="64.97" y1="127.47" x2="91.92" y2="127.47"/><circle class="cls-17" cx="81.19" cy="116.27" r="2.99"/><path class="cls-18" d="M53,143c6.36-9,15-17.26,23.61-17.26s13.83,5.22,13.83,11.79-4.69,45.89-4.69,45.89H74.27L71.71,143Z"/><path class="cls-18" d="M29.43,143c0-8.26.76-22.3,9.48-22.3S63.16,131.54,68.34,143c-5.42,1.52-9,2-16.9,2a28.1,28.1,0,0,1-9.38-2Z"/><path class="cls-19" d="M38,88c-9.1,0-14,5-14.54,8.08L27.66,98l-2.32,5.84s6.73,5.88,13.85,11c-8.49-10.35-15.46-21.88-1.06-21.88,11.27,0,13.59,4,10.57,21.77,3.09-9.61,6.29-13.46,6.29-13.46L51.72,97l2.07-1.8C51.29,90.35,46,88,38,88Z"/><path class="cls-20" d="M50.12,74a9.93,9.93,0,0,1,3.72,7.48c0,3.41-1.63,5.52-3.81,5.91,1.28.6,3.74,2.07,3.12,5.07-.48,2.28-3.48,3.85-6.42,3.24-4.18-.88-9.56-4.81-9.56-10.85C37.17,78.14,50.12,74,50.12,74Z"/><path class="cls-13" d="M67.67,141.62a34.38,34.38,0,0,0-5.39-7.51"/><path class="cls-21" d="M5.55,146c5.14-2.07,13.21-3.05,19.5-3.05H37a3.55,3.55,0,0,1,3.55,3.55v4.38"/><path class="cls-13" d="M40.54,150.85a81.62,81.62,0,0,0,21.75,4.3"/><path class="cls-14" d="M46.73,71a7.5,7.5,0,0,0-8.89,5l-1.75,5.56L33.8,88.81l-1.66,5.27a0,0,0,0,0,0,0,8.17,8.17,0,0,0,2.54,3.09c1.82,1.36,5.43,1.92,7.26,0h0L43.6,92s0,0,0,0a4,4,0,0,0,5-2.62L51.58,80A7.15,7.15,0,0,0,46.73,71Z"/><circle class="cls-22" cx="44.59" cy="83.03" r="2.14"/><circle class="cls-22" cx="51.01" cy="85.36" r="2.14"/><line class="cls-22" x1="46.61" y1="83.77" x2="49" y2="84.63"/><line class="cls-22" x1="42.58" y1="82.3" x2="37.65" y2="80.51"/><path class="cls-20" d="M41.28,76.88c.77,1.58,2.84,2.78,5.45,2.78,3.46,0,4.18-.32,5.18-1.83.06-5.13-3.16-8.24-6.75-8.24a10.63,10.63,0,0,0-9.54,5.77c-3.58,7.08-6.88,5.84-8.88,10-1.85,3.88.09,7.33,4.71,7.33,3.61,0,6.22-1.77,6.22-6.08A17,17,0,0,1,41.28,76.88Z"/><path class="cls-23" d="M43.6,92,39.54,90.4a5.1,5.1,0,0,0,3.16,4.4Z"/><rect class="cls-20" x="241.69" y="169.81" width="16.64" height="9.19" transform="translate(303.47 474.51) rotate(-135)"/><rect class="cls-20" x="226.95" y="179.97" width="16.64" height="9.19" transform="translate(50.71 419.83) rotate(-90)"/><path d="M254.63,81.52H230.68l-.9,102,11,.09c8.8-22.25,7.18-42.4,5.09-48.19,4.64-8.12,13.72-24.47,13.72-40.63C259.57,84.45,254.63,81.52,254.63,81.52Z"/><path d="M219.87,81.52l-13.36,51.6a7.65,7.65,0,0,0,1.93,7.26l36.46,37.44,8.3-7.74c-7.65-16.69-22-31.17-27.07-35.11,5-9.27,21.09-34.44,21.09-53.45Z"/><path class="cls-18" d="M254.63,81.52H219.87V74.16l-5.1-33c0-9.27,10.2-14.83,22-14.83S259,31.15,259,39Z"/><path class="cls-18" d="M240.79,26.28c16.22,0,22.48,6.95,24.79,13.68,1.44,4.17,3.19,16.79,4.31,25.75a7,7,0,0,1-8.3,7.69L244,69.85Z"/><path class="cls-18" d="M214.77,41.11,212.45,65s-5.81-.29-5.81,7.73c0,3.15,3.42,5.05,7.39,5.05,4.62,0,12.33-4.43,12.33-10.46S232.34,41.11,214.77,41.11Z"/><path class="cls-13" d="M253.59,47.92s.7,7.08,2.74,11.72l-4.72-1.82"/><path class="cls-14" d="M214.57,67.19h-9.24a1.66,1.66,0,0,0-1.66,1.66v1.34a5.67,5.67,0,0,0,5.67,5.67h2.89A4.91,4.91,0,0,0,217.14,71V69.77A2.57,2.57,0,0,0,214.57,67.19Z"/><line class="cls-13" x1="219.76" y1="70.18" x2="219.04" y2="44.36"/><path class="cls-18" d="M217.33,191.21l8.54-4.41c-1.35-1.81-1.72-3.79-.75-4.76,1.14-1.15,3.72-.43,5.76,1.61a8.81,8.81,0,0,1,1.21,1.51h7.66a1.74,1.74,0,0,1,1.74,1.74v7.29a2.57,2.57,0,0,1-2.57,2.57H214.59v-1.07A5,5,0,0,1,217.33,191.21Z"/><path class="cls-18" d="M246.73,193a4,4,0,0,1,3.32-1.74h1l.25-3.75c-2.52-.21-4.46-1.42-4.46-2.9s2.34-2.93,5.22-2.93a9.26,9.26,0,0,1,1.19.08l3.67-6.1a1.89,1.89,0,0,1,2.61-.64l5.7,3.43a3,3,0,0,1,1,4.17l-8.55,14.19H245.92v-1.07A5,5,0,0,1,246.73,193Z"/><line class="cls-22" x1="230.37" y1="115.8" x2="230.51" y2="100.95"/><path class="cls-14" d="M228.36,4.59a7.48,7.48,0,0,1,8.85,5L239,15.19l2.28,7.24,1.07,3.38a3.52,3.52,0,0,1-.74,3.4l-1.94,2.16a4.1,4.1,0,0,1-6.43-.41l-.1-.14-1.66-5.25a4,4,0,0,1-5-2.62l-2.94-9.33A7.15,7.15,0,0,1,228.36,4.59Z"/><path class="cls-24" d="M231.46,25.57l3.89-1.23s.39,2.33-3,4Z"/><path d="M239.38,16.48a19.4,19.4,0,0,0-.79-11c-1.43-3-4.55-4.06-5.55-2.7-.9-1.6-5.95-1.91-9.23,1-3.82,3.38-4.53,7.09-3.28,9.12,1.42,2.28,4.77,1.86,7.44.55,3-1.44,3.15-4.58,5.44-3.92C236.42,10.42,235,16.52,239.38,16.48Z"/><path class="cls-11" d="M223.24,68.08h19.94a1.46,1.46,0,0,0,1.4-1.86l-4-13.76a2.28,2.28,0,0,0-2.21-1.66H218.44a1.45,1.45,0,0,0-1.39,1.85l4,13.77A2.31,2.31,0,0,0,223.24,68.08Z"/><path class="cls-14" d="M236.37,59l-.45,1.55a2.55,2.55,0,0,0,1.39,3l4.2,1.9,2.31.67a4.35,4.35,0,0,0,5.37-3h0a4.33,4.33,0,0,0-3-5.36l-1.74-.51a4.08,4.08,0,0,0-1.15-.15l-4.53,0A2.53,2.53,0,0,0,236.37,59Z"/></g></g></g></svg>