<svg xmlns="http://www.w3.org/2000/svg" xmlns:xlink="http://www.w3.org/1999/xlink" viewBox="0 0 268.75 205.22"><defs><style>.cls-1,.cls-8{fill:#c2d1f2;}.cls-12,.cls-18,.cls-2,.cls-20,.cls-7{fill:none;}.cls-3{isolation:isolate;}.cls-4{fill:#f5f6f7;}.cls-5{clip-path:url(#clip-path);}.cls-6{fill:#dae3f7;}.cls-7,.cls-8{stroke:#c2d1f2;}.cls-12,.cls-13,.cls-17,.cls-18,.cls-20,.cls-22,.cls-7,.cls-8{stroke-linecap:round;stroke-linejoin:round;}.cls-9{clip-path:url(#clip-path-2);}.cls-10{opacity:0.2;}.cls-10,.cls-21{mix-blend-mode:multiply;}.cls-11,.cls-21,.cls-22{fill:#0039b2;}.cls-12,.cls-13{stroke:#000;}.cls-14,.cls-24{fill:#f03232;}.cls-14{stroke:#f03232;stroke-miterlimit:10;}.cls-15{fill:#1258ff;}.cls-16,.cls-17{fill:#c16c4f;}.cls-17,.cls-18{stroke:#1258ff;}.cls-19{fill:#ffc837;}.cls-20{stroke:#fff;}.cls-21{opacity:0.4;}.cls-22{stroke:#0039b2;}.cls-23{fill:#b28613;}</style><clipPath id="clip-path"><rect class="cls-1" x="41.69" y="25.86" width="179.09" height="100.5"/></clipPath><clipPath id="clip-path-2"><rect class="cls-2" x="41.69" width="179.09" height="163.52" rx="5"/></clipPath></defs><title>Asset 6</title><g class="cls-3"><g id="Layer_2" data-name="Layer 2"><g id="Colour_2" data-name="Colour 2"><rect class="cls-4" x="41.69" width="179.09" height="163.52" rx="5"/><rect class="cls-1" x="41.69" y="25.86" width="179.09" height="100.5"/><g class="cls-5"><path class="cls-6" d="M171.41,35.93c-3.25-3.25-2.75-11.09-6.48-13.44s-10.72,1.44-14.92,0-7.24-8.77-11.69-9.27-9,6-13.45,6.45-10.29-4.8-14.55-3.31S104.85,25.56,101,28s-11.28.11-14.53,3.36-1,10.8-3.36,14.54S72.92,51,71.45,55.2s3.81,10.1,3.31,14.55-7,9-6.45,13.45,7.78,7.42,9.27,11.69-2.4,11.07,0,14.92,10.19,3.24,13.44,6.49,2.75,11.09,6.49,13.44,10.72-1.44,14.92,0,7.24,8.78,11.68,9.28,9-6,13.46-6.46,10.28,4.8,14.55,3.31,5.47-9.22,9.32-11.65,11.28-.1,14.53-3.35,1-10.81,3.36-14.54S189.54,101.23,191,97s-3.81-10.1-3.31-14.55,7-9,6.45-13.46-7.78-7.42-9.27-11.68,2.4-11.07,0-14.92S174.66,39.18,171.41,35.93Z"/><path class="cls-7" d="M171.41,35.93c-3.25-3.25-2.75-11.09-6.48-13.44s-10.72,1.44-14.92,0-7.24-8.77-11.69-9.27-9,6-13.45,6.45-10.29-4.8-14.55-3.31S104.85,25.56,101,28s-11.28.11-14.53,3.36-1,10.8-3.36,14.54S72.92,51,71.45,55.2s3.81,10.1,3.31,14.55-7,9-6.45,13.45,7.78,7.42,9.27,11.69-2.4,11.07,0,14.92,10.19,3.24,13.44,6.49,2.75,11.09,6.49,13.44,10.72-1.44,14.92,0,7.24,8.78,11.68,9.28,9-6,13.46-6.46,10.28,4.8,14.55,3.31,5.47-9.22,9.32-11.65,11.28-.1,14.53-3.35,1-10.81,3.36-14.54S189.54,101.23,191,97s-3.81-10.1-3.31-14.55,7-9,6.45-13.46-7.78-7.42-9.27-11.68,2.4-11.07,0-14.92S174.66,39.18,171.41,35.93Z"/><path class="cls-1" d="M92.69,98.86a1.71,1.71,0,0,1,0-2.44l3.76-3.76c3-3,6.59-3.48,9.51-.56l.24.24a5.23,5.23,0,0,1,1.34,6,6,6,0,0,1,7.08,1.44l.48.49c3.31,3.3,3.07,7.14.07,10.13l-4.25,4.26a1.72,1.72,0,0,1-2.43,0Zm3.45-1.41,5.32,5.32,2.36-2.36c1.73-1.72,2-3.55.15-5.44l-.25-.25c-1.7-1.7-3.45-1.41-5.27.42Zm7.53,7.53,6.23,6.23,2.79-2.8c1.83-1.82,1.93-3.77-.24-5.93l-.24-.24c-2.09-2.09-4-1.83-5.74,0Z"/><path class="cls-1" d="M105.94,85.6a1.72,1.72,0,0,1,0-2.43L110.08,79c2.94-2.94,6.68-3.47,9.7-.46l.73.73c3,3,2.36,6.64-.2,9.48L130.84,91a1.72,1.72,0,0,1,.86,2.9h0a1.73,1.73,0,0,1-1.59.46l-13.64-3.08L124.18,99a1.72,1.72,0,0,1,0,2.43h0a1.72,1.72,0,0,1-2.43,0Zm3.46-1.41,5.73,5.74,2.68-2.68c1.77-1.77,2.06-3.72,0-5.76l-.24-.24c-1.92-1.92-3.75-1.51-5.52.26Z"/><path class="cls-1" d="M121.52,67.59l1.73-1.73a1.7,1.7,0,0,1,2.1-.24l19.4,12.3a1.69,1.69,0,0,1,.29,2.62h0a1.68,1.68,0,0,1-2.11.22L138.65,78l-5,5,2.78,4.28a1.67,1.67,0,0,1-.22,2.11h0a1.69,1.69,0,0,1-2.62-.29l-12.29-19.4A1.68,1.68,0,0,1,121.52,67.59Zm14.41,8.64-11.6-7.56,7.56,11.6Z"/><path class="cls-1" d="M158.13,67.45l-2,2a1.59,1.59,0,0,1-1.91.26L134,58.14l15.58,15.58a1.58,1.58,0,0,1,0,2.24h0a1.6,1.6,0,0,1-2.24,0l-16-16a1.58,1.58,0,0,1,0-2.24l2.08-2.08a1.57,1.57,0,0,1,1.91-.25l19.91,11.45L139.9,51.45a1.58,1.58,0,0,1,0-2.24h0a1.59,1.59,0,0,1,2.23,0l16,16A1.58,1.58,0,0,1,158.13,67.45Z"/><path class="cls-1" d="M161.08,40.19l6.08,6.08c4.1,4.1,4,8.14.6,11.54l-3.91,3.92a1.58,1.58,0,0,1-2.24,0l-16-16a1.58,1.58,0,0,1,0-2.24l3.91-3.91C152.93,36.18,157,36.08,161.08,40.19Zm3.65,8.51-6.08-6.08c-2.85-2.85-5-2.72-6.88-.8l-2.6,2.6,13.76,13.76,2.6-2.6C167.4,53.7,167.57,51.54,164.73,48.7Z"/><line class="cls-7" x1="94.85" y1="79.33" x2="136.69" y2="37.49"/><line class="cls-7" x1="128.02" y1="112.49" x2="169.85" y2="70.66"/></g><circle class="cls-8" cx="57.84" cy="13.15" r="6.15"/><line class="cls-7" x1="73.24" y1="13.15" x2="131.23" y2="13.15"/><line class="cls-7" x1="52.03" y1="138.02" x2="171.49" y2="138.02"/><line class="cls-7" x1="52.03" y1="148.28" x2="145.42" y2="148.28"/><g class="cls-9"><g class="cls-10"><path class="cls-11" d="M82.37,192.24l-13.59-4.58.18-4.18h4.18l6.58-55.69S66.54,111.32,63.3,107.24a32.7,32.7,0,0,0-3.08-3.41,10.88,10.88,0,0,0-2.35-2.62h8.06A8.22,8.22,0,0,0,74.15,93v-1A2.92,2.92,0,0,0,71.23,89H68.45l2.29-7.12c.52-1.6-.41-3.35-1.76-3.35H62.53a2.12,2.12,0,0,0-.44,0c.16-7.84.3-15.58.3-19.13,0-8.54-5-11.54-11.32-11.54H47.68l.58-1.82a4,4,0,0,0,5-2.63l2-6.24a2.53,2.53,0,1,0,3.18-1.66,2.54,2.54,0,0,0-3.18,1.66l1-3.09a7.12,7.12,0,0,0-1.39-6.79l-.08-.1c-.14-.15-.29-.31-.44-.45l-.16-.15a4.78,4.78,0,0,0-.42-.34l-.21-.16c-.14-.1-.29-.19-.44-.28l-.23-.14a4.44,4.44,0,0,0-.49-.24l-.23-.11a6.18,6.18,0,0,0-.76-.26h0a6.79,6.79,0,0,0-2.09-.24,6.4,6.4,0,0,0-1.37.21,6.79,6.79,0,0,0-1.31.46,8.5,8.5,0,0,0-1,.55,8,8,0,0,0-.66.48l-.17.14a7.54,7.54,0,0,0-2.31,3.44l-.83,2.62-.92,2.94L38.42,43l-.16.5h0l-1.41,4.45H30.69c-7.36,0-11.94,2.93-15,12.23C13,68.36,10.2,84,9.23,91.42S12,100.88,17,100.88h1.88c-4.69,3.18-6.79,10-6.79,19.37H7.38a1.11,1.11,0,0,0-1.1,1.11v6a1.1,1.1,0,0,0,1.1,1.1H18.94l.71,6.09a8.72,8.72,0,0,0-7.46,7.32l-8.69,57H85.87v-1.7A5.15,5.15,0,0,0,82.37,192.24ZM54.14,141.83a8.73,8.73,0,0,0-8.62-7.41h-.87v-6h9.44c2.63,2.13,5.55,4.39,8.42,6.39l-2.81,43.5Z"/><path class="cls-11" d="M247.93,133.51a30.18,30.18,0,0,1-.75-7.75v-7.45c0-7.25-3.3-10.4-10.7-10.4-6.45,0-10.65,3.3-11,8.65h6.15c.2-2.85,1.95-4.4,4.9-4.4,3.2,0,4.65,1.6,4.65,5.35v.65l-5.3.65c-4,.55-6.35,1.2-8.15,2.25a6.39,6.39,0,0,0-3.05,5.65,7,7,0,0,0,4.84,6.8h-7.23L209,98h-7l-13.2,35.5h-10V162l-5.28-9.14h-7.31l-27.67,47.92h51.09A16.65,16.65,0,0,0,201,205.22h0a14.83,14.83,0,0,0,1.63-.08c.25,0,.49-.07.74-.1s.59-.08.88-.14.55-.13.83-.2.51-.12.76-.2.53-.18.8-.28.5-.17.74-.27.49-.22.73-.34.51-.23.76-.36l.67-.4c.25-.15.49-.28.73-.44s.49-.36.73-.54.39-.28.59-.44.51-.45.76-.69h53.34V133.51Zm-43.49-26.25a25.45,25.45,0,0,0,1.05-3.8h.1a25.45,25.45,0,0,0,1,3.8l4.15,12h-10.5Zm-5.85,16.9h13.9l3.2,9.35h-20.3Zm37-1.65,5.65-.85v1.6c0,4-2.5,6.6-6.2,6.6-2.65,0-4.25-1.35-4.25-3.45S232.33,123.06,235.63,122.51Zm5.9,6.7a35,35,0,0,0,.4,4.3H236.8A7.49,7.49,0,0,0,241.53,129.21Z"/></g></g><line class="cls-12" x1="3.42" y1="177.66" x2="56.91" y2="177.66"/><path class="cls-12" d="M59.83,196.82l-8.69-57a8.73,8.73,0,0,0-8.62-7.41H17.81a8.73,8.73,0,0,0-8.62,7.41l-8.69,57"/><rect class="cls-12" x="18.68" y="126.42" width="22.96" height="6"/><rect x="3.28" y="118.25" width="53.77" height="8.17" rx="1.1"/><path class="cls-13" d="M56.37,181.48,55,196.82h27.9v-1.7a5.15,5.15,0,0,0-3.5-4.88l-13.59-4.58.18-4.18Z"/><path class="cls-13" d="M21.87,168.75l-1.3,15.46a6.8,6.8,0,0,0,6.78,7.37h0a6.8,6.8,0,0,0,6.78-7.28L33,168.75Z"/><rect class="cls-14" x="12.19" y="96.88" width="46.71" height="21.37" rx="10.69"/><path class="cls-14" d="M22.88,96.88c9.42,0,15.43,11,15.09,21.37s-4.31,50.5-4.31,50.5H20.88l-5.71-48.91-6.11-1.59C9.06,105.09,13.19,96.88,22.88,96.88Z"/><path class="cls-14" d="M45.86,97.21c6.15,0,10.18,2.67,14.44,8,3.24,4.08,16.42,20.55,16.42,20.55l-6.58,55.69H56.37l3.14-48.67a206.69,206.69,0,0,1-18-14.56S40.76,97.21,45.86,97.21Z"/><path class="cls-12" d="M20.77,109.09a9.29,9.29,0,0,1,13.13,0"/><path class="cls-15" d="M12.7,58.15C10,66.36,7.2,82,6.23,89.42S9,98.88,14,98.88H58.58s.81-32.87.81-41.42-5-11.54-11.32-11.54H27.69C20.33,45.92,15.75,48.85,12.7,58.15Z"/><line class="cls-12" x1="53.69" y1="72.4" x2="51.98" y2="87.29"/><path class="cls-16" d="M48.35,23.11a7.51,7.51,0,0,0-8.89,5l-1.75,5.56L35.42,41l-1.66,5.26a.06.06,0,0,0,0,0l3.14,3.5a4.25,4.25,0,0,0,6.66-.42h0l1.65-5.21s0,0,0,0a4,4,0,0,0,5-2.63l3-9.33A7.16,7.16,0,0,0,48.35,23.11Z"/><circle class="cls-17" cx="46.93" cy="33.56" r="2.53"/><circle class="cls-18" cx="54.64" cy="35.99" r="2.53"/><line class="cls-18" x1="49.35" y1="34.32" x2="52.22" y2="35.23"/><path d="M49.51,27.82A4.24,4.24,0,0,0,53,27.37a7.18,7.18,0,0,0-4.68-4.26,7.51,7.51,0,0,0-8.89,5l-1.64,5.19h0a1.88,1.88,0,0,0,2.28-1l3-6.54Z"/><line class="cls-18" x1="44.52" y1="32.8" x2="38.59" y2="30.92"/><path class="cls-16" d="M52.5,87H68.23a2.92,2.92,0,0,1,2.92,2.92V91a8.22,8.22,0,0,1-8.22,8.22H52.5a0,0,0,0,1,0,0V87a0,0,0,0,1,0,0Z"/><path class="cls-16" d="M53.6,91.21V87H45.12a3,3,0,0,0-3,3v9.16h9.32a8,8,0,0,0,8-8Z"/><path class="cls-19" d="M59.53,76.55H66c1.35,0,2.28,1.75,1.76,3.35L64.11,91.21H52.59l3.86-12A3.44,3.44,0,0,1,59.53,76.55Z"/><path class="cls-12" d="M48.6,91.21H59.41a8,8,0,0,1-8,8H20.77"/><line class="cls-12" x1="59.41" y1="91.21" x2="66.85" y2="91.21"/><path class="cls-12" d="M30.78,88.21H18.92a47.73,47.73,0,0,0,5.31-14.83"/><path class="cls-15" d="M33.77,46.26l1.49-4.8c1.46,3.8,5,5.15,9.39,4.46L43,51.37C37.82,51.73,36,50.74,33.77,46.26Z"/><line class="cls-12" x1="43.86" y1="48.56" x2="43.31" y2="50.38"/><line class="cls-20" x1="24.52" y1="177.66" x2="30.17" y2="177.66"/><line class="cls-20" x1="24.52" y1="173.23" x2="30.17" y2="173.23"/><line class="cls-20" x1="72.01" y1="190.12" x2="73.2" y2="186.92"/><line class="cls-20" x1="67.86" y1="188.56" x2="69.05" y2="185.37"/><path class="cls-21" d="M45.26,44.1l-3.89-1.23s.3,3.47,2.9,4.35Z"/><path class="cls-22" d="M215.49,122.16h-13.9l-3.2,9.35h-6.55L205,96h7l13.2,35.5h-6.55Zm-1.7-4.9-4.15-12a25.45,25.45,0,0,1-1-3.8h-.1a25.45,25.45,0,0,1-1.05,3.8l-4.15,12Z"/><path class="cls-22" d="M227.63,124.71a6.39,6.39,0,0,1,3.05-5.65c1.8-1,4.2-1.7,8.15-2.25l5.3-.65v-.65c0-3.75-1.45-5.35-4.65-5.35-2.95,0-4.7,1.55-4.9,4.4h-6.15c.4-5.35,4.6-8.65,11-8.65,7.4,0,10.7,3.15,10.7,10.4v7.45a30.18,30.18,0,0,0,.75,7.75h-6a35,35,0,0,1-.4-4.3c-1.2,3-4.35,4.9-8.4,4.9C231,132.11,227.63,129.16,227.63,124.71Zm16.65-3.45v-1.6l-5.65.85c-3.3.55-4.8,1.75-4.8,3.9s1.6,3.45,4.25,3.45C241.78,127.86,244.28,125.26,244.28,121.26Z"/><rect class="cls-15" x="181.84" y="131.51" width="67.23" height="67.23"/><rect class="cls-11" x="249.06" y="131.51" width="19.69" height="67.23"/><polyline class="cls-12" points="229.75 198.73 249.06 198.73 249.06 150.81"/><polygon class="cls-19" points="169.25 150.81 141.58 198.73 196.92 198.73 169.25 150.81"/><polygon class="cls-23" points="169.25 150.81 176.56 150.81 204.23 198.73 196.92 198.73 169.25 150.81"/><polyline class="cls-12" points="175.93 162.37 196.92 198.73 176.56 198.73"/><circle class="cls-24" cx="204.04" cy="186.48" r="16.74"/><path class="cls-12" d="M204,203.22a16.75,16.75,0,0,0,16.74-16.74"/></g></g></g></svg>