<svg xmlns="http://www.w3.org/2000/svg" xmlns:xlink="http://www.w3.org/1999/xlink" viewBox="0 0 278.64 200.76"><defs><style>.cls-1,.cls-6{fill:#c2d1f2;}.cls-1,.cls-10,.cls-11{stroke:#c2d1f2;}.cls-1,.cls-10,.cls-11,.cls-17,.cls-18,.cls-20,.cls-22,.cls-23,.cls-9{stroke-linecap:round;}.cls-1,.cls-10,.cls-11,.cls-20,.cls-22,.cls-23,.cls-9{stroke-linejoin:round;}.cls-11,.cls-17,.cls-18,.cls-2,.cls-20,.cls-9{fill:none;}.cls-3{fill:#1258ff;}.cls-4{isolation:isolate;}.cls-5{fill:#f5f6f7;}.cls-7{clip-path:url(#clip-path);}.cls-10,.cls-8{fill:#dae3f7;}.cls-9{stroke:#dae3f7;}.cls-12{clip-path:url(#clip-path-2);}.cls-13{opacity:0.2;}.cls-13,.cls-26{mix-blend-mode:multiply;}.cls-14{fill:#0039b2;}.cls-15{fill:#ffc6b2;}.cls-16{fill:#719bff;}.cls-17{stroke:#000;}.cls-17,.cls-18{stroke-miterlimit:10;}.cls-18,.cls-20{stroke:#fff;}.cls-19{fill:#d250dc;}.cls-21{clip-path:url(#clip-path-3);}.cls-22{fill:#ccc;stroke:#ccc;}.cls-23{fill:#e6e6e6;stroke:#e6e6e6;}.cls-24{fill:#fff;}.cls-25{fill:#d1917b;}.cls-26{fill:#3360c2;opacity:0.4;}</style><clipPath id="clip-path"><rect class="cls-1" x="50.73" y="25.86" width="179.09" height="100.5"/></clipPath><clipPath id="clip-path-2"><rect class="cls-2" x="50.73" width="179.09" height="163.52" rx="5"/></clipPath><clipPath id="clip-path-3"><path class="cls-3" d="M227.35,119.53c21.64,0,28.82,7.1,28.72,17.89-.05,5.63-2.89,19.6-3.59,23.85a11.29,11.29,0,0,1-.7,2.44l-6.63,16.09H214.77l-11.54-17.18A7.36,7.36,0,0,1,202,159.3c-.49-4.44-2.15-16.05-2.17-21.67C199.77,125.11,208.18,119.53,227.35,119.53Z"/></clipPath></defs><title>Asset 5</title><g class="cls-4"><g id="Layer_2" data-name="Layer 2"><g id="Colour_2" data-name="Colour 2"><rect class="cls-5" x="50.73" width="179.09" height="163.52" rx="5"/><rect class="cls-6" x="50.73" y="25.86" width="179.09" height="100.5"/><g class="cls-7"><rect class="cls-8" x="40.42" y="57.17" width="147.7" height="37.89" rx="18.95" transform="translate(-20.35 103.1) rotate(-45)"/><path class="cls-6" d="M71.76,108a3.54,3.54,0,0,1,5.4.13l.52.53a1,1,0,0,1,0,1.38h0a1,1,0,0,1-1.37,0l-.49-.49c-1.06-1.06-2-1-2.79-.28a1.64,1.64,0,0,0,0,2.5,3,3,0,0,0,3,.54L78,112a4.59,4.59,0,0,1,4.45,1.09,3.65,3.65,0,0,1,0,5.53,3.7,3.7,0,0,1-5.53,0L76.2,118a1,1,0,0,1,0-1.38h0a1,1,0,0,1,1.38,0l.57.57a2,2,0,0,0,3,.19,1.77,1.77,0,0,0,.07-2.71,3.23,3.23,0,0,0-3.12-.67l-1.85.33a4.69,4.69,0,0,1-4.54-1.14C69.89,111.34,70.33,109.44,71.76,108Z"/><path class="cls-6" d="M86.6,112.76l-9-9a1,1,0,0,1,0-1.38h0a1,1,0,0,1,1.38,0l9,9a1,1,0,0,1,0,1.38h0A1,1,0,0,1,86.6,112.76Z"/><path class="cls-6" d="M93.13,99.15l3.61,3.61a.88.88,0,0,1,0,1.24h0a.88.88,0,0,1-1.24,0l-.61-.61a3,3,0,0,1-.7,3.44c-1.73,1.72-4,1.61-6.32-.75l-3.56-3.56c-2.36-2.36-2.39-4.68-.48-6.58s4.22-1.87,6.58.48l.3.31a1,1,0,0,1,0,1.38h0a1,1,0,0,1-1.38,0L89,97.8c-1.66-1.65-2.88-1.64-3.93-.59s-1.07,2.28.59,3.93l3.56,3.56c1.65,1.66,2.88,1.64,3.93.59s1-2.29-.48-3.82l-.32-.31-1.24,1.24a.9.9,0,0,1-1.27,0h0a.9.9,0,0,1,0-1.27l2-2A.88.88,0,0,1,93.13,99.15Z"/><path class="cls-6" d="M105.49,95.25l-1.16,1.15a.88.88,0,0,1-1.08.14L91.82,90l8.84,8.85a.89.89,0,0,1,0,1.26h0a.88.88,0,0,1-1.27,0L90.32,91a.9.9,0,0,1,0-1.27l1.18-1.18a.9.9,0,0,1,1.08-.15l11.3,6.5-8.74-8.73a.9.9,0,0,1,0-1.27h0a.9.9,0,0,1,1.27,0L105.49,94A.9.9,0,0,1,105.49,95.25Z"/><path class="cls-6" d="M103,77a1,1,0,0,1,1.38,0l6.47,6.47C112.37,85,113.5,85,114.5,84s1.07-2.14-.45-3.66l-6.47-6.47a1,1,0,0,1,0-1.37h0a1,1,0,0,1,1.38,0l6.47,6.47c2.25,2.24,2.21,4.44.34,6.3s-4,1.9-6.3-.35L103,78.43a1,1,0,0,1,0-1.38Z"/><path class="cls-6" d="M111.63,69.8a1,1,0,0,1,0-1.38l2.3-2.31c1.67-1.66,3.81-1.9,5.61-.09l.75.74a3.78,3.78,0,0,1,0,5.76l-1.61,1.61L122,77.38a1,1,0,0,1,0,1.38h0a1,1,0,0,1-1.38,0Zm2-.8,3.87,3.86,1.47-1.48c1-1,1.11-2.12-.15-3.38l-.47-.46a2,2,0,0,0-3.24,0Z"/><path class="cls-6" d="M138.48,62.26l-1.16,1.15a.89.89,0,0,1-1.08.15L124.81,57l8.84,8.84a.9.9,0,0,1,0,1.27h0a.9.9,0,0,1-1.27,0L123.3,58a.9.9,0,0,1,0-1.27l1.19-1.18a.89.89,0,0,1,1.08-.15l11.29,6.5-8.73-8.73a.9.9,0,0,1,0-1.27h0a.9.9,0,0,1,1.27,0L138.48,61A.9.9,0,0,1,138.48,62.26Z"/><path class="cls-6" d="M138.32,55.63l-3.56-3.56c-2.36-2.36-2.39-4.67-.49-6.58s4.23-1.87,6.58.49l3.56,3.56c2.38,2.37,2.39,4.67.49,6.58S140.69,58,138.32,55.63ZM143,50.92l-3.56-3.56c-1.65-1.66-2.88-1.65-3.93-.6s-1.06,2.28.6,3.93l3.56,3.56c1.67,1.67,2.88,1.64,3.93.6S144.7,52.58,143,50.92Z"/><path class="cls-6" d="M157.36,43.38l-.91.9a1,1,0,0,1-1.25.1l-9.87-7.29L152.62,47a1,1,0,0,1-.1,1.25l-.9.9a1,1,0,0,1-1.24.1L140,41.6a1,1,0,0,1-.11-1.45h0a1,1,0,0,1,1.25-.09l9.59,7.21L143.6,37.6a1,1,0,0,1,.09-1.25l.9-.9a1,1,0,0,1,1.25-.09l9.67,7.14-7.21-9.59a1,1,0,0,1,.09-1.25h0a1,1,0,0,1,1.45.11l7.61,10.37A1,1,0,0,1,157.36,43.38Z"/><circle class="cls-9" cx="170.48" cy="75.43" r="13.01"/><circle class="cls-9" cx="170.48" cy="75.43" r="30.2"/><path class="cls-10" d="M211.17,70.8a5.49,5.49,0,0,0-.25,8l-4.16-4.16a5.64,5.64,0,0,0-7.68-.38,5.5,5.5,0,0,0-.25,8L194.52,78a5.5,5.5,0,0,0-7.77,0h0a5.5,5.5,0,0,0,0,7.78L174.28,73.27a5.65,5.65,0,0,0-7.68-.39,5.5,5.5,0,0,0-.24,8L189.5,104l5.71,5.71s0,0,0,0H184.63a6.34,6.34,0,0,0-6.41,5.8,6.18,6.18,0,0,0,6.17,6.57h17.89a23.33,23.33,0,0,0,16.5-6.84l9.51-9.51a17.82,17.82,0,0,0,0-25.19l-9.45-9.44A5.63,5.63,0,0,0,211.17,70.8Z"/><line class="cls-11" x1="186.75" y1="85.74" x2="191.06" y2="90.05"/></g><rect class="cls-11" x="50.73" y="25.86" width="179.09" height="100.5"/><circle class="cls-1" cx="66.88" cy="13.15" r="6.15"/><line class="cls-11" x1="82.28" y1="13.15" x2="140.28" y2="13.15"/><line class="cls-11" x1="61.07" y1="138.02" x2="180.53" y2="138.02"/><line class="cls-11" x1="61.07" y1="148.28" x2="154.46" y2="148.28"/><g class="cls-12"><g class="cls-13"><path class="cls-14" d="M69.88,30.12l-5.2.76-1.28.19a1,1,0,0,0-.89,1.19l.16,1.09-.34,0a2.58,2.58,0,0,0-2.18,2.93l.41,2.78a2.57,2.57,0,0,0,2.92,2.17l.34-.05L64,42.32a1.06,1.06,0,0,0,1.2.89L66.46,43l-.26,2.21a7.15,7.15,0,0,0-2.7,2.42s0,.09-.08.14-.14.19-.19.29v0c-.07.14-.16.26-.23.41-.48,1.05-3,5.85-5.64,10.91L52,49A5.44,5.44,0,0,0,47.13,46H40.65l.82-4.15.44-.11s-.14-.09-.36-.26l.16-.84a3.89,3.89,0,0,0,3.9-3.89V34.25l2.28-.8a1,1,0,0,0,.41-1.51l-2.69-3.2V27.26a7,7,0,0,0-.7-3h2.87a14.42,14.42,0,0,0-13.21-8.31c-17.46,0-17.2,24.91-17.2,24.91a56.94,56.94,0,0,0,12.79,2L29.58,46H27a7,7,0,0,0-6.37,4L3,66.47s.34,9.41,14.31,12.38a2.81,2.81,0,0,0,1.18,3,2.16,2.16,0,0,0,2.16-.11,23.28,23.28,0,0,0-6.82,10c-5.49,16.16,2.26,57,2.26,57h5.24l-4,17h0l-5.48,23c-1.14,1-5.38,5.13-5.38,9.48h62a6.19,6.19,0,0,0-4.31-5.24l-12.22-3.7v-.08l4.69-23.49H53.44l1.11-17h9.63c0-29.86-7.38-61.68-10.43-73.55a23.44,23.44,0,0,0,6.52.87l6.87-20c1.06.37,2.77-.4,4.14-1.21h0A8.44,8.44,0,0,0,73,54.83c.94-.23,1.82-1.2,1.49-2.15a4,4,0,0,1,0-2.61,1.35,1.35,0,0,0-1.28-1.85l0-.14c1.38-.37,4.57-1.22,5.27-1.47a1.09,1.09,0,0,0,.73-1.17c-.16-.56-.76-.62-1.31-.64-.3,0-2.21.1-4.33.22l.36-3.1L72.21,29.77ZM16.2,67.18l7-4.55.38-.29,5,10.53-.78-.5-4-.73a3,3,0,0,0-2.43.64Zm7,12.62-.52.37a4.61,4.61,0,0,0,.36-.48Zm19,86v23.4s-4.1,3.38-4.84,7.77a6.19,6.19,0,0,0-4-3.9l-11.8-3.7,10.16-23.57H29.07l5.41-17h7.71Z"/><path class="cls-14" d="M93.51,31l-2.74.09L88.7,17a1.25,1.25,0,0,0-1.43-1.06l-.51.07a1.24,1.24,0,0,0-1.07,1.29c.44,7.25-5.69,11.34-13.48,12.48l.89,6.08L74,41.92c7.8-1.15,14.84,1,16.5,8.08a1.25,1.25,0,0,0,1.4.93l.51-.08a1.26,1.26,0,0,0,1.06-1.43L91.4,35.36l2.66-.71A1.87,1.87,0,0,0,93.51,31Z"/><path class="cls-14" d="M275.64,176.12c0-7.39-4.14-11.35-8.47-11.35a87.67,87.67,0,0,0-19,2.41l.6-1.47a11.29,11.29,0,0,0,.7-2.44c.23-1.39.69-3.83,1.2-6.67,2.57-1.36,6-7.51,6-7.51s-2.44-4-4.35-2.26a59.84,59.84,0,0,0,.75-7.41c.09-9.62-5.63-16.31-22.22-17.64l0-.22a5.54,5.54,0,0,0,2.51-4l.38-4c.27-1,1.43-5.6.82-9.09a5.25,5.25,0,0,0-.16-.6h0c1.43-.46,2.15-2-.06-2.47,2.34-1.08,1.2-2.31-1.91-1.56,1.87-1.9-.12-2.67-4.15-1,2.21-2.74-1.71-1.76-3.84.21.81-1.61-1.24-1.25-2.89.55a11.06,11.06,0,0,0-2,3.47c-1.42,3.74-.88,9.3-.88,9.3l0-.08-.37,3.88a5.53,5.53,0,0,0,1.71,4.4l-.1,1.11c-16.05.84-23.15,6.48-23.11,18,0,1.52.32,5.61.32,5.61l1.08,9.78s.61,4.82.77,6.28a7.36,7.36,0,0,0,1.24,3.32l1,1.56a79.63,79.63,0,0,0-14.13-1.41c-4.33,0-8.47,4-8.47,11.35,1.09,2.69,4.21,6.49,8.91,10.07a6.8,6.8,0,0,0,3.49,12.88l13.42-.95v2.64h44.92v-2.39l9.87.7a6.79,6.79,0,0,0,5.44-11.43C270.54,183.67,274.4,179.17,275.64,176.12Z"/></g></g><path class="cls-15" d="M42.11,27.07V25.7a6.29,6.29,0,0,0-4.48-6.1,8,8,0,0,0-10.19,7.09,7.82,7.82,0,0,0,1.83,5.51L27.31,43H37.53l1-4.95a3.6,3.6,0,0,0,3.6-3.59V32.16l2.1-.74A.87.87,0,0,0,44.59,30Z"/><polygon class="cls-15" points="52.1 137.26 48.34 195.34 39.2 195.34 39.2 137.26 52.1 137.26"/><polygon class="cls-15" points="34.22 137.26 15.7 195.34 6.55 195.34 20.37 137.26 34.22 137.26"/><path d="M14.29,162.83H28.71L18.55,186.4l11.8,3.7a6.19,6.19,0,0,1,4.31,5.24H3.43c0-5,5.67-9.74,5.67-9.74Z"/><path d="M39.19,162.83H53.61l-4.7,23.57,12.23,3.7a6.19,6.19,0,0,1,4.31,5.24H34.22c0-5,5-9.11,5-9.11Z"/><path class="cls-15" d="M47.33,69.75S58.9,47.91,60,45.51s3.11-3.14,6-3.26,8.43-.46,9-.45,1.15.08,1.31.64a1.09,1.09,0,0,1-.73,1.17c-.91.32-5.93,1.64-5.93,1.64A24.9,24.9,0,0,1,70,48.44,4.12,4.12,0,0,1,68.28,52c-1.37.81-3.08,1.58-4.14,1.21l-6.87,20Z"/><path d="M59.91,30.41h2a0,0,0,0,1,0,0v8a0,0,0,0,1,0,0h-2a2.58,2.58,0,0,1-2.58-2.58V33a2.58,2.58,0,0,1,2.58-2.58Z" transform="translate(-4.36 9.02) rotate(-8.35)"/><path class="cls-3" d="M61.29,28h1.3a0,0,0,0,1,0,0V40.26a0,0,0,0,1,0,0h-1.3a1.05,1.05,0,0,1-1.05-1.05V29A1.05,1.05,0,0,1,61.29,28Z" transform="matrix(0.99, -0.15, 0.15, 0.99, -4.3, 9.28)"/><rect class="cls-3" x="67.76" y="26.88" width="2.35" height="12.27" transform="translate(-4.06 10.36) rotate(-8.35)"/><rect class="cls-16" x="62.54" y="27.43" width="5.26" height="12.27" transform="translate(-4.18 9.82) rotate(-8.35)"/><path d="M90.51,28l-12,.39.94,6.37,11.64-3.08a1.87,1.87,0,0,0,1.37-2.08h0A1.86,1.86,0,0,0,90.51,28Z"/><path class="cls-16" d="M84.27,12.93l-.51.07a1.24,1.24,0,0,0-1.07,1.29c.44,7.25-5.69,11.34-13.48,12.48l.89,6.08L71,38.92c7.8-1.15,14.84,1,16.5,8.08a1.25,1.25,0,0,0,1.4.93l.51-.08a1.26,1.26,0,0,0,1.06-1.43L88.08,30.21,85.7,14A1.25,1.25,0,0,0,84.27,12.93Z"/><path class="cls-3" d="M68.07,51l-3.39.5a2,2,0,0,1-2.3-2.23L63.46,40,71,38.92l-1.21,10.3A2,2,0,0,1,68.07,51Z"/><path class="cls-15" d="M62.39,49.78c1.54-.37,2.64-3.14,2.88-4.93l1.11-.36c1.18.4,2.59.48,3.24-.19.4-.41.37-1.07-.08-1.23-.6-.2-2.94-1.08-3.85-1.45s-4.24,1-5.46,3.46"/><path class="cls-15" d="M66.1,48.07a4.33,4.33,0,0,1-.17.83c-.28.83-.6,1.93.09,2.58s3,.57,4,.35,1.82-1.2,1.49-2.15a4,4,0,0,1,0-2.61A1.37,1.37,0,0,0,70,45.24c-1.36.19-2.92-.37-3.38.47a7.12,7.12,0,0,0-.47,2.36"/><path class="cls-15" d="M57.27,73.16,44.65,45.22,36.53,53S37.75,73.16,57.27,73.16Z"/><path class="cls-3" d="M24,43h20.1A5.44,5.44,0,0,1,49,46L56.6,60.73c-1.14,6-7.14,6.72-7.14,6.72s11.72,40.75,11.72,78.39H13.09S5.34,105,10.83,88.8c4-11.76,16.33-15.64,16.33-15.64l-9.52-20A7.08,7.08,0,0,1,24,43Z"/><path class="cls-15" d="M20.19,59.63l-13.78,9L0,63.47,18.78,46c2.43-2.26,5.17-2.57,6.93-.33C29.28,50.23,26.3,55.16,20.19,59.63Z"/><path class="cls-15" d="M0,63.47S.41,75,19.27,76.57l2.49-4-9.91-9.77Z"/><path class="cls-15" d="M20.8,68.64l4,.73,3.79,2.48c.94.62,1.06,2.46-.74,4-2.12,1.77-5.29,2.57-6.35,1.87l-1.51-1c-.84,1.28-3.13,3.11-4.52,2.2S13.8,76.32,14.91,74a25.52,25.52,0,0,1,3-4.32A3.06,3.06,0,0,1,20.8,68.64Z"/><path d="M32.55,14.9a13.34,13.34,0,0,1,12.23,7.69H37c.62,4.8-1.76,4.8-1.24,9.78a8.65,8.65,0,0,0,3.62,6.49,39.41,39.41,0,0,1-9.94,1A51.15,51.15,0,0,1,16.61,38S16.37,14.9,32.55,14.9Z"/><path class="cls-17" d="M20.39,91.64c0,11.84,10.66,40.24,29.45,40.24"/><path class="cls-17" d="M28.1,60.53a7,7,0,0,0,7,7"/><line class="cls-17" x1="14.7" y1="74.32" x2="17.34" y2="70.53"/><line class="cls-17" x1="13.09" y1="145.84" x2="61.18" y2="145.84"/><line class="cls-18" x1="24.04" y1="168.65" x2="25.95" y2="168.65"/><line class="cls-18" x1="25.95" y1="168.65" x2="27.85" y2="168.65"/><line class="cls-18" x1="22.23" y1="172.86" x2="24.13" y2="172.86"/><line class="cls-18" x1="24.13" y1="172.86" x2="26.03" y2="172.86"/><line class="cls-18" x1="20.39" y1="177.15" x2="22.29" y2="177.15"/><line class="cls-18" x1="22.29" y1="177.15" x2="24.19" y2="177.15"/><line class="cls-18" x1="50.58" y1="168.65" x2="52.48" y2="168.65"/><line class="cls-18" x1="52.48" y1="168.65" x2="54.38" y2="168.65"/><line class="cls-18" x1="49.72" y1="172.86" x2="51.62" y2="172.86"/><line class="cls-18" x1="51.62" y1="172.86" x2="53.52" y2="172.86"/><line class="cls-18" x1="48.83" y1="177.15" x2="50.73" y2="177.15"/><line class="cls-18" x1="50.73" y1="177.15" x2="52.63" y2="177.15"/><path class="cls-19" d="M209.63,184.81l-15.47-1.3a6.81,6.81,0,0,0-7.37,6.78h0a6.8,6.8,0,0,0,7.28,6.78l15.56-1.1Z"/><line class="cls-20" x1="200.71" y1="187.46" x2="200.71" y2="193.11"/><line class="cls-20" x1="205.15" y1="187.46" x2="205.15" y2="193.11"/><path class="cls-19" d="M246.73,184.81l15.47-1.3a6.81,6.81,0,0,1,7.37,6.78h0a6.8,6.8,0,0,1-7.29,6.78L246.73,196Z"/><line class="cls-20" x1="255.65" y1="187.46" x2="255.65" y2="193.11"/><line class="cls-20" x1="251.21" y1="187.46" x2="251.21" y2="193.11"/><path d="M232.34,171s20-8.22,37.83-8.22c4.33,0,8.47,4,8.47,11.35-2.7,6.66-17.83,20.17-38.73,20.17Z"/><path d="M228,171s-20-8.22-37.83-8.22c-4.33,0-8.47,4-8.47,11.35,2.7,6.66,17.83,20.17,38.73,20.17Z"/><path class="cls-3" d="M227.35,119.53c21.64,0,28.82,7.1,28.72,17.89-.05,5.63-2.89,19.6-3.59,23.85a11.29,11.29,0,0,1-.7,2.44l-6.63,16.09H214.77l-11.54-17.18A7.36,7.36,0,0,1,202,159.3c-.49-4.44-2.15-16.05-2.17-21.67C199.77,125.11,208.18,119.53,227.35,119.53Z"/><g class="cls-21"><path class="cls-19" d="M198.21,142.35s9.36,4.59,14.71,4.44c5.24,1.49,9.29,2.87,15.57,2.87s10.52-.89,13.82-2.26c4.42.88,11.1-.86,13-2.57s4.35,2.26,4.35,2.26-3.42,6.16-6,7.51-9.19.89-12.06.28a32.93,32.93,0,0,1-13.13,2.6c-6.55,0-12-.89-15.1-2.74-4.44.45-13.24-1.23-15.18-3.37S198.21,142.35,198.21,142.35Z"/></g><path class="cls-17" d="M233.67,181.41a55.45,55.45,0,0,1,30.41-14"/><path class="cls-17" d="M222.85,181.41a55.45,55.45,0,0,0-30.41-14"/><polyline class="cls-17" points="212.92 144.83 213.46 156.37 224.13 172.04 236.47 172.04 241.37 158.44 242.31 144.85"/><rect class="cls-22" x="207.49" y="194.57" width="44.92" height="4.19"/><path class="cls-23" d="M210.62,166.45h38.66a3.13,3.13,0,0,1,3.13,3.13v25a0,0,0,0,1,0,0H207.49a0,0,0,0,1,0,0v-25A3.13,3.13,0,0,1,210.62,166.45Z"/><circle class="cls-24" cx="229.95" cy="180.51" r="3.11"/><path class="cls-25" d="M237.67,123.65c0-1.52-4.37-2.75-9.76-2.75s-9.75,1.23-9.75,2.75c0,1.1,2.3,2,5.62,2.49a2.94,2.94,0,0,1,2,1l1.39,2a1,1,0,0,0,1.41,0l1.39-2a2.94,2.94,0,0,1,2-1C235.37,125.7,237.67,124.75,237.67,123.65Z"/><polyline class="cls-25" points="233.36 124.92 234.39 114.09 223.55 113.06 222.53 123.9"/><path class="cls-26" d="M228.49,118.66l-5.42-.52s.92,4.72,5,5.11,5.86-4.08,5.86-4.08Z"/><path class="cls-25" d="M230.37,98.85a7.56,7.56,0,0,0-8.24,6.82l-.81,8.46c-.31,3.35,2.8,6.38,7,6.77s7.78-2,8.1-5.34l.8-8.47A7.57,7.57,0,0,0,230.37,98.85Z"/><path d="M237.58,102.46c-.67-3.81-6.79-4.31-7.18-4.34s-6.5-.71-7.87,2.91-.88,9.3-.88,9.3a12.57,12.57,0,0,0,1.45-5.1c.32-3.35,3.58-.63,6.69-.33,3.59.34,6.81-1.66,6.49,1.74-.37,3.86.42,5.12.42,5.12S238.27,106.4,237.58,102.46Z"/><path d="M222.53,101a11.06,11.06,0,0,1,2-3.47c1.65-1.8,3.7-2.16,2.89-.55,2.13-2,6-3,3.84-.21,4-1.64,6-.87,4.16,1,3.1-.75,4.24.48,1.9,1.56,2.21.46,1.49,2,.06,2.47C234.65,103.27,222.53,101,222.53,101Z"/></g></g></g></svg>