<svg xmlns="http://www.w3.org/2000/svg" xmlns:xlink="http://www.w3.org/1999/xlink" viewBox="0 0 286.83 199.76"><defs><style>.cls-1,.cls-8,.cls-9{fill:#c2d1f2;}.cls-10,.cls-15,.cls-2,.cls-21,.cls-26,.cls-7{fill:none;}.cls-3{isolation:isolate;}.cls-4{fill:#f5f6f7;}.cls-5{clip-path:url(#clip-path);}.cls-6{fill:#dae3f7;}.cls-6,.cls-7,.cls-8{stroke:#dae3f7;}.cls-10,.cls-15,.cls-16,.cls-18,.cls-21,.cls-24,.cls-25,.cls-26,.cls-6,.cls-7,.cls-8,.cls-9{stroke-linecap:round;stroke-linejoin:round;}.cls-10,.cls-9{stroke:#c2d1f2;}.cls-11{clip-path:url(#clip-path-2);}.cls-12{opacity:0.2;}.cls-12,.cls-20{mix-blend-mode:multiply;}.cls-13,.cls-20{fill:#0039b2;}.cls-14,.cls-16{fill:#1258ff;}.cls-15,.cls-16{stroke:#1258ff;}.cls-17{fill:#d0deff;}.cls-18,.cls-21,.cls-24,.cls-25{stroke:#000;}.cls-19{fill:#d1917b;}.cls-20{opacity:0.4;}.cls-22{fill:#c16c4f;}.cls-23,.cls-24{fill:#3cd278;}.cls-25{fill:#ffc837;}.cls-26{stroke:#829ed9;}</style><clipPath id="clip-path"><rect class="cls-1" x="51.46" y="25.86" width="179.09" height="100.5"/></clipPath><clipPath id="clip-path-2"><rect class="cls-2" x="51.46" width="179.09" height="163.52" rx="5"/></clipPath></defs><title>Asset 2</title><g class="cls-3"><g id="Layer_2" data-name="Layer 2"><g id="Colour_2" data-name="Colour 2"><rect class="cls-4" x="51.46" width="179.09" height="163.52" rx="5"/><rect class="cls-1" x="51.46" y="25.86" width="179.09" height="100.5"/><g class="cls-5"><circle class="cls-6" cx="155.19" cy="39.18" r="7.18"/><path class="cls-7" d="M32.82,52c-2.78,4.6.83,9.83,7.08,9.81,7.67,0,8.07-6,14.29-3.53s9.12,2.57,15.17-1.06c4.43-2.66,9.51-1.43,13.62,1.21,5.28,3.4,14.64,4.33,20.3.58,6.52-4.33,17.12,4,22.66-1.21,4.08-3.85,2-11.19-3.08-13-8.37-2.94-10.64,2.57-17.81,1.16-10.55-2.08-5-13.66-13-15.37C81.93,28.48,80.75,42.17,67.72,41.93c-7.56-.14-9.69-5.62-15.17-3.52-3.37,1.3-3.2,6.13-6.36,8.72C41.92,50.63,35.37,47.83,32.82,52Z"/><path class="cls-8" d="M162,60.45c-2.78,4.59.83,9.82,7.08,9.81,7.67,0,8.08-6,14.29-3.53s9.12,2.57,15.17-1.06C203,63,208,64.24,212.14,66.88c5.28,3.39,14.64,4.33,20.3.57,6.52-4.32,17.12,4,22.66-1.21,4.08-3.85,2-11.18-3.08-12.95-8.37-2.95-10.64,2.57-17.81,1.15-10.55-2.07-5-13.66-13-15.36-10.15-2.18-11.33,11.5-24.36,11.26-7.56-.14-9.69-5.61-15.17-3.51-3.37,1.29-3.2,6.12-6.36,8.72C171.08,59.05,164.53,56.25,162,60.45Z"/><rect class="cls-6" x="85.28" y="70.73" width="9.25" height="44.18"/><rect class="cls-6" x="78.14" y="79.82" width="3.43" height="44.18"/><rect class="cls-6" x="148.32" y="87.37" width="3.43" height="44.18"/><rect class="cls-6" x="222.44" y="81.36" width="3.43" height="44.18"/><polygon class="cls-6" points="142.84 75.3 142.84 65.82 140.27 65.82 140.27 58.47 137.21 58.47 137.21 65.82 134.63 65.82 134.63 75.3 132.04 75.3 132.04 119.47 145.43 119.47 145.43 75.3 142.84 75.3"/><line class="cls-7" x1="138.74" y1="75.91" x2="138.74" y2="51.2"/><polygon class="cls-6" points="167.74 67.15 157.01 75.78 157.01 81.62 154.64 81.62 154.64 111.18 157.01 111.18 158.68 111.18 171.65 111.18 167.74 67.15"/><polygon class="cls-6" points="194.61 77.07 194.61 69.64 187.56 65.6 180.51 69.64 180.51 77.07 177.68 77.07 177.68 121.25 197.45 121.25 197.45 77.07 194.61 77.07"/><polygon class="cls-6" points="217.2 74.52 217.2 66.27 214.31 66.27 214.31 62.72 209.64 62.72 209.64 66.27 206.75 66.27 206.75 74.52 209.64 74.52 209.64 77.4 206.75 77.4 206.75 80.82 209.64 80.82 209.64 112.11 214.31 112.11 214.31 80.82 217.2 80.82 217.2 77.4 214.31 77.4 214.31 74.52 217.2 74.52"/><line class="cls-7" x1="211.98" y1="87.41" x2="211.98" y2="56.99"/><polygon class="cls-6" points="70.69 93.06 70.69 83.34 68.58 83.34 68.58 73.58 60.38 73.58 60.38 83.34 56.78 83.34 56.78 93.11 60.38 93.11 60.38 102.27 54.86 102.27 54.86 117.47 73.51 117.47 73.51 102.82 73.51 102.27 73.51 93.06 70.69 93.06"/><path class="cls-6" d="M121.92,87.58V83.12H119.3a5,5,0,1,0-10,0h-2.63v4.46h-3.35v38.24h21.9V87.58Z"/><rect class="cls-6" x="49.49" y="109.66" width="20.42" height="18.7"/><rect class="cls-6" x="67.61" y="98.68" width="12.59" height="31.06"/><rect class="cls-6" x="80.54" y="87.36" width="9.78" height="36.37"/><rect class="cls-6" x="88.78" y="94.05" width="9.61" height="11.5"/><rect class="cls-6" x="89.46" y="100.05" width="20.59" height="22.31"/><rect class="cls-6" x="118.29" y="97.31" width="10.64" height="24.71"/><rect class="cls-6" x="126.87" y="103.48" width="23.33" height="14.76"/><rect class="cls-6" x="150.2" y="91.47" width="13.34" height="31.04"/><rect class="cls-6" x="158.09" y="96.76" width="24.54" height="20.79"/><rect class="cls-6" x="193.78" y="85.13" width="9.61" height="28.48"/><rect class="cls-6" x="201.16" y="101.08" width="17.16" height="20.25"/><rect class="cls-6" x="213.34" y="91.82" width="15.79" height="25.91"/><rect class="cls-6" x="224.15" y="100.05" width="11.84" height="16.81"/><rect class="cls-6" x="50.52" y="114.12" width="189.76" height="29.51"/><rect class="cls-9" x="57.89" y="110.98" width="18.17" height="30.92"/><rect class="cls-9" x="73.92" y="118.96" width="24.46" height="30.92"/><rect class="cls-9" x="141" y="110.9" width="16.66" height="30.92"/><rect class="cls-9" x="211.54" y="96.64" width="11.32" height="30.92"/><rect class="cls-9" x="221.23" y="106.9" width="13.55" height="30.92"/><rect class="cls-9" x="206.75" y="113.27" width="9.76" height="30.92"/><rect class="cls-9" x="94.53" y="107.75" width="10.29" height="22.31"/><rect class="cls-9" x="111.48" y="103.75" width="10.64" height="24.71"/><rect class="cls-9" x="150.2" y="99.39" width="13.34" height="31.04"/><rect class="cls-9" x="172.87" y="103.16" width="4.8" height="28.48"/><rect class="cls-9" x="175.27" y="108.89" width="17.16" height="20.25"/></g><circle class="cls-9" cx="67.61" cy="13.15" r="6.15"/><line class="cls-10" x1="83.01" y1="13.15" x2="141" y2="13.15"/><line class="cls-10" x1="61.8" y1="138.02" x2="181.26" y2="138.02"/><line class="cls-10" x1="61.8" y1="148.28" x2="155.19" y2="148.28"/><g class="cls-11"><g class="cls-12"><path class="cls-13" d="M272.24,39.08h0c-1.7-2.9-5.26-4.28-8.94-4.57a16.57,16.57,0,0,0,1.12-5.77c0-7.69-4.39-14.86-10.34-15.5a5.87,5.87,0,0,0-.85-.06,8.6,8.6,0,0,0-8.33,7.17h0a7.13,7.13,0,0,0,.07,4l2.95,9.34a4,4,0,0,0,5,2.62,5.37,5.37,0,0,0-2.14,3.07A18.88,18.88,0,0,0,237,51.54l-1.19,3.37h-8.74l-.82-8.59a14.05,14.05,0,0,0-11-12.44l-2.31-.5.64-2s0,0,0,0a4,4,0,0,0,5-2.63l3-9.34a7.1,7.1,0,0,0,.27-3,5.25,5.25,0,0,0,4.55-3.64h0L217.14,9.8l-1.66-.52a5.41,5.41,0,0,0-6.79,3.53l-.56,1.78a7.18,7.18,0,0,0-.32.81L206.06,21l-2.29,7.24L202.27,33h-6a19.07,19.07,0,0,0-18.91,16.14l-4.45,28.05a.51.51,0,0,0,.08.36L178,85,169.57,106a.52.52,0,0,0,.05.47.52.52,0,0,0,.41.22h11.58c.64,13.47,1.91,31.25,4.3,39.81-5.86,14.89-6.61,42.76-6.62,43a.51.51,0,0,0,.15.36.47.47,0,0,0,.35.15h3v8.76h79.62V180.24s5.34-24.67,2.08-40.12c7.1-10.81,9-27.78,9-36.73s-2-13-2-13a29.46,29.46,0,0,0-1.4-8.12,5.91,5.91,0,0,0,5.6-4l7.4-21.88A13.14,13.14,0,0,0,272.24,39.08ZM226.11,192.44a4.42,4.42,0,0,0-2.23,1.87,5,5,0,0,0-1.42-1.1l-6.74-3.48a.47.47,0,0,0,.06-.21l1.32-39.25,1.26-2.6a28.62,28.62,0,0,0,2.86-11.27l1.36-29.76h8.93a.5.5,0,0,0,.37-.17.52.52,0,0,0,.13-.38l-2.28-23.77a10.86,10.86,0,0,0,1.28.09,9.68,9.68,0,0,0,6.61-2.61l-2.11,10.56L226,136.28a7.21,7.21,0,0,0,.09,3.33l11.29,42.59,1.39,5.77Zm26.37-4.61-3.66,1.38-1.45-9s.56-22.22-7.47-39.51c2.65-3.36,5.9-10,9.07-17.39l3.51,56.9Z"/><path class="cls-13" d="M90.17,123.79c-2.52-.37-6-.29-8-1.83-3.16-2.47-7-2.56-9.32,0s-7,4.94-13.23,5.72c-7,.88-13.86,8.58-7.93,15.59a34.88,34.88,0,0,0-3.67,15.95H42c.93-10.83,1.61-21.73,1.56-32.37,6.85-.5,10.28-6.29,5.9-14.19-2-3.63-2.4-7.78.94-13.3s2-12.83-3.35-16c-3.95-2.32-6.5-5.78-5.82-13.18.61-6.62-2-9.1-7.74-10.66-4.34-1.17-6.77-6.09-10.07-7s-6,.8-6,5c0,3,3.22,6.57,3.07,11.08-.18,5.76,2.08,8.7,6,10.41C30.87,81,32,84.76,29.8,89.61c-1.58,3.48-2.19,10.2,1.75,13.31s3.27,6.73,2.19,11.54c-1.4,6.2,2,12.29,8.74,12.42.05,9.31-.39,20-1.45,32.3v0H35.69a73.23,73.23,0,0,0-1.91-16.35c6.18-2.43,7.25-9.57,2.74-12.42-4.08-2.58-5-5.65-5-10.74,0-6.54-1.2-9.29-5.45-11.83-3.45-2.07-6-3.86-6.14-9.6-.19-5.52-2.62-7.28-7-8-4.8-.78-7.31-5.48-9.74-6.62-2-1-3.6-.21-3.14,2.47C.4,88,2.77,90.39,2.9,94.34c.17,5.17,2.16,7.33,5.69,8.58,4.23,1.51,4.83,4.17,4.59,9.22-.28,5.67-.74,8.48,4.77,12.16,3.21,2.16,3.78,6.58,3.31,11.59-.57,6.2,5.18,9.24,11.57,7.31a72,72,0,0,1,1.86,16H22.36a1,1,0,0,0-1,1.09l.52,4.25h-.66a.51.51,0,0,0-.5.5.5.5,0,0,0,.5.5h.79L26,197.63a2.42,2.42,0,0,0,2.4,2.13H54.66a2.42,2.42,0,0,0,2.4-2.13l4-32.07h.78a.5.5,0,0,0,.5-.5.5.5,0,0,0-.5-.5h-.66l.53-4.25a1,1,0,0,0-1-1.09H49.07A33.8,33.8,0,0,1,52.44,144c5.61,5.69,12,3,13.19-4.06.77-4.63,3.47-6.59,7.19-6.37,3.33.2,6.74.23,10.5-2.29,2.38-1.6,5.49-1.87,7.65-2.11C94.74,128.78,94.51,124.43,90.17,123.79Z"/></g></g><path class="cls-13" d="M201.3,196.76v-11.6h12.43l11.73,6.05a5,5,0,0,1,2.74,4.48v1.07Z"/><path class="cls-14" d="M185.82,196.76v-11.6h12.43L210,191.21a5,5,0,0,1,2.74,4.48v1.07Z"/><line class="cls-15" x1="203.11" y1="31.47" x2="213.98" y2="31.47"/><path class="cls-16" d="M214,31.47l6.91,39.21,4,33.46h9.59l-5.72-59.78a13.58,13.58,0,0,0-10.66-12Z"/><path class="cls-17" d="M203.11,31.47H214A5.9,5.9,0,0,1,219.71,36a217.69,217.69,0,0,1,6.16,51.34H189.43V45.15A13.68,13.68,0,0,1,203.11,31.47Z"/><path class="cls-18" d="M184.5,87.29h41.37l-2.15,47.09a28.39,28.39,0,0,1-2.81,11.07l-1.31,2.69-1.32,39.36H182.79s.69-28.08,6.64-43C185.26,129.81,184.5,87.29,184.5,87.29Z"/><polygon class="cls-16" points="203.11 31.47 210.71 70.44 186.62 104.14 173.03 104.14 185.43 73.49 187.96 40.53 203.11 31.47"/><path class="cls-19" d="M219.7,8.36a7.51,7.51,0,0,0-8.89,5L209.06,19l-2.29,7.24-1.66,5.27a0,0,0,0,0,0,0L208.27,35a4.24,4.24,0,0,0,6.65-.42h0l1.65-5.21s0,0,0,0a4,4,0,0,0,5-2.63l3-9.34A7.16,7.16,0,0,0,219.7,8.36Z"/><path class="cls-20" d="M216.58,29.34l-3.89-1.23s.3,3.47,2.9,4.34Z"/><path d="M220.14,7.8l9.23,2.92h0a5.25,5.25,0,0,1-6.58,3.42L215,11.67l-3.7,8a2.3,2.3,0,0,1-2.78,1.23h0l3.18-10.08a5.41,5.41,0,0,1,6.79-3.53Z"/><path class="cls-19" d="M193,99.92,206.52,97a6.33,6.33,0,0,0-1.71-4.15Z"/><polyline class="cls-15" points="204.33 173.73 204.33 148.66 209.18 140.55 209.18 108.84"/><circle class="cls-18" cx="206.46" cy="69.91" r="1.28"/><path class="cls-16" d="M176.38,75.24l4.45-28a18.65,18.65,0,0,1,18.41-15.72h3.87L191.33,71.91l13.48,21L193,99.92Z"/><path class="cls-21" d="M197.67,81.76l-6.34-9.85a100.76,100.76,0,0,0,4.86-16.69"/><path class="cls-22" d="M226.76,192.58l13.53-5.08-1.85-10,8.23-.38,1.86,12.56,1.34,3.66a2.58,2.58,0,0,1-2.42,3.46H223.87A4.46,4.46,0,0,1,226.76,192.58Z"/><path d="M226.76,192.58l5.81-2.19,1.32,1.62a5.56,5.56,0,0,0,4.28,2h4.9a4,4,0,0,0,3.11-1.49l2.35-2.91,1.34,3.66a2.58,2.58,0,0,1-2.42,3.46H223.87A4.46,4.46,0,0,1,226.76,192.58Z"/><path class="cls-22" d="M246.91,192.58l13.85-5.23V176.47h7.91v13.17L270,193.3a2.57,2.57,0,0,1-2.42,3.46H244A4.46,4.46,0,0,1,246.91,192.58Z"/><path d="M246.91,192.58l5.8-2.19L254,192a5.54,5.54,0,0,0,4.28,2h4.89a4,4,0,0,0,3.11-1.49l2.35-2.91L270,193.3a2.57,2.57,0,0,1-2.42,3.46H244A4.46,4.46,0,0,1,246.91,192.58Z"/><path d="M254.84,13c-4.39,0-6.87,2.51-7.3,9.66C247.07,30.49,243.07,30,242,36c-.7,4,1.91,10.28,8.13,10.28,6.61,0,18.5.08,18.5-13S262.4,13,254.84,13Z"/><path class="cls-23" d="M243.73,70.69a9.72,9.72,0,0,1-19.44,0Z"/><path class="cls-14" d="M249.43,80.25l6,98h19.08s2.91-33.51-6-46.12c7.1-10.81,9-23.25,9-32.2,0-13-6.49-19.67-6.49-19.67Z"/><path class="cls-14" d="M242,80.41,229.13,132a11,11,0,0,0-.25,4l5.63,45.37,18.86-3.68s-3.22-32.86-8.47-41.93c21.55-30.49,21.79-55.46,21.79-55.46Z"/><path class="cls-23" d="M286.12,54.34l-7.4,21.88a5.91,5.91,0,0,1-5.6,4h0L242,80.41l1.61-17.74h-8.27L240,49.54A18.87,18.87,0,0,1,257.83,37h15.84A13.14,13.14,0,0,1,286.12,54.34Z"/><path class="cls-24" d="M268.13,76.84l-11.31-5.47c-2.41-1.17-3.12-2.55-3.12-5.22a4.71,4.71,0,0,1,1.77-3.22,4.25,4.25,0,0,1,4.16-.92l10.2,3.49L271,61.81"/><path class="cls-18" d="M233.9,70.69h19.94a1.45,1.45,0,0,0,1.39-1.86l-4-13.76A2.3,2.3,0,0,0,249,53.41H229.1a1.45,1.45,0,0,0-1.39,1.85l4,13.77A2.3,2.3,0,0,0,233.9,70.69Z"/><path class="cls-22" d="M257.24,62.58H248a1.66,1.66,0,0,0-1.66,1.66v1.34A5.67,5.67,0,0,0,252,71.25h2.89a4.91,4.91,0,0,0,4.91-4.91V65.15A2.57,2.57,0,0,0,257.24,62.58Z"/><path class="cls-22" d="M234.76,63.44l1.14,1.14a2.54,2.54,0,0,1,.24,3.31l-2.75,3.7-1.7,1.7a4.34,4.34,0,0,1-6.13,0h0a4.34,4.34,0,0,1,0-6.13l1.28-1.29a4.16,4.16,0,0,1,.93-.69l4-2.18A2.54,2.54,0,0,1,234.76,63.44Z"/><path class="cls-22" d="M254.08,13.87a7.5,7.5,0,0,1,8.89,5l1.75,5.56L267,31.72,268.67,37s0,0,0,0l-3.15,3.5a4.24,4.24,0,0,1-6.65-.42h0l-1.64-5.21s0,0,0,0a4,4,0,0,1-5-2.62l-2.94-9.34A7.15,7.15,0,0,1,254.08,13.87Z"/><path class="cls-20" d="M257.21,34.85l3.88-1.23s-.29,3.47-2.9,4.35Z"/><path d="M245.93,16.8a5.26,5.26,0,0,0,5.42,5.27c3.13,0,5.86-.57,7.44-3.08,0,10.36,2.3,14.63,9.88,18,9.2,0,12.39.95,16.42,6.59,2.43-7.19-2.22-13.33-9.74-17.75-7.69-4.52-6.68-16.75-19-16.75C249.23,9.11,245.93,13.27,245.93,16.8Z"/><line class="cls-25" x1="251.46" y1="114.15" x2="250.03" y2="89.95"/><path class="cls-23" d="M3.22,80.67c2.43,1.14,4.94,5.84,9.74,6.62,4.38.71,6.81,2.47,7,8,.19,5.74,2.69,7.53,6.14,9.6,4.25,2.54,5.48,5.29,5.45,11.83,0,5.09.89,8.16,5,10.74,4.62,2.92,3.4,10.37-3.19,12.61s-12.65-.81-12.07-7.17c.47-5-.1-9.43-3.31-11.59-5.51-3.68-5-6.49-4.77-12.16.24-5-.36-7.71-4.59-9.22-3.53-1.25-5.52-3.41-5.69-8.58-.13-4-2.5-6.35-2.82-8.2C-.38,80.46,1.18,79.72,3.22,80.67Z"/><path class="cls-21" d="M35.19,156.22c0-23.31-12-45.69-28.22-66.45"/><path class="cls-23" d="M52.07,140.66c5.69,6.19,12.36,3.49,13.56-3.7.77-4.63,3.47-6.59,7.19-6.37,3.33.2,6.74.23,10.5-2.29,2.38-1.6,5.49-1.87,7.65-2.11,3.77-.41,3.54-4.76-.8-5.4-2.52-.37-6-.29-8-1.83-3.16-2.47-7-2.56-9.32,0s-7,4.94-13.23,5.72C52.54,125.58,45.54,133.55,52.07,140.66Z"/><path class="cls-21" d="M48.57,156.22c0-20.39,15.2-33.65,36-32.22"/><path class="cls-23" d="M23.45,49.59c3.3.89,5.73,5.81,10.07,7,5.78,1.56,8.35,4,7.74,10.66-.68,7.4,1.87,10.86,5.82,13.18,5.3,3.12,6.61,10.55,3.35,16s-3,9.67-.94,13.3c4.48,8.09.8,14-6.39,14.23s-10.8-6-9.36-12.43c1.08-4.81,1.74-8.42-2.19-11.54s-3.33-9.83-1.75-13.31C32,81.76,30.87,78,26.49,76.11c-3.93-1.71-6.19-4.65-6-10.41.15-4.51-3.07-8.05-3.07-11.08C17.41,50.39,20.25,48.71,23.45,49.59Z"/><path class="cls-21" d="M27.73,62.05c16.87,24.15,16.9,58.13,13.8,94.17"/><path class="cls-13" d="M22.36,156.22H60.71a1,1,0,0,1,1,1.09l-4.61,37.32a2.42,2.42,0,0,1-2.4,2.13H28.4a2.42,2.42,0,0,1-2.4-2.13l-4.6-37.32A1,1,0,0,1,22.36,156.22Z"/><line class="cls-26" x1="21.26" y1="162.06" x2="61.8" y2="162.06"/></g></g></g></svg>