<svg xmlns="http://www.w3.org/2000/svg" xmlns:xlink="http://www.w3.org/1999/xlink" viewBox="0 0 283.69 224.73"><defs><style>.cls-1,.cls-7{fill:#c2d1f2;}.cls-16,.cls-2,.cls-20,.cls-27,.cls-28,.cls-8{fill:none;}.cls-3{isolation:isolate;}.cls-4{fill:#f5f6f7;}.cls-5{clip-path:url(#clip-path);}.cls-6{fill:#dae3f7;}.cls-7,.cls-8{stroke:#c2d1f2;}.cls-15,.cls-16,.cls-17,.cls-19,.cls-20,.cls-23,.cls-25,.cls-27,.cls-28,.cls-29,.cls-7,.cls-8{stroke-linecap:round;stroke-linejoin:round;}.cls-9{clip-path:url(#clip-path-2);}.cls-10,.cls-12{opacity:0.2;}.cls-10,.cls-12,.cls-22{mix-blend-mode:multiply;}.cls-11,.cls-12,.cls-22{fill:#0039b2;}.cls-13{fill:#ffc837;}.cls-14{fill:#d1917b;}.cls-15,.cls-17,.cls-19,.cls-20{stroke:#000;}.cls-16,.cls-23{stroke:#1258ff;}.cls-17{fill:#d0deff;}.cls-18,.cls-19,.cls-23{fill:#1258ff;}.cls-21,.cls-29{fill:#719bff;}.cls-22{opacity:0.4;}.cls-24{fill:#ffddd1;}.cls-25{fill:#e6e6e6;}.cls-25,.cls-27{stroke:#e6e6e6;}.cls-26{fill:#ffc6b2;}.cls-27{stroke-width:4px;}.cls-28{stroke:#999;}.cls-29{stroke:#719bff;}.cls-30{fill:#fff;}</style><clipPath id="clip-path"><rect class="cls-1" x="56.67" y="43.48" width="179.09" height="100.5"/></clipPath><clipPath id="clip-path-2"><rect class="cls-2" x="56.67" y="17.61" width="179.09" height="163.52" rx="5"/></clipPath></defs><title>Asset 3</title><g class="cls-3"><g id="Layer_2" data-name="Layer 2"><g id="Colour_2" data-name="Colour 2"><rect class="cls-4" x="56.67" y="17.61" width="179.09" height="163.52" rx="5"/><rect class="cls-1" x="56.67" y="43.48" width="179.09" height="100.5"/><g class="cls-5"><path class="cls-6" d="M235.86,64a37.5,37.5,0,1,0-4.47,56.86l-18.52-18.53L206.13,109l-7.66-7.66,6.73-6.74-5.84-5.84c-6.65-6.64-6.36-14.27-.3-20.33a58,58,0,0,1,6.45-5.42L212,69.58l-3.35,3.34c-3.29,3.3-2.27,6.37-.18,8.46l5,5L220.84,79l6.49,8.84L221.15,94l18.53,18.53A37.5,37.5,0,0,0,235.86,64Z"/><path class="cls-6" d="M111.13,64a37.5,37.5,0,1,1-53,0A37.5,37.5,0,0,1,111.13,64ZM93.75,109.34c11.76-11.76,8.44-27.93,0-36.38-.28-.28-.56-.56-.84-.81a18.27,18.27,0,0,0-.12-6.51,18.08,18.08,0,0,1-2.66,4.68A9,9,0,0,0,89.4,64a18.18,18.18,0,0,1-2.51,5.61A9,9,0,0,0,80.21,85a8.56,8.56,0,0,0,1.63,1.29A25.67,25.67,0,0,1,62,92.8a9.11,9.11,0,0,0,2.35,4.07,9,9,0,0,0,8.17,2.46,9,9,0,0,1-3.69,2.1l.08.08a9.06,9.06,0,0,0,11.4,1.14,9,9,0,0,1-1.46,1.91,8.53,8.53,0,0,1-1.32,1.08,9,9,0,0,0,10.41-1.52,18.22,18.22,0,0,1-5.21,10.67,16.74,16.74,0,0,1-1.62,1.43,25.22,25.22,0,0,0,12.66-6.88"/><path class="cls-6" d="M128.74,111.39c-4.8,4.8-5.38,5.42-7.18,7.39a18.59,18.59,0,0,0-3.47,5.11,12.81,12.81,0,0,0,0,10.34,18.62,18.62,0,0,0,3.47,5.12c1.8,2,2.38,2.59,7.18,7.39s5.43,5.38,7.4,7.18a18.37,18.37,0,0,0,5.11,3.47,12.81,12.81,0,0,0,10.34,0,18.22,18.22,0,0,0,5.11-3.47c2-1.8,2.6-2.38,7.4-7.18s5.38-5.42,7.18-7.39a18.39,18.39,0,0,0,3.47-5.12,12.81,12.81,0,0,0,0-10.34,18.37,18.37,0,0,0-3.47-5.11c-1.8-2-2.38-2.59-7.18-7.39s-5.42-5.39-7.4-7.19a18.44,18.44,0,0,0-5.11-3.47,12.81,12.81,0,0,0-10.34,0,18.59,18.59,0,0,0-5.11,3.47c-2,1.8-2.6,2.38-7.4,7.19Zm3.19,3.18c4.72-4.72,5.3-5.26,7.25-7a13.78,13.78,0,0,1,3.89-2.67,8.28,8.28,0,0,1,6.71,0,13.93,13.93,0,0,1,3.89,2.67c2,1.78,2.52,2.32,7.24,7s5.27,5.3,7,7.25a13.66,13.66,0,0,1,2.68,3.89,8.28,8.28,0,0,1,0,6.71,13.8,13.8,0,0,1-2.68,3.89c-1.77,1.95-2.32,2.53-7,7.25s-5.29,5.26-7.24,7a13.93,13.93,0,0,1-3.89,2.67,8.28,8.28,0,0,1-6.71,0,13.78,13.78,0,0,1-3.89-2.67c-2-1.78-2.53-2.32-7.25-7s-5.26-5.3-7-7.25a14,14,0,0,1-2.68-3.89,8.28,8.28,0,0,1,0-6.71,13.89,13.89,0,0,1,2.68-3.89c1.78-1.95,2.32-2.53,7-7.25"/><path class="cls-6" d="M152.31,135a8.33,8.33,0,1,1,0-11.79,8.34,8.34,0,0,1,0,11.79Zm-15-15a12.84,12.84,0,1,0,18.16,0,12.84,12.84,0,0,0-18.16,0Z"/><path class="cls-6" d="M148.54,108.07a3,3,0,1,1-4.24,0,3,3,0,0,1,4.24,0Z"/><path class="cls-6" d="M128.74,38.54a25,25,0,1,0,35.36,0A25,25,0,0,0,128.74,38.54Zm21.47,29-3.79,3.78L135.07,60l3.78-3.79ZM135.27,56.42a3,3,0,1,1,0-4.18A3,3,0,0,1,135.27,56.42Zm28.18-2.1-3.78,3.78-5.41-5.41c-3.56-3.56-7,.53-3.79,3.79l5.41,5.41-3.78,3.78L140.74,54.32l3.79-3.78,2.07,2.06c-1.41-4.7,4.28-10.85,10.5-4.64Z"/></g><circle class="cls-7" cx="72.82" cy="30.76" r="6.15"/><line class="cls-8" x1="88.22" y1="30.76" x2="146.21" y2="30.76"/><line class="cls-8" x1="67.01" y1="155.64" x2="186.47" y2="155.64"/><line class="cls-8" x1="67.01" y1="165.89" x2="160.4" y2="165.89"/><g class="cls-9"><g class="cls-10"><polygon class="cls-11" points="8.78 217.54 44.69 217.54 44.69 215.49 8.78 214.09 8.78 217.54"/><path class="cls-11" d="M182.26,202.07c-.88-11.39-3.17-27.58-3.17-27.58l-.09-7.2,5.86-13.08a3.89,3.89,0,0,0-.9-4.44l-1.38-1.3-16.72,18.58a1.07,1.07,0,0,0-.15,1.26c1.14,2,3.8,3.81,5.47,3.85v2.33l-1.47,17.23c-8-5.94-17.6-12.62-17.6-12.62l-5.79-5.68-5.24-15.25a4.39,4.39,0,0,0-4.15-3h-2.13l.54,28.12a1.23,1.23,0,0,0,.85,1.16c2.46.75,6,.2,7.45-1.05l1.78,1.92s11.5,12.17,16.33,16.34c-9-5.94-19.52-10.52-32.58-10.52-8.88,0-14.2,7.36-14.2,7.36-14.4,0-20.83-6.69-28.93-11a4.28,4.28,0,0,0,.6-2.16c0-10.43-14.58-19.05-29.63-19.05-7.57,0-10.27,3.64-10.27,7.16a4.64,4.64,0,0,0,.62,2.39,9.23,9.23,0,0,0,.76,14c-3.61,3.25-10.69,10.39-10.69,16.32a6.1,6.1,0,0,0,.84,3.09,6.29,6.29,0,0,0-2.93,5.63l11.82.57,14.94,4.84s10.3,4.38,16.62,4.38c6.05,0,8.76-3.45,8.76-7.19h88.12c7.21,0,10-3.93,10-8.27C185.56,206.39,184.35,204.28,182.26,202.07ZM52.83,193.66a4,4,0,0,0,3.72.49c0,.13.08.25.13.37C51,199.72,46.44,205,46.44,205Zm10.78,19.48-9.08-2.49c2.7-1.23,6.59-3.06,10.24-5a54.18,54.18,0,0,0,5.82,8.88Z"/></g><path class="cls-12" d="M279.06,95.37a22.75,22.75,0,0,0,1.82-16.64c-1.78-6.52-4.5-17-5.1-20a9.65,9.65,0,0,0-6.93-7.87,10.68,10.68,0,0,0-5.77-7.14c-1-.5-2-.94-3-1.34a2.82,2.82,0,0,0,.38-1c.14-.91.45-3.08.77-5.27l-.35,2.42,2.05.3c1.14.17,2.28-1.21,2.55-3.08h0c.95-6.51-3.23-12.51-9.34-13.4-5.87-.86-11.38,3.33-12.64,9.43a6.08,6.08,0,0,0-.16.74c-.27,1.87.43,3.52,1.56,3.68l2.06.3c-.17,1.16-.31,2.14-.4,2.72-.83-.09-1.66-.17-2.51-.24-3.35-.27-5.45.94-6.61,3.09a9.33,9.33,0,0,0-9.63,5.6c-3.63,8.13-8.09,17.79-9.62,24.12-1.37,5.71-.31,9.53,7.47,9.91a.91.91,0,0,1,.81,1.25c-2.25,5.7-5.92,16.52-7.13,20.14a.91.91,0,0,0,.87,1.21h5.93a18.26,18.26,0,0,0-2.3,7.63c0,5.28-.1,26.9.4,31.43a10.65,10.65,0,0,0,1.55,4.88,19.71,19.71,0,0,0,.88,6.41l.91,2.93A5.85,5.85,0,0,0,239,155.79v-9a10.37,10.37,0,0,0,.84-1.83c1.26-3.77,6.62-22.55,6.62-22.55l1.91,37.46s-.25,31.18-.25,34.45h2.64v7c0,9.79-2.6,11.14-2.6,16.94h17.6a7.69,7.69,0,0,0-4.7-6.85,28,28,0,0,1-1.89-10.09v-7h2.43c0-2.26,2.25-33.68,2.25-33.68s6.82-41,6.82-47.06a24.6,24.6,0,0,0-.68-5.29c.49-.55,1-1.15,1.54-1.79l4.91,4a.92.92,0,0,0,1.48-.91l-1.84-8.14a.92.92,0,0,1,.08-.63ZM261.24,36c0-.31.09-.62.13-.93h0Zm-13.93-2v0Z"/></g><path class="cls-13" d="M230.54,130.93H241v20.86a5.85,5.85,0,0,1-5.85,5.85h0a5.85,5.85,0,0,1-5.58-4.12l-.91-2.93a19.53,19.53,0,0,1-.35-10.37Z"/><rect class="cls-14" x="252.77" y="185.59" width="8.41" height="11.74"/><path class="cls-15" d="M230.92,95.62h38.2s3.56,7.92,3.56,14-6.82,47.06-6.82,47.06-2.25,31.42-2.25,33.68H250.13c0-3.27.25-34.45.25-34.45l-1.91-37.46s-5.36,18.78-6.62,22.55-5.32,7.42-9.1,6.35c-4.32-1.22-6-3.51-6.51-8s-.4-26.15-.4-31.43S230.92,95.62,230.92,95.62Z"/><line class="cls-16" x1="256.36" y1="157.06" x2="261.09" y2="157.06"/><path class="cls-13" d="M261.18,197.33h-8.41c0,9.79-2.6,11.14-2.6,16.94l7.48-4,6.45,2.38C264.1,207.75,261.18,205.27,261.18,197.33Z"/><path class="cls-13" d="M267.77,214.27c0-4.28-3.94-7.74-8.8-7.74s-8.8,3.46-8.8,7.74Z"/><path class="cls-17" d="M255.53,40.4c-14.14-3.54-22.24,26.47-25.72,55.22H268C271.9,70.14,270.62,44.19,255.53,40.4Z"/><path class="cls-18" d="M240.29,38.18c-4.54-1.16-8.79,1.66-10.48,5.43-3.63,8.13-8.09,17.79-9.62,24.12-1.37,5.71-.31,9.53,7.47,9.91a.91.91,0,0,1,.81,1.25c-2.25,5.7-5.92,16.52-7.13,20.14a.91.91,0,0,0,.87,1.21h16a.92.92,0,0,0,.87-.63l9-26.89a1,1,0,0,0,0-.48c-.63-3-6.74-33.83,7.08-30.38,14,3.51,9.18,30.75,8.84,32.6a.67.67,0,0,0,0,.2l1.05,20.55a.91.91,0,0,0,.33.67l13.06,10.63a.92.92,0,0,0,1.48-.91l-1.84-8.14a.92.92,0,0,1,.08-.63l2.89-5.46a22.75,22.75,0,0,0,1.82-16.64c-1.78-6.52-4.5-17-5.1-20-1-5.19-4.32-7.19-7.89-8.16C263.93,44.94,240.29,38.18,240.29,38.18Z"/><path class="cls-19" d="M270.23,89c-2.26,5.29-5.12,11.23-5.12,11.23s0,6.56,3.23,8a77.73,77.73,0,0,0,11.19-13.94"/><path class="cls-20" d="M273.77,68.81V81.34s2.64-1.54,4.24-.7"/><ellipse class="cls-14" cx="254.51" cy="46.74" rx="4.65" ry="8.86" transform="translate(159.01 287.24) rotate(-78.75)"/><path class="cls-21" d="M248.15,72.48c-7.79-12.44-16.62-38.73-2.1-37.56,6.91.56,13.33,1.88,19,4.79,8.69,4.42,8.4,15.65-1.08,34.84,3.23-18.27-1.57-31.07-8.82-32.69C246.21,39.85,244.68,50,248.15,72.48Z"/><polygon class="cls-14" points="258.54 46.6 259.49 38.29 249.71 36.06 248.67 45.52 258.54 46.6"/><path class="cls-22" d="M259.36,39.75l-9.79-2.36s.34,5.11,4.48,6S259.36,39.75,259.36,39.75Z"/><path class="cls-16" d="M267.48,31.69c.95-6.51-3.23-12.51-9.34-13.4S246.31,22,245.36,28.47"/><path class="cls-23" d="M247.89,25.38c-1.14-.16-2.28,1.22-2.55,3.08s.43,3.52,1.56,3.68l2.06.3,1-6.76Z"/><path class="cls-23" d="M264.93,34.77c1.14.17,2.28-1.21,2.55-3.08s-.43-3.51-1.56-3.68l-2.06-.3-1,6.76Z"/><path class="cls-14" d="M263.9,27.47a7,7,0,0,0-13.92-2l-1.44,9.85c-.35,2.41,2.48,4.81,6.33,5.37s7.24-.93,7.59-3.34Z"/><path d="M258,19.5a7,7,0,0,0-8,5.94l-.27,1.8c.28-1.89,3.62-3,7.47-2.42s6.73,2.56,6.46,4.45l.26-1.8A7,7,0,0,0,258,19.5Z"/><path class="cls-20" d="M253.33,34.35a2.63,2.63,0,0,0,3.22,1.85"/><path class="cls-19" d="M229,77.67a51.79,51.79,0,0,0,12.2-4.15c2.22-1.22,5.31-4.26,5.31-7.43s-3.61-6.52-6.12-6.05"/><path class="cls-20" d="M226.88,64.55a24.3,24.3,0,0,1,6.67-2.9"/><rect class="cls-13" x="240.67" y="48.92" width="16.85" height="9.91" rx="2.14" transform="translate(302.97 -195.22) rotate(90)"/><circle cx="247.1" cy="48.41" r="1.38"/><path class="cls-14" d="M241,53.93l3.55-1.51h4.28c1.06,0,2.11,1.39,1.47,3.51-.76,2.49-2.85,4.77-4,4.77H244.5c0,1.44-.86,4.07-2.43,4.07s-2.67-1.14-3-3.53a23.68,23.68,0,0,1,.13-5A2.87,2.87,0,0,1,241,53.93Z"/><path class="cls-24" d="M49.44,202l6.9-12.27-3.16-4.62s-12.76,10.14-12.76,18.1c0,4.67,5.08,7.17,8.09,7.17a14.65,14.65,0,0,0,5.58-1.21Z"/><path class="cls-13" d="M75.85,181.59c-8.73,0-26.41,20.42-26.41,20.42l4.65,7.17S67,203.6,73.74,199.26s7.44-8.79,7.44-10.86S80.13,181.59,75.85,181.59Z"/><line class="cls-20" x1="49.44" y1="202.01" x2="56.34" y2="190.24"/><polygon class="cls-25" points="11.78 211.09 47.69 212.49 47.69 214.54 11.78 214.54 11.78 211.09"/><path class="cls-18" d="M185.6,206.73c.15-9.33-3.51-35.24-3.51-35.24h-7.92l-2.75,32.23Z"/><path class="cls-15" d="M182.09,171.49l-.09-7.2,5.86-13.08a3.89,3.89,0,0,0-.9-4.44l-1.38-1.3-16.72,18.58a1.07,1.07,0,0,0-.15,1.26c1.14,2,3.8,3.81,5.47,3.85v2.33Z"/><circle class="cls-15" cx="56.71" cy="179.56" r="9.24"/><path class="cls-26" d="M57,168.64c-6.89,2.9-6.77,8.23-4.62,13.34L51.1,185a1.28,1.28,0,0,0,1.07,1.76l1.62.14a10.79,10.79,0,0,0,1.49,3.15c1.17,1.6,3.19,1.63,5.58.62,3.44-1.45,4.86-4.45,4.56-8-.37-4.31,3.33-6.38,1.52-10.66S61.25,166.84,57,168.64Z"/><path class="cls-13" d="M118,195.54c-21.31,0-25.16-14.65-42.81-14.65-7,0-10.06,5.16-10.06,12.76s8.5,17.9,8.5,17.9l-7-1.41-1.52,7.21s10.3,4.38,16.62,4.38c6.05,0,8.76-3.45,8.76-7.19H118Z"/><path class="cls-15" d="M49.73,170.47c0-3.52,2.7-7.16,10.27-7.16,15,0,29.63,8.62,29.63,19.05,0,3.26-3.79,5.94-7.84,3.68-3.13-1.75-12.42-3.68-12.42,2.49,0,4-2.09,6.16-5.22,6.16-3.42,0-5-2.86-5-6.39,0-2.91,3.14-4.24,3.14-6.93C62.28,176.1,49.73,177.48,49.73,170.47Z"/><path class="cls-18" d="M118,195.54v19h60.63c7.21,0,10-3.93,10-8.27s-2.73-6.93-7.11-10.73C175.09,190,155.1,176.1,155.1,176.1l-6.69,6.26s11.5,12.17,16.33,16.34c-9-5.94-19.52-10.52-32.58-10.52C123.28,188.18,118,195.54,118,195.54Z"/><path class="cls-15" d="M155.1,176.1l-5.79-5.68-5.24-15.25a4.39,4.39,0,0,0-4.15-3h-2.13l.54,28.12a1.23,1.23,0,0,0,.85,1.16c2.46.75,6,.2,7.45-1.05l1.78,1.92Z"/><line class="cls-27" x1="11.78" y1="211.09" x2="2" y2="182.98"/><line class="cls-28" x1="14.31" y1="213.28" x2="18.93" y2="213.28"/><line class="cls-28" x1="22.74" y1="213.28" x2="25.05" y2="213.28"/><line class="cls-28" x1="29.16" y1="213.28" x2="31.47" y2="213.28"/><path class="cls-20" d="M90.31,210.39a94.46,94.46,0,0,0-6.48-12.63"/><path class="cls-26" d="M66.61,210.14l-13-3.56-5.94-1.32c-5.17-.77-9.37,1.64-9.36,6.68l11.82.57,14.94,4.84Z"/><line class="cls-20" x1="173.81" y1="189.54" x2="183.93" y2="197.76"/><line class="cls-20" x1="66.61" y1="210.14" x2="73.59" y2="211.55"/><path class="cls-29" d="M39,110.75v31a2.5,2.5,0,0,0,2.5,2.5H52.23L57,149l4.79-4.78H72.51a2.5,2.5,0,0,0,2.5-2.5v-31a2.5,2.5,0,0,0-2.5-2.5h-31A2.5,2.5,0,0,0,39,110.75Z"/><rect class="cls-18" x="47.3" y="123.74" width="5.06" height="10.78" rx="2.14"/><path class="cls-30" d="M60.6,124.4l.76-2.42a5.8,5.8,0,0,0,.09-3.2l-.06-.22a2.36,2.36,0,0,0-2.28-1.76h-.33a.43.43,0,0,0-.44.44v3.22l-6,5.65v6.53l1.52.56a9,9,0,0,0,3.13.56h5.58a3.11,3.11,0,0,0,3-2.4l1-4.37a2.1,2.1,0,0,0-2-2.59Z"/><path class="cls-29" d="M191.94,36.49h31a2.5,2.5,0,0,0,2.5-2.5V23.28l4.78-4.79-4.78-4.78V3a2.5,2.5,0,0,0-2.5-2.5h-31a2.5,2.5,0,0,0-2.5,2.5V34A2.5,2.5,0,0,0,191.94,36.49Z"/><path class="cls-30" d="M216,16.17a4.67,4.67,0,0,0-8.5-2.68A4.67,4.67,0,1,0,200,19.08h0l6.27,7.83h0a1.53,1.53,0,0,0,1.2.58,1.56,1.56,0,0,0,1.2-.58h0L215,19.08h0A4.65,4.65,0,0,0,216,16.17Z"/></g></g></g></svg>