<svg xmlns="http://www.w3.org/2000/svg" xmlns:xlink="http://www.w3.org/1999/xlink" viewBox="0 0 283.04 224.26"><defs><style>.cls-1,.cls-12,.cls-6{fill:#c2d1f2;}.cls-10,.cls-2,.cls-21,.cls-22,.cls-23,.cls-31,.cls-37,.cls-38,.cls-8{fill:none;}.cls-3{isolation:isolate;}.cls-4{fill:#f5f6f7;}.cls-5{clip-path:url(#clip-path);}.cls-11,.cls-6,.cls-8{stroke:#dae3f7;}.cls-10,.cls-11,.cls-12,.cls-15,.cls-16,.cls-17,.cls-21,.cls-22,.cls-23,.cls-24,.cls-27,.cls-30,.cls-31,.cls-33,.cls-36,.cls-37,.cls-38,.cls-6,.cls-7,.cls-8{stroke-linecap:round;}.cls-10,.cls-11,.cls-12,.cls-15,.cls-16,.cls-17,.cls-22,.cls-23,.cls-24,.cls-27,.cls-30,.cls-33,.cls-36,.cls-37,.cls-38,.cls-6,.cls-7,.cls-8{stroke-linejoin:round;}.cls-11,.cls-7,.cls-9{fill:#dae3f7;}.cls-10,.cls-12,.cls-7{stroke:#c2d1f2;}.cls-13{clip-path:url(#clip-path-2);}.cls-14,.cls-26,.cls-27,.cls-28,.cls-35{fill:#0039b2;}.cls-14{opacity:0.2;}.cls-14,.cls-25,.cls-26,.cls-28,.cls-29{mix-blend-mode:multiply;}.cls-15,.cls-34{fill:#d0deff;}.cls-15{stroke:#d0deff;}.cls-16,.cls-20{fill:#ffc837;}.cls-16,.cls-22{stroke:#ffc837;}.cls-17,.cls-21,.cls-36,.cls-37{stroke:#000;}.cls-18{fill:#c16c4f;}.cls-19,.cls-33{fill:#1258ff;}.cls-21,.cls-31{stroke-miterlimit:10;}.cls-23,.cls-24{stroke:#ff784b;}.cls-24{fill:#ff784b;}.cls-25{fill:#3360c2;opacity:0.4;}.cls-26,.cls-35{opacity:0.3;}.cls-27{stroke:#0039b2;}.cls-28{opacity:0.25;}.cls-29{fill:#e7edfa;}.cls-30{fill:#719bff;stroke:#719bff;}.cls-31,.cls-33,.cls-38{stroke:#1258ff;}.cls-32,.cls-36{fill:#ffc6b2;}</style><clipPath id="clip-path"><rect class="cls-1" x="44.61" y="44.91" width="179.09" height="100.5"/></clipPath><clipPath id="clip-path-2"><rect class="cls-2" x="44.61" y="19.05" width="179.09" height="163.52" rx="5"/></clipPath></defs><title>Asset 7</title><g class="cls-3"><g id="Layer_2" data-name="Layer 2"><g id="Colour_2" data-name="Colour 2"><rect class="cls-4" x="44.61" y="19.05" width="179.09" height="163.52" rx="5"/><rect class="cls-1" x="44.61" y="44.91" width="179.09" height="100.5"/><g class="cls-5"><circle class="cls-6" cx="69.61" cy="56.97" r="6.92"/><circle class="cls-6" cx="97.7" cy="56.97" r="6.92"/><circle class="cls-6" cx="153.88" cy="56.97" r="6.92"/><circle class="cls-6" cx="181.97" cy="56.97" r="6.92"/><circle class="cls-6" cx="210.06" cy="56.97" r="6.92"/><circle class="cls-6" cx="59.61" cy="82.64" r="6.92"/><circle class="cls-6" cx="87.7" cy="82.64" r="6.92"/><circle class="cls-6" cx="171.97" cy="82.64" r="6.92"/><circle class="cls-6" cx="200.06" cy="82.64" r="6.92"/><circle class="cls-6" cx="69.61" cy="108.32" r="6.92"/><circle class="cls-6" cx="125.79" cy="108.32" r="6.92"/><circle class="cls-6" cx="210.06" cy="108.32" r="6.92"/><circle class="cls-6" cx="59.61" cy="134" r="6.92"/><circle class="cls-6" cx="87.7" cy="134" r="6.92"/><circle class="cls-6" cx="115.79" cy="134" r="6.92"/><circle class="cls-6" cx="143.88" cy="134" r="6.92"/><circle class="cls-6" cx="171.97" cy="134" r="6.92"/><circle class="cls-6" cx="200.06" cy="134" r="6.92"/><path class="cls-7" d="M151.29,99a11.11,11.11,0,0,0-11.1-11.44h-27.8A17.35,17.35,0,0,0,95.84,99.7l-5.27,16.82a8.4,8.4,0,0,0,8,10.92h3.8v19.21h19.77V127.44h28.27Z"/><path class="cls-7" d="M118.66,105a6.45,6.45,0,0,1,12.9,0Z"/><path class="cls-7" d="M163.28,105a6.45,6.45,0,1,1,12.89,0Z"/><polygon class="cls-6" points="122.16 146.65 110.87 146.65 110.87 105 126.16 105 126.16 127.44 122.16 146.65"/><rect class="cls-6" x="126.16" y="105" width="58.26" height="22.44"/><polygon class="cls-6" points="180.41 146.65 122.16 146.65 126.16 127.44 184.41 127.44 180.41 146.65"/><path class="cls-8" d="M157.66,105V89.68A7.46,7.46,0,0,0,154,83.27l-8.4-5"/><rect class="cls-9" x="143.01" y="74.6" width="2.91" height="6.01" rx="1.45" transform="translate(284.91 -7.05) rotate(120.68)"/><path class="cls-7" d="M137.14,73.44l-2.08-2.38V68.64a7.22,7.22,0,0,0-7.66-7.2,7.4,7.4,0,0,0-6.77,7.48v18.9A5.19,5.19,0,0,0,125.82,93h0a5.19,5.19,0,0,0,5.2-5.19V82.56a4,4,0,0,0,4-4v-3h1.13A1.26,1.26,0,0,0,137.14,73.44Z"/><path class="cls-7" d="M127,57.11c5.74,0,9.26,2.7,9.26,6.32,0,4.32-6.14,5.34-12.05,5.34,0,4.22-1.27,10.9-3.53,10.9-3.83-.84-6.62-6.42-6.62-10C114,60.74,119.93,57.11,127,57.11Z"/><line class="cls-10" x1="131.02" y1="82.56" x2="126.91" y2="82.56"/><polygon class="cls-11" points="155.28 110.07 156.67 114.32 161.13 114.32 157.52 116.94 158.9 121.19 155.28 118.56 151.67 121.19 153.05 116.94 149.44 114.32 153.91 114.32 155.28 110.07"/></g><circle class="cls-12" cx="60.76" cy="32.2" r="6.15"/><line class="cls-10" x1="76.16" y1="32.2" x2="134.16" y2="32.2"/><line class="cls-10" x1="54.95" y1="157.07" x2="174.41" y2="157.07"/><line class="cls-10" x1="54.95" y1="167.33" x2="148.34" y2="167.33"/><g class="cls-13"><path class="cls-14" d="M77.68,84.54c0-6-2.71-9.81-8.37-12A17.28,17.28,0,0,0,62,49.3a8.69,8.69,0,0,0-16.18,0,17.31,17.31,0,0,0-9.25,15.33c0,.33,0,.67,0,1-1.75-.71-3.42-1.41-4.91-2L22.52,59.4l4.6-18.78s4.87-.57,5.49-4.44a5,5,0,0,0-.36-2.82,3.32,3.32,0,0,0,2.81-4.07l-1.38-5.66a3.33,3.33,0,0,0-3.24-2.55h-8a3.33,3.33,0,0,0-3.24,2.55l-1.38,5.66a3.33,3.33,0,0,0,2.47,4,2.23,2.23,0,0,0,.58,1l-9,30A81.86,81.86,0,0,0,26.9,76.49l-.46,1.23,5.94,3.41a140,140,0,0,0-5.85,20.14l8.92-18.38,1,.6c.12,5.18,5.26,18.74,5.26,18.74h0A16.5,16.5,0,0,0,39.53,104l-13-2.77-6.6,31.07L33,135.11c.25,2.27.53,4.46.82,6.48,0,.11,0,.22,0,.32.15,1,.29,2,.43,2.91l0,.17c.07.45.14.9.21,1.32h0c.63,3.89,1.14,6.43,1.14,6.43h1.08l0,.13a73.07,73.07,0,0,0,3.67,12.22s-2.54,2.54-4.54,9.07c-2.5,8.18,0,40.48,0,40.48v4.85H51.05a4.85,4.85,0,0,0-4.85-4.85h.23c0-3-3.08-6.93-3.08-6.93l9.91-41.89v53.67H68.4a4.85,4.85,0,0,0-4.85-4.85H63.3c0-2.26-2.9-6.93-2.9-6.93s7.8-21,7.8-31.92a22.32,22.32,0,0,0-3.09-11.24,50.2,50.2,0,0,0,3.3-8.82h0v0c.26-.92.5-1.88.72-2.9v-.06h1.7s.51-2.54,1.14-6.43h0c.07-.42.14-.87.21-1.32l0-.17c.07-.47.14-1,.22-1.46h0c.07-.46.14-.95.21-1.44,0-.1,0-.21,0-.32a149.52,149.52,0,0,0,1.64-19.83,24.58,24.58,0,0,0-2.77-11.6,5.9,5.9,0,0,0,4.31-.18c2.87-3.82,1.8-17.09,1.8-17.09Z"/><path class="cls-14" d="M277.77,180.38l-4.61-39a13.37,13.37,0,0,0-13.28-11.8H226.93c-1.93-2.31-4.48-3.36-7.93-3.36h-9.88l-.25-.61-1.67-5.29-.48-1.52h39.35l12.82,10.78V124a7.81,7.81,0,0,0-7.81-7.81h-2.21V115a1.43,1.43,0,0,0-1.43-1.43H205.3l-3.14-9.94a5.4,5.4,0,0,0-6.78-3.53l-1.66.52-9.24,2.91a5.2,5.2,0,0,0,5,3.64,7.13,7.13,0,0,0,0,4.36l1,3.13-3.29,1c.2.63,5.23,5.09,5.23,5.09l0,.09a4,4,0,0,0,5,2.61l.87,2.77H194.8c-3.44,0-6,1-7.93,3.36h-4.6A13.38,13.38,0,0,0,169,141.38l-4.61,39a2.26,2.26,0,0,0-.13.74v12.69a7.1,7.1,0,0,0,7.1,7.1h2.2v11h.31v5.91h0a5.92,5.92,0,0,0-5.92,5.93v.54h18.89v-4h35.82v4h18.89v-.54a5.83,5.83,0,0,0-1.09-3.42h27.9V200.91h2.52a7.1,7.1,0,0,0,7.1-7.1V181.12A2.26,2.26,0,0,0,277.77,180.38Z"/></g><rect class="cls-15" x="0.5" y="1.5" width="74.42" height="5.24"/><rect class="cls-15" x="78.91" y="1.5" width="5.87" height="5.24"/><rect class="cls-15" x="88.56" y="1.5" width="2.93" height="5.24"/><rect class="cls-16" x="19.71" y="98.73" width="14.28" height="31.75" transform="translate(24.39 -3.08) rotate(11.99)"/><circle class="cls-17" cx="50.54" cy="60.95" r="17.34"/><path class="cls-18" d="M49.89,149.06V211h10c0-2.27-2.9-6.93-2.9-6.93s7.8-21,7.8-31.93a22.37,22.37,0,0,0-3.08-11.24,51.39,51.39,0,0,0,5.07-21H49.89Z"/><path class="cls-18" d="M49.89,139.83v22.31L40,204S43.07,208,43.07,211H32.55s-2.5-32.31,0-40.49c2-6.53,4.53-9.07,4.53-9.07s-4.72-11.24-4.72-21.58Z"/><path d="M61.4,98.55h-23s-9.58,6-9.58,19.54,3.49,31,3.49,31H67.49s3.49-17.45,3.49-31S61.4,98.55,61.4,98.55Z"/><path class="cls-18" d="M28.35,60l-9.2-4.24,4.6-18.78s4.87-.57,5.49-4.43c.47-2.92-1.45-5.49-5-6.31s-5.05-1.05-5.05-1.05L8.47,60.63S19.32,72.19,31,76.5Z"/><path class="cls-19" d="M49.89,66.67c-6.16,0-15.38-4.29-21.54-6.71L23.07,74l10,5.77c.13,5.18,5.27,18.74,5.27,18.74h23s1.71-4.52,3.19-9.33h9.73V80.86C74.32,70.81,66.62,66.67,49.89,66.67Z"/><ellipse class="cls-18" cx="50.54" cy="69.34" rx="8.7" ry="4.19"/><polyline class="cls-18" points="55.27 67.92 55.27 58.46 45.81 58.46 45.81 67.92"/><rect class="cls-20" x="42.12" y="75.62" width="16.85" height="9.91" rx="2.14" transform="translate(131.12 30.03) rotate(90)"/><circle cx="48.55" cy="75.12" r="1.38"/><path class="cls-18" d="M74.32,89.22s1.07,13.26-1.81,17.09C63.76,110.23,53.6,89.73,53.6,89.73c-6.43,0-10.37-2.84-10.37-6.1,0-1.68,1.08-3,3.63-3h9.88l7,10V89.22Z"/><line class="cls-21" x1="63.7" y1="90.59" x2="65.97" y2="93.47"/><path class="cls-22" d="M23.16,97.6c2.68-12.95,10.19-36.35,16.35-33.67"/><path class="cls-20" d="M49.89,211H60.19A4.85,4.85,0,0,1,65,215.81v0a0,0,0,0,1,0,0H49.89a0,0,0,0,1,0,0V211A0,0,0,0,1,49.89,211Z"/><path class="cls-20" d="M32.55,211H42.84a4.85,4.85,0,0,1,4.85,4.85v0a0,0,0,0,1,0,0H32.55a0,0,0,0,1,0,0V211A0,0,0,0,1,32.55,211Z"/><path class="cls-19" d="M31.16,142.64H68.62c.3-1.83.62-4,.93-6.26H30.24C30.55,138.68,30.87,140.81,31.16,142.64Z"/><path class="cls-23" d="M28.46,29.74H17.68a3.33,3.33,0,0,1-3.23-4.13L15.82,20a3.34,3.34,0,0,1,3.24-2.55h8A3.34,3.34,0,0,1,30.32,20l1.37,5.66A3.34,3.34,0,0,1,28.46,29.74Z"/><line class="cls-23" x1="23.07" y1="17.4" x2="23.07" y2="7.74"/><rect class="cls-24" x="21.43" y="0.5" width="3.29" height="7.24"/><path class="cls-25" d="M50.54,62.89H45.81s1.19,4,4.73,4,4.73-4,4.73-4Z"/><path class="cls-18" d="M50.54,45.61A6.57,6.57,0,0,0,44,52.18v7.39c0,2.92,3,5.29,6.57,5.29s6.57-2.37,6.57-5.29V52.18A6.57,6.57,0,0,0,50.54,45.61Z"/><path class="cls-17" d="M59.24,48.8a8.7,8.7,0,0,0-17.4,0c0,3,3.9,6,8.7,6S59.24,52.12,59.24,48.8Z"/><polygon class="cls-26" points="65.05 152.06 33.66 150.34 33.38 149.06 65.79 149.06 65.05 152.06"/><path class="cls-25" d="M19.52,32.23l4.94,1.24a2.24,2.24,0,0,0,2.72-1.63L28,28.67a1.88,1.88,0,0,0,.05-.33A7.1,7.1,0,0,0,24.2,26.2c-3.59-.81-5.05-1.05-5.05-1.05l-1.22,4.07-.08.53A2.24,2.24,0,0,0,19.52,32.23Z"/><path class="cls-18" d="M23.47,32.47l-4.95-1.24a2.24,2.24,0,0,1-1.67-2.48l.47-3.26a2.23,2.23,0,0,1,2.76-1.85L25.35,25A2.23,2.23,0,0,1,27,27.67l-.79,3.17A2.24,2.24,0,0,1,23.47,32.47Z"/><path class="cls-10" d="M263.53,123.9v-5.59a7.82,7.82,0,0,0-7.81-7.82h-8.16"/><rect class="cls-24" x="197.91" y="107.86" width="55.6" height="5.27" rx="1.43"/><path class="cls-8" d="M201.24,110.49h-4.66a7.82,7.82,0,0,0-7.81,7.82v5.59"/><rect class="cls-27" x="178.49" y="195.23" width="94.44" height="19.39"/><polygon class="cls-28" points="272.93 206.2 178.49 202.2 178.49 192.5 272.93 192.5 272.93 206.2"/><path class="cls-15" d="M282.54,175.84H168.88l4.74-40.13A13.37,13.37,0,0,1,186.9,123.9h77.61a13.38,13.38,0,0,1,13.29,11.81Z"/><path class="cls-29" d="M214.31,131.94H188.18a5.66,5.66,0,0,0-5.75,4.88l-3.94,36.32H224l-3.94-36.32A5.66,5.66,0,0,0,214.31,131.94Z"/><path class="cls-29" d="M263.23,131.94H237.11a5.67,5.67,0,0,0-5.76,4.88l-3.93,36.32h45.51L269,136.82A5.67,5.67,0,0,0,263.23,131.94Z"/><path class="cls-30" d="M171.18,173.14H280.23a2.31,2.31,0,0,1,2.31,2.31v12.69a7.09,7.09,0,0,1-7.09,7.09H176a7.09,7.09,0,0,1-7.09-7.09V175.45a2.31,2.31,0,0,1,2.31-2.31Z"/><path class="cls-17" d="M188.66,129.39c2.06-6.19,5.29-8.85,10.77-8.85h24.21c5.48,0,8.71,2.66,10.77,8.85s6,20.72,6,24.12c0,4.73-2.83,7.61-5.76,7.61a12.93,12.93,0,0,1-7.18-2.34v4.46H195.66V158a11.94,11.94,0,0,1-7.09,2.36c-2.93,0-5.86-2.07-5.86-6.8C182.71,150.11,186.6,135.58,188.66,129.39Z"/><path class="cls-31" d="M231.14,146.69H217.05a3.34,3.34,0,0,0-1.82,3.06c0,2.26.59,3.43,2.63,4.41l9.56,4.62"/><path class="cls-19" d="M193.83,154.8h19.94a1.46,1.46,0,0,0,1.4-1.86l-4-13.76a2.28,2.28,0,0,0-2.2-1.66H189a1.45,1.45,0,0,0-1.4,1.85l4,13.77A2.29,2.29,0,0,0,193.83,154.8Z"/><path class="cls-32" d="M217.18,146.69h-9.13a1.76,1.76,0,0,0-1.77,1.76v1.24a5.67,5.67,0,0,0,5.68,5.67h5.22a2.57,2.57,0,0,0,2.57-2.58v-3.52A2.57,2.57,0,0,0,217.18,146.69Z"/><rect class="cls-33" x="193.66" y="163.24" width="31.76" height="9.9" transform="translate(419.07 336.38) rotate(-180)"/><path class="cls-33" d="M193.66,173.14l3.18,33.06H178.17V170.65c0-5,1.24-12.1,7.42-12.1s16.51,4.69,16.51,4.69Z"/><path class="cls-33" d="M225.42,173.14l-3.19,33.06H240.9V170.65c0-5-1.24-12.1-7.41-12.1S217,163.24,217,163.24Z"/><path class="cls-32" d="M194.7,147.55l1.13,1.14a2.53,2.53,0,0,1,.25,3.31l-2.62,3.51a2.6,2.6,0,0,1-.3.36l-1.53,1.53a4.35,4.35,0,0,1-6.14,0h0a4.34,4.34,0,0,1,0-6.13l.93-.93a7.84,7.84,0,0,1,1.73-1.3l3.53-1.92A2.53,2.53,0,0,1,194.7,147.55Z"/><rect class="cls-34" x="181.82" y="206.2" width="9.58" height="8.29" transform="translate(373.22 420.69) rotate(-180)"/><rect class="cls-34" x="227.23" y="206.2" width="9.58" height="8.29"/><polygon class="cls-15" points="213.5 119.93 217.42 129.45 206.75 127.45 213.5 119.93"/><polygon class="cls-15" points="206.75 127.45 203.69 123.03 199 129.45 206.75 127.45"/><path class="cls-32" d="M199.15,96.74a7.34,7.34,0,0,1,8.63,5.05l1.77,5.61,2.29,7.24,1.66,5.29-6.75,7.52L203.69,123,202,117.78a4,4,0,0,1-5-2.62l-2.95-9.34A7.14,7.14,0,0,1,199.15,96.74Z"/><path class="cls-35" d="M202,117.78l3.89-1.23s.4,2.33-3,4Z"/><path class="cls-36" d="M202.74,106.48a2.53,2.53,0,1,1-4.83,1.53Z"/><path class="cls-37" d="M196.59,108.46a2.53,2.53,0,0,1-4.83,1.53Z"/><line class="cls-37" x1="197.91" y1="108.01" x2="195.04" y2="108.91"/><line class="cls-37" x1="202.74" y1="106.48" x2="208.67" y2="104.61"/><path class="cls-17" d="M198.35,94.91l-9.23,2.92h0a5.24,5.24,0,0,0,6.57,3.42l7.81-2.47,3.7,8A2.3,2.3,0,0,0,210,108h0L206.8,97.92A5.41,5.41,0,0,0,200,94.39Z"/><polyline class="cls-37" points="240.9 206.2 222.23 206.2 225.68 170.35"/><polyline class="cls-37" points="193.39 170.35 196.84 206.2 178.17 206.2"/><path class="cls-17" d="M237.79,212.11h2.4a5.92,5.92,0,0,1,5.92,5.92v.54a0,0,0,0,1,0,0H231.87a0,0,0,0,1,0,0V218A5.92,5.92,0,0,1,237.79,212.11Z"/><path class="cls-17" d="M237.79,218.58H227.23v-7.46l5.81-1.48a4.45,4.45,0,0,1,3.77.75l1,.73Z"/><path class="cls-17" d="M172.51,212.11h14.25a0,0,0,0,1,0,0v.54a5.92,5.92,0,0,1-5.92,5.92h-2.4a5.92,5.92,0,0,1-5.92-5.92v-.54A0,0,0,0,1,172.51,212.11Z" transform="translate(359.27 430.7) rotate(180)"/><path class="cls-17" d="M180.84,218.58H191.4v-7.46l-5.82-1.48a4.44,4.44,0,0,0-3.76.75l-1,.73Z"/><path class="cls-38" d="M40.66,107.86c0,8.07,5,20.81,15.59,24.08"/></g></g></g></svg>