<?xml version="1.0" encoding="UTF-8"?>
<svg width="25px" height="15px" viewBox="0 0 25 15" version="1.1" xmlns="http://www.w3.org/2000/svg" xmlns:xlink="http://www.w3.org/1999/xlink">
    <!-- Generator: Sketch 59.1 (86144) - https://sketch.com -->
    <title>Group 2</title>
    <desc>Created with Sketch.</desc>
    <g id="Symbols" stroke="none" stroke-width="1" fill="none" fill-rule="evenodd">
        <g id="01-Navigation/Footer/Default" transform="translate(-540.000000, -245.000000)">
            <g id="Footer">
                <g id="Column-#2" transform="translate(540.000000, 132.000000)">
                    <g id="Group-2" transform="translate(0.000000, 113.000000)">
                        <path d="M11.7181533,14.702342 L24.7024223,1.71806517 C24.996155,1.42433231 25.0796453,1.00509622 24.9206033,0.621004607 C24.7615613,0.237894181 24.4065488,0 23.990881,0 L11.5064838,0 C10.6769321,0 10,0.676843286 10,1.50675234 L10,13.9903543 C10,14.4060224 10.237448,14.7614811 10.6212718,14.9205232 C11.0053632,15.0795653 11.424599,14.9964317 11.7181533,14.702342" id="Fill-10" fill="#FFE4DA"></path>
                        <path d="M1.71833965,14.7019549 L14.7024009,1.71855511 C14.9962241,1.4244732 15.0796257,1.00533735 14.9205829,0.621523435 C14.7615402,0.237441932 14.4062585,0 13.9908563,0 L1.50649078,0 C0.676845995,0 0,0.676825463 0,1.50671267 L0,13.9905211 C0,14.4061782 0.237627535,14.7616276 0.621185492,14.9206655 C1.00527865,15.0797034 1.42451641,14.9960368 1.71833965,14.7019549" id="Fill-11" fill="#FF7844"></path>
                    </g>
                </g>
            </g>
        </g>
    </g>
</svg>