<?xml version="1.0" encoding="UTF-8"?>
<svg xmlns="http://www.w3.org/2000/svg" viewBox="0 0 48 29" width="48" height="29">
  <g fill="none" fill-rule="evenodd">
    <path fill="#FFE4DA" d="M22.3217631 28.4245279l25.10292-25.10293523c.5678832-.56788353.7292979-1.37840664.4218166-2.12098376C47.5390185.45992875 46.8526611 0 46.0490365 0H21.9125354C20.3087353 0 19 1.30856369 19 2.91305453V27.0480183c0 .803625.4590662 1.4908451 1.2011255 1.7983266.7425767.3074814 1.5530993.1467564 2.1206376-.421817"/>
    <path fill="#FF784B" d="M3.32212332 28.4237795L28.4246417 3.32253989c.5680583-.56855837.7293013-1.37888768.4218187-2.12092792C28.5389777.4590544 27.8520997 0 27.0489888 0H2.91254884C1.30856892 0 0 1.30852923 0 2.91297782V27.0483407c0 .8036039.45941323 1.4908059 1.20095862 1.7982793.7425801.3074733 1.55310645.1457178 2.1211647-.4228405"/>
  </g>
</svg>